<svg width="43" height="42" viewBox="0 0 43 42" fill="none" xmlns="http://www.w3.org/2000/svg">
<path d="M22.9222 2.4983L22.9219 2.49865L22.0369 3.40488L21.5003 3.95439L20.9637 3.40488L20.0788 2.49865L20.0779 2.49776C18.0657 0.430266 14.8452 0.138642 12.7183 1.93949L22.9222 2.4983ZM22.9222 2.4983C24.9394 0.429833 28.1558 0.138891 30.2824 1.93949L22.9222 2.4983ZM30.6706 10.1252L30.6708 10.125C32.9004 7.8384 32.7675 4.04754 30.2825 1.93962L30.6706 10.1252ZM30.6706 10.1252L21.9786 19.0445C21.9785 19.0445 21.9785 19.0446 21.9784 19.0446C21.7113 19.3185 21.2849 19.3185 21.0178 19.0446C21.0177 19.0446 21.0177 19.0445 21.0176 19.0445L12.3259 10.1255M30.6706 10.1252L12.3259 10.1255M12.3259 10.1255L12.3255 10.1252C10.1002 7.83848 10.2332 4.0475 12.7181 1.93962L12.3259 10.1255Z" stroke="#8E8E8E" stroke-width="1.5"/>
<path d="M4.298 39.084C3.57 39.084 2.87 38.9673 2.198 38.734C1.53533 38.4913 1.022 38.1833 0.658 37.81L1.064 37.012C1.40933 37.348 1.87133 37.6327 2.45 37.866C3.038 38.09 3.654 38.202 4.298 38.202C4.914 38.202 5.41333 38.1273 5.796 37.978C6.188 37.8193 6.47267 37.6093 6.65 37.348C6.83667 37.0867 6.93 36.7973 6.93 36.48C6.93 36.0973 6.818 35.7893 6.594 35.556C6.37933 35.3227 6.09467 35.1407 5.74 35.01C5.38533 34.87 4.99333 34.7487 4.564 34.646C4.13467 34.5433 3.70533 34.436 3.276 34.324C2.84667 34.2027 2.45 34.044 2.086 33.848C1.73133 33.652 1.442 33.3953 1.218 33.078C1.00333 32.7513 0.896 32.3267 0.896 31.804C0.896 31.3187 1.022 30.8753 1.274 30.474C1.53533 30.0633 1.932 29.7367 2.464 29.494C2.996 29.242 3.67733 29.116 4.508 29.116C5.05867 29.116 5.60467 29.1953 6.146 29.354C6.68733 29.5033 7.154 29.7133 7.546 29.984L7.196 30.81C6.776 30.53 6.328 30.3247 5.852 30.194C5.38533 30.0633 4.93267 29.998 4.494 29.998C3.906 29.998 3.42067 30.0773 3.038 30.236C2.65533 30.3947 2.37067 30.6093 2.184 30.88C2.00667 31.1413 1.918 31.44 1.918 31.776C1.918 32.1587 2.02533 32.4667 2.24 32.7C2.464 32.9333 2.75333 33.1153 3.108 33.246C3.472 33.3767 3.86867 33.4933 4.298 33.596C4.72733 33.6987 5.152 33.8107 5.572 33.932C6.00133 34.0533 6.39333 34.212 6.748 34.408C7.112 34.5947 7.40133 34.8467 7.616 35.164C7.84 35.4813 7.952 35.8967 7.952 36.41C7.952 36.886 7.82133 37.3293 7.56 37.74C7.29867 38.1413 6.89733 38.468 6.356 38.72C5.824 38.9627 5.138 39.084 4.298 39.084ZM14.6053 39V37.376L14.5633 37.11V34.394C14.5633 33.7687 14.3859 33.288 14.0313 32.952C13.6859 32.616 13.1679 32.448 12.4773 32.448C12.0013 32.448 11.5486 32.5273 11.1193 32.686C10.6899 32.8447 10.3259 33.0547 10.0273 33.316L9.57928 32.574C9.95261 32.2567 10.4006 32.014 10.9233 31.846C11.4459 31.6687 11.9966 31.58 12.5753 31.58C13.5273 31.58 14.2599 31.818 14.7733 32.294C15.2959 32.7607 15.5573 33.4747 15.5573 34.436V39H14.6053ZM12.0713 39.07C11.5206 39.07 11.0399 38.9813 10.6293 38.804C10.2279 38.6173 9.91995 38.3653 9.70528 38.048C9.49061 37.7213 9.38328 37.348 9.38328 36.928C9.38328 36.5453 9.47195 36.2 9.64928 35.892C9.83595 35.5747 10.1346 35.3227 10.5453 35.136C10.9653 34.94 11.5253 34.842 12.2253 34.842H14.7593V35.584H12.2533C11.5439 35.584 11.0493 35.71 10.7693 35.962C10.4986 36.214 10.3633 36.5267 10.3633 36.9C10.3633 37.32 10.5266 37.656 10.8533 37.908C11.1799 38.16 11.6373 38.286 12.2253 38.286C12.7853 38.286 13.2659 38.16 13.6673 37.908C14.0779 37.6467 14.3766 37.2733 14.5633 36.788L14.7873 37.474C14.6006 37.9593 14.2739 38.3467 13.8073 38.636C13.3499 38.9253 12.7713 39.07 12.0713 39.07ZM20.0104 39L16.7484 31.65H17.7844L20.7804 38.468H20.2904L23.3284 31.65H24.3084L21.0324 39H20.0104ZM28.6252 39.07C27.8599 39.07 27.1879 38.9113 26.6092 38.594C26.0305 38.2673 25.5779 37.824 25.2512 37.264C24.9245 36.6947 24.7612 36.046 24.7612 35.318C24.7612 34.59 24.9152 33.946 25.2232 33.386C25.5405 32.826 25.9699 32.3873 26.5112 32.07C27.0619 31.7433 27.6779 31.58 28.3592 31.58C29.0499 31.58 29.6612 31.7387 30.1932 32.056C30.7345 32.364 31.1592 32.8027 31.4672 33.372C31.7752 33.932 31.9292 34.5807 31.9292 35.318C31.9292 35.3647 31.9245 35.416 31.9152 35.472C31.9152 35.5187 31.9152 35.57 31.9152 35.626H25.5172V34.884H31.3832L30.9912 35.178C30.9912 34.646 30.8745 34.1747 30.6412 33.764C30.4172 33.344 30.1092 33.0173 29.7172 32.784C29.3252 32.5507 28.8725 32.434 28.3592 32.434C27.8552 32.434 27.4025 32.5507 27.0012 32.784C26.5999 33.0173 26.2872 33.344 26.0632 33.764C25.8392 34.184 25.7272 34.6647 25.7272 35.206V35.36C25.7272 35.92 25.8485 36.4147 26.0912 36.844C26.3432 37.264 26.6885 37.5953 27.1272 37.838C27.5752 38.0713 28.0839 38.188 28.6532 38.188C29.1012 38.188 29.5165 38.1087 29.8992 37.95C30.2912 37.7913 30.6272 37.5487 30.9072 37.222L31.4672 37.866C31.1405 38.258 30.7299 38.5567 30.2352 38.762C29.7499 38.9673 29.2132 39.07 28.6252 39.07ZM36.8784 39.07C36.1784 39.07 35.5484 38.9113 34.9884 38.594C34.4377 38.2767 34.0037 37.838 33.6864 37.278C33.3691 36.7087 33.2104 36.0553 33.2104 35.318C33.2104 34.5713 33.3691 33.918 33.6864 33.358C34.0037 32.798 34.4377 32.364 34.9884 32.056C35.5484 31.7387 36.1784 31.58 36.8784 31.58C37.5224 31.58 38.0964 31.7247 38.6004 32.014C39.1137 32.3033 39.5197 32.728 39.8184 33.288C40.1264 33.8387 40.2804 34.5153 40.2804 35.318C40.2804 36.1113 40.1311 36.788 39.8324 37.348C39.5337 37.908 39.1277 38.3373 38.6144 38.636C38.1104 38.9253 37.5317 39.07 36.8784 39.07ZM36.9484 38.188C37.4711 38.188 37.9377 38.0713 38.3484 37.838C38.7684 37.5953 39.0951 37.2593 39.3284 36.83C39.5711 36.3913 39.6924 35.8873 39.6924 35.318C39.6924 34.7393 39.5711 34.2353 39.3284 33.806C39.0951 33.3767 38.7684 33.0453 38.3484 32.812C37.9377 32.5693 37.4711 32.448 36.9484 32.448C36.4351 32.448 35.9731 32.5693 35.5624 32.812C35.1517 33.0453 34.8251 33.3767 34.5824 33.806C34.3397 34.2353 34.2184 34.7393 34.2184 35.318C34.2184 35.8873 34.3397 36.3913 34.5824 36.83C34.8251 37.2593 35.1517 37.5953 35.5624 37.838C35.9731 38.0713 36.4351 38.188 36.9484 38.188ZM39.7204 39V36.788L39.8184 35.304L39.6784 33.82V28.612H40.6724V39H39.7204Z" fill="#8E8E8E"/>
</svg>
