<svg width="44" height="42" viewBox="0 0 44 42" fill="none" xmlns="http://www.w3.org/2000/svg">
<path d="M10.8433 9.95619L21.6521 1.05439C21.6522 1.05432 21.6523 1.05426 21.6524 1.0542C21.891 0.857924 22.1904 0.750613 22.4993 0.750613C22.8084 0.750613 23.1079 0.857993 23.3466 1.05439L23.3466 1.05443L27.2325 4.25148L28.459 5.26058V3.67231V0.75H30.4312V6.53255V6.88629L30.7042 7.11129L34.1587 9.95877L33.3439 10.9492L23.3104 2.6854L23.3104 2.68537L23.3042 2.6804C23.0768 2.49711 22.7936 2.39717 22.5015 2.39717C22.2095 2.39717 21.9262 2.49712 21.6988 2.6804L21.6988 2.68037L21.6927 2.68541L11.6599 10.9489L10.8433 9.95619ZM11.8056 11.126L11.8054 11.1257C11.8055 11.1258 11.8055 11.1259 11.8056 11.126L11.8056 11.126ZM14.9173 18.6921V11.9885L22.5016 5.74197L30.084 11.9838V18.6921L25.3331 18.679V14.5812C25.3331 14.1981 25.1809 13.8307 24.91 13.5598C24.6392 13.2889 24.2718 13.1367 23.8887 13.1367H21.1109C20.7278 13.1367 20.3604 13.2889 20.0895 13.5598C19.8186 13.8307 19.6664 14.1981 19.6664 14.5812V18.6798L14.9173 18.6921Z" stroke="#8E8E8E" stroke-width="1.5"/>
<path d="M8.764 28.6424H9.786V38.4424H8.764V28.6424ZM2.632 38.4424H1.596V28.6424H2.632V38.4424ZM8.862 33.9204H2.52V33.0104H8.862V33.9204ZM15.7707 38.5124C15.0613 38.5124 14.422 38.3537 13.8527 38.0364C13.2927 37.7097 12.8493 37.2664 12.5227 36.7064C12.196 36.137 12.0327 35.4884 12.0327 34.7604C12.0327 34.023 12.196 33.3744 12.5227 32.8144C12.8493 32.2544 13.2927 31.8157 13.8527 31.4984C14.4127 31.181 15.052 31.0224 15.7707 31.0224C16.4987 31.0224 17.1427 31.181 17.7027 31.4984C18.272 31.8157 18.7153 32.2544 19.0327 32.8144C19.3593 33.3744 19.5227 34.023 19.5227 34.7604C19.5227 35.4884 19.3593 36.137 19.0327 36.7064C18.7153 37.2664 18.272 37.7097 17.7027 38.0364C17.1333 38.3537 16.4893 38.5124 15.7707 38.5124ZM15.7707 37.6304C16.3027 37.6304 16.774 37.5137 17.1847 37.2804C17.5953 37.0377 17.9173 36.7017 18.1507 36.2724C18.3933 35.8337 18.5147 35.3297 18.5147 34.7604C18.5147 34.1817 18.3933 33.6777 18.1507 33.2484C17.9173 32.819 17.5953 32.4877 17.1847 32.2544C16.774 32.0117 16.3073 31.8904 15.7847 31.8904C15.262 31.8904 14.7953 32.0117 14.3847 32.2544C13.974 32.4877 13.6473 32.819 13.4047 33.2484C13.162 33.6777 13.0407 34.1817 13.0407 34.7604C13.0407 35.3297 13.162 35.8337 13.4047 36.2724C13.6473 36.7017 13.974 37.0377 14.3847 37.2804C14.7953 37.5137 15.2573 37.6304 15.7707 37.6304ZM30.736 31.0224C31.3333 31.0224 31.8513 31.139 32.29 31.3724C32.738 31.5964 33.0833 31.9417 33.326 32.4084C33.578 32.875 33.704 33.463 33.704 34.1724V38.4424H32.71V34.2704C32.71 33.4957 32.5233 32.9124 32.15 32.5204C31.786 32.119 31.268 31.9184 30.596 31.9184C30.092 31.9184 29.6533 32.0257 29.28 32.2404C28.916 32.4457 28.6313 32.749 28.426 33.1504C28.23 33.5424 28.132 34.0184 28.132 34.5784V38.4424H27.138V34.2704C27.138 33.4957 26.9513 32.9124 26.578 32.5204C26.2047 32.119 25.682 31.9184 25.01 31.9184C24.5153 31.9184 24.0813 32.0257 23.708 32.2404C23.3347 32.4457 23.0453 32.749 22.84 33.1504C22.644 33.5424 22.546 34.0184 22.546 34.5784V38.4424H21.552V31.0924H22.504V33.0804L22.35 32.7304C22.574 32.1984 22.9333 31.783 23.428 31.4844C23.932 31.1764 24.5247 31.0224 25.206 31.0224C25.9247 31.0224 26.536 31.2044 27.04 31.5684C27.544 31.923 27.8707 32.4597 28.02 33.1784L27.628 33.0244C27.8427 32.427 28.2207 31.9464 28.762 31.5824C29.3127 31.209 29.9707 31.0224 30.736 31.0224ZM39.5217 38.5124C38.7563 38.5124 38.0843 38.3537 37.5057 38.0364C36.927 37.7097 36.4743 37.2664 36.1477 36.7064C35.821 36.137 35.6577 35.4884 35.6577 34.7604C35.6577 34.0324 35.8117 33.3884 36.1197 32.8284C36.437 32.2684 36.8663 31.8297 37.4077 31.5124C37.9583 31.1857 38.5743 31.0224 39.2557 31.0224C39.9463 31.0224 40.5577 31.181 41.0897 31.4984C41.631 31.8064 42.0557 32.245 42.3637 32.8144C42.6717 33.3744 42.8257 34.023 42.8257 34.7604C42.8257 34.807 42.821 34.8584 42.8117 34.9144C42.8117 34.961 42.8117 35.0124 42.8117 35.0684H36.4137V34.3264H42.2797L41.8877 34.6204C41.8877 34.0884 41.771 33.617 41.5377 33.2064C41.3137 32.7864 41.0057 32.4597 40.6137 32.2264C40.2217 31.993 39.769 31.8764 39.2557 31.8764C38.7517 31.8764 38.299 31.993 37.8977 32.2264C37.4963 32.4597 37.1837 32.7864 36.9597 33.2064C36.7357 33.6264 36.6237 34.107 36.6237 34.6484V34.8024C36.6237 35.3624 36.745 35.857 36.9877 36.2864C37.2397 36.7064 37.585 37.0377 38.0237 37.2804C38.4717 37.5137 38.9803 37.6304 39.5497 37.6304C39.9977 37.6304 40.413 37.551 40.7957 37.3924C41.1877 37.2337 41.5237 36.991 41.8037 36.6644L42.3637 37.3084C42.037 37.7004 41.6263 37.999 41.1317 38.2044C40.6463 38.4097 40.1097 38.5124 39.5217 38.5124Z" fill="#8E8E8E"/>
</svg>
