<svg width="37" height="42" viewBox="0 0 37 42" fill="none" xmlns="http://www.w3.org/2000/svg">
<path d="M1.596 39V29.2H2.45L6.93 36.844H6.482L10.92 29.2H11.774V39H10.78V30.754H11.018L6.93 37.754H6.44L2.324 30.754H2.59V39H1.596ZM17.7531 39.07C17.0438 39.07 16.4044 38.9113 15.8351 38.594C15.2751 38.2673 14.8318 37.824 14.5051 37.264C14.1784 36.6947 14.0151 36.046 14.0151 35.318C14.0151 34.5807 14.1784 33.932 14.5051 33.372C14.8318 32.812 15.2751 32.3733 15.8351 32.056C16.3951 31.7387 17.0344 31.58 17.7531 31.58C18.4811 31.58 19.1251 31.7387 19.6851 32.056C20.2544 32.3733 20.6978 32.812 21.0151 33.372C21.3418 33.932 21.5051 34.5807 21.5051 35.318C21.5051 36.046 21.3418 36.6947 21.0151 37.264C20.6978 37.824 20.2544 38.2673 19.6851 38.594C19.1158 38.9113 18.4718 39.07 17.7531 39.07ZM17.7531 38.188C18.2851 38.188 18.7564 38.0713 19.1671 37.838C19.5778 37.5953 19.8998 37.2593 20.1331 36.83C20.3758 36.3913 20.4971 35.8873 20.4971 35.318C20.4971 34.7393 20.3758 34.2353 20.1331 33.806C19.8998 33.3767 19.5778 33.0453 19.1671 32.812C18.7564 32.5693 18.2898 32.448 17.7671 32.448C17.2444 32.448 16.7778 32.5693 16.3671 32.812C15.9564 33.0453 15.6298 33.3767 15.3871 33.806C15.1444 34.2353 15.0231 34.7393 15.0231 35.318C15.0231 35.8873 15.1444 36.3913 15.3871 36.83C15.6298 37.2593 15.9564 37.5953 16.3671 37.838C16.7778 38.0713 17.2398 38.188 17.7531 38.188ZM23.5344 39V31.65H24.4864V33.652L24.3884 33.302C24.5938 32.742 24.9391 32.3173 25.4244 32.028C25.9098 31.7293 26.5118 31.58 27.2304 31.58V32.546C27.1931 32.546 27.1558 32.546 27.1184 32.546C27.0811 32.5367 27.0438 32.532 27.0064 32.532C26.2318 32.532 25.6251 32.77 25.1864 33.246C24.7478 33.7127 24.5284 34.38 24.5284 35.248V39H23.5344ZM32.0978 39.07C31.3325 39.07 30.6605 38.9113 30.0818 38.594C29.5032 38.2673 29.0505 37.824 28.7238 37.264C28.3972 36.6947 28.2338 36.046 28.2338 35.318C28.2338 34.59 28.3878 33.946 28.6958 33.386C29.0132 32.826 29.4425 32.3873 29.9838 32.07C30.5345 31.7433 31.1505 31.58 31.8318 31.58C32.5225 31.58 33.1338 31.7387 33.6658 32.056C34.2072 32.364 34.6318 32.8027 34.9398 33.372C35.2478 33.932 35.4018 34.5807 35.4018 35.318C35.4018 35.3647 35.3972 35.416 35.3878 35.472C35.3878 35.5187 35.3878 35.57 35.3878 35.626H28.9898V34.884H34.8558L34.4638 35.178C34.4638 34.646 34.3472 34.1747 34.1138 33.764C33.8898 33.344 33.5818 33.0173 33.1898 32.784C32.7978 32.5507 32.3452 32.434 31.8318 32.434C31.3278 32.434 30.8752 32.5507 30.4738 32.784C30.0725 33.0173 29.7598 33.344 29.5358 33.764C29.3118 34.184 29.1998 34.6647 29.1998 35.206V35.36C29.1998 35.92 29.3212 36.4147 29.5638 36.844C29.8158 37.264 30.1612 37.5953 30.5998 37.838C31.0478 38.0713 31.5565 38.188 32.1258 38.188C32.5738 38.188 32.9892 38.1087 33.3718 37.95C33.7638 37.7913 34.0998 37.5487 34.3798 37.222L34.9398 37.866C34.6132 38.258 34.2025 38.5567 33.7078 38.762C33.2225 38.9673 32.6858 39.07 32.0978 39.07Z" fill="#8E8E8E"/>
<rect x="9.5" y="0.5" width="19" height="19" rx="1.5" stroke="#8E8E8E"/>
<circle cx="15.5" cy="5.5" r="2" stroke="#8E8E8E"/>
<circle cx="22.5" cy="5.5" r="2" stroke="#8E8E8E"/>
<circle cx="15.5" cy="13.5" r="2" stroke="#8E8E8E"/>
<circle cx="22.5" cy="13.5" r="2" stroke="#8E8E8E"/>
</svg>
