<svg width="28" height="42" viewBox="0 0 28 42" fill="none" xmlns="http://www.w3.org/2000/svg">
<path d="M3.968 39.168C3.30533 39.168 2.694 39.0467 2.134 38.804C1.58333 38.552 1.13067 38.1973 0.776 37.74L2.036 36.228C2.30667 36.5827 2.59133 36.8533 2.89 37.04C3.18867 37.2173 3.51067 37.306 3.856 37.306C4.78 37.306 5.242 36.7647 5.242 35.682V31.02H1.798V29.2H7.496V35.556C7.496 36.7693 7.19733 37.6747 6.6 38.272C6.00267 38.8693 5.12533 39.168 3.968 39.168ZM13.1662 39.112C12.3636 39.112 11.6496 38.944 11.0242 38.608C10.4082 38.272 9.91822 37.8147 9.55422 37.236C9.19955 36.648 9.02222 35.9807 9.02222 35.234C9.02222 34.478 9.19955 33.8107 9.55422 33.232C9.91822 32.644 10.4082 32.1867 11.0242 31.86C11.6496 31.524 12.3636 31.356 13.1662 31.356C13.9596 31.356 14.6689 31.524 15.2942 31.86C15.9196 32.1867 16.4096 32.6393 16.7642 33.218C17.1189 33.7967 17.2962 34.4687 17.2962 35.234C17.2962 35.9807 17.1189 36.648 16.7642 37.236C16.4096 37.8147 15.9196 38.272 15.2942 38.608C14.6689 38.944 13.9596 39.112 13.1662 39.112ZM13.1662 37.32C13.5302 37.32 13.8569 37.236 14.1462 37.068C14.4356 36.9 14.6642 36.662 14.8322 36.354C15.0002 36.0367 15.0842 35.6633 15.0842 35.234C15.0842 34.7953 15.0002 34.422 14.8322 34.114C14.6642 33.806 14.4356 33.568 14.1462 33.4C13.8569 33.232 13.5302 33.148 13.1662 33.148C12.8022 33.148 12.4756 33.232 12.1862 33.4C11.8969 33.568 11.6636 33.806 11.4862 34.114C11.3182 34.422 11.2342 34.7953 11.2342 35.234C11.2342 35.6633 11.3182 36.0367 11.4862 36.354C11.6636 36.662 11.8969 36.9 12.1862 37.068C12.4756 37.236 12.8022 37.32 13.1662 37.32ZM23.208 39.112C22.5454 39.112 21.976 38.972 21.5 38.692C21.024 38.412 20.66 37.9873 20.408 37.418C20.156 36.8393 20.03 36.1113 20.03 35.234C20.03 34.3473 20.1607 33.6193 20.422 33.05C20.6927 32.4807 21.066 32.056 21.542 31.776C22.018 31.496 22.5734 31.356 23.208 31.356C23.9174 31.356 24.552 31.5147 25.112 31.832C25.6814 32.1493 26.1294 32.5973 26.456 33.176C26.792 33.7547 26.96 34.4407 26.96 35.234C26.96 36.018 26.792 36.6993 26.456 37.278C26.1294 37.8567 25.6814 38.3093 25.112 38.636C24.552 38.9533 23.9174 39.112 23.208 39.112ZM18.756 39V28.612H20.94V32.994L20.8 35.22L20.842 37.46V39H18.756ZM22.83 37.32C23.194 37.32 23.516 37.236 23.796 37.068C24.0854 36.9 24.314 36.662 24.482 36.354C24.6594 36.0367 24.748 35.6633 24.748 35.234C24.748 34.7953 24.6594 34.422 24.482 34.114C24.314 33.806 24.0854 33.568 23.796 33.4C23.516 33.232 23.194 33.148 22.83 33.148C22.466 33.148 22.1394 33.232 21.85 33.4C21.5607 33.568 21.332 33.806 21.164 34.114C20.996 34.422 20.912 34.7953 20.912 35.234C20.912 35.6633 20.996 36.0367 21.164 36.354C21.332 36.662 21.5607 36.9 21.85 37.068C22.1394 37.236 22.466 37.32 22.83 37.32Z" fill="#204ECF"/>
<path d="M16.5 4.16667C16.5 4.16667 16.5 1 13.5 1C10.5 1 10.5 4.16667 10.5 4.16667M23.25 11.2917V20H3.75V11.2917H23.25ZM3 4.16667H24V10.5C24 10.5 19.5 13.6667 13.5 13.6667C7.5 13.6667 3 10.5 3 10.5V4.16667ZM13.5 15.25V12.0833V15.25Z" stroke="#204ECF" stroke-width="1.5" stroke-linecap="round" stroke-linejoin="round"/>
</svg>
