<svg width="45" height="43" viewBox="0 0 45 43" fill="none" xmlns="http://www.w3.org/2000/svg">
<path d="M3.822 40L0.518 30.2H1.582L4.676 39.426H4.144L7.336 30.2H8.288L11.438 39.426H10.934L14.056 30.2H15.05L11.746 40H10.654L7.644 31.25H7.924L4.9 40H3.822ZM20.785 40V38.376L20.743 38.11V35.394C20.743 34.7687 20.5656 34.288 20.211 33.952C19.8656 33.616 19.3476 33.448 18.657 33.448C18.181 33.448 17.7283 33.5273 17.299 33.686C16.8696 33.8447 16.5056 34.0547 16.207 34.316L15.759 33.574C16.1323 33.2567 16.5803 33.014 17.103 32.846C17.6256 32.6687 18.1763 32.58 18.755 32.58C19.707 32.58 20.4396 32.818 20.953 33.294C21.4756 33.7607 21.737 34.4747 21.737 35.436V40H20.785ZM18.251 40.07C17.7003 40.07 17.2196 39.9813 16.809 39.804C16.4076 39.6173 16.0996 39.3653 15.885 39.048C15.6703 38.7213 15.563 38.348 15.563 37.928C15.563 37.5453 15.6516 37.2 15.829 36.892C16.0156 36.5747 16.3143 36.3227 16.725 36.136C17.145 35.94 17.705 35.842 18.405 35.842H20.939V36.584H18.433C17.7236 36.584 17.229 36.71 16.949 36.962C16.6783 37.214 16.543 37.5267 16.543 37.9C16.543 38.32 16.7063 38.656 17.033 38.908C17.3596 39.16 17.817 39.286 18.405 39.286C18.965 39.286 19.4456 39.16 19.847 38.908C20.2576 38.6467 20.5563 38.2733 20.743 37.788L20.967 38.474C20.7803 38.9593 20.4536 39.3467 19.987 39.636C19.5296 39.9253 18.951 40.07 18.251 40.07ZM24.4368 40V29.612H25.4308V40H24.4368ZM28.1965 40V29.612H29.1905V40H28.1965ZM35.0783 40.07C34.313 40.07 33.641 39.9113 33.0623 39.594C32.4836 39.2673 32.031 38.824 31.7043 38.264C31.3776 37.6947 31.2143 37.046 31.2143 36.318C31.2143 35.59 31.3683 34.946 31.6763 34.386C31.9936 33.826 32.423 33.3873 32.9643 33.07C33.515 32.7433 34.131 32.58 34.8123 32.58C35.503 32.58 36.1143 32.7387 36.6463 33.056C37.1876 33.364 37.6123 33.8027 37.9203 34.372C38.2283 34.932 38.3823 35.5807 38.3823 36.318C38.3823 36.3647 38.3776 36.416 38.3683 36.472C38.3683 36.5187 38.3683 36.57 38.3683 36.626H31.9703V35.884H37.8363L37.4443 36.178C37.4443 35.646 37.3276 35.1747 37.0943 34.764C36.8703 34.344 36.5623 34.0173 36.1703 33.784C35.7783 33.5507 35.3256 33.434 34.8123 33.434C34.3083 33.434 33.8556 33.5507 33.4543 33.784C33.053 34.0173 32.7403 34.344 32.5163 34.764C32.2923 35.184 32.1803 35.6647 32.1803 36.206V36.36C32.1803 36.92 32.3016 37.4147 32.5443 37.844C32.7963 38.264 33.1416 38.5953 33.5803 38.838C34.0283 39.0713 34.537 39.188 35.1063 39.188C35.5543 39.188 35.9696 39.1087 36.3523 38.95C36.7443 38.7913 37.0803 38.5487 37.3603 38.222L37.9203 38.866C37.5936 39.258 37.183 39.5567 36.6883 39.762C36.203 39.9673 35.6663 40.07 35.0783 40.07ZM42.7295 40.07C42.0389 40.07 41.5069 39.8833 41.1335 39.51C40.7602 39.1367 40.5735 38.6093 40.5735 37.928V31.026H41.5675V37.872C41.5675 38.3013 41.6749 38.6327 41.8895 38.866C42.1135 39.0993 42.4309 39.216 42.8415 39.216C43.2802 39.216 43.6442 39.09 43.9335 38.838L44.2835 39.552C44.0875 39.7293 43.8495 39.86 43.5695 39.944C43.2989 40.028 43.0189 40.07 42.7295 40.07ZM39.2575 33.476V32.65H43.8075V33.476H39.2575Z" fill="#8E8E8E"/>
<path d="M26.5 12.75H28V14.25H26.5V12.75Z" fill="#8E8E8E"/>
<path d="M31 6H13V3.75H29.5V2.25H13C12.6022 2.25 12.2206 2.40804 11.9393 2.68934C11.658 2.97064 11.5 3.35218 11.5 3.75V19.5C11.5 19.8978 11.658 20.2794 11.9393 20.5607C12.2206 20.842 12.6022 21 13 21H31C31.3978 21 31.7794 20.842 32.0607 20.5607C32.342 20.2794 32.5 19.8978 32.5 19.5V7.5C32.5 7.10218 32.342 6.72064 32.0607 6.43934C31.7794 6.15804 31.3978 6 31 6ZM13 19.5V7.5H31V9.75H25C24.6022 9.75 24.2206 9.90804 23.9393 10.1893C23.658 10.4706 23.5 10.8522 23.5 11.25V15.75C23.5 16.1478 23.658 16.5294 23.9393 16.8107C24.2206 17.092 24.6022 17.25 25 17.25H31V19.5H13ZM31 11.25V15.75H25V11.25H31Z" fill="#8E8E8E"/>
</svg>
