<svg width="18" height="19" viewBox="0 0 18 19" fill="none" xmlns="http://www.w3.org/2000/svg">
<path d="M0.6 14.3203C0.0470001 14.3203 0 14.748 0 15.275C0 15.8029 0.0470001 16.2297 0.6 16.2297H9V14.3203H0.6ZM17.4 16.2297C17.951 16.2297 18 15.8029 18 15.275C18 14.748 17.951 14.3203 17.4 14.3203H14V16.2297H17.4ZM10 12.9847V17.5672C10 18.0951 10.448 18.139 11 18.139H12C12.553 18.139 13 18.0951 13 17.5672V12.9837C13 12.4586 12.553 12.4109 12 12.4109H11C10.448 12.4109 10 12.4586 10 12.9847ZM11 1.52843L11 6.11188C11 6.63887 11.448 6.68279 12 6.68279H13C13.553 6.68279 14 6.63887 14 6.11093L14 1.52747C14 1.0024 13.553 0.95466 13 0.95466H12C11.448 0.95466 11 1.00239 11 1.52843ZM6 6.68279C5.448 6.68279 5 6.73052 5 7.25655L5 11.8391C5 12.367 5.448 12.4109 6 12.4109H7C7.553 12.4109 8 12.367 8 11.8391V7.2556C8 6.73052 7.553 6.68279 7 6.68279H6ZM0.6 8.59216C0.0470001 8.59216 0 9.01986 0 9.54685C0 10.0748 0.0470001 10.5015 0.6 10.5015H4V8.59216H0.6V8.59216ZM17.4 10.5015C17.951 10.5015 18 10.0748 18 9.54685C18 9.01986 17.951 8.59216 17.4 8.59216L9 8.59216V10.5015H17.4ZM0.6 2.86404C0.0470001 2.86404 0 3.29174 0 3.81872C0 4.34667 0.0470001 4.77341 0.6 4.77341H10L10 2.86404H0.6V2.86404ZM17.4 4.77341C17.951 4.77341 18 4.34667 18 3.81872C18 3.29174 17.951 2.86404 17.4 2.86404L15 2.86404L15 4.77341L17.4 4.77341Z" fill="#8E8E8E"/>
</svg>
