<svg width="57" height="65" viewBox="0 0 57 65" fill="none" xmlns="http://www.w3.org/2000/svg">
<rect x="7" width="11.6667" height="11.5909" fill="#204ECF"/>
<rect x="7" y="14.9026" width="11.6667" height="11.5909" fill="#204ECF"/>
<rect x="7" y="29.8052" width="11.6667" height="11.5909" fill="#204ECF"/>
<rect x="36.5557" y="14.9026" width="11.6667" height="11.5909" fill="#204ECF"/>
<rect x="36.5557" y="29.8052" width="11.6667" height="11.5909" fill="#204ECF"/>
<rect x="21.886" width="11.6667" height="11.5909" rx="5.79545" fill="#204ECF"/>
<rect x="36.5557" width="11.6667" height="11.5909" fill="#204ECF"/>
<rect x="21.8862" y="14.9026" width="11.6667" height="11.5909" fill="#20CF91"/>
<path d="M1.328 61V49.8H3.472L8.24 57.704H7.104L11.792 49.8H13.92L13.952 61H11.52L11.504 53.528H11.952L8.208 59.816H7.04L3.216 53.528H3.76V61H1.328ZM17.5213 64.232C17.0733 64.232 16.6306 64.1627 16.1933 64.024C15.7559 63.8853 15.3986 63.6933 15.1212 63.448L16.0333 61.672C16.2253 61.8427 16.4439 61.976 16.6893 62.072C16.9453 62.168 17.1959 62.216 17.4413 62.216C17.7933 62.216 18.0706 62.1307 18.2733 61.96C18.4866 61.8 18.6786 61.528 18.8493 61.144L19.2973 60.088L19.4893 59.816L22.5773 52.392H24.9773L21.0893 61.528C20.8119 62.2213 20.4919 62.7653 20.1293 63.16C19.7773 63.5547 19.3826 63.832 18.9453 63.992C18.5186 64.152 18.0439 64.232 17.5213 64.232ZM18.9933 61.336L15.1532 52.392H17.7293L20.7053 59.592L18.9933 61.336ZM31.2278 52.264C31.9104 52.264 32.5184 52.4027 33.0518 52.68C33.5958 52.9467 34.0224 53.3627 34.3318 53.928C34.6411 54.4827 34.7958 55.1973 34.7958 56.072V61H32.2998V56.456C32.2998 55.7627 32.1451 55.2507 31.8358 54.92C31.5371 54.5893 31.1104 54.424 30.5558 54.424C30.1611 54.424 29.8038 54.5093 29.4838 54.68C29.1744 54.84 28.9291 55.0907 28.7478 55.432C28.5771 55.7733 28.4918 56.2107 28.4918 56.744V61H25.9958V52.392H28.3798V54.776L27.9318 54.056C28.2411 53.48 28.6838 53.0373 29.2598 52.728C29.8358 52.4187 30.4918 52.264 31.2278 52.264ZM40.8168 61.128C40.0061 61.128 39.2754 60.9467 38.6248 60.584C37.9741 60.2107 37.4568 59.6933 37.0728 59.032C36.6994 58.3707 36.5128 57.592 36.5128 56.696C36.5128 55.7893 36.6994 55.0053 37.0728 54.344C37.4568 53.6827 37.9741 53.1707 38.6248 52.808C39.2754 52.4453 40.0061 52.264 40.8168 52.264C41.5421 52.264 42.1768 52.424 42.7208 52.744C43.2648 53.064 43.6861 53.5493 43.9848 54.2C44.2834 54.8507 44.4328 55.6827 44.4328 56.696C44.4328 57.6987 44.2888 58.5307 44.0008 59.192C43.7128 59.8427 43.2968 60.328 42.7528 60.648C42.2194 60.968 41.5741 61.128 40.8168 61.128ZM41.2488 59.08C41.6541 59.08 42.0221 58.984 42.3528 58.792C42.6834 58.6 42.9448 58.328 43.1368 57.976C43.3394 57.6133 43.4408 57.1867 43.4408 56.696C43.4408 56.1947 43.3394 55.768 43.1368 55.416C42.9448 55.064 42.6834 54.792 42.3528 54.6C42.0221 54.408 41.6541 54.312 41.2488 54.312C40.8328 54.312 40.4594 54.408 40.1288 54.6C39.7981 54.792 39.5314 55.064 39.3288 55.416C39.1368 55.768 39.0408 56.1947 39.0408 56.696C39.0408 57.1867 39.1368 57.6133 39.3288 57.976C39.5314 58.328 39.7981 58.6 40.1288 58.792C40.4594 58.984 40.8328 59.08 41.2488 59.08ZM43.5048 61V59.24L43.5528 56.68L43.3928 54.136V49.128H45.8888V61H43.5048ZM53.4789 61V59.32L53.3189 58.952V55.944C53.3189 55.4107 53.1535 54.9947 52.8229 54.696C52.5029 54.3973 52.0069 54.248 51.3349 54.248C50.8762 54.248 50.4229 54.3227 49.9749 54.472C49.5375 54.6107 49.1642 54.8027 48.8549 55.048L47.9589 53.304C48.4282 52.9733 48.9935 52.7173 49.6549 52.536C50.3162 52.3547 50.9882 52.264 51.6709 52.264C52.9829 52.264 54.0015 52.5733 54.7269 53.192C55.4522 53.8107 55.8149 54.776 55.8149 56.088V61H53.4789ZM50.8549 61.128C50.1829 61.128 49.6069 61.016 49.1269 60.792C48.6469 60.5573 48.2789 60.2427 48.0229 59.848C47.7669 59.4533 47.6389 59.0107 47.6389 58.52C47.6389 58.008 47.7615 57.56 48.0069 57.176C48.2629 56.792 48.6629 56.4933 49.2069 56.28C49.7509 56.056 50.4602 55.944 51.3349 55.944H53.6229V57.4H51.6069C51.0202 57.4 50.6149 57.496 50.3909 57.688C50.1775 57.88 50.0709 58.12 50.0709 58.408C50.0709 58.728 50.1935 58.984 50.4389 59.176C50.6949 59.3573 51.0415 59.448 51.4789 59.448C51.8949 59.448 52.2682 59.352 52.5989 59.16C52.9295 58.9573 53.1695 58.664 53.3189 58.28L53.7029 59.432C53.5215 59.9867 53.1909 60.408 52.7109 60.696C52.2309 60.984 51.6122 61.128 50.8549 61.128Z" fill="#204ECF"/>
</svg>
