<svg width="215" height="22" viewBox="0 0 215 22" fill="none" xmlns="http://www.w3.org/2000/svg">
<path d="M41.3091 18V6.8H45.5011C46.4504 6.8 47.2664 6.95467 47.9491 7.264C48.6318 7.56267 49.1544 8 49.5171 8.576C49.8904 9.14133 50.0771 9.82933 50.0771 10.64C50.0771 11.4293 49.8904 12.112 49.5171 12.688C49.1544 13.2533 48.6318 13.6907 47.9491 14C47.2664 14.3093 46.4504 14.464 45.5011 14.464H41.9651L42.4931 13.904V18H41.3091ZM42.4931 14L41.9651 13.424H45.4691C46.5891 13.424 47.4371 13.184 48.0131 12.704C48.5998 12.2133 48.8931 11.5253 48.8931 10.64C48.8931 9.744 48.5998 9.05067 48.0131 8.56C47.4371 8.06933 46.5891 7.824 45.4691 7.824H41.9651L42.4931 7.264V14ZM57.5831 18V16.144L57.5351 15.84V12.736C57.5351 12.0213 57.3324 11.472 56.9271 11.088C56.5324 10.704 55.9404 10.512 55.1511 10.512C54.6071 10.512 54.0898 10.6027 53.5991 10.784C53.1084 10.9653 52.6924 11.2053 52.3511 11.504L51.8391 10.656C52.2658 10.2933 52.7778 10.016 53.3751 9.824C53.9724 9.62133 54.6018 9.52 55.2631 9.52C56.3511 9.52 57.1884 9.792 57.7751 10.336C58.3724 10.8693 58.6711 11.6853 58.6711 12.784V18H57.5831ZM54.6871 18.08C54.0578 18.08 53.5084 17.9787 53.0391 17.776C52.5804 17.5627 52.2284 17.2747 51.9831 16.912C51.7378 16.5387 51.6151 16.112 51.6151 15.632C51.6151 15.1947 51.7164 14.8 51.9191 14.448C52.1324 14.0853 52.4738 13.7973 52.9431 13.584C53.4231 13.36 54.0631 13.248 54.8631 13.248H57.7591V14.096H54.8951C54.0844 14.096 53.5191 14.24 53.1991 14.528C52.8898 14.816 52.7351 15.1733 52.7351 15.6C52.7351 16.08 52.9218 16.464 53.2951 16.752C53.6684 17.04 54.1911 17.184 54.8631 17.184C55.5031 17.184 56.0524 17.04 56.5111 16.752C56.9804 16.4533 57.3218 16.0267 57.5351 15.472L57.7911 16.256C57.5778 16.8107 57.2044 17.2533 56.6711 17.584C56.1484 17.9147 55.4871 18.08 54.6871 18.08ZM61.6644 21.184C61.2697 21.184 60.891 21.12 60.5284 20.992C60.1764 20.864 59.8724 20.672 59.6164 20.416L60.1444 19.568C60.3577 19.7707 60.587 19.9253 60.8324 20.032C61.0884 20.1493 61.371 20.208 61.6804 20.208C62.0537 20.208 62.3737 20.1013 62.6404 19.888C62.9177 19.6853 63.179 19.3227 63.4244 18.8L63.9684 17.568L64.0964 17.392L67.5524 9.6H68.6724L64.4644 19.008C64.2297 19.552 63.9684 19.984 63.6804 20.304C63.403 20.624 63.099 20.848 62.7684 20.976C62.4377 21.1147 62.0697 21.184 61.6644 21.184ZM63.9044 18.24L60.0324 9.6H61.2164L64.6404 17.312L63.9044 18.24ZM76.1717 18L73.0037 9.6H74.0917L76.9717 17.392H76.4757L79.4357 9.6H80.4117L83.3397 17.392H82.8437L85.7717 9.6H86.8117L83.6277 18H82.5557L79.7397 10.672H80.0757L77.2437 18H76.1717ZM88.5222 18V9.6H89.6582V18H88.5222ZM89.0982 7.744C88.8636 7.744 88.6662 7.664 88.5062 7.504C88.3462 7.344 88.2662 7.152 88.2662 6.928C88.2662 6.704 88.3462 6.51733 88.5062 6.368C88.6662 6.208 88.8636 6.128 89.0982 6.128C89.3329 6.128 89.5302 6.20267 89.6902 6.352C89.8502 6.50133 89.9302 6.688 89.9302 6.912C89.9302 7.14667 89.8502 7.344 89.6902 7.504C89.5409 7.664 89.3436 7.744 89.0982 7.744ZM95.4751 18.08C94.6858 18.08 94.0778 17.8667 93.6511 17.44C93.2244 17.0133 93.0111 16.4107 93.0111 15.632V7.744H94.1471V15.568C94.1471 16.0587 94.2698 16.4373 94.5151 16.704C94.7711 16.9707 95.1338 17.104 95.6031 17.104C96.1044 17.104 96.5204 16.96 96.8511 16.672L97.2511 17.488C97.0271 17.6907 96.7551 17.84 96.4351 17.936C96.1258 18.032 95.8058 18.08 95.4751 18.08ZM91.5071 10.544V9.6H96.7071V10.544H91.5071ZM103.607 9.52C104.29 9.52 104.887 9.65333 105.399 9.92C105.922 10.176 106.327 10.5707 106.615 11.104C106.914 11.6373 107.063 12.3093 107.063 13.12V18H105.927V13.232C105.927 12.3467 105.703 11.68 105.255 11.232C104.818 10.7733 104.199 10.544 103.399 10.544C102.802 10.544 102.279 10.6667 101.831 10.912C101.394 11.1467 101.052 11.4933 100.807 11.952C100.572 12.4 100.455 12.944 100.455 13.584V18H99.3191V6.128H100.455V11.904L100.231 11.472C100.498 10.864 100.924 10.3893 101.511 10.048C102.098 9.696 102.796 9.52 103.607 9.52ZM114.559 18V6.8H118.751C119.7 6.8 120.516 6.95467 121.199 7.264C121.882 7.56267 122.404 8 122.767 8.576C123.14 9.14133 123.327 9.82933 123.327 10.64C123.327 11.4293 123.14 12.112 122.767 12.688C122.404 13.2533 121.882 13.6907 121.199 14C120.516 14.3093 119.7 14.464 118.751 14.464H115.215L115.743 13.904V18H114.559ZM115.743 14L115.215 13.424H118.719C119.839 13.424 120.687 13.184 121.263 12.704C121.85 12.2133 122.143 11.5253 122.143 10.64C122.143 9.744 121.85 9.05067 121.263 8.56C120.687 8.06933 119.839 7.824 118.719 7.824H115.215L115.743 7.264V14ZM130.833 18V16.144L130.785 15.84V12.736C130.785 12.0213 130.582 11.472 130.177 11.088C129.782 10.704 129.19 10.512 128.401 10.512C127.857 10.512 127.34 10.6027 126.849 10.784C126.358 10.9653 125.942 11.2053 125.601 11.504L125.089 10.656C125.516 10.2933 126.028 10.016 126.625 9.824C127.222 9.62133 127.852 9.52 128.513 9.52C129.601 9.52 130.438 9.792 131.025 10.336C131.622 10.8693 131.921 11.6853 131.921 12.784V18H130.833ZM127.937 18.08C127.308 18.08 126.758 17.9787 126.289 17.776C125.83 17.5627 125.478 17.2747 125.233 16.912C124.988 16.5387 124.865 16.112 124.865 15.632C124.865 15.1947 124.966 14.8 125.169 14.448C125.382 14.0853 125.724 13.7973 126.193 13.584C126.673 13.36 127.313 13.248 128.113 13.248H131.009V14.096H128.145C127.334 14.096 126.769 14.24 126.449 14.528C126.14 14.816 125.985 15.1733 125.985 15.6C125.985 16.08 126.172 16.464 126.545 16.752C126.918 17.04 127.441 17.184 128.113 17.184C128.753 17.184 129.302 17.04 129.761 16.752C130.23 16.4533 130.572 16.0267 130.785 15.472L131.041 16.256C130.828 16.8107 130.454 17.2533 129.921 17.584C129.398 17.9147 128.737 18.08 127.937 18.08ZM134.914 21.184C134.52 21.184 134.141 21.12 133.778 20.992C133.426 20.864 133.122 20.672 132.866 20.416L133.394 19.568C133.608 19.7707 133.837 19.9253 134.082 20.032C134.338 20.1493 134.621 20.208 134.93 20.208C135.304 20.208 135.624 20.1013 135.89 19.888C136.168 19.6853 136.429 19.3227 136.674 18.8L137.218 17.568L137.346 17.392L140.802 9.6H141.922L137.714 19.008C137.48 19.552 137.218 19.984 136.93 20.304C136.653 20.624 136.349 20.848 136.018 20.976C135.688 21.1147 135.32 21.184 134.914 21.184ZM137.154 18.24L133.282 9.6H134.466L137.89 17.312L137.154 18.24ZM146.158 18L151.278 6.8H152.446L157.566 18H156.318L151.614 7.488H152.094L147.39 18H146.158ZM148.174 15.008L148.526 14.048H155.038L155.39 15.008H148.174ZM161.756 18.08C160.967 18.08 160.359 17.8667 159.932 17.44C159.506 17.0133 159.292 16.4107 159.292 15.632V7.744H160.428V15.568C160.428 16.0587 160.551 16.4373 160.796 16.704C161.052 16.9707 161.415 17.104 161.884 17.104C162.386 17.104 162.802 16.96 163.132 16.672L163.532 17.488C163.308 17.6907 163.036 17.84 162.716 17.936C162.407 18.032 162.087 18.08 161.756 18.08ZM157.788 10.544V9.6H162.988V10.544H157.788ZM168.038 18.08C167.248 18.08 166.64 17.8667 166.214 17.44C165.787 17.0133 165.574 16.4107 165.574 15.632V7.744H166.71V15.568C166.71 16.0587 166.832 16.4373 167.078 16.704C167.334 16.9707 167.696 17.104 168.166 17.104C168.667 17.104 169.083 16.96 169.414 16.672L169.814 17.488C169.59 17.6907 169.318 17.84 168.998 17.936C168.688 18.032 168.368 18.08 168.038 18.08ZM164.07 10.544V9.6H169.27V10.544H164.07ZM171.882 18V9.6H173.018V18H171.882ZM172.458 7.744C172.223 7.744 172.026 7.664 171.866 7.504C171.706 7.344 171.626 7.152 171.626 6.928C171.626 6.704 171.706 6.51733 171.866 6.368C172.026 6.208 172.223 6.128 172.458 6.128C172.692 6.128 172.89 6.20267 173.05 6.352C173.21 6.50133 173.29 6.688 173.29 6.912C173.29 7.14667 173.21 7.344 173.05 7.504C172.9 7.664 172.703 7.744 172.458 7.744ZM178.834 18.08C178.045 18.08 177.437 17.8667 177.01 17.44C176.584 17.0133 176.37 16.4107 176.37 15.632V7.744H177.506V15.568C177.506 16.0587 177.629 16.4373 177.874 16.704C178.13 16.9707 178.493 17.104 178.962 17.104C179.464 17.104 179.88 16.96 180.21 16.672L180.61 17.488C180.386 17.6907 180.114 17.84 179.794 17.936C179.485 18.032 179.165 18.08 178.834 18.08ZM174.866 10.544V9.6H180.066V10.544H174.866ZM186.15 18.08C185.436 18.08 184.812 17.9467 184.278 17.68C183.745 17.4133 183.329 17.0133 183.03 16.48C182.742 15.9467 182.598 15.28 182.598 14.48V9.6H183.734V14.352C183.734 15.248 183.953 15.9253 184.39 16.384C184.838 16.832 185.462 17.056 186.262 17.056C186.849 17.056 187.356 16.9387 187.782 16.704C188.22 16.4587 188.55 16.1067 188.774 15.648C189.009 15.1893 189.126 14.64 189.126 14V9.6H190.262V18H189.174V15.696L189.35 16.112C189.084 16.7307 188.668 17.216 188.102 17.568C187.548 17.9093 186.897 18.08 186.15 18.08ZM196.772 18.08C195.972 18.08 195.252 17.8987 194.612 17.536C193.983 17.1733 193.487 16.672 193.124 16.032C192.762 15.3813 192.58 14.6347 192.58 13.792C192.58 12.9387 192.762 12.192 193.124 11.552C193.487 10.912 193.983 10.416 194.612 10.064C195.252 9.70133 195.972 9.52 196.772 9.52C197.508 9.52 198.164 9.68533 198.74 10.016C199.327 10.3467 199.791 10.832 200.132 11.472C200.484 12.1013 200.66 12.8747 200.66 13.792C200.66 14.6987 200.49 15.472 200.148 16.112C199.807 16.752 199.343 17.2427 198.756 17.584C198.18 17.9147 197.519 18.08 196.772 18.08ZM196.852 17.072C197.45 17.072 197.983 16.9387 198.452 16.672C198.932 16.3947 199.306 16.0107 199.572 15.52C199.85 15.0187 199.988 14.4427 199.988 13.792C199.988 13.1307 199.85 12.5547 199.572 12.064C199.306 11.5733 198.932 11.1947 198.452 10.928C197.983 10.6507 197.45 10.512 196.852 10.512C196.266 10.512 195.738 10.6507 195.268 10.928C194.799 11.1947 194.426 11.5733 194.148 12.064C193.871 12.5547 193.732 13.1307 193.732 13.792C193.732 14.4427 193.871 15.0187 194.148 15.52C194.426 16.0107 194.799 16.3947 195.268 16.672C195.738 16.9387 196.266 17.072 196.852 17.072ZM200.02 18V15.472L200.132 13.776L199.972 12.08V6.128H201.108V18H200.02ZM207.84 18.08C206.966 18.08 206.198 17.8987 205.536 17.536C204.875 17.1627 204.358 16.656 203.984 16.016C203.611 15.3653 203.424 14.624 203.424 13.792C203.424 12.96 203.6 12.224 203.952 11.584C204.315 10.944 204.806 10.4427 205.424 10.08C206.054 9.70667 206.758 9.52 207.536 9.52C208.326 9.52 209.024 9.70133 209.632 10.064C210.251 10.416 210.736 10.9173 211.088 11.568C211.44 12.208 211.616 12.9493 211.616 13.792C211.616 13.8453 211.611 13.904 211.6 13.968C211.6 14.0213 211.6 14.08 211.6 14.144H204.288V13.296H210.992L210.544 13.632C210.544 13.024 210.411 12.4853 210.144 12.016C209.888 11.536 209.536 11.1627 209.088 10.896C208.64 10.6293 208.123 10.496 207.536 10.496C206.96 10.496 206.443 10.6293 205.984 10.896C205.526 11.1627 205.168 11.536 204.912 12.016C204.656 12.496 204.528 13.0453 204.528 13.664V13.84C204.528 14.48 204.667 15.0453 204.944 15.536C205.232 16.016 205.627 16.3947 206.128 16.672C206.64 16.9387 207.222 17.072 207.872 17.072C208.384 17.072 208.859 16.9813 209.296 16.8C209.744 16.6187 210.128 16.3413 210.448 15.968L211.088 16.704C210.715 17.152 210.246 17.4933 209.68 17.728C209.126 17.9627 208.512 18.08 207.84 18.08Z" fill="#1D1D1D"/>
<path d="M1.96908 18V4.90909H7.13386C8.12675 4.90909 8.97263 5.09872 9.6715 5.47798C10.3704 5.85298 10.903 6.375 11.2695 7.04403C11.6402 7.70881 11.8256 8.47585 11.8256 9.34517C11.8256 10.2145 11.6381 10.9815 11.2631 11.6463C10.8881 12.3111 10.3448 12.8288 9.63315 13.1996C8.92576 13.5703 8.06923 13.7557 7.06354 13.7557H3.77164V11.5376H6.6161C7.14877 11.5376 7.58769 11.446 7.93286 11.2628C8.28229 11.0753 8.54224 10.8175 8.71269 10.4893C8.88741 10.157 8.97476 9.77557 8.97476 9.34517C8.97476 8.91051 8.88741 8.53125 8.71269 8.20739C8.54224 7.87926 8.28229 7.62571 7.93286 7.44673C7.58343 7.26349 7.14025 7.17188 6.60332 7.17188H4.73684V18H1.96908ZM14.3681 18H11.4021L15.9213 4.90909H19.4881L24.0009 18H21.035L17.7558 7.90057H17.6536L14.3681 18ZM14.1827 12.8544H21.1884V15.0149H14.1827V12.8544Z" fill="#FCAF30"/>
</svg>
