<svg width="158" height="21" viewBox="0 0 158 21" fill="none" xmlns="http://www.w3.org/2000/svg">
<path d="M3.3041 18.6018C2.9691 18.6047 2.63681 18.5407 2.32622 18.4134C2.01564 18.2861 1.73285 18.098 1.49403 17.8598C1.2552 17.6217 1.06501 17.3382 0.934334 17.0255C0.803658 16.7128 0.735054 16.3771 0.732445 16.0375V8.20765C0.732569 8.17741 0.738568 8.1475 0.750097 8.11962C0.761627 8.09173 0.778463 8.06642 0.799642 8.04513C0.820822 8.02384 0.845931 8.00699 0.873536 7.99554C0.901141 7.98408 0.930702 7.97825 0.96053 7.97838H24.0161C24.0765 7.97812 24.1344 8.0021 24.1774 8.04507C24.2203 8.08804 24.2447 8.1465 24.2452 8.20765V16.0384C24.2424 16.378 24.1737 16.7136 24.043 17.0263C23.9123 17.3389 23.7221 17.6224 23.4833 17.8605C23.2445 18.0986 22.9618 18.2867 22.6512 18.4141C22.3407 18.5415 22.0085 18.6056 21.6735 18.6028L3.3041 18.6018ZM4.40651 13.4741V14.2062C4.40827 14.402 4.48663 14.5891 4.62437 14.7264C4.76211 14.8636 4.94798 14.9399 5.14114 14.9383H5.87671C6.06987 14.9399 6.25574 14.8636 6.39348 14.7264C6.53122 14.5891 6.60958 14.402 6.61134 14.2062V13.4741C6.60958 13.2782 6.53126 13.091 6.39354 12.9536C6.25583 12.8162 6.06996 12.7397 5.87671 12.741H5.14019C4.94694 12.7397 4.76108 12.8162 4.62336 12.9536C4.48565 13.091 4.40732 13.2782 4.40556 13.4741H4.40651ZM0.96053 5.7011C0.894614 5.69474 0.833794 5.66241 0.791144 5.61107C0.748493 5.55973 0.727416 5.49348 0.732445 5.42656V3.94305C0.676278 3.19066 0.914613 2.4461 1.39589 1.87047C1.87716 1.29483 2.56267 0.934414 3.3041 0.867188L21.6726 0.867188C22.4139 0.934656 23.0993 1.29514 23.5805 1.87072C24.0617 2.44629 24.3001 3.19072 24.2442 3.94305V5.42656C24.2492 5.49374 24.2281 5.56023 24.1852 5.61175C24.1424 5.66327 24.0813 5.6957 24.0152 5.70207L0.96053 5.7011Z" fill="#FDAF31"/>
<path d="M41.3091 17V5.8H45.5011C46.4504 5.8 47.2664 5.95467 47.9491 6.264C48.6318 6.56267 49.1544 7 49.5171 7.576C49.8904 8.14133 50.0771 8.82933 50.0771 9.64C50.0771 10.4293 49.8904 11.112 49.5171 11.688C49.1544 12.2533 48.6318 12.6907 47.9491 13C47.2664 13.3093 46.4504 13.464 45.5011 13.464H41.9651L42.4931 12.904V17H41.3091ZM42.4931 13L41.9651 12.424H45.4691C46.5891 12.424 47.4371 12.184 48.0131 11.704C48.5998 11.2133 48.8931 10.5253 48.8931 9.64C48.8931 8.744 48.5998 8.05067 48.0131 7.56C47.4371 7.06933 46.5891 6.824 45.4691 6.824H41.9651L42.4931 6.264V13ZM57.5831 17V15.144L57.5351 14.84V11.736C57.5351 11.0213 57.3324 10.472 56.9271 10.088C56.5324 9.704 55.9404 9.512 55.1511 9.512C54.6071 9.512 54.0898 9.60267 53.5991 9.784C53.1084 9.96533 52.6924 10.2053 52.3511 10.504L51.8391 9.656C52.2658 9.29333 52.7778 9.016 53.3751 8.824C53.9724 8.62133 54.6018 8.52 55.2631 8.52C56.3511 8.52 57.1884 8.792 57.7751 9.336C58.3724 9.86933 58.6711 10.6853 58.6711 11.784V17H57.5831ZM54.6871 17.08C54.0578 17.08 53.5084 16.9787 53.0391 16.776C52.5804 16.5627 52.2284 16.2747 51.9831 15.912C51.7378 15.5387 51.6151 15.112 51.6151 14.632C51.6151 14.1947 51.7164 13.8 51.9191 13.448C52.1324 13.0853 52.4738 12.7973 52.9431 12.584C53.4231 12.36 54.0631 12.248 54.8631 12.248H57.7591V13.096H54.8951C54.0844 13.096 53.5191 13.24 53.1991 13.528C52.8898 13.816 52.7351 14.1733 52.7351 14.6C52.7351 15.08 52.9218 15.464 53.2951 15.752C53.6684 16.04 54.1911 16.184 54.8631 16.184C55.5031 16.184 56.0524 16.04 56.5111 15.752C56.9804 15.4533 57.3218 15.0267 57.5351 14.472L57.7911 15.256C57.5778 15.8107 57.2044 16.2533 56.6711 16.584C56.1484 16.9147 55.4871 17.08 54.6871 17.08ZM61.6644 20.184C61.2697 20.184 60.891 20.12 60.5284 19.992C60.1764 19.864 59.8724 19.672 59.6164 19.416L60.1444 18.568C60.3577 18.7707 60.587 18.9253 60.8324 19.032C61.0884 19.1493 61.371 19.208 61.6804 19.208C62.0537 19.208 62.3737 19.1013 62.6404 18.888C62.9177 18.6853 63.179 18.3227 63.4244 17.8L63.9684 16.568L64.0964 16.392L67.5524 8.6H68.6724L64.4644 18.008C64.2297 18.552 63.9684 18.984 63.6804 19.304C63.403 19.624 63.099 19.848 62.7684 19.976C62.4377 20.1147 62.0697 20.184 61.6644 20.184ZM63.9044 17.24L60.0324 8.6H61.2164L64.6404 16.312L63.9044 17.24ZM76.1717 17L73.0037 8.6H74.0917L76.9717 16.392H76.4757L79.4357 8.6H80.4117L83.3397 16.392H82.8437L85.7717 8.6H86.8117L83.6277 17H82.5557L79.7397 9.672H80.0757L77.2437 17H76.1717ZM88.5222 17V8.6H89.6582V17H88.5222ZM89.0982 6.744C88.8636 6.744 88.6662 6.664 88.5062 6.504C88.3462 6.344 88.2662 6.152 88.2662 5.928C88.2662 5.704 88.3462 5.51733 88.5062 5.368C88.6662 5.208 88.8636 5.128 89.0982 5.128C89.3329 5.128 89.5302 5.20267 89.6902 5.352C89.8502 5.50133 89.9302 5.688 89.9302 5.912C89.9302 6.14667 89.8502 6.344 89.6902 6.504C89.5409 6.664 89.3436 6.744 89.0982 6.744ZM95.4751 17.08C94.6858 17.08 94.0778 16.8667 93.6511 16.44C93.2244 16.0133 93.0111 15.4107 93.0111 14.632V6.744H94.1471V14.568C94.1471 15.0587 94.2698 15.4373 94.5151 15.704C94.7711 15.9707 95.1338 16.104 95.6031 16.104C96.1044 16.104 96.5204 15.96 96.8511 15.672L97.2511 16.488C97.0271 16.6907 96.7551 16.84 96.4351 16.936C96.1258 17.032 95.8058 17.08 95.4751 17.08ZM91.5071 9.544V8.6H96.7071V9.544H91.5071ZM103.607 8.52C104.29 8.52 104.887 8.65333 105.399 8.92C105.922 9.176 106.327 9.57067 106.615 10.104C106.914 10.6373 107.063 11.3093 107.063 12.12V17H105.927V12.232C105.927 11.3467 105.703 10.68 105.255 10.232C104.818 9.77333 104.199 9.544 103.399 9.544C102.802 9.544 102.279 9.66667 101.831 9.912C101.394 10.1467 101.052 10.4933 100.807 10.952C100.572 11.4 100.455 11.944 100.455 12.584V17H99.3191V5.128H100.455V10.904L100.231 10.472C100.498 9.864 100.924 9.38933 101.511 9.048C102.098 8.696 102.796 8.52 103.607 8.52ZM119.423 17.096C118.58 17.096 117.802 16.9573 117.087 16.68C116.372 16.392 115.754 15.992 115.231 15.48C114.708 14.968 114.298 14.3653 113.999 13.672C113.711 12.9787 113.567 12.2213 113.567 11.4C113.567 10.5787 113.711 9.82133 113.999 9.128C114.298 8.43467 114.708 7.832 115.231 7.32C115.764 6.808 116.388 6.41333 117.103 6.136C117.818 5.848 118.596 5.704 119.439 5.704C120.25 5.704 121.012 5.84267 121.727 6.12C122.442 6.38667 123.044 6.792 123.535 7.336L122.783 8.088C122.324 7.61867 121.818 7.28267 121.263 7.08C120.708 6.86667 120.111 6.76 119.471 6.76C118.799 6.76 118.175 6.87733 117.599 7.112C117.023 7.336 116.522 7.66133 116.095 8.088C115.668 8.504 115.332 8.99467 115.087 9.56C114.852 10.1147 114.735 10.728 114.735 11.4C114.735 12.072 114.852 12.6907 115.087 13.256C115.332 13.8107 115.668 14.3013 116.095 14.728C116.522 15.144 117.023 15.4693 117.599 15.704C118.175 15.928 118.799 16.04 119.471 16.04C120.111 16.04 120.708 15.9333 121.263 15.72C121.818 15.5067 122.324 15.1653 122.783 14.696L123.535 15.448C123.044 15.992 122.442 16.4027 121.727 16.68C121.012 16.9573 120.244 17.096 119.423 17.096ZM130.958 17V15.144L130.91 14.84V11.736C130.91 11.0213 130.707 10.472 130.302 10.088C129.907 9.704 129.315 9.512 128.526 9.512C127.982 9.512 127.465 9.60267 126.974 9.784C126.483 9.96533 126.067 10.2053 125.726 10.504L125.214 9.656C125.641 9.29333 126.153 9.016 126.75 8.824C127.347 8.62133 127.977 8.52 128.638 8.52C129.726 8.52 130.563 8.792 131.15 9.336C131.747 9.86933 132.046 10.6853 132.046 11.784V17H130.958ZM128.062 17.08C127.433 17.08 126.883 16.9787 126.414 16.776C125.955 16.5627 125.603 16.2747 125.358 15.912C125.113 15.5387 124.99 15.112 124.99 14.632C124.99 14.1947 125.091 13.8 125.294 13.448C125.507 13.0853 125.849 12.7973 126.318 12.584C126.798 12.36 127.438 12.248 128.238 12.248H131.134V13.096H128.27C127.459 13.096 126.894 13.24 126.574 13.528C126.265 13.816 126.11 14.1733 126.11 14.6C126.11 15.08 126.297 15.464 126.67 15.752C127.043 16.04 127.566 16.184 128.238 16.184C128.878 16.184 129.427 16.04 129.886 15.752C130.355 15.4533 130.697 15.0267 130.91 14.472L131.166 15.256C130.953 15.8107 130.579 16.2533 130.046 16.584C129.523 16.9147 128.862 17.08 128.062 17.08ZM135.132 17V8.6H136.22V10.888L136.108 10.488C136.342 9.848 136.737 9.36267 137.292 9.032C137.846 8.69067 138.534 8.52 139.356 8.52V9.624C139.313 9.624 139.27 9.624 139.228 9.624C139.185 9.61333 139.142 9.608 139.1 9.608C138.214 9.608 137.521 9.88 137.02 10.424C136.518 10.9573 136.268 11.72 136.268 12.712V17H135.132ZM144.694 17.08C143.894 17.08 143.174 16.8987 142.534 16.536C141.905 16.1733 141.409 15.672 141.046 15.032C140.684 14.3813 140.502 13.6347 140.502 12.792C140.502 11.9387 140.684 11.192 141.046 10.552C141.409 9.912 141.905 9.416 142.534 9.064C143.174 8.70133 143.894 8.52 144.694 8.52C145.43 8.52 146.086 8.68533 146.662 9.016C147.249 9.34667 147.713 9.832 148.054 10.472C148.406 11.1013 148.582 11.8747 148.582 12.792C148.582 13.6987 148.412 14.472 148.07 15.112C147.729 15.752 147.265 16.2427 146.678 16.584C146.102 16.9147 145.441 17.08 144.694 17.08ZM144.774 16.072C145.372 16.072 145.905 15.9387 146.374 15.672C146.854 15.3947 147.228 15.0107 147.494 14.52C147.772 14.0187 147.91 13.4427 147.91 12.792C147.91 12.1307 147.772 11.5547 147.494 11.064C147.228 10.5733 146.854 10.1947 146.374 9.928C145.905 9.65067 145.372 9.512 144.774 9.512C144.188 9.512 143.66 9.65067 143.19 9.928C142.721 10.1947 142.348 10.5733 142.07 11.064C141.793 11.5547 141.654 12.1307 141.654 12.792C141.654 13.4427 141.793 14.0187 142.07 14.52C142.348 15.0107 142.721 15.3947 143.19 15.672C143.66 15.9387 144.188 16.072 144.774 16.072ZM147.942 17V14.472L148.054 12.776L147.894 11.08V5.128H149.03V17H147.942Z" fill="#1D1D1D"/>
</svg>
