<svg width="127" height="18" viewBox="0 0 127 18" fill="none" xmlns="http://www.w3.org/2000/svg">
<path d="M34.77 8.946C35.666 8.582 36.268 7.84 36.268 6.72C36.268 5.124 35.008 4.2 32.824 4.2H28.596V14H33.104C35.554 14 36.786 13.048 36.786 11.382C36.786 10.052 36.03 9.226 34.77 8.946ZM32.754 5.054C34.322 5.054 35.232 5.656 35.232 6.832C35.232 8.008 34.322 8.61 32.754 8.61H29.632V5.054H32.754ZM33.09 13.146H29.632V9.464H33.09C34.812 9.464 35.75 10.024 35.75 11.298C35.75 12.586 34.812 13.146 33.09 13.146ZM45.3667 10.318C45.3667 8.106 43.8687 6.58 41.7967 6.58C39.7247 6.58 38.1987 8.134 38.1987 10.318C38.1987 12.502 39.7667 14.07 42.0627 14.07C43.2247 14.07 44.2467 13.65 44.9047 12.866L44.3447 12.222C43.7847 12.866 42.9867 13.188 42.0907 13.188C40.4807 13.188 39.3047 12.166 39.1927 10.626H45.3527C45.3527 10.514 45.3667 10.402 45.3667 10.318ZM41.7967 7.434C43.2387 7.434 44.2887 8.442 44.4147 9.884H39.1927C39.3187 8.442 40.3687 7.434 41.7967 7.434ZM51.1419 6.58C49.8679 6.58 48.8739 7.098 48.3419 7.994V6.636H47.3899V14H48.3839V10.136C48.3839 8.456 49.3779 7.476 50.9599 7.476C52.3599 7.476 53.1719 8.274 53.1719 9.828V14H54.1659V9.73C54.1659 7.616 52.9339 6.58 51.1419 6.58ZM57.3685 5.026C57.7885 5.026 58.0965 4.704 58.0965 4.298C58.0965 3.92 57.7745 3.612 57.3685 3.612C56.9625 3.612 56.6405 3.934 56.6405 4.312C56.6405 4.704 56.9625 5.026 57.3685 5.026ZM56.8645 14H57.8585V6.636H56.8645V14ZM64.3763 6.58C63.1023 6.58 62.1083 7.098 61.5763 7.994V6.636H60.6243V14H61.6183V10.136C61.6183 8.456 62.6123 7.476 64.1943 7.476C65.5943 7.476 66.4063 8.274 66.4063 9.828V14H67.4003V9.73C67.4003 7.616 66.1683 6.58 64.3763 6.58ZM70.2109 12.544C69.7909 12.544 69.4689 12.866 69.4689 13.3C69.4689 13.664 69.6789 13.93 69.9729 14.014L69.4969 16.044H70.1689L70.7569 14.112C70.8969 13.72 70.9529 13.538 70.9529 13.3C70.9529 12.88 70.6449 12.544 70.2109 12.544ZM84.1078 4.2V12.152L77.7938 4.2H76.9398V14H77.9758V6.048L84.2758 14H85.1298V4.2H84.1078ZM88.6224 5.026C89.0424 5.026 89.3504 4.704 89.3504 4.298C89.3504 3.92 89.0284 3.612 88.6224 3.612C88.2164 3.612 87.8944 3.934 87.8944 4.312C87.8944 4.704 88.2164 5.026 88.6224 5.026ZM88.1184 14H89.1124V6.636H88.1184V14ZM97.7442 6.636V8.05C97.1282 7.084 96.0642 6.58 94.8322 6.58C92.7322 6.58 91.1362 8.022 91.1362 10.136C91.1362 12.25 92.7322 13.72 94.8322 13.72C96.0362 13.72 97.0862 13.23 97.7022 12.292V13.23C97.7022 15.05 96.8482 15.904 94.9862 15.904C93.8522 15.904 92.7882 15.526 92.0882 14.896L91.5842 15.652C92.3542 16.38 93.6702 16.786 95.0142 16.786C97.4502 16.786 98.6962 15.638 98.6962 13.104V6.636H97.7442ZM94.9302 12.838C93.3062 12.838 92.1442 11.732 92.1442 10.136C92.1442 8.54 93.3062 7.448 94.9302 7.448C96.5542 7.448 97.7302 8.54 97.7302 10.136C97.7302 11.732 96.5542 12.838 94.9302 12.838ZM107.902 10.318C107.902 8.106 106.404 6.58 104.332 6.58C102.26 6.58 100.734 8.134 100.734 10.318C100.734 12.502 102.302 14.07 104.598 14.07C105.76 14.07 106.782 13.65 107.44 12.866L106.88 12.222C106.32 12.866 105.522 13.188 104.626 13.188C103.016 13.188 101.84 12.166 101.728 10.626H107.888C107.888 10.514 107.902 10.402 107.902 10.318ZM104.332 7.434C105.774 7.434 106.824 8.442 106.95 9.884H101.728C101.854 8.442 102.904 7.434 104.332 7.434ZM110.877 8.078V6.636H109.925V14H110.919V10.248C110.919 8.512 111.857 7.532 113.397 7.532C113.467 7.532 113.551 7.546 113.635 7.546V6.58C112.277 6.58 111.339 7.098 110.877 8.078ZM115.939 5.026C116.359 5.026 116.667 4.704 116.667 4.298C116.667 3.92 116.345 3.612 115.939 3.612C115.533 3.612 115.211 3.934 115.211 4.312C115.211 4.704 115.533 5.026 115.939 5.026ZM115.435 14H116.429V6.636H115.435V14ZM121.771 6.58C120.609 6.58 119.517 6.944 118.775 7.574L119.223 8.316C119.825 7.784 120.721 7.448 121.673 7.448C123.045 7.448 123.759 8.134 123.759 9.394V9.842H121.421C119.307 9.842 118.579 10.794 118.579 11.928C118.579 13.202 119.601 14.07 121.267 14.07C122.485 14.07 123.353 13.608 123.801 12.852V14H124.753V9.436C124.753 7.532 123.675 6.58 121.771 6.58ZM121.421 13.286C120.245 13.286 119.559 12.754 119.559 11.9C119.559 11.144 120.021 10.584 121.449 10.584H123.759V11.788C123.367 12.754 122.541 13.286 121.421 13.286Z" fill="#8E8E8E"/>
<path d="M9 9.75C10.2426 9.75 11.25 8.74264 11.25 7.5C11.25 6.25736 10.2426 5.25 9 5.25C7.75736 5.25 6.75 6.25736 6.75 7.5C6.75 8.74264 7.75736 9.75 9 9.75Z" stroke="#8E8E8E" stroke-width="1.5" stroke-linecap="round" stroke-linejoin="round"/>
<path d="M9 1.5C7.4087 1.5 5.88258 2.13214 4.75736 3.25736C3.63214 4.38258 3 5.9087 3 7.5C3 8.919 3.3015 9.8475 4.125 10.875L9 16.5L13.875 10.875C14.6985 9.8475 15 8.919 15 7.5C15 5.9087 14.3679 4.38258 13.2426 3.25736C12.1174 2.13214 10.5913 1.5 9 1.5V1.5Z" stroke="#8E8E8E" stroke-width="1.5" stroke-linecap="round" stroke-linejoin="round"/>
</svg>
