<svg width="127" height="18" viewBox="0 0 127 18" fill="none" xmlns="http://www.w3.org/2000/svg">
<path d="M28.596 14H35.12V13.104H29.632V4.2H28.596V14ZM39.2335 6.58C38.0715 6.58 36.9795 6.944 36.2375 7.574L36.6855 8.316C37.2875 7.784 38.1835 7.448 39.1355 7.448C40.5075 7.448 41.2215 8.134 41.2215 9.394V9.842H38.8835C36.7695 9.842 36.0415 10.794 36.0415 11.928C36.0415 13.202 37.0635 14.07 38.7295 14.07C39.9475 14.07 40.8155 13.608 41.2635 12.852V14H42.2155V9.436C42.2155 7.532 41.1375 6.58 39.2335 6.58ZM38.8835 13.286C37.7075 13.286 37.0215 12.754 37.0215 11.9C37.0215 11.144 37.4835 10.584 38.9115 10.584H41.2215V11.788C40.8295 12.754 40.0035 13.286 38.8835 13.286ZM50.8086 6.636V8.05C50.1926 7.084 49.1286 6.58 47.8966 6.58C45.7966 6.58 44.2006 8.022 44.2006 10.136C44.2006 12.25 45.7966 13.72 47.8966 13.72C49.1006 13.72 50.1506 13.23 50.7666 12.292V13.23C50.7666 15.05 49.9126 15.904 48.0506 15.904C46.9166 15.904 45.8526 15.526 45.1526 14.896L44.6486 15.652C45.4186 16.38 46.7346 16.786 48.0786 16.786C50.5146 16.786 51.7606 15.638 51.7606 13.104V6.636H50.8086ZM47.9946 12.838C46.3706 12.838 45.2086 11.732 45.2086 10.136C45.2086 8.54 46.3706 7.448 47.9946 7.448C49.6186 7.448 50.7946 8.54 50.7946 10.136C50.7946 11.732 49.6186 12.838 47.9946 12.838ZM57.5503 14.07C59.7063 14.07 61.2883 12.502 61.2883 10.318C61.2883 8.134 59.7063 6.58 57.5503 6.58C55.3943 6.58 53.7983 8.134 53.7983 10.318C53.7983 12.502 55.3943 14.07 57.5503 14.07ZM57.5503 13.188C55.9823 13.188 54.8063 12.04 54.8063 10.318C54.8063 8.596 55.9823 7.448 57.5503 7.448C59.1183 7.448 60.2803 8.596 60.2803 10.318C60.2803 12.04 59.1183 13.188 57.5503 13.188ZM65.2916 14.07C67.2096 14.07 68.3296 13.244 68.3296 11.97C68.3296 9.142 63.5556 10.64 63.5556 8.652C63.5556 7.952 64.1436 7.434 65.4736 7.434C66.2296 7.434 66.9996 7.616 67.6436 8.064L68.0776 7.266C67.4616 6.846 66.4256 6.58 65.4736 6.58C63.5976 6.58 62.5616 7.476 62.5616 8.68C62.5616 11.592 67.3356 10.08 67.3356 11.998C67.3356 12.726 66.7616 13.202 65.3616 13.202C64.3256 13.202 63.3316 12.838 62.7436 12.376L62.2956 13.16C62.8976 13.678 64.0736 14.07 65.2916 14.07ZM70.2793 12.544C69.8593 12.544 69.5373 12.866 69.5373 13.3C69.5373 13.664 69.7473 13.93 70.0413 14.014L69.5653 16.044H70.2373L70.8253 14.112C70.9653 13.72 71.0213 13.538 71.0213 13.3C71.0213 12.88 70.7133 12.544 70.2793 12.544ZM84.1761 4.2V12.152L77.8621 4.2H77.0081V14H78.0441V6.048L84.3441 14H85.1981V4.2H84.1761ZM88.6908 5.026C89.1108 5.026 89.4188 4.704 89.4188 4.298C89.4188 3.92 89.0968 3.612 88.6908 3.612C88.2848 3.612 87.9628 3.934 87.9628 4.312C87.9628 4.704 88.2848 5.026 88.6908 5.026ZM88.1868 14H89.1808V6.636H88.1868V14ZM97.8125 6.636V8.05C97.1965 7.084 96.1325 6.58 94.9005 6.58C92.8005 6.58 91.2045 8.022 91.2045 10.136C91.2045 12.25 92.8005 13.72 94.9005 13.72C96.1045 13.72 97.1545 13.23 97.7705 12.292V13.23C97.7705 15.05 96.9165 15.904 95.0545 15.904C93.9205 15.904 92.8565 15.526 92.1565 14.896L91.6525 15.652C92.4225 16.38 93.7385 16.786 95.0825 16.786C97.5185 16.786 98.7645 15.638 98.7645 13.104V6.636H97.8125ZM94.9985 12.838C93.3745 12.838 92.2125 11.732 92.2125 10.136C92.2125 8.54 93.3745 7.448 94.9985 7.448C96.6225 7.448 97.7985 8.54 97.7985 10.136C97.7985 11.732 96.6225 12.838 94.9985 12.838ZM107.97 10.318C107.97 8.106 106.472 6.58 104.4 6.58C102.328 6.58 100.802 8.134 100.802 10.318C100.802 12.502 102.37 14.07 104.666 14.07C105.828 14.07 106.85 13.65 107.508 12.866L106.948 12.222C106.388 12.866 105.59 13.188 104.694 13.188C103.084 13.188 101.908 12.166 101.796 10.626H107.956C107.956 10.514 107.97 10.402 107.97 10.318ZM104.4 7.434C105.842 7.434 106.892 8.442 107.018 9.884H101.796C101.922 8.442 102.972 7.434 104.4 7.434ZM110.945 8.078V6.636H109.993V14H110.987V10.248C110.987 8.512 111.925 7.532 113.465 7.532C113.535 7.532 113.619 7.546 113.703 7.546V6.58C112.345 6.58 111.407 7.098 110.945 8.078ZM116.007 5.026C116.427 5.026 116.735 4.704 116.735 4.298C116.735 3.92 116.413 3.612 116.007 3.612C115.601 3.612 115.279 3.934 115.279 4.312C115.279 4.704 115.601 5.026 116.007 5.026ZM115.503 14H116.497V6.636H115.503V14ZM121.839 6.58C120.677 6.58 119.585 6.944 118.843 7.574L119.291 8.316C119.893 7.784 120.789 7.448 121.741 7.448C123.113 7.448 123.827 8.134 123.827 9.394V9.842H121.489C119.375 9.842 118.647 10.794 118.647 11.928C118.647 13.202 119.669 14.07 121.335 14.07C122.553 14.07 123.421 13.608 123.869 12.852V14H124.821V9.436C124.821 7.532 123.743 6.58 121.839 6.58ZM121.489 13.286C120.313 13.286 119.627 12.754 119.627 11.9C119.627 11.144 120.089 10.584 121.517 10.584H123.827V11.788C123.435 12.754 122.609 13.286 121.489 13.286Z" fill="#8E8E8E"/>
<path d="M9 9.75C10.2426 9.75 11.25 8.74264 11.25 7.5C11.25 6.25736 10.2426 5.25 9 5.25C7.75736 5.25 6.75 6.25736 6.75 7.5C6.75 8.74264 7.75736 9.75 9 9.75Z" stroke="#8E8E8E" stroke-width="1.5" stroke-linecap="round" stroke-linejoin="round"/>
<path d="M9 1.5C7.4087 1.5 5.88258 2.13214 4.75736 3.25736C3.63214 4.38258 3 5.9087 3 7.5C3 8.919 3.3015 9.8475 4.125 10.875L9 16.5L13.875 10.875C14.6985 9.8475 15 8.919 15 7.5C15 5.9087 14.3679 4.38258 13.2426 3.25736C12.1174 2.13214 10.5913 1.5 9 1.5V1.5Z" stroke="#8E8E8E" stroke-width="1.5" stroke-linecap="round" stroke-linejoin="round"/>
</svg>
