<svg width="81" height="21" viewBox="0 0 81 21" fill="none" xmlns="http://www.w3.org/2000/svg">
<path d="M2.5 6H4.16667H17.5" stroke="#1D1D1D" stroke-width="1.5" stroke-linecap="round" stroke-linejoin="round"/>
<path d="M6.6665 5.99996V4.33329C6.6665 3.89127 6.8421 3.46734 7.15466 3.15478C7.46722 2.84222 7.89114 2.66663 8.33317 2.66663H11.6665C12.1085 2.66663 12.5325 2.84222 12.845 3.15478C13.1576 3.46734 13.3332 3.89127 13.3332 4.33329V5.99996M15.8332 5.99996V17.6666C15.8332 18.1087 15.6576 18.5326 15.345 18.8451C15.0325 19.1577 14.6085 19.3333 14.1665 19.3333H5.83317C5.39114 19.3333 4.96722 19.1577 4.65466 18.8451C4.3421 18.5326 4.1665 18.1087 4.1665 17.6666V5.99996H15.8332Z" stroke="#1D1D1D" stroke-width="1.5" stroke-linecap="round" stroke-linejoin="round"/>
<path d="M8.3335 10.1666V15.1666" stroke="#1D1D1D" stroke-width="1.5" stroke-linecap="round" stroke-linejoin="round"/>
<path d="M11.6665 10.1666V15.1666" stroke="#1D1D1D" stroke-width="1.5" stroke-linecap="round" stroke-linejoin="round"/>
<path d="M29.824 16H34.384C37.968 16 40.384 13.696 40.384 10.4C40.384 7.104 37.968 4.8 34.384 4.8H29.824V16ZM31.008 14.976V5.824H34.32C37.296 5.824 39.216 7.712 39.216 10.4C39.216 13.088 37.296 14.976 34.32 14.976H31.008ZM50.1468 11.792C50.1468 9.264 48.4348 7.52 46.0668 7.52C43.6988 7.52 41.9548 9.296 41.9548 11.792C41.9548 14.288 43.7468 16.08 46.3708 16.08C47.6988 16.08 48.8668 15.6 49.6188 14.704L48.9788 13.968C48.3388 14.704 47.4268 15.072 46.4028 15.072C44.5628 15.072 43.2188 13.904 43.0908 12.144H50.1308C50.1308 12.016 50.1468 11.888 50.1468 11.792ZM46.0668 8.496C47.7148 8.496 48.9148 9.648 49.0588 11.296H43.0908C43.2348 9.648 44.4348 8.496 46.0668 8.496ZM52.459 16H53.595V4.128H52.459V16ZM64.0999 11.792C64.0999 9.264 62.3879 7.52 60.0199 7.52C57.6519 7.52 55.9079 9.296 55.9079 11.792C55.9079 14.288 57.6999 16.08 60.3239 16.08C61.6519 16.08 62.8199 15.6 63.5719 14.704L62.9319 13.968C62.2919 14.704 61.3799 15.072 60.3559 15.072C58.5159 15.072 57.1719 13.904 57.0439 12.144H64.0839C64.0839 12.016 64.0999 11.888 64.0999 11.792ZM60.0199 8.496C61.6679 8.496 62.8679 9.648 63.0119 11.296H57.0439C57.1879 9.648 58.3879 8.496 60.0199 8.496ZM70.4441 14.672C70.1241 14.96 69.6601 15.104 69.1961 15.104C68.2521 15.104 67.7401 14.56 67.7401 13.568V8.544H70.3001V7.584H67.7401V5.744H66.6041V7.584H65.1001V8.544H66.6041V13.632C66.6041 15.184 67.4841 16.08 69.0681 16.08C69.7241 16.08 70.3961 15.888 70.8441 15.488L70.4441 14.672ZM79.9593 11.792C79.9593 9.264 78.2473 7.52 75.8793 7.52C73.5113 7.52 71.7673 9.296 71.7673 11.792C71.7673 14.288 73.5593 16.08 76.1833 16.08C77.5113 16.08 78.6793 15.6 79.4313 14.704L78.7913 13.968C78.1513 14.704 77.2393 15.072 76.2153 15.072C74.3753 15.072 73.0312 13.904 72.9033 12.144H79.9433C79.9433 12.016 79.9593 11.888 79.9593 11.792ZM75.8793 8.496C77.5273 8.496 78.7273 9.648 78.8713 11.296H72.9033C73.0473 9.648 74.2473 8.496 75.8793 8.496Z" fill="black"/>
</svg>
