<svg width="62" height="21" viewBox="0 0 62 21" fill="none" xmlns="http://www.w3.org/2000/svg">
<g clip-path="url(#clip0_297_958)">
<path d="M9.1665 3.33337H3.33317C2.89114 3.33337 2.46722 3.50897 2.15466 3.82153C1.8421 4.13409 1.6665 4.55801 1.6665 5.00004V16.6667C1.6665 17.1087 1.8421 17.5327 2.15466 17.8452C2.46722 18.1578 2.89114 18.3334 3.33317 18.3334H14.9998C15.4419 18.3334 15.8658 18.1578 16.1783 17.8452C16.4909 17.5327 16.6665 17.1087 16.6665 16.6667V10.8334" stroke="#1D1D1D" stroke-width="1.5" stroke-linecap="round" stroke-linejoin="round"/>
<path d="M15.4165 2.08332C15.748 1.7518 16.1977 1.56555 16.6665 1.56555C17.1353 1.56555 17.585 1.7518 17.9165 2.08332C18.248 2.41484 18.4343 2.86448 18.4343 3.33332C18.4343 3.80216 18.248 4.2518 17.9165 4.58332L9.99984 12.5L6.6665 13.3333L7.49984 9.99999L15.4165 2.08332Z" stroke="#1D1D1D" stroke-width="1.5" stroke-linecap="round" stroke-linejoin="round"/>
</g>
<path d="M32.008 14.976V10.816H37.8V9.808H32.008V5.824H38.504V4.8H30.824V16H38.744V14.976H32.008ZM47.7061 4.128V9.184C47.0021 8.096 45.8501 7.52 44.5061 7.52C42.1061 7.52 40.3141 9.248 40.3141 11.792C40.3141 14.336 42.1061 16.08 44.5061 16.08C45.8981 16.08 47.0661 15.472 47.7541 14.336V16H48.8421V4.128H47.7061ZM44.6021 15.072C42.8101 15.072 41.4661 13.76 41.4661 11.792C41.4661 9.824 42.8101 8.512 44.6021 8.512C46.3781 8.512 47.7221 9.824 47.7221 11.792C47.7221 13.76 46.3781 15.072 44.6021 15.072ZM52.5819 5.744C53.0619 5.744 53.4139 5.376 53.4139 4.912C53.4139 4.48 53.0459 4.128 52.5819 4.128C52.1179 4.128 51.7499 4.496 51.7499 4.928C51.7499 5.376 52.1179 5.744 52.5819 5.744ZM52.0059 16H53.1419V7.584H52.0059V16ZM60.3348 14.672C60.0148 14.96 59.5508 15.104 59.0868 15.104C58.1428 15.104 57.6308 14.56 57.6308 13.568V8.544H60.1908V7.584H57.6308V5.744H56.4948V7.584H54.9908V8.544H56.4948V13.632C56.4948 15.184 57.3748 16.08 58.9588 16.08C59.6148 16.08 60.2868 15.888 60.7348 15.488L60.3348 14.672Z" fill="#1D1D1D"/>
<defs>
<clipPath id="clip0_297_958">
<rect width="20" height="20" fill="white"/>
</clipPath>
</defs>
</svg>
