<svg width="335" height="60" viewBox="0 0 335 60" fill="none" xmlns="http://www.w3.org/2000/svg">
<rect width="335" height="60" rx="5" fill="white"/>
<rect x="0.5" y="0.5" width="334" height="59" rx="4.5" stroke="#D4D3D3" stroke-opacity="0.4"/>
<path d="M64.688 36.096C66.336 36.096 67.808 35.536 68.8 34.448L68.048 33.696C67.136 34.64 66.016 35.04 64.736 35.04C62.032 35.04 60 33.056 60 30.4C60 27.744 62.032 25.76 64.736 25.76C66.016 25.76 67.136 26.16 68.048 27.088L68.8 26.336C67.808 25.248 66.336 24.704 64.704 24.704C61.328 24.704 58.832 27.12 58.832 30.4C58.832 33.68 61.328 36.096 64.688 36.096ZM73.903 27.52C72.575 27.52 71.327 27.936 70.479 28.656L70.991 29.504C71.679 28.896 72.703 28.512 73.791 28.512C75.359 28.512 76.175 29.296 76.175 30.736V31.248H73.503C71.087 31.248 70.255 32.336 70.255 33.632C70.255 35.088 71.423 36.08 73.327 36.08C74.719 36.08 75.711 35.552 76.223 34.688V36H77.311V30.784C77.311 28.608 76.079 27.52 73.903 27.52ZM73.503 35.184C72.159 35.184 71.375 34.576 71.375 33.6C71.375 32.736 71.903 32.096 73.535 32.096H76.175V33.472C75.727 34.576 74.783 35.184 73.503 35.184ZM80.3965 36H81.5325V24.128H80.3965V36ZM84.6934 36H85.8294V24.128H84.6934V36ZM97.9298 36.096C100.794 36.096 102.522 34.432 102.522 31.216V24.8H101.37V31.168C101.37 33.824 100.122 35.04 97.9298 35.04C95.7538 35.04 94.5058 33.824 94.5058 31.168V24.8H93.3218V31.216C93.3218 34.432 95.0658 36.096 97.9298 36.096ZM108.106 36.08C110.298 36.08 111.578 35.136 111.578 33.68C111.578 30.448 106.122 32.16 106.122 29.888C106.122 29.088 106.794 28.496 108.314 28.496C109.178 28.496 110.058 28.704 110.794 29.216L111.29 28.304C110.586 27.824 109.402 27.52 108.314 27.52C106.17 27.52 104.986 28.544 104.986 29.92C104.986 33.248 110.442 31.52 110.442 33.712C110.442 34.544 109.786 35.088 108.186 35.088C107.002 35.088 105.866 34.672 105.194 34.144L104.682 35.04C105.37 35.632 106.714 36.08 108.106 36.08Z" fill="#1D1D1D"/>
<g clip-path="url(#clip0_579_2448)">
<g filter="url(#filter0_d_579_2448)">
<path d="M25.987 22.0656C26.4246 21.9337 26.8942 21.9556 27.3175 22.1277C27.7409 22.2998 28.0926 22.6118 28.314 23.0116L28.388 23.1606L29.05 24.6316C29.2509 25.0781 29.3161 25.5738 29.2375 26.057C29.159 26.5403 28.94 26.9898 28.608 27.3496L28.475 27.4816L27.432 28.4546C27.244 28.6326 27.385 29.3216 28.065 30.4996C28.677 31.5596 29.175 32.0546 29.42 32.0816H29.463L29.516 32.0716L31.566 31.4446C31.8415 31.3601 32.1355 31.3568 32.4129 31.435C32.6903 31.5132 32.9392 31.6696 33.13 31.8856L33.221 32.0006L34.578 33.8806C34.8439 34.2491 34.9765 34.6972 34.9538 35.1511C34.931 35.6049 34.7544 36.0375 34.453 36.3776L34.331 36.5036L33.789 37.0176C33.3023 37.4785 32.6935 37.79 32.0349 37.915C31.3763 38.04 30.6957 37.9732 30.074 37.7226C28.139 36.9426 26.381 35.1606 24.784 32.3946C23.184 29.6216 22.519 27.2046 22.816 25.1346C22.9059 24.5089 23.1635 23.9192 23.5616 23.4281C23.9597 22.937 24.4834 22.563 25.077 22.3456L25.27 22.2816L25.987 22.0656Z" fill="#204ECF"/>
</g>
</g>
<defs>
<filter id="filter0_d_579_2448" x="14.7471" y="17.9805" width="28.2091" height="31.9961" filterUnits="userSpaceOnUse" color-interpolation-filters="sRGB">
<feFlood flood-opacity="0" result="BackgroundImageFix"/>
<feColorMatrix in="SourceAlpha" type="matrix" values="0 0 0 0 0 0 0 0 0 0 0 0 0 0 0 0 0 0 127 0" result="hardAlpha"/>
<feOffset dy="4"/>
<feGaussianBlur stdDeviation="4"/>
<feComposite in2="hardAlpha" operator="out"/>
<feColorMatrix type="matrix" values="0 0 0 0 0.12549 0 0 0 0 0.305882 0 0 0 0 0.811765 0 0 0 0.05 0"/>
<feBlend mode="normal" in2="BackgroundImageFix" result="effect1_dropShadow_579_2448"/>
<feBlend mode="normal" in="SourceGraphic" in2="effect1_dropShadow_579_2448" result="shape"/>
</filter>
<clipPath id="clip0_579_2448">
<rect width="20" height="20" fill="white" transform="translate(19 20)"/>
</clipPath>
</defs>
</svg>
