<svg width="335" height="60" viewBox="0 0 335 60" fill="none" xmlns="http://www.w3.org/2000/svg">
<rect width="335" height="60" rx="5" fill="white"/>
<rect x="0.5" y="0.5" width="334" height="59" rx="4.5" stroke="#D4D3D3" stroke-opacity="0.4"/>
<g clip-path="url(#clip0_579_2453)">
<g filter="url(#filter0_d_579_2453)">
<path d="M39 22H23C21.9 22 21.01 22.9 21.01 24L21 36C21 37.1 21.9 38 23 38H39C40.1 38 41 37.1 41 36V24C41 22.9 40.1 22 39 22ZM39 26L31 31L23 26V24L31 29L39 24V26Z" fill="#204ECF"/>
</g>
</g>
<path d="M62.912 36.096C65.776 36.096 67.088 34.688 67.088 33.04C67.088 28.96 60.192 30.816 60.192 27.744C60.192 26.624 61.104 25.712 63.152 25.712C64.144 25.712 65.264 26.016 66.224 26.64L66.624 25.696C65.728 25.072 64.416 24.704 63.152 24.704C60.304 24.704 59.024 26.128 59.024 27.776C59.024 31.92 65.92 30.032 65.92 33.104C65.92 34.208 65.008 35.088 62.912 35.088C61.44 35.088 60.016 34.512 59.216 33.728L58.752 34.64C59.584 35.504 61.232 36.096 62.912 36.096ZM76.7718 31.792C76.7718 29.264 75.0598 27.52 72.6918 27.52C70.3238 27.52 68.5798 29.296 68.5798 31.792C68.5798 34.288 70.3718 36.08 72.9958 36.08C74.3238 36.08 75.4918 35.6 76.2438 34.704L75.6038 33.968C74.9638 34.704 74.0518 35.072 73.0278 35.072C71.1878 35.072 69.8438 33.904 69.7158 32.144H76.7558C76.7558 32.016 76.7718 31.888 76.7718 31.792ZM72.6918 28.496C74.3398 28.496 75.5398 29.648 75.6838 31.296H69.7158C69.8598 29.648 71.0598 28.496 72.6918 28.496ZM83.372 27.52C81.916 27.52 80.78 28.112 80.172 29.136V27.584H79.084V36H80.22V31.584C80.22 29.664 81.356 28.544 83.164 28.544C84.764 28.544 85.692 29.456 85.692 31.232V36H86.828V31.12C86.828 28.704 85.42 27.52 83.372 27.52ZM96.4874 24.128V29.184C95.7834 28.096 94.6314 27.52 93.2874 27.52C90.8874 27.52 89.0954 29.248 89.0954 31.792C89.0954 34.336 90.8874 36.08 93.2874 36.08C94.6794 36.08 95.8474 35.472 96.5354 34.336V36H97.6234V24.128H96.4874ZM93.3834 35.072C91.5914 35.072 90.2474 33.76 90.2474 31.792C90.2474 29.824 91.5914 28.512 93.3834 28.512C95.1594 28.512 96.5034 29.824 96.5034 31.792C96.5034 33.76 95.1594 35.072 93.3834 35.072ZM107.919 27.52C106.591 27.52 105.343 27.936 104.495 28.656L105.007 29.504C105.695 28.896 106.719 28.512 107.807 28.512C109.375 28.512 110.191 29.296 110.191 30.736V31.248H107.519C105.103 31.248 104.271 32.336 104.271 33.632C104.271 35.088 105.439 36.08 107.343 36.08C108.735 36.08 109.727 35.552 110.239 34.688V36H111.327V30.784C111.327 28.608 110.095 27.52 107.919 27.52ZM107.519 35.184C106.175 35.184 105.391 34.576 105.391 33.6C105.391 32.736 105.919 32.096 107.551 32.096H110.191V33.472C109.743 34.576 108.799 35.184 107.519 35.184ZM118.7 27.52C117.244 27.52 116.108 28.112 115.5 29.136V27.584H114.412V36H115.548V31.584C115.548 29.664 116.684 28.544 118.492 28.544C120.092 28.544 121.02 29.456 121.02 31.232V36H122.156V31.12C122.156 28.704 120.748 27.52 118.7 27.52ZM136.772 31.792C136.772 29.264 135.06 27.52 132.692 27.52C130.324 27.52 128.58 29.296 128.58 31.792C128.58 34.288 130.372 36.08 132.996 36.08C134.324 36.08 135.492 35.6 136.244 34.704L135.604 33.968C134.964 34.704 134.052 35.072 133.028 35.072C131.188 35.072 129.844 33.904 129.716 32.144H136.756C136.756 32.016 136.772 31.888 136.772 31.792ZM132.692 28.496C134.34 28.496 135.54 29.648 135.684 31.296H129.716C129.86 29.648 131.06 28.496 132.692 28.496ZM149.58 27.52C148.06 27.52 146.86 28.208 146.252 29.296C145.74 28.112 144.652 27.52 143.26 27.52C141.852 27.52 140.764 28.112 140.172 29.12V27.584H139.084V36H140.22V31.584C140.22 29.664 141.324 28.544 143.036 28.544C144.572 28.544 145.468 29.456 145.468 31.232V36H146.604V31.584C146.604 29.664 147.692 28.544 149.42 28.544C150.94 28.544 151.836 29.456 151.836 31.232V36H152.972V31.12C152.972 28.704 151.628 27.52 149.58 27.52ZM158.997 27.52C157.669 27.52 156.421 27.936 155.573 28.656L156.085 29.504C156.773 28.896 157.797 28.512 158.885 28.512C160.453 28.512 161.269 29.296 161.269 30.736V31.248H158.597C156.181 31.248 155.349 32.336 155.349 33.632C155.349 35.088 156.517 36.08 158.421 36.08C159.813 36.08 160.805 35.552 161.317 34.688V36H162.405V30.784C162.405 28.608 161.173 27.52 158.997 27.52ZM158.597 35.184C157.253 35.184 156.469 34.576 156.469 33.6C156.469 32.736 156.997 32.096 158.629 32.096H161.269V33.472C160.821 34.576 159.877 35.184 158.597 35.184ZM166.066 25.744C166.546 25.744 166.898 25.376 166.898 24.912C166.898 24.48 166.53 24.128 166.066 24.128C165.602 24.128 165.234 24.496 165.234 24.928C165.234 25.376 165.602 25.744 166.066 25.744ZM165.49 36H166.626V27.584H165.49V36ZM169.787 36H170.923V24.128H169.787V36Z" fill="#1D1D1D"/>
<defs>
<filter id="filter0_d_579_2453" x="13" y="18" width="36" height="32" filterUnits="userSpaceOnUse" color-interpolation-filters="sRGB">
<feFlood flood-opacity="0" result="BackgroundImageFix"/>
<feColorMatrix in="SourceAlpha" type="matrix" values="0 0 0 0 0 0 0 0 0 0 0 0 0 0 0 0 0 0 127 0" result="hardAlpha"/>
<feOffset dy="4"/>
<feGaussianBlur stdDeviation="4"/>
<feComposite in2="hardAlpha" operator="out"/>
<feColorMatrix type="matrix" values="0 0 0 0 0.12549 0 0 0 0 0.305882 0 0 0 0 0.811765 0 0 0 0.05 0"/>
<feBlend mode="normal" in2="BackgroundImageFix" result="effect1_dropShadow_579_2453"/>
<feBlend mode="normal" in="SourceGraphic" in2="effect1_dropShadow_579_2453" result="shape"/>
</filter>
<clipPath id="clip0_579_2453">
<rect width="24" height="24" fill="white" transform="translate(19 18)"/>
</clipPath>
</defs>
</svg>
