<svg width="338" height="174" viewBox="0 0 338 174" fill="none" xmlns="http://www.w3.org/2000/svg">
<path d="M106.556 52.992V173.49L6.35381 174C6.60539 168.732 -9.88804 99.2591 11.2531 59.5701C41.2537 3.22934 66.8914 48.7925 100.734 52.7489C102.647 52.9678 104.576 53.0649 106.556 52.992Z" fill="#E4F3FF"/>
<path d="M336.794 171.159C336.66 172.664 325.804 170.916 325.653 172.397L257.917 172.737H106.556V52.9914C108.469 52.9185 110.399 52.7001 112.378 52.3115C119.023 51.0005 125.986 47.6996 133.369 41.4853C209.779 -22.6235 271.994 -5.21859 306.928 44.8352C311.223 51.0007 315.116 57.6762 318.572 64.7402C333.421 95.1559 340.133 133.048 336.794 171.159Z" fill="#F3F8FC"/>
<path d="M191.077 37.4922H161.414C159.509 37.4922 157.964 39.0566 157.964 40.9866V55.2422C157.964 57.1722 159.509 58.7366 161.414 58.7366H164.073C164.147 60.029 163.965 61.9512 162.899 64.4093C166.327 62.8078 168.3 60.4032 169.331 58.7366H191.077C192.982 58.7366 194.527 57.1722 194.527 55.2422V40.9866C194.527 39.0569 192.982 37.4922 191.077 37.4922Z" fill="#60A8FF"/>
<path d="M178.423 44.2857H163.71C163.306 44.2857 162.978 43.9537 162.978 43.5443C162.978 43.1347 163.306 42.8027 163.71 42.8027H178.423C178.827 42.8027 179.155 43.1347 179.155 43.5443C179.155 43.9537 178.827 44.2857 178.423 44.2857Z" fill="white"/>
<path d="M188.973 48.6055H163.427C163.179 48.6055 162.978 48.4023 162.978 48.1515C162.978 47.9007 163.179 47.6973 163.427 47.6973H188.973C189.22 47.6973 189.421 47.9007 189.421 48.1515C189.421 48.4023 189.22 48.6055 188.973 48.6055Z" fill="#D2E6FF"/>
<path d="M188.973 51.127H163.427C163.179 51.127 162.978 50.9238 162.978 50.6727C162.978 50.422 163.179 50.2188 163.427 50.2188H188.973C189.22 50.2188 189.421 50.422 189.421 50.6727C189.421 50.9235 189.22 51.127 188.973 51.127Z" fill="#D2E6FF"/>
<path d="M183.4 53.8145H163.427C163.179 53.8145 162.978 53.611 162.978 53.3602C162.978 53.1095 163.179 52.9062 163.427 52.9062H183.4C183.648 52.9062 183.849 53.1095 183.849 53.3602C183.849 53.611 183.648 53.8145 183.4 53.8145Z" fill="#D2E6FF"/>
<path d="M188.772 44.2857H181.754C181.35 44.2857 181.022 43.9537 181.022 43.5443C181.022 43.1347 181.349 42.8027 181.754 42.8027H188.772C189.176 42.8027 189.504 43.1347 189.504 43.5443C189.504 43.9537 189.176 44.2857 188.772 44.2857Z" fill="white"/>
<path opacity="0.6" d="M337.633 152.201C337.65 158.78 337.381 165.382 336.794 172.009C336.66 173.514 325.804 171.766 325.653 173.247L257.917 173.587H106.556V173.49L257.917 172.737L325.653 172.397C325.804 170.917 336.66 172.665 336.794 171.159C337.348 164.824 337.633 158.488 337.633 152.201Z" fill="#EBF3FA"/>
<path d="M307.845 81.1649V172.74H112.379V93.0522H127.362V71.3041H142.346V100.686H154.476V94.1208H175.606V105.22H184.802V80.2939H209.418V37.5488H228.883V60.3466H233.322V41.2492H252.786V70.6663H270.428V52.6139H289.295V70.6663H292.813V81.1649H307.845Z" fill="#E8F0FD"/>
<path d="M84.0063 89.1875H66.6249C65.8269 89.1875 65.1741 88.2429 65.1741 87.0886V62.8177C65.1741 61.6633 65.8269 60.7188 66.6249 60.7188H84.0065C84.8044 60.7188 85.4572 61.6633 85.4572 62.8177V87.0884C85.4571 88.2429 84.8044 89.1875 84.0063 89.1875Z" fill="#C0D8FB"/>
<path d="M83.2535 87.9531H67.3778C66.649 87.9531 66.0526 87.0906 66.0526 86.0361V63.8682C66.0526 62.8137 66.649 61.9512 67.3778 61.9512H83.2534C83.9822 61.9512 84.5784 62.8137 84.5784 63.8682V86.0361C84.5785 87.0906 83.9822 87.9531 83.2535 87.9531Z" fill="#DFEBFD"/>
<path d="M75.3156 65.157C75.5476 65.157 75.7357 64.8849 75.7357 64.5492C75.7357 64.2135 75.5476 63.9414 75.3156 63.9414C75.0835 63.9414 74.8954 64.2135 74.8954 64.5492C74.8954 64.8849 75.0835 65.157 75.3156 65.157Z" fill="#B7D3F3"/>
<path d="M78.653 66.3113C78.8851 66.3113 79.0732 66.0392 79.0732 65.7035C79.0732 65.3678 78.8851 65.0957 78.653 65.0957C78.421 65.0957 78.2329 65.3678 78.2329 65.7035C78.2329 66.0392 78.421 66.3113 78.653 66.3113Z" fill="#B7D3F3"/>
<path d="M81.418 69.866C81.65 69.866 81.8381 69.5939 81.8381 69.2582C81.8381 68.9225 81.65 68.6504 81.418 68.6504C81.186 68.6504 80.9979 68.9225 80.9979 69.2582C80.9979 69.5939 81.186 69.866 81.418 69.866Z" fill="#B7D3F3"/>
<path d="M82.629 75.1297C82.861 75.1297 83.0491 74.8576 83.0491 74.5219C83.0491 74.1862 82.861 73.9141 82.629 73.9141C82.397 73.9141 82.2089 74.1862 82.2089 74.5219C82.2089 74.8576 82.397 75.1297 82.629 75.1297Z" fill="#B7D3F3"/>
<path d="M81.5972 80.948C81.8292 80.948 82.0173 80.6759 82.0173 80.3402C82.0173 80.0045 81.8292 79.7324 81.5972 79.7324C81.3652 79.7324 81.1771 80.0045 81.1771 80.3402C81.1771 80.6759 81.3652 80.948 81.5972 80.948Z" fill="#B7D3F3"/>
<path d="M78.9589 84.7742C79.1909 84.7742 79.379 84.5021 79.379 84.1664C79.379 83.8307 79.1909 83.5586 78.9589 83.5586C78.7269 83.5586 78.5388 83.8307 78.5388 84.1664C78.5388 84.5021 78.7269 84.7742 78.9589 84.7742Z" fill="#B7D3F3"/>
<path d="M75.3156 86.3191C75.5476 86.3191 75.7357 86.047 75.7357 85.7113C75.7357 85.3756 75.5476 85.1035 75.3156 85.1035C75.0835 85.1035 74.8954 85.3756 74.8954 85.7113C74.8954 86.047 75.0835 86.3191 75.3156 86.3191Z" fill="#B7D3F3"/>
<path d="M71.9649 66.3113C72.197 66.3113 72.3851 66.0392 72.3851 65.7035C72.3851 65.3678 72.197 65.0957 71.9649 65.0957C71.7329 65.0957 71.5448 65.3678 71.5448 65.7035C71.5448 66.0392 71.7329 66.3113 71.9649 66.3113Z" fill="#B7D3F3"/>
<path d="M69.1999 69.8641C69.4319 69.8641 69.62 69.5919 69.62 69.2562C69.62 68.9206 69.4319 68.6484 69.1999 68.6484C68.9679 68.6484 68.7798 68.9206 68.7798 69.2562C68.7798 69.5919 68.9679 69.8641 69.1999 69.8641Z" fill="#B7D3F3"/>
<path d="M67.9889 75.1277C68.2209 75.1277 68.409 74.8556 68.409 74.5199C68.409 74.1842 68.2209 73.9121 67.9889 73.9121C67.7569 73.9121 67.5688 74.1842 67.5688 74.5199C67.5688 74.8556 67.7569 75.1277 67.9889 75.1277Z" fill="#B7D3F3"/>
<path d="M69.0206 80.948C69.2526 80.948 69.4407 80.6759 69.4407 80.3402C69.4407 80.0045 69.2526 79.7324 69.0206 79.7324C68.7886 79.7324 68.6005 80.0045 68.6005 80.3402C68.6005 80.6759 68.7886 80.948 69.0206 80.948Z" fill="#B7D3F3"/>
<path d="M71.659 84.7742C71.891 84.7742 72.0791 84.5021 72.0791 84.1664C72.0791 83.8307 71.891 83.5586 71.659 83.5586C71.427 83.5586 71.2389 83.8307 71.2389 84.1664C71.2389 84.5021 71.427 84.7742 71.659 84.7742Z" fill="#B7D3F3"/>
<path d="M75.6225 75.1316C75.8545 75.1316 76.0426 74.8595 76.0426 74.5238C76.0426 74.1881 75.8545 73.916 75.6225 73.916C75.3904 73.916 75.2023 74.1881 75.2023 74.5238C75.2023 74.8595 75.3904 75.1316 75.6225 75.1316Z" fill="#B7D3F3"/>
<path d="M75.6764 66.9316H75.5651V74.5254H75.6764V66.9316Z" fill="#B7D3F3"/>
<path d="M78.4579 71.5381L78.2454 71.1465L75.463 74.3069L75.6756 74.6985L78.4579 71.5381Z" fill="#B7D3F3"/>
<path d="M112.379 52.3125V172.109H100.732V52.7433C104.506 53.1885 108.382 53.1086 112.379 52.3125Z" fill="#DEEDFF"/>
<path d="M318.573 64.7415V172.107H306.926V44.834C311.231 51.004 315.121 57.6707 318.573 64.7415Z" fill="#DEEDFF"/>
<path d="M332.524 174H3.47602C3.21423 174 3 173.698 3 173.329V172.671C3 172.302 3.21423 172 3.47602 172H332.524C332.786 172 333 172.302 333 172.671V173.329C333 173.698 332.786 174 332.524 174Z" fill="#2E3552"/>
<path d="M121.928 129.82H120.06L122.348 171.706H126.891L121.928 129.82Z" fill="#B7D3F3"/>
<path d="M159.076 117.601L158.676 117.718C156.89 118.24 155.134 116.553 154.773 113.97L154.35 110.938C153.989 108.355 155.155 105.814 156.94 105.292L157.341 105.175C159.127 104.653 160.883 106.339 161.243 108.923L161.667 111.955C162.028 114.538 160.862 117.079 159.076 117.601Z" fill="#122544"/>
<path d="M120.06 129.823C120.06 129.823 130.262 122.895 144.238 127.504L121.928 129.823H120.06Z" fill="#B7D3F3"/>
<path d="M126.891 172.107L121.928 129.822C121.928 129.822 137.558 122.228 149.685 129.822L156.899 171.841L126.891 172.107Z" fill="#D2E3FC"/>
<path d="M234.958 159.014C234.681 163.601 232.89 165.018 232.103 164.896C231.315 164.775 226.71 162.231 226.61 163.164C226.51 164.097 229.282 167.147 231.223 167.289C231.223 167.289 227.558 173.137 225.122 171.449C222.686 169.762 222.479 167.087 220.96 166.083C219.442 165.08 218.146 165.083 218.773 166.106C219.4 167.129 222.148 168.124 223.016 170.346C223.221 170.87 223.421 171.355 223.574 171.781L218.445 171.766C216.819 170.598 215.449 168.985 215.347 167.247C215.339 167.114 215.332 166.987 215.325 166.866C215.167 164.192 215.167 164.192 215.167 164.192C215.167 164.192 212.534 159.748 213.903 156.061C214.13 155.448 214.468 154.856 214.946 154.309C214.946 154.309 217.401 152.159 219.402 152.334C219.402 152.334 217.851 156.097 217.415 158.333C217.261 159.121 217.245 159.719 217.484 159.898C217.745 160.093 218.084 159.526 218.434 158.615C219.311 156.336 220.262 151.902 220.262 151.902C220.262 151.902 221.737 151.695 223.417 151.664C224.17 151.65 224.965 151.671 225.685 151.762C226.481 151.863 227.185 152.05 227.644 152.369C227.644 152.369 227.543 152.488 227.375 152.691C227.125 152.995 226.723 153.487 226.277 154.058C224.952 155.753 223.231 158.143 223.875 158.358C224.396 158.533 226.03 157.128 227.485 155.733C228.84 154.436 230.038 153.146 230.038 153.146C230.038 153.146 235.235 154.426 234.958 159.014Z" fill="#82B378"/>
<path d="M232.404 159.137C232.404 159.137 218.285 158.35 215.167 164.192C215.167 164.192 214.478 167.179 212.356 169.9L212.025 171.204C212.025 171.204 214.472 167.472 215.347 167.246C215.347 167.246 213.978 160.009 232.404 159.137Z" fill="#82B378"/>
<path d="M212.949 169.867C212.828 170.059 212.647 170.32 212.387 170.667L212.382 170.675C212.292 170.795 212.204 170.925 212.119 171.063C211.988 171.273 211.863 171.503 211.743 171.747L211.083 171.745C211.762 170.536 212.355 169.901 212.355 169.901C212.355 169.901 212.356 169.9 212.357 169.899C212.409 169.854 213.625 168.79 212.949 169.867Z" fill="#82B378"/>
<path d="M199.754 156.593C199.754 156.593 205.451 151.978 202.792 145.714C202.792 145.714 200.666 141.869 198.387 140.88C198.387 140.88 199.602 150.22 198.387 150.439C197.172 150.659 197.552 139.891 197.552 139.891C197.552 139.891 191.552 135.715 189.197 136.045C189.197 136.045 192.919 145.165 191.704 144.945C190.488 144.726 186.311 135.496 186.311 135.496C186.311 135.496 180.159 133.848 179.172 139.122C178.185 144.396 179.78 147.033 180.691 147.363C181.602 147.693 187.45 147.583 187.299 148.682C187.147 149.78 183.197 151.539 180.995 150.55C180.995 150.55 183.425 159.23 186.615 158.791C189.805 158.351 190.792 155.494 192.767 155.274C194.742 155.055 196.185 155.824 195.198 156.593C194.21 157.362 190.868 156.845 189.273 158.807C187.678 160.768 186.387 161.977 189.349 162.856C192.311 163.735 197.628 163.186 198.691 159.889C199.754 156.593 199.754 156.593 199.754 156.593Z" fill="#A8D29F"/>
<path d="M181.982 140.77C181.982 140.77 197.932 148.241 199.754 156.592C199.754 156.592 199.679 160.328 201.274 164.614V166.262C201.274 166.262 199.603 160.658 198.691 159.889C198.691 159.889 202.261 152.637 181.982 140.77Z" fill="#82B378"/>
<path d="M202.751 171.73L201.84 171.728C201.811 169.82 201.658 167.679 201.208 166.048C201.208 166.047 201.208 166.047 201.208 166.047C201.152 165.843 201.092 165.647 201.026 165.46C201.025 165.458 201.024 165.456 201.024 165.454C200.835 164.918 200.707 164.523 200.626 164.238L200.625 164.236C200.159 162.583 201.273 164.614 201.273 164.614C201.273 164.614 202.61 167.551 202.751 171.73Z" fill="#82B378"/>
<path d="M208.817 150.227C208.817 150.227 201.308 144.143 204.812 135.887C204.812 135.887 207.615 130.818 210.619 129.514C210.619 129.514 209.017 141.826 210.619 142.116C212.221 142.405 211.72 128.211 211.72 128.211C211.72 128.211 219.629 122.707 222.733 123.141C222.733 123.141 217.827 135.163 219.429 134.874C221.031 134.584 226.538 122.417 226.538 122.417C226.538 122.417 234.647 120.244 235.948 127.197C237.25 134.149 235.147 137.626 233.946 138.06C232.745 138.494 225.036 138.35 225.236 139.798C225.436 141.246 230.642 143.564 233.546 142.261C233.546 142.261 230.342 153.703 226.137 153.124C221.932 152.544 220.631 148.778 218.027 148.489C215.424 148.199 213.522 149.213 214.824 150.227C216.125 151.241 220.53 150.559 222.633 153.145C224.735 155.731 226.437 157.324 222.533 158.483C218.628 159.642 211.62 158.917 210.219 154.572C208.817 150.227 208.817 150.227 208.817 150.227Z" fill="#A8D29F"/>
<path d="M232.244 129.369C232.244 129.369 211.22 139.218 208.817 150.226C208.817 150.226 208.917 155.151 206.814 160.8V162.973C206.814 162.973 209.017 155.586 210.218 154.572C210.218 154.572 205.513 145.012 232.244 129.369Z" fill="#82B378"/>
<path d="M207.669 160.3C207.669 160.302 207.668 160.303 207.668 160.303C207.562 160.681 207.393 161.204 207.143 161.911C207.142 161.913 207.142 161.914 207.141 161.916C207.054 162.161 206.975 162.42 206.901 162.688C206.9 162.688 206.9 162.689 206.9 162.69C206.18 165.299 206.038 168.901 206.065 171.739L204.858 171.735C204.714 165.414 206.814 160.799 206.814 160.799C206.814 160.799 206.814 160.799 206.815 160.798C206.847 160.741 208.276 158.148 207.669 160.3Z" fill="#82B378"/>
<path d="M171.433 171.84H142.874C142.451 170.36 142.081 168.777 141.757 167.13C140.943 163.011 140.415 158.47 140.079 154.022C140.075 153.966 140.071 153.908 140.066 153.851C139.49 146.137 139.487 138.717 139.565 134.26C139.61 131.681 139.68 130.092 139.684 130.015V130.013C139.745 129.975 139.807 129.94 139.868 129.904C141.382 128.985 142.835 128.192 144.227 127.507C144.234 127.505 144.238 127.503 144.238 127.503C145.409 126.925 146.536 126.427 147.619 125.997C149.524 125.241 151.297 124.696 152.937 124.319C154.869 123.877 156.619 123.666 158.187 123.618C158.257 123.614 158.326 123.614 158.397 123.612C158.811 123.602 159.211 123.604 159.599 123.616C163.509 123.737 166.11 124.863 167.426 125.613C167.609 125.718 167.766 125.816 167.897 125.903C167.914 125.914 167.931 125.924 167.949 125.935C168.097 126.031 168.212 126.112 168.293 126.17C168.303 126.177 168.315 126.185 168.325 126.195C168.364 126.224 168.401 126.256 168.437 126.287L170.497 157.6L171.433 171.84Z" fill="#2B478B"/>
<path d="M199.893 165.073C197.032 166.995 180.012 168.608 178.377 167.927C177.539 167.577 174.03 163.105 170.5 157.605C170.497 157.601 170.497 157.601 170.497 157.601C167.156 152.398 163.788 146.274 162.652 141.867C160.315 132.811 162.324 124.77 162.324 124.77C162.324 124.77 166.667 124.743 168.437 126.289C170.208 127.84 180.33 154.81 181.683 155.521C183.037 156.237 199.071 157.563 200.907 158.824C200.906 158.824 202.752 163.151 199.893 165.073Z" fill="#2B478B"/>
<path d="M158.394 124.708L158.39 126.233C158.39 126.233 158.682 131.001 154.624 131.706C150.566 132.414 147.489 129.862 147.595 126.183C147.957 123.333 148.357 121.375 148.381 119.018C148.39 118.142 148.348 117.212 148.234 116.163L156.098 115.918L158.415 116.46L158.394 124.708Z" fill="#EA9E6A"/>
<path d="M158.415 116.46L158.394 124.708C157.559 125.272 156.617 125.617 155.56 125.619C151.946 125.627 148.348 117.211 148.234 116.162L158.415 116.46Z" fill="#D88D59"/>
<path d="M158.879 120.465C158.879 120.465 148.809 123.431 147.629 114.331C146.449 105.23 144.354 99.4841 150.733 97.2055C157.112 94.9269 158.815 98.0593 159.72 100.958C160.625 103.857 161.468 119.459 158.879 120.465Z" fill="#EA9E6A"/>
<path d="M161.672 94.1929C161.672 94.1929 158.862 93.8865 155.547 91.8099C152.857 90.1245 149.466 91.9949 148.366 92.8368C148.395 92.58 148.465 92.2293 148.633 91.8776C148.633 91.8776 148.139 92.386 148.067 93.0951C148.016 93.1494 147.994 93.1869 148.007 93.1994C148.007 93.1994 147.446 93.0523 147.086 93.2876C147.086 93.2876 147.338 93.2349 147.428 93.4691C147.438 93.4937 147.452 93.5147 147.469 93.5334C143.277 96.4749 142.9 106.066 144.253 108.282C145.879 110.949 147.833 116.957 147.833 116.957C147.833 116.957 148.542 115.535 148.244 113.186C147.946 110.837 149.349 110.834 151.119 109.762C152.89 108.69 151.41 105.703 152.958 103.884C154.507 102.065 160.192 103.121 160.116 101.732C162.225 100.616 161.672 94.5054 161.672 94.1929Z" fill="#8E342E"/>
<path d="M142.874 171.84C142.452 170.36 142.081 168.777 141.757 167.13C140.943 163.01 140.415 158.47 140.08 154.022C140.075 153.966 140.071 153.908 140.067 153.851C140.088 153.866 140.124 153.951 140.147 153.91C141.259 151.956 144.295 149.818 147.971 157.603C148.704 159.154 151.921 170.024 152.434 171.84H142.874V171.84Z" fill="#233862"/>
<path d="M145.858 171.841C145.776 171.139 145.867 170.255 146.246 169.152C146.246 169.152 146.717 168.71 147.343 168.195C148.275 167.434 149.55 166.512 150.128 166.66C150.232 166.688 150.372 166.731 150.538 166.79C151.908 167.265 155.103 168.689 155.586 169.523C155.983 170.209 156.525 171.083 156.899 171.841H145.858Z" fill="#EA9E6A"/>
<path d="M147.971 171.84H121.061C120.989 171.34 120.986 170.879 121.082 170.531C121.884 167.597 123.451 162.769 125.255 157.588C126.582 153.777 128.036 149.774 129.41 146.194C131.316 141.224 133.063 137.066 134.089 135.361C134.897 134.02 135.919 132.895 136.984 131.967C137.887 131.179 138.823 130.532 139.685 130.015V130.013C139.745 129.976 139.807 129.94 139.868 129.904C141.741 128.806 143.227 128.324 143.227 128.324C143.227 128.324 143.247 129.554 143.248 131.445C143.254 136.933 143.109 147.991 141.898 150.689C141.561 151.441 140.933 152.578 140.147 153.91C140.124 153.948 140.103 153.985 140.079 154.022C139.654 154.744 139.183 155.519 138.689 156.318C135.88 160.869 132.323 166.215 131.89 166.865C131.859 166.909 131.845 166.932 131.845 166.932H131.897L139.442 167.084L141.757 167.13L146.556 167.226C146.887 167.432 147.145 167.772 147.343 168.193C147.807 169.176 147.949 170.606 147.971 171.84Z" fill="#2B478B"/>
<path d="M199.893 165.071C197.032 166.993 180.012 168.606 178.377 167.925C177.539 167.575 174.03 163.104 170.5 157.603C170.674 157.637 172.288 153.743 179.649 163.06C179.649 163.06 181.577 164.301 186.823 163.606C192.07 162.911 198.807 162.656 199.893 165.071Z" fill="#233862"/>
<path d="M183.173 171.765H163.717C163.717 170.526 164.411 169.521 165.268 169.521H183.173V171.765Z" fill="#B24940"/>
<path d="M183.117 141.107H213.199L205.983 171.764H175.707L183.117 141.107Z" fill="#B24940"/>
<path d="M213.642 141.107L206.426 171.765H176.15L183.56 141.107H213.642Z" fill="#C65447"/>
<path d="M197.424 156.15C197.237 157.322 196.429 158.271 195.619 158.271C194.81 158.271 194.305 157.322 194.492 156.15C194.679 154.979 195.487 154.029 196.296 154.029C197.106 154.029 197.611 154.979 197.424 156.15Z" fill="#F9DDBF"/>
<path d="M213.642 141.107L206.426 171.765H192.342L209.212 141.107H213.642Z" fill="#B24940"/>
<path d="M150.555 117.601L150.155 117.718C148.369 118.24 146.613 116.553 146.252 113.97L145.829 110.938C145.468 108.355 146.634 105.814 148.419 105.292L148.82 105.175C150.606 104.653 152.362 106.339 152.723 108.923L153.146 111.955C153.507 114.538 152.341 117.079 150.555 117.601Z" fill="#122544"/>
<path d="M147.435 106.679C147.167 105.977 146.772 100.333 147.845 95.8391C148.363 93.667 149.201 92.4285 150.253 91.5925C150.633 91.2903 151.059 91.1289 151.493 91.1289L152.55 91.1543C149.07 93.2859 148.263 104.689 148.534 105.905C148.526 105.867 148.515 105.84 148.507 105.82L147.435 106.679Z" fill="#122544"/>
<path d="M157.59 118.549C151.742 118.549 148.848 111.863 148.819 111.795L149.342 111.332L149.08 111.564L149.341 111.332C149.368 111.396 152.094 117.662 157.591 117.662C157.627 117.662 157.664 117.662 157.701 117.662L157.708 118.548C157.669 118.549 157.629 118.549 157.59 118.549Z" fill="#122544"/>
<path d="M149.612 114.631L149.413 114.69C148.523 114.95 147.648 114.109 147.468 112.822L147.257 111.311C147.078 110.024 147.659 108.758 148.548 108.498L148.748 108.44C149.638 108.18 150.513 109.02 150.692 110.307L150.903 111.818C151.083 113.105 150.502 114.371 149.612 114.631Z" fill="#2B478B"/>
<path d="M158.317 118.845H157.766C157.485 118.845 157.255 118.512 157.255 118.106C157.255 117.7 157.485 117.367 157.766 117.367H158.317C158.598 117.367 158.828 117.7 158.828 118.106C158.828 118.512 158.598 118.845 158.317 118.845Z" fill="#122544"/>
<path d="M41.3152 105.605C41.3152 105.605 36.4082 109.234 39.9839 117.031C39.9839 117.031 35.7681 117.736 34.7078 115.983C34.7078 115.983 34.8676 116.75 35.054 117.124C35.054 117.124 30.9699 116.349 29.5066 114.11C28.0431 111.871 32.6064 82.082 43.4846 88.1782C43.4846 88.1782 53.1563 89.4544 50.4115 105.226C47.6668 120.998 51.2727 121.874 51.2727 121.874C51.2727 121.874 50.1868 122.346 49.7026 122.228C49.7026 122.228 49.0403 121.666 48.9662 121.066C48.9662 121.066 49.0027 121.989 49.1515 122.316C49.1515 122.316 45.1972 121.904 43.5004 119.306C41.8036 116.708 40.3777 108.769 41.3152 105.605Z" fill="#8E342E"/>
<path d="M48.3192 113.398L47.9265 113.477C46.1771 113.828 44.5472 112.044 44.3046 109.513L44.0197 106.543C43.7771 104.012 45.0098 101.654 46.7592 101.303L47.152 101.224C48.9013 100.873 50.5311 102.656 50.7739 105.187L51.0587 108.158C51.3013 110.689 50.0685 113.047 48.3192 113.398Z" fill="#ED7D2B"/>
<path d="M49.4398 137.212C47.9759 138.847 47.0494 144.75 44.6885 145.724C35.8391 149.378 31.0889 134.175 29.5349 126.754C30.7204 125.653 31.8617 125.346 32.5213 125.182C33.1646 125.024 33.8427 124.9 34.405 124.818C35.3712 123.629 36.7088 118.959 36.7903 111.854L37.2173 111.986L44.3734 114.26C44.3734 114.26 44.1647 117.529 44.1144 120.608C44.0765 123.018 44.0227 123.594 44.1512 123.881C44.708 124.013 45.3636 126.072 45.3636 126.072C45.3636 126.072 45.3641 126.076 45.3674 126.082C45.4704 126.299 47.6897 131.02 49.4398 137.212Z" fill="#FFB27D"/>
<path d="M44.3742 114.262C44.3742 114.262 44.164 117.528 44.1152 120.61C40.0963 120.326 38.0465 114.956 37.2175 111.988L44.3742 114.262Z" fill="#ED985F"/>
<path d="M80.7716 167.952C80.7716 167.952 76.5634 168.176 71.9937 168.199C71.4533 168.203 70.9058 168.203 70.3612 168.199C66.6397 168.176 62.9819 167.987 61.426 167.407C59.9055 166.84 54.0566 161.105 49.3761 154.158C49.3747 154.156 49.3747 154.154 49.3747 154.154C49.0116 155.405 48.7379 156.361 48.7308 156.437C48.5932 157.997 48.3635 159.56 48.0855 161.06C47.0246 166.785 45.256 171.591 45.195 171.757L42.6889 171.751L23.1221 171.71C23.1221 171.71 26.8182 163.473 25.8253 142.374C25.7998 141.84 29.2322 124.815 29.2322 124.815C29.2322 124.815 31.8985 124.141 34.9805 123.781C35.2713 124.165 35.8698 135.364 39.7247 136.013C40.3517 136.117 44.3739 145.006 44.3739 145.006L45.5922 135.927L44.1512 123.88C46.0006 124.664 47.0147 124.945 48.5521 125.833C49.5988 126.44 50.4654 127.557 51.0058 128.987C53.6991 136.107 62.44 159.074 63.3321 159.61C64.1675 160.11 67.3161 161.021 70.6477 161.901H70.6505C75.1082 163.079 79.8935 164.198 79.8935 164.198L80.7716 167.952Z" fill="#D2E3FC"/>
<path d="M46.592 171.76L45.1907 171.765C45.1907 171.765 45.1935 171.76 45.195 171.758L46.592 171.76Z" fill="#D2E3FC"/>
<path d="M45.5669 117.375C45.5669 117.375 36.0513 117.105 36.2587 108.534C36.4661 99.9638 35.3776 94.1569 41.4618 93.9668C47.546 93.7768 48.6466 97.1069 49.0584 99.992C49.4701 102.877 48.0474 117.224 45.5669 117.375Z" fill="#FFB27D"/>
<path d="M71.9936 168.202C71.4532 168.206 70.9057 168.206 70.3612 168.202C66.6396 168.179 62.9819 167.99 61.4259 167.41C59.9055 166.843 54.0565 161.108 49.376 154.161C49.3746 154.158 49.3746 154.156 49.3746 154.156C49.3746 154.156 50.3618 148.688 50.7873 147.773C51.2127 146.856 52.892 155.753 56.815 159.372C60.738 162.992 66.8778 165.528 69.859 164.502C71.8673 163.81 72.0731 166.422 71.9936 168.202Z" fill="#B7D3F3"/>
<path d="M43.6979 112.604C43.6979 112.604 43.7587 113.63 45.3191 113.792C45.3191 113.792 46.6293 113.928 46.6837 112.825C46.6836 112.825 45.491 111.789 43.6979 112.604Z" fill="white"/>
<path d="M44.213 116.069C38.8064 113.598 37.4803 106.194 37.4674 106.119L38.0441 105.912L37.7557 106.016L38.044 105.912C38.0562 105.982 39.3112 112.928 44.3924 115.25C44.4264 115.266 44.4602 115.281 44.4946 115.296L44.3217 116.118C44.2855 116.102 44.2491 116.086 44.213 116.069Z" fill="#122544"/>
<path d="M44.8256 116.65L44.3158 116.417C44.0561 116.298 43.9109 115.894 43.9929 115.518C44.0749 115.142 44.3544 114.932 44.6141 115.051L45.1239 115.284C45.3835 115.402 45.5288 115.807 45.4468 116.183C45.3648 116.558 45.0852 116.768 44.8256 116.65Z" fill="#ED7D2B"/>
<path d="M46.1075 92.8279C46.1075 92.8279 43.6711 103.268 40.0168 105.039C36.3624 106.81 35.1505 104.713 35.1505 104.713C35.1505 104.713 37.8436 101.135 38.1524 95.3446C38.1524 95.3448 44.0567 88.5592 46.1075 92.8279Z" fill="#8E342E"/>
<path d="M41.5577 95.903C41.5577 95.903 46.519 95.5005 48.0016 97.5438C49.071 99.0178 49.0459 99.787 49.1289 101.752C49.1289 101.752 51.2985 96.9101 49.0661 93.5212C46.6989 89.9277 41.5577 95.903 41.5577 95.903Z" fill="#8E342E"/>
<path d="M45.896 93.933C45.896 93.933 44.6536 103.922 40.1116 107.551C40.1116 107.551 44.5106 101.037 44.5888 94.5196C44.6668 88.0027 45.896 93.933 45.896 93.933Z" fill="#8E342E"/>
<path d="M29.5063 114.109C30.9692 116.349 35.0533 117.125 35.0533 117.125C34.8665 116.752 34.7082 115.982 34.7082 115.982C36.8073 118.444 41.9621 116.657 41.9621 116.657C37.85 115.343 39.1817 106.757 40.5802 106.391C41.3953 99.9163 43.0118 91.8553 43.7688 88.235C43.5869 88.1919 43.4836 88.1781 43.4836 88.1781C32.6065 82.0821 28.0434 111.872 29.5063 114.109Z" fill="#8E342E"/>
<path d="M38.4387 112.517L38.046 112.596C36.2966 112.947 34.6667 111.164 34.4241 108.633L34.1392 105.662C33.8966 103.131 35.1293 100.773 36.8787 100.422L37.2714 100.343C39.0207 99.9919 40.6506 101.775 40.8932 104.306L41.1781 107.277C41.4207 109.808 40.188 112.166 38.4387 112.517Z" fill="#ED7D2B"/>
<path d="M35.8688 101.68C35.6353 101.046 36.4543 96.1255 37.6585 92.309C38.2406 90.4642 39.7095 87.9949 40.7578 87.3585C41.137 87.1283 41.6402 87.2223 42.0504 87.3566C42.3487 87.4542 43.1847 88.0183 43.1847 88.0183C39.7386 89.5723 36.744 100.02 36.9611 101.102C36.9544 101.068 36.9448 101.044 36.9382 101.025L35.8688 101.68Z" fill="#ED7D2B"/>
<path d="M37.6486 109.564L37.4529 109.603C36.5813 109.778 35.7692 108.89 35.6483 107.629L35.5064 106.149C35.3854 104.887 35.9997 103.713 36.8712 103.538L37.067 103.499C37.9385 103.324 38.7506 104.212 38.8716 105.473L39.0135 106.953C39.1344 108.214 38.5202 109.389 37.6486 109.564Z" fill="#F99746"/>
<path d="M60.7379 162.992C60.7379 162.992 64.8184 162.653 65.2151 162.962C65.859 163.464 68.0508 165.506 68.3944 166.1C68.7381 166.693 69.6374 169.074 69.6374 169.074C69.6374 169.074 69.2481 169.23 69.0722 169.002C68.8962 168.773 67.5651 166.726 67.5651 166.726L68.9327 169.732C68.9327 169.732 68.4599 169.702 68.2723 169.403C68.0847 169.105 66.8067 167.225 66.8067 167.225L66.3712 167.101C66.3712 167.101 66.8146 167.615 67.0553 168.081C67.2959 168.547 67.4553 169.048 67.4553 169.048C67.4553 169.048 67.0655 168.952 66.944 168.868C66.8225 168.784 65.6766 167.333 65.6766 167.333L66.284 168.532C66.284 168.532 65.8745 168.503 65.74 168.371C65.6055 168.24 64.7128 167.05 64.5544 167.052C64.396 167.055 63.2566 166.986 62.7674 166.611C62.2781 166.236 60.7419 165.376 60.7419 165.376L60.7379 162.992Z" fill="#FFB27D"/>
<path d="M35.5423 122.141C35.5423 122.141 32.8135 123.291 32.1914 124.198C32.1914 124.198 35.0441 134.749 39.1572 139.673L40.2565 138.545V141.11L44.3741 145.008C44.3741 145.008 35.3313 125.332 35.5423 122.141Z" fill="#B7D3F3"/>
<path d="M48.0853 161.062C47.0244 166.787 45.2559 171.592 45.1948 171.758L46.5919 171.76L45.1906 171.766H32.1914C32.1914 171.766 33.6995 171.762 33.6967 171.752C33.6612 171.561 35.8951 162.801 32.1914 159.21C28.4811 155.612 27.1357 146.768 27.1357 146.768L38.9415 142.596C38.9415 142.596 43.8061 152.865 45.1906 154.822C46.2535 156.326 48.7306 156.439 48.7306 156.439L48.0853 161.062Z" fill="#B7D3F3"/>
<path d="M44.1514 123.882C44.1514 123.882 45.4071 138.237 44.3743 145.008C44.3743 145.008 46.0598 140.528 46.2961 139.708L46.0124 137.245L47.0998 137.792C47.0998 137.792 46.1408 126.347 45.2729 124.341C44.4051 122.335 44.0856 122.141 44.0856 122.141L44.1514 123.882Z" fill="#B7D3F3"/>
<path d="M80.7716 167.955C80.7716 167.955 75.5068 168.237 70.3612 168.202C69.0848 165.337 70.6477 161.904 70.6477 161.904H70.6505C75.1082 163.082 79.8935 164.2 79.8935 164.2L80.7716 167.955Z" fill="#FFB27D"/>
<path d="M81.2708 171.767H61.814C61.814 170.528 62.5084 169.523 63.365 169.523H81.2707V171.767H81.2708Z" fill="#ED7D2B"/>
<path d="M111.296 141.111L104.081 171.769H73.8043L81.2151 141.111H111.296Z" fill="#ED7D2B"/>
<path d="M111.296 141.111L104.147 171.485L104.081 171.769H74.2468L81.6575 141.111H111.296Z" fill="#F99746"/>
<path d="M95.5211 156.156C95.3342 157.327 94.5263 158.277 93.7166 158.277C92.907 158.277 92.4021 157.327 92.5891 156.156C92.776 154.985 93.5839 154.035 94.3934 154.035C95.2032 154.035 95.708 154.985 95.5211 156.156Z" fill="#FFC397"/>
<path d="M111.296 141.111L104.147 171.485H90.4398L107.154 141.111H111.296Z" fill="#ED7D2B"/>
<path d="M60.7425 165.374C60.7425 165.374 50.7265 166.64 45.1909 166.283V158.414C48.8174 159.863 60.7382 162.99 60.7382 162.99L60.7425 165.374Z" fill="#FFB27D"/>
<path d="M32.1915 124.197C32.1915 124.197 26.4635 124.386 24.6906 127.156C22.9178 129.926 26.4498 145.582 26.4498 145.582C26.4498 145.582 37.1266 164.5 42.4677 165.834C42.4677 165.834 44.8019 166.296 45.8915 166.321C45.8915 166.321 44.8232 161.821 46.8102 158.997C46.8102 158.997 44.5231 158.071 44.4285 157.661C44.3341 157.25 32.1915 124.197 32.1915 124.197Z" fill="#D2E3FC"/>
<path d="M271.56 88.5453C271.56 88.5453 265.759 85.4224 262.134 91.5534C260.056 95.0683 246.767 131.72 246.925 134.929C247.084 138.137 248.351 139.742 248.351 139.742C248.351 139.742 247.797 136.934 248.213 135.473C248.213 135.473 247.945 140.415 250.054 142.521C251.153 143.618 278.51 141.47 280.887 136.677C286.056 126.254 274.768 120.862 275.046 109.603C275.206 103.074 279.64 89.2042 271.56 88.5453Z" fill="#2C3A64"/>
<path d="M277.088 111.889L276.7 112.003C274.969 112.509 273.266 110.874 272.916 108.369L272.506 105.429C272.156 102.925 273.286 100.462 275.017 99.9556L275.406 99.842C277.137 99.3358 278.84 100.971 279.189 103.476L279.6 106.415C279.95 108.92 278.82 111.383 277.088 111.889Z" fill="#ED7D2B"/>
<path d="M301.91 171.711H283.759C280.681 164.641 277.974 155.093 277.343 147.659C277.042 144.132 277.21 141.08 278.025 138.995C280.561 132.517 276.539 124.91 276.539 124.91C276.539 124.91 282.076 127.177 283.362 133.782C284.674 140.51 288.195 162.889 288.195 162.889L301.672 166.9C302.305 169.192 301.91 171.711 301.91 171.711Z" fill="#F99746"/>
<path d="M301.91 171.712H283.759C280.681 164.641 277.974 155.094 277.343 147.66L280.035 146.467C280.035 146.467 283.442 168.963 285.423 169.307C287.402 169.651 301.91 171.712 301.91 171.712Z" fill="#ED7D2B"/>
<path d="M279.219 135.56C277.827 137.322 276.032 138.882 273.717 140.064C265.039 144.498 260.774 134.162 258.907 126.893C260.044 125.688 261.17 125.28 261.821 125.058C262.457 124.843 263.128 124.659 263.686 124.527C264.6 123.255 265.736 118.474 265.516 111.375L265.948 111.469L273.187 113.102C273.187 113.102 273.117 116.384 273.198 119.462C273.263 121.871 273.422 124.156 273.778 124.664C274.34 124.746 274.677 124.805 274.677 124.805C274.677 124.805 274.678 124.808 274.682 124.814C274.794 125.021 277.209 129.535 279.219 135.56Z" fill="#FFB27D"/>
<path d="M273.188 113.103C273.188 113.103 273.117 116.383 273.199 119.463C269.176 119.537 266.901 114.359 265.948 111.471L273.188 113.103Z" fill="#ED985F"/>
<path d="M282.67 146.467C282.649 146.692 280.715 155.792 280.695 156.021C280.023 163.639 278.808 171.768 278.808 171.768L276.15 171.761L258.609 171.712C258.609 171.712 260.725 162.474 255.143 148.311C254.96 147.847 254.769 147.378 254.569 146.903C253.774 145.014 258.79 124.818 258.79 124.818C258.79 124.818 260.986 124.256 264.067 123.897C264.358 124.282 266.498 135.608 270.372 135.953C275.427 136.404 273.511 123.783 273.511 123.783C275.57 124.381 276.312 124.6 278.956 126.432C278.957 126.432 282.776 145.224 282.67 146.467Z" fill="#F99746"/>
<path d="M274.51 116.104C274.51 116.104 265.001 116.68 264.844 108.108C264.687 99.5348 263.354 93.8356 269.418 93.1049C275.483 92.3741 276.723 95.6 277.257 98.443C277.79 101.286 276.98 115.732 274.51 116.104Z" fill="#FFB27D"/>
<path d="M272.442 111.507C272.442 111.507 272.546 112.526 274.111 112.548C274.111 112.548 275.424 112.568 275.432 111.462C275.432 111.462 274.197 110.534 272.442 111.507Z" fill="white"/>
<path d="M273.104 114.92C267.602 112.934 265.964 105.662 265.948 105.588L266.515 105.331L266.231 105.459L266.514 105.33C266.53 105.399 268.077 112.22 273.248 114.086C273.282 114.098 273.317 114.11 273.352 114.122L273.214 114.959C273.177 114.946 273.14 114.933 273.104 114.92Z" fill="#122544"/>
<path d="M273.74 115.446L273.221 115.259C272.957 115.164 272.794 114.773 272.86 114.391C272.926 114.008 273.196 113.774 273.46 113.869L273.979 114.056C274.243 114.151 274.406 114.542 274.34 114.924C274.274 115.307 274.004 115.541 273.74 115.446Z" fill="#2C3A64"/>
<path d="M269.123 87.7708C269.123 87.7708 275.245 86.388 277.778 93.7625C279.706 99.3758 278.099 102.881 277.343 103.955C277.343 103.955 276.343 95.8923 274.471 95.2048C274.471 95.2048 273.265 94.6722 272.442 96.0559C271.62 97.4396 270.43 103.61 269.063 104.555C269.063 104.555 264.82 106.071 264.612 103.929C264.405 101.787 264.52 95.1188 265.59 94.0445C266.659 92.9702 269.123 87.7708 269.123 87.7708Z" fill="#2C3A64"/>
<path d="M267.189 111.889L266.8 112.003C265.069 112.509 263.367 110.874 263.017 108.369L262.607 105.429C262.257 102.925 263.387 100.462 265.118 99.9556L265.507 99.842C267.238 99.3358 268.94 100.971 269.29 103.476L269.701 106.415C270.05 108.92 268.92 111.383 267.189 111.889Z" fill="#ED7D2B"/>
<path d="M264.164 101.302C263.904 100.69 263.522 95.7717 264.561 91.8551C265.064 89.962 265.876 88.8827 266.895 88.154C267.264 87.8907 267.677 87.75 268.098 87.75L269.123 87.7722C265.749 89.6298 264.967 99.5677 265.229 100.628C265.221 100.595 265.211 100.571 265.203 100.554L264.164 101.302Z" fill="#ED7D2B"/>
<path d="M266.275 109.011L266.081 109.068C265.219 109.32 264.37 108.505 264.196 107.257L263.992 105.792C263.817 104.545 264.38 103.317 265.243 103.065L265.437 103.009C266.299 102.757 267.147 103.571 267.322 104.819L267.526 106.284C267.701 107.532 267.137 108.759 266.275 109.011Z" fill="#F99746"/>
<path d="M258.609 171.711C258.609 171.711 260.725 162.473 255.143 148.311L257.223 144.553C257.223 144.553 260.904 159.637 265.504 164.036C270.095 168.424 275.498 167.508 276.15 171.761L258.609 171.711Z" fill="#ED7D2B"/>
<path d="M258.79 124.818C258.79 124.818 255.005 125.295 252.47 131.774C249.936 138.252 245.123 162.461 245.123 171.712H265.382C265.382 171.712 265.778 169.194 265.144 166.902L252.608 163.402C252.608 163.402 260.154 147.191 260.233 140.2C260.312 133.21 258.79 124.818 258.79 124.818Z" fill="#F99746"/>
<path d="M265.504 168.734C265.504 168.734 269.451 168.175 270.105 168.433C270.758 168.691 272.629 169.808 273.045 170.195C273.461 170.582 274.263 171.711 274.263 171.711C274.263 171.711 273.758 171.849 273.461 171.753C273.164 171.656 272.273 171.57 272.035 171.542C271.798 171.513 270.946 171.768 270.946 171.768H264.827L265.504 168.734Z" fill="#FFB27D"/>
<path d="M301.249 171.765H281.793C281.793 170.526 282.487 169.521 283.344 169.521H301.249V171.765Z" fill="#233862"/>
<path d="M331.274 141.107L324.06 171.765H293.783L301.194 141.107H331.274Z" fill="#233862"/>
<path d="M331.274 141.107L324.126 171.481L324.06 171.765H294.225L301.636 141.107H331.274Z" fill="#2B478B"/>
<path d="M315.5 156.15C315.313 157.322 314.505 158.271 313.695 158.271C312.886 158.271 312.381 157.322 312.568 156.15C312.755 154.979 313.563 154.029 314.372 154.029C315.182 154.029 315.687 154.979 315.5 156.15Z" fill="#F99746"/>
<path d="M331.274 141.107L324.126 171.481H310.418L327.132 141.107H331.274Z" fill="#233862"/>
</svg>
