<svg width="335" height="60" viewBox="0 0 335 60" fill="none" xmlns="http://www.w3.org/2000/svg">
<rect width="335" height="60" rx="5" fill="white"/>
<rect x="0.5" y="0.5" width="334" height="59" rx="4.5" stroke="#D4D3D3" stroke-opacity="0.4"/>
<path d="M308 38L314 32L308 26" stroke="#D4D3D3" stroke-width="2" stroke-linecap="round" stroke-linejoin="round"/>
<path d="M58.824 36H66.28V34.976H60.008V24.8H58.824V36ZM71.3209 36.08C73.7849 36.08 75.5929 34.288 75.5929 31.792C75.5929 29.296 73.7849 27.52 71.3209 27.52C68.8569 27.52 67.0329 29.296 67.0329 31.792C67.0329 34.288 68.8569 36.08 71.3209 36.08ZM71.3209 35.072C69.5289 35.072 68.1849 33.76 68.1849 31.792C68.1849 29.824 69.5289 28.512 71.3209 28.512C73.1129 28.512 74.4409 29.824 74.4409 31.792C74.4409 33.76 73.1129 35.072 71.3209 35.072ZM84.6161 27.584V29.2C83.9121 28.096 82.6961 27.52 81.2881 27.52C78.8881 27.52 77.0641 29.168 77.0641 31.584C77.0641 34 78.8881 35.68 81.2881 35.68C82.6641 35.68 83.8641 35.12 84.5681 34.048V35.12C84.5681 37.2 83.5921 38.176 81.4641 38.176C80.1681 38.176 78.9521 37.744 78.1521 37.024L77.5761 37.888C78.4561 38.72 79.9601 39.184 81.4961 39.184C84.2801 39.184 85.7041 37.872 85.7041 34.976V27.584H84.6161ZM81.4001 34.672C79.5441 34.672 78.2161 33.408 78.2161 31.584C78.2161 29.76 79.5441 28.512 81.4001 28.512C83.2561 28.512 84.6001 29.76 84.6001 31.584C84.6001 33.408 83.2561 34.672 81.4001 34.672ZM92.3209 36.08C94.7849 36.08 96.5929 34.288 96.5929 31.792C96.5929 29.296 94.7849 27.52 92.3209 27.52C89.8569 27.52 88.0329 29.296 88.0329 31.792C88.0329 34.288 89.8569 36.08 92.3209 36.08ZM92.3209 35.072C90.5289 35.072 89.1849 33.76 89.1849 31.792C89.1849 29.824 90.5289 28.512 92.3209 28.512C94.1129 28.512 95.4409 29.824 95.4409 31.792C95.4409 33.76 94.1129 35.072 92.3209 35.072ZM105.36 27.584V32C105.36 33.92 104.256 35.056 102.496 35.056C100.896 35.056 99.9681 34.144 99.9681 32.352V27.584H98.8321V32.464C98.8321 34.88 100.24 36.08 102.384 36.08C103.728 36.08 104.816 35.488 105.408 34.464V36H106.496V27.584H105.36ZM113.71 34.672C113.39 34.96 112.926 35.104 112.462 35.104C111.518 35.104 111.006 34.56 111.006 33.568V28.544H113.566V27.584H111.006V25.744H109.87V27.584H108.366V28.544H109.87V33.632C109.87 35.184 110.75 36.08 112.334 36.08C112.99 36.08 113.662 35.888 114.11 35.488L113.71 34.672Z" fill="#1D1D1D"/>
<g filter="url(#filter0_d_0_1)">
<path d="M30 42C24.477 42 20 37.523 20 32C20 26.477 24.477 22 30 22C35.523 22 40 26.477 40 32C40 37.523 35.523 42 30 42ZM35 36L40 32L35 28V31H27V33H35V36Z" fill="#FF3652"/>
</g>
<defs>
<filter id="filter0_d_0_1" x="10" y="16" width="40" height="40" filterUnits="userSpaceOnUse" color-interpolation-filters="sRGB">
<feFlood flood-opacity="0" result="BackgroundImageFix"/>
<feColorMatrix in="SourceAlpha" type="matrix" values="0 0 0 0 0 0 0 0 0 0 0 0 0 0 0 0 0 0 127 0" result="hardAlpha"/>
<feOffset dy="4"/>
<feGaussianBlur stdDeviation="4"/>
<feComposite in2="hardAlpha" operator="out"/>
<feColorMatrix type="matrix" values="0 0 0 0 1 0 0 0 0 0.211765 0 0 0 0 0.321569 0 0 0 0.05 0"/>
<feBlend mode="normal" in2="BackgroundImageFix" result="effect1_dropShadow_0_1"/>
<feBlend mode="normal" in="SourceGraphic" in2="effect1_dropShadow_0_1" result="shape"/>
</filter>
</defs>
</svg>
