<svg width="335" height="60" viewBox="0 0 335 60" fill="none" xmlns="http://www.w3.org/2000/svg">
<rect width="335" height="60" rx="5" fill="white"/>
<rect x="0.5" y="0.5" width="334" height="59" rx="4.5" stroke="#D4D3D3" stroke-opacity="0.4"/>
<path d="M308 38L314 32L308 26" stroke="#D4D3D3" stroke-width="2" stroke-linecap="round" stroke-linejoin="round"/>
<path d="M59.824 36V24.8H64.016C64.9653 24.8 65.7813 24.9547 66.464 25.264C67.1467 25.5627 67.6693 26 68.032 26.576C68.4053 27.1413 68.592 27.8293 68.592 28.64C68.592 29.4293 68.4053 30.112 68.032 30.688C67.6693 31.2533 67.1467 31.6907 66.464 32C65.7813 32.3093 64.9653 32.464 64.016 32.464H60.48L61.008 31.904V36H59.824ZM61.008 32L60.48 31.424H63.984C65.104 31.424 65.952 31.184 66.528 30.704C67.1147 30.2133 67.408 29.5253 67.408 28.64C67.408 27.744 67.1147 27.0507 66.528 26.56C65.952 26.0693 65.104 25.824 63.984 25.824H60.48L61.008 25.264V32ZM76.098 36V34.144L76.05 33.84V30.736C76.05 30.0213 75.8473 29.472 75.442 29.088C75.0473 28.704 74.4553 28.512 73.666 28.512C73.122 28.512 72.6047 28.6027 72.114 28.784C71.6233 28.9653 71.2073 29.2053 70.866 29.504L70.354 28.656C70.7807 28.2933 71.2927 28.016 71.89 27.824C72.4873 27.6213 73.1167 27.52 73.778 27.52C74.866 27.52 75.7033 27.792 76.29 28.336C76.8873 28.8693 77.186 29.6853 77.186 30.784V36H76.098ZM73.202 36.08C72.5727 36.08 72.0233 35.9787 71.554 35.776C71.0953 35.5627 70.7433 35.2747 70.498 34.912C70.2527 34.5387 70.13 34.112 70.13 33.632C70.13 33.1947 70.2313 32.8 70.434 32.448C70.6473 32.0853 70.9887 31.7973 71.458 31.584C71.938 31.36 72.578 31.248 73.378 31.248H76.274V32.096H73.41C72.5993 32.096 72.034 32.24 71.714 32.528C71.4047 32.816 71.25 33.1733 71.25 33.6C71.25 34.08 71.4367 34.464 71.81 34.752C72.1833 35.04 72.706 35.184 73.378 35.184C74.018 35.184 74.5673 35.04 75.026 34.752C75.4953 34.4533 75.8367 34.0267 76.05 33.472L76.306 34.256C76.0927 34.8107 75.7193 35.2533 75.186 35.584C74.6633 35.9147 74.002 36.08 73.202 36.08ZM82.5275 36.08C81.8342 36.08 81.1782 35.984 80.5595 35.792C79.9408 35.5893 79.4555 35.3387 79.1035 35.04L79.6155 34.144C79.9568 34.4 80.3942 34.624 80.9275 34.816C81.4608 34.9973 82.0208 35.088 82.6075 35.088C83.4075 35.088 83.9835 34.9653 84.3355 34.72C84.6875 34.464 84.8635 34.128 84.8635 33.712C84.8635 33.4027 84.7622 33.1627 84.5595 32.992C84.3675 32.8107 84.1115 32.6773 83.7915 32.592C83.4715 32.496 83.1142 32.416 82.7195 32.352C82.3248 32.288 81.9302 32.2133 81.5355 32.128C81.1515 32.0427 80.7995 31.92 80.4795 31.76C80.1595 31.5893 79.8982 31.36 79.6955 31.072C79.5035 30.784 79.4075 30.4 79.4075 29.92C79.4075 29.4613 79.5355 29.0507 79.7915 28.688C80.0475 28.3253 80.4208 28.0427 80.9115 27.84C81.4128 27.6267 82.0208 27.52 82.7355 27.52C83.2795 27.52 83.8235 27.5947 84.3675 27.744C84.9115 27.8827 85.3595 28.0693 85.7115 28.304L85.2155 29.216C84.8422 28.96 84.4422 28.7787 84.0155 28.672C83.5888 28.5547 83.1622 28.496 82.7355 28.496C81.9782 28.496 81.4182 28.6293 81.0555 28.896C80.7035 29.152 80.5275 29.4827 80.5275 29.888C80.5275 30.208 80.6235 30.4587 80.8155 30.64C81.0182 30.8213 81.2795 30.9653 81.5995 31.072C81.9302 31.168 82.2875 31.248 82.6715 31.312C83.0662 31.376 83.4555 31.456 83.8395 31.552C84.2342 31.6373 84.5915 31.76 84.9115 31.92C85.2422 32.0693 85.5035 32.288 85.6955 32.576C85.8982 32.8533 85.9995 33.2213 85.9995 33.68C85.9995 34.1707 85.8608 34.5973 85.5835 34.96C85.3168 35.312 84.9222 35.5893 84.3995 35.792C83.8875 35.984 83.2635 36.08 82.5275 36.08ZM90.34 36.08C89.6467 36.08 88.9907 35.984 88.372 35.792C87.7533 35.5893 87.268 35.3387 86.916 35.04L87.428 34.144C87.7693 34.4 88.2067 34.624 88.74 34.816C89.2733 34.9973 89.8333 35.088 90.42 35.088C91.22 35.088 91.796 34.9653 92.148 34.72C92.5 34.464 92.676 34.128 92.676 33.712C92.676 33.4027 92.5747 33.1627 92.372 32.992C92.18 32.8107 91.924 32.6773 91.604 32.592C91.284 32.496 90.9267 32.416 90.532 32.352C90.1373 32.288 89.7427 32.2133 89.348 32.128C88.964 32.0427 88.612 31.92 88.292 31.76C87.972 31.5893 87.7107 31.36 87.508 31.072C87.316 30.784 87.22 30.4 87.22 29.92C87.22 29.4613 87.348 29.0507 87.604 28.688C87.86 28.3253 88.2333 28.0427 88.724 27.84C89.2253 27.6267 89.8333 27.52 90.548 27.52C91.092 27.52 91.636 27.5947 92.18 27.744C92.724 27.8827 93.172 28.0693 93.524 28.304L93.028 29.216C92.6547 28.96 92.2547 28.7787 91.828 28.672C91.4013 28.5547 90.9747 28.496 90.548 28.496C89.7907 28.496 89.2307 28.6293 88.868 28.896C88.516 29.152 88.34 29.4827 88.34 29.888C88.34 30.208 88.436 30.4587 88.628 30.64C88.8307 30.8213 89.092 30.9653 89.412 31.072C89.7427 31.168 90.1 31.248 90.484 31.312C90.8787 31.376 91.268 31.456 91.652 31.552C92.0467 31.6373 92.404 31.76 92.724 31.92C93.0547 32.0693 93.316 32.288 93.508 32.576C93.7107 32.8533 93.812 33.2213 93.812 33.68C93.812 34.1707 93.6733 34.5973 93.396 34.96C93.1293 35.312 92.7347 35.5893 92.212 35.792C91.7 35.984 91.076 36.08 90.34 36.08ZM97.4523 36L94.2843 27.6H95.3723L98.2523 35.392H97.7563L100.716 27.6H101.692L104.62 35.392H104.124L107.052 27.6H108.092L104.908 36H103.836L101.02 28.672H101.356L98.5243 36H97.4523ZM112.992 36.08C112.182 36.08 111.451 35.8987 110.8 35.536C110.16 35.1627 109.654 34.656 109.28 34.016C108.907 33.3653 108.72 32.624 108.72 31.792C108.72 30.9493 108.907 30.208 109.28 29.568C109.654 28.928 110.16 28.4267 110.8 28.064C111.44 27.7013 112.171 27.52 112.992 27.52C113.824 27.52 114.56 27.7013 115.2 28.064C115.851 28.4267 116.358 28.928 116.72 29.568C117.094 30.208 117.28 30.9493 117.28 31.792C117.28 32.624 117.094 33.3653 116.72 34.016C116.358 34.656 115.851 35.1627 115.2 35.536C114.55 35.8987 113.814 36.08 112.992 36.08ZM112.992 35.072C113.6 35.072 114.139 34.9387 114.608 34.672C115.078 34.3947 115.446 34.0107 115.712 33.52C115.99 33.0187 116.128 32.4427 116.128 31.792C116.128 31.1307 115.99 30.5547 115.712 30.064C115.446 29.5733 115.078 29.1947 114.608 28.928C114.139 28.6507 113.606 28.512 113.008 28.512C112.411 28.512 111.878 28.6507 111.408 28.928C110.939 29.1947 110.566 29.5733 110.288 30.064C110.011 30.5547 109.872 31.1307 109.872 31.792C109.872 32.4427 110.011 33.0187 110.288 33.52C110.566 34.0107 110.939 34.3947 111.408 34.672C111.878 34.9387 112.406 35.072 112.992 35.072ZM119.6 36V27.6H120.688V29.888L120.576 29.488C120.81 28.848 121.205 28.3627 121.76 28.032C122.314 27.6907 123.002 27.52 123.824 27.52V28.624C123.781 28.624 123.738 28.624 123.696 28.624C123.653 28.6133 123.61 28.608 123.568 28.608C122.682 28.608 121.989 28.88 121.488 29.424C120.986 29.9573 120.736 30.72 120.736 31.712V36H119.6ZM129.162 36.08C128.362 36.08 127.642 35.8987 127.002 35.536C126.373 35.1733 125.877 34.672 125.514 34.032C125.152 33.3813 124.97 32.6347 124.97 31.792C124.97 30.9387 125.152 30.192 125.514 29.552C125.877 28.912 126.373 28.416 127.002 28.064C127.642 27.7013 128.362 27.52 129.162 27.52C129.898 27.52 130.554 27.6853 131.13 28.016C131.717 28.3467 132.181 28.832 132.522 29.472C132.874 30.1013 133.05 30.8747 133.05 31.792C133.05 32.6987 132.88 33.472 132.538 34.112C132.197 34.752 131.733 35.2427 131.146 35.584C130.57 35.9147 129.909 36.08 129.162 36.08ZM129.242 35.072C129.84 35.072 130.373 34.9387 130.842 34.672C131.322 34.3947 131.696 34.0107 131.962 33.52C132.24 33.0187 132.378 32.4427 132.378 31.792C132.378 31.1307 132.24 30.5547 131.962 30.064C131.696 29.5733 131.322 29.1947 130.842 28.928C130.373 28.6507 129.84 28.512 129.242 28.512C128.656 28.512 128.128 28.6507 127.658 28.928C127.189 29.1947 126.816 29.5733 126.538 30.064C126.261 30.5547 126.122 31.1307 126.122 31.792C126.122 32.4427 126.261 33.0187 126.538 33.52C126.816 34.0107 127.189 34.3947 127.658 34.672C128.128 34.9387 128.656 35.072 129.242 35.072ZM132.41 36V33.472L132.522 31.776L132.362 30.08V24.128H133.498V36H132.41ZM143.106 36.08C142.412 36.08 141.756 35.984 141.138 35.792C140.519 35.5893 140.034 35.3387 139.682 35.04L140.194 34.144C140.535 34.4 140.972 34.624 141.506 34.816C142.039 34.9973 142.599 35.088 143.186 35.088C143.986 35.088 144.562 34.9653 144.914 34.72C145.266 34.464 145.442 34.128 145.442 33.712C145.442 33.4027 145.34 33.1627 145.138 32.992C144.946 32.8107 144.69 32.6773 144.37 32.592C144.05 32.496 143.692 32.416 143.298 32.352C142.903 32.288 142.508 32.2133 142.114 32.128C141.73 32.0427 141.378 31.92 141.058 31.76C140.738 31.5893 140.476 31.36 140.274 31.072C140.082 30.784 139.986 30.4 139.986 29.92C139.986 29.4613 140.114 29.0507 140.37 28.688C140.626 28.3253 140.999 28.0427 141.49 27.84C141.991 27.6267 142.599 27.52 143.314 27.52C143.858 27.52 144.402 27.5947 144.946 27.744C145.49 27.8827 145.938 28.0693 146.29 28.304L145.794 29.216C145.42 28.96 145.02 28.7787 144.594 28.672C144.167 28.5547 143.74 28.496 143.314 28.496C142.556 28.496 141.996 28.6293 141.634 28.896C141.282 29.152 141.106 29.4827 141.106 29.888C141.106 30.208 141.202 30.4587 141.394 30.64C141.596 30.8213 141.858 30.9653 142.178 31.072C142.508 31.168 142.866 31.248 143.25 31.312C143.644 31.376 144.034 31.456 144.418 31.552C144.812 31.6373 145.17 31.76 145.49 31.92C145.82 32.0693 146.082 32.288 146.274 32.576C146.476 32.8533 146.578 33.2213 146.578 33.68C146.578 34.1707 146.439 34.5973 146.162 34.96C145.895 35.312 145.5 35.5893 144.978 35.792C144.466 35.984 143.842 36.08 143.106 36.08ZM152.23 36.08C151.355 36.08 150.587 35.8987 149.926 35.536C149.265 35.1627 148.747 34.656 148.374 34.016C148.001 33.3653 147.814 32.624 147.814 31.792C147.814 30.96 147.99 30.224 148.342 29.584C148.705 28.944 149.195 28.4427 149.814 28.08C150.443 27.7067 151.147 27.52 151.926 27.52C152.715 27.52 153.414 27.7013 154.022 28.064C154.641 28.416 155.126 28.9173 155.478 29.568C155.83 30.208 156.006 30.9493 156.006 31.792C156.006 31.8453 156.001 31.904 155.99 31.968C155.99 32.0213 155.99 32.08 155.99 32.144H148.678V31.296H155.382L154.934 31.632C154.934 31.024 154.801 30.4853 154.534 30.016C154.278 29.536 153.926 29.1627 153.478 28.896C153.03 28.6293 152.513 28.496 151.926 28.496C151.35 28.496 150.833 28.6293 150.374 28.896C149.915 29.1627 149.558 29.536 149.302 30.016C149.046 30.496 148.918 31.0453 148.918 31.664V31.84C148.918 32.48 149.057 33.0453 149.334 33.536C149.622 34.016 150.017 34.3947 150.518 34.672C151.03 34.9387 151.611 35.072 152.262 35.072C152.774 35.072 153.249 34.9813 153.686 34.8C154.134 34.6187 154.518 34.3413 154.838 33.968L155.478 34.704C155.105 35.152 154.635 35.4933 154.07 35.728C153.515 35.9627 152.902 36.08 152.23 36.08ZM160.974 36.08C160.185 36.08 159.577 35.8667 159.15 35.44C158.724 35.0133 158.51 34.4107 158.51 33.632V25.744H159.646V33.568C159.646 34.0587 159.769 34.4373 160.014 34.704C160.27 34.9707 160.633 35.104 161.102 35.104C161.604 35.104 162.02 34.96 162.35 34.672L162.75 35.488C162.526 35.6907 162.254 35.84 161.934 35.936C161.625 36.032 161.305 36.08 160.974 36.08ZM157.006 28.544V27.6H162.206V28.544H157.006ZM167.256 36.08C166.466 36.08 165.858 35.8667 165.432 35.44C165.005 35.0133 164.792 34.4107 164.792 33.632V25.744H165.928V33.568C165.928 34.0587 166.05 34.4373 166.296 34.704C166.552 34.9707 166.914 35.104 167.384 35.104C167.885 35.104 168.301 34.96 168.632 34.672L169.032 35.488C168.808 35.6907 168.536 35.84 168.216 35.936C167.906 36.032 167.586 36.08 167.256 36.08ZM163.288 28.544V27.6H168.488V28.544H163.288ZM171.1 36V27.6H172.236V36H171.1ZM171.676 25.744C171.441 25.744 171.244 25.664 171.084 25.504C170.924 25.344 170.844 25.152 170.844 24.928C170.844 24.704 170.924 24.5173 171.084 24.368C171.244 24.208 171.441 24.128 171.676 24.128C171.91 24.128 172.108 24.2027 172.268 24.352C172.428 24.5013 172.508 24.688 172.508 24.912C172.508 25.1467 172.428 25.344 172.268 25.504C172.118 25.664 171.921 25.744 171.676 25.744ZM179.685 27.52C180.367 27.52 180.965 27.6533 181.477 27.92C181.999 28.176 182.405 28.5707 182.693 29.104C182.991 29.6373 183.141 30.3093 183.141 31.12V36H182.005V31.232C182.005 30.3467 181.781 29.68 181.333 29.232C180.895 28.7733 180.277 28.544 179.477 28.544C178.879 28.544 178.357 28.6667 177.909 28.912C177.471 29.1467 177.13 29.4933 176.885 29.952C176.65 30.4 176.533 30.944 176.533 31.584V36H175.397V27.6H176.485V29.904L176.309 29.472C176.575 28.864 177.002 28.3893 177.589 28.048C178.175 27.696 178.874 27.52 179.685 27.52ZM189.793 39.184C189.025 39.184 188.289 39.072 187.585 38.848C186.881 38.624 186.31 38.304 185.873 37.888L186.449 37.024C186.844 37.376 187.329 37.6533 187.905 37.856C188.492 38.0693 189.11 38.176 189.761 38.176C190.828 38.176 191.612 37.9253 192.113 37.424C192.614 36.9333 192.865 36.1653 192.865 35.12V33.024L193.025 31.584L192.913 30.144V27.6H194.001V34.976C194.001 36.4267 193.644 37.488 192.929 38.16C192.225 38.8427 191.18 39.184 189.793 39.184ZM189.585 35.68C188.785 35.68 188.065 35.5093 187.425 35.168C186.785 34.816 186.278 34.3307 185.905 33.712C185.542 33.0933 185.361 32.384 185.361 31.584C185.361 30.784 185.542 30.08 185.905 29.472C186.278 28.8533 186.785 28.3733 187.425 28.032C188.065 27.6907 188.785 27.52 189.585 27.52C190.332 27.52 191.004 27.6747 191.601 27.984C192.198 28.2933 192.673 28.752 193.025 29.36C193.377 29.968 193.553 30.7093 193.553 31.584C193.553 32.4587 193.377 33.2 193.025 33.808C192.673 34.416 192.198 34.88 191.601 35.2C191.004 35.52 190.332 35.68 189.585 35.68ZM189.697 34.672C190.316 34.672 190.865 34.544 191.345 34.288C191.825 34.0213 192.204 33.6587 192.481 33.2C192.758 32.7307 192.897 32.192 192.897 31.584C192.897 30.976 192.758 30.4427 192.481 29.984C192.204 29.5253 191.825 29.168 191.345 28.912C190.865 28.6453 190.316 28.512 189.697 28.512C189.089 28.512 188.54 28.6453 188.049 28.912C187.569 29.168 187.19 29.5253 186.913 29.984C186.646 30.4427 186.513 30.976 186.513 31.584C186.513 32.192 186.646 32.7307 186.913 33.2C187.19 33.6587 187.569 34.0213 188.049 34.288C188.54 34.544 189.089 34.672 189.697 34.672ZM199.418 36.08C198.725 36.08 198.069 35.984 197.45 35.792C196.831 35.5893 196.346 35.3387 195.994 35.04L196.506 34.144C196.847 34.4 197.285 34.624 197.818 34.816C198.351 34.9973 198.911 35.088 199.498 35.088C200.298 35.088 200.874 34.9653 201.226 34.72C201.578 34.464 201.754 34.128 201.754 33.712C201.754 33.4027 201.653 33.1627 201.45 32.992C201.258 32.8107 201.002 32.6773 200.682 32.592C200.362 32.496 200.005 32.416 199.61 32.352C199.215 32.288 198.821 32.2133 198.426 32.128C198.042 32.0427 197.69 31.92 197.37 31.76C197.05 31.5893 196.789 31.36 196.586 31.072C196.394 30.784 196.298 30.4 196.298 29.92C196.298 29.4613 196.426 29.0507 196.682 28.688C196.938 28.3253 197.311 28.0427 197.802 27.84C198.303 27.6267 198.911 27.52 199.626 27.52C200.17 27.52 200.714 27.5947 201.258 27.744C201.802 27.8827 202.25 28.0693 202.602 28.304L202.106 29.216C201.733 28.96 201.333 28.7787 200.906 28.672C200.479 28.5547 200.053 28.496 199.626 28.496C198.869 28.496 198.309 28.6293 197.946 28.896C197.594 29.152 197.418 29.4827 197.418 29.888C197.418 30.208 197.514 30.4587 197.706 30.64C197.909 30.8213 198.17 30.9653 198.49 31.072C198.821 31.168 199.178 31.248 199.562 31.312C199.957 31.376 200.346 31.456 200.73 31.552C201.125 31.6373 201.482 31.76 201.802 31.92C202.133 32.0693 202.394 32.288 202.586 32.576C202.789 32.8533 202.89 33.2213 202.89 33.68C202.89 34.1707 202.751 34.5973 202.474 34.96C202.207 35.312 201.813 35.5893 201.29 35.792C200.778 35.984 200.154 36.08 199.418 36.08Z" fill="#1D1D1D"/>
<path d="M38 27H24C22.8954 27 22 27.8954 22 29V36C22 37.1046 22.8954 38 24 38H38C39.1046 38 40 37.1046 40 36V29C40 27.8954 39.1046 27 38 27Z" fill="#204ECF"/>
<path d="M26 27V23C26 21.6739 26.5268 20.4021 27.4645 19.4645C28.4021 18.5268 29.6739 18 31 18C32.3261 18 33.5979 18.5268 34.5355 19.4645C35.4732 20.4021 36 21.6739 36 23V27" stroke="#204ECF" stroke-width="2" stroke-linecap="round" stroke-linejoin="round"/>
</svg>
