<svg width="335" height="60" viewBox="0 0 335 60" fill="none" xmlns="http://www.w3.org/2000/svg">
<rect width="335" height="60" rx="5" fill="white"/>
<rect x="0.5" y="0.5" width="334" height="59" rx="4.5" stroke="#D4D3D3" stroke-opacity="0.4"/>
<path d="M308 38L314 32L308 26" stroke="#D4D3D3" stroke-width="2" stroke-linecap="round" stroke-linejoin="round"/>
<path d="M59.824 36V24.8H64.016C64.9653 24.8 65.7813 24.9547 66.464 25.264C67.1467 25.5627 67.6693 26 68.032 26.576C68.4053 27.1413 68.592 27.8293 68.592 28.64C68.592 29.4293 68.4053 30.112 68.032 30.688C67.6693 31.2533 67.1467 31.6907 66.464 32C65.7813 32.3093 64.9653 32.464 64.016 32.464H60.48L61.008 31.904V36H59.824ZM61.008 32L60.48 31.424H63.984C65.104 31.424 65.952 31.184 66.528 30.704C67.1147 30.2133 67.408 29.5253 67.408 28.64C67.408 27.744 67.1147 27.0507 66.528 26.56C65.952 26.0693 65.104 25.824 63.984 25.824H60.48L61.008 25.264V32ZM70.709 36V27.6H71.797V29.888L71.685 29.488C71.9197 28.848 72.3143 28.3627 72.869 28.032C73.4237 27.6907 74.1117 27.52 74.933 27.52V28.624C74.8903 28.624 74.8477 28.624 74.805 28.624C74.7623 28.6133 74.7197 28.608 74.677 28.608C73.7917 28.608 73.0983 28.88 72.597 29.424C72.0957 29.9573 71.845 30.72 71.845 31.712V36H70.709ZM77.0059 36V27.6H78.1419V36H77.0059ZM77.5819 25.744C77.3472 25.744 77.1499 25.664 76.9899 25.504C76.8299 25.344 76.7499 25.152 76.7499 24.928C76.7499 24.704 76.8299 24.5173 76.9899 24.368C77.1499 24.208 77.3472 24.128 77.5819 24.128C77.8165 24.128 78.0139 24.2027 78.1739 24.352C78.3339 24.5013 78.4139 24.688 78.4139 24.912C78.4139 25.1467 78.3339 25.344 78.1739 25.504C78.0245 25.664 77.8272 25.744 77.5819 25.744ZM83.4628 36L79.7348 27.6H80.9188L84.3428 35.392H83.7828L87.2548 27.6H88.3748L84.6308 36H83.4628ZM94.9886 36V34.144L94.9406 33.84V30.736C94.9406 30.0213 94.738 29.472 94.3326 29.088C93.938 28.704 93.346 28.512 92.5566 28.512C92.0126 28.512 91.4953 28.6027 91.0046 28.784C90.514 28.9653 90.098 29.2053 89.7566 29.504L89.2446 28.656C89.6713 28.2933 90.1833 28.016 90.7806 27.824C91.378 27.6213 92.0073 27.52 92.6686 27.52C93.7566 27.52 94.594 27.792 95.1806 28.336C95.778 28.8693 96.0766 29.6853 96.0766 30.784V36H94.9886ZM92.0926 36.08C91.4633 36.08 90.914 35.9787 90.4446 35.776C89.986 35.5627 89.634 35.2747 89.3886 34.912C89.1433 34.5387 89.0206 34.112 89.0206 33.632C89.0206 33.1947 89.122 32.8 89.3246 32.448C89.538 32.0853 89.8793 31.7973 90.3486 31.584C90.8286 31.36 91.4686 31.248 92.2686 31.248H95.1646V32.096H92.3006C91.49 32.096 90.9246 32.24 90.6046 32.528C90.2953 32.816 90.1406 33.1733 90.1406 33.6C90.1406 34.08 90.3273 34.464 90.7006 34.752C91.074 35.04 91.5966 35.184 92.2686 35.184C92.9086 35.184 93.458 35.04 93.9166 34.752C94.386 34.4533 94.7273 34.0267 94.9406 33.472L95.1966 34.256C94.9833 34.8107 94.61 35.2533 94.0766 35.584C93.554 35.9147 92.8926 36.08 92.0926 36.08ZM102.65 36.08C101.818 36.08 101.071 35.8987 100.41 35.536C99.7595 35.1627 99.2475 34.656 98.8741 34.016C98.5008 33.3653 98.3141 32.624 98.3141 31.792C98.3141 30.9493 98.5008 30.208 98.8741 29.568C99.2475 28.928 99.7595 28.4267 100.41 28.064C101.071 27.7013 101.818 27.52 102.65 27.52C103.365 27.52 104.01 27.6587 104.586 27.936C105.162 28.2133 105.615 28.6293 105.946 29.184L105.098 29.76C104.81 29.3333 104.453 29.0187 104.026 28.816C103.599 28.6133 103.135 28.512 102.634 28.512C102.037 28.512 101.498 28.6507 101.018 28.928C100.538 29.1947 100.159 29.5733 99.8821 30.064C99.6048 30.5547 99.4661 31.1307 99.4661 31.792C99.4661 32.4533 99.6048 33.0293 99.8821 33.52C100.159 34.0107 100.538 34.3947 101.018 34.672C101.498 34.9387 102.037 35.072 102.634 35.072C103.135 35.072 103.599 34.9707 104.026 34.768C104.453 34.5653 104.81 34.256 105.098 33.84L105.946 34.416C105.615 34.96 105.162 35.376 104.586 35.664C104.01 35.9413 103.365 36.08 102.65 36.08ZM108.117 39.184C107.722 39.184 107.343 39.12 106.981 38.992C106.629 38.864 106.325 38.672 106.069 38.416L106.597 37.568C106.81 37.7707 107.039 37.9253 107.285 38.032C107.541 38.1493 107.823 38.208 108.133 38.208C108.506 38.208 108.826 38.1013 109.093 37.888C109.37 37.6853 109.631 37.3227 109.877 36.8L110.421 35.568L110.549 35.392L114.005 27.6H115.125L110.917 37.008C110.682 37.552 110.421 37.984 110.133 38.304C109.855 38.624 109.551 38.848 109.221 38.976C108.89 39.1147 108.522 39.184 108.117 39.184ZM110.357 36.24L106.485 27.6H107.669L111.093 35.312L110.357 36.24ZM121.152 36V24.8H125.344C126.293 24.8 127.109 24.9547 127.792 25.264C128.475 25.5627 128.997 26 129.36 26.576C129.733 27.1413 129.92 27.8293 129.92 28.64C129.92 29.4293 129.733 30.112 129.36 30.688C128.997 31.2533 128.475 31.6907 127.792 32C127.109 32.3093 126.293 32.464 125.344 32.464H121.808L122.336 31.904V36H121.152ZM122.336 32L121.808 31.424H125.312C126.432 31.424 127.28 31.184 127.856 30.704C128.443 30.2133 128.736 29.5253 128.736 28.64C128.736 27.744 128.443 27.0507 127.856 26.56C127.28 26.0693 126.432 25.824 125.312 25.824H121.808L122.336 25.264V32ZM135.617 36.08C134.807 36.08 134.076 35.8987 133.425 35.536C132.785 35.1627 132.279 34.656 131.905 34.016C131.532 33.3653 131.345 32.624 131.345 31.792C131.345 30.9493 131.532 30.208 131.905 29.568C132.279 28.928 132.785 28.4267 133.425 28.064C134.065 27.7013 134.796 27.52 135.617 27.52C136.449 27.52 137.185 27.7013 137.825 28.064C138.476 28.4267 138.983 28.928 139.345 29.568C139.719 30.208 139.905 30.9493 139.905 31.792C139.905 32.624 139.719 33.3653 139.345 34.016C138.983 34.656 138.476 35.1627 137.825 35.536C137.175 35.8987 136.439 36.08 135.617 36.08ZM135.617 35.072C136.225 35.072 136.764 34.9387 137.233 34.672C137.703 34.3947 138.071 34.0107 138.337 33.52C138.615 33.0187 138.753 32.4427 138.753 31.792C138.753 31.1307 138.615 30.5547 138.337 30.064C138.071 29.5733 137.703 29.1947 137.233 28.928C136.764 28.6507 136.231 28.512 135.633 28.512C135.036 28.512 134.503 28.6507 134.033 28.928C133.564 29.1947 133.191 29.5733 132.913 30.064C132.636 30.5547 132.497 31.1307 132.497 31.792C132.497 32.4427 132.636 33.0187 132.913 33.52C133.191 34.0107 133.564 34.3947 134.033 34.672C134.503 34.9387 135.031 35.072 135.617 35.072ZM142.225 36V24.128H143.361V36H142.225ZM146.522 36V27.6H147.658V36H146.522ZM147.098 25.744C146.863 25.744 146.666 25.664 146.506 25.504C146.346 25.344 146.266 25.152 146.266 24.928C146.266 24.704 146.346 24.5173 146.506 24.368C146.666 24.208 146.863 24.128 147.098 24.128C147.332 24.128 147.53 24.2027 147.69 24.352C147.85 24.5013 147.93 24.688 147.93 24.912C147.93 25.1467 147.85 25.344 147.69 25.504C147.54 25.664 147.343 25.744 147.098 25.744ZM154.306 36.08C153.474 36.08 152.728 35.8987 152.066 35.536C151.416 35.1627 150.904 34.656 150.53 34.016C150.157 33.3653 149.97 32.624 149.97 31.792C149.97 30.9493 150.157 30.208 150.53 29.568C150.904 28.928 151.416 28.4267 152.066 28.064C152.728 27.7013 153.474 27.52 154.306 27.52C155.021 27.52 155.666 27.6587 156.242 27.936C156.818 28.2133 157.272 28.6293 157.602 29.184L156.754 29.76C156.466 29.3333 156.109 29.0187 155.682 28.816C155.256 28.6133 154.792 28.512 154.29 28.512C153.693 28.512 153.154 28.6507 152.674 28.928C152.194 29.1947 151.816 29.5733 151.538 30.064C151.261 30.5547 151.122 31.1307 151.122 31.792C151.122 32.4533 151.261 33.0293 151.538 33.52C151.816 34.0107 152.194 34.3947 152.674 34.672C153.154 34.9387 153.693 35.072 154.29 35.072C154.792 35.072 155.256 34.9707 155.682 34.768C156.109 34.5653 156.466 34.256 156.754 33.84L157.602 34.416C157.272 34.96 156.818 35.376 156.242 35.664C155.666 35.9413 155.021 36.08 154.306 36.08ZM159.773 39.184C159.378 39.184 159 39.12 158.637 38.992C158.285 38.864 157.981 38.672 157.725 38.416L158.253 37.568C158.466 37.7707 158.696 37.9253 158.941 38.032C159.197 38.1493 159.48 38.208 159.789 38.208C160.162 38.208 160.482 38.1013 160.749 37.888C161.026 37.6853 161.288 37.3227 161.533 36.8L162.077 35.568L162.205 35.392L165.661 27.6H166.781L162.573 37.008C162.338 37.552 162.077 37.984 161.789 38.304C161.512 38.624 161.208 38.848 160.877 38.976C160.546 39.1147 160.178 39.184 159.773 39.184ZM162.013 36.24L158.141 27.6H159.325L162.749 35.312L162.013 36.24Z" fill="#1D1D1D"/>
<g filter="url(#filter0_d_0_1)">
<path d="M31 41C31 41 40 36.6 40 30V22.3L31 19L22 22.3V30C22 36.6 31 41 31 41Z" fill="#204ECF"/>
</g>
<path d="M35 26L29.5 31.5L27 29" stroke="white" stroke-width="1.5" stroke-linecap="round" stroke-linejoin="round"/>
<defs>
<filter id="filter0_d_0_1" x="14" y="15" width="34" height="38" filterUnits="userSpaceOnUse" color-interpolation-filters="sRGB">
<feFlood flood-opacity="0" result="BackgroundImageFix"/>
<feColorMatrix in="SourceAlpha" type="matrix" values="0 0 0 0 0 0 0 0 0 0 0 0 0 0 0 0 0 0 127 0" result="hardAlpha"/>
<feOffset dy="4"/>
<feGaussianBlur stdDeviation="4"/>
<feComposite in2="hardAlpha" operator="out"/>
<feColorMatrix type="matrix" values="0 0 0 0 0.12549 0 0 0 0 0.305882 0 0 0 0 0.811765 0 0 0 0.1 0"/>
<feBlend mode="normal" in2="BackgroundImageFix" result="effect1_dropShadow_0_1"/>
<feBlend mode="normal" in="SourceGraphic" in2="effect1_dropShadow_0_1" result="shape"/>
</filter>
</defs>
</svg>
