<svg width="335" height="60" viewBox="0 0 335 60" fill="none" xmlns="http://www.w3.org/2000/svg">
<rect width="335" height="60" rx="5" fill="white"/>
<rect x="0.5" y="0.5" width="334" height="59" rx="4.5" stroke="#D4D3D3" stroke-opacity="0.4"/>
<g clip-path="url(#clip0_0_1)">
<g filter="url(#filter0_d_0_1)">
<path d="M29 20C30.3261 20 31.5979 20.5268 32.5355 21.4645C33.4732 22.4021 34 23.6739 34 25C34 26.3261 33.4732 27.5979 32.5355 28.5355C31.5979 29.4732 30.3261 30 29 30C27.6739 30 26.4021 29.4732 25.4645 28.5355C24.5268 27.5979 24 26.3261 24 25C24 23.6739 24.5268 22.4021 25.4645 21.4645C26.4021 20.5268 27.6739 20 29 20V20ZM29 40C29 40 39 40 39 37.5C39 34.5 34.125 31.25 29 31.25C23.875 31.25 19 34.5 19 37.5C19 40 29 40 29 40Z" fill="#204ECF"/>
</g>
</g>
<path d="M59.824 36V24.8H64.016C64.9653 24.8 65.7813 24.9547 66.464 25.264C67.1467 25.5627 67.6693 26 68.032 26.576C68.4053 27.1413 68.592 27.8293 68.592 28.64C68.592 29.4293 68.4053 30.112 68.032 30.688C67.6693 31.2533 67.1467 31.6907 66.464 32C65.7813 32.3093 64.9653 32.464 64.016 32.464H60.48L61.008 31.904V36H59.824ZM61.008 32L60.48 31.424H63.984C65.104 31.424 65.952 31.184 66.528 30.704C67.1147 30.2133 67.408 29.5253 67.408 28.64C67.408 27.744 67.1147 27.0507 66.528 26.56C65.952 26.0693 65.104 25.824 63.984 25.824H60.48L61.008 25.264V32ZM70.709 36V27.6H71.797V29.888L71.685 29.488C71.9197 28.848 72.3143 28.3627 72.869 28.032C73.4237 27.6907 74.1117 27.52 74.933 27.52V28.624C74.8903 28.624 74.8477 28.624 74.805 28.624C74.7623 28.6133 74.7197 28.608 74.677 28.608C73.7917 28.608 73.0983 28.88 72.597 29.424C72.0957 29.9573 71.845 30.72 71.845 31.712V36H70.709ZM80.3518 36.08C79.5411 36.08 78.8104 35.8987 78.1598 35.536C77.5198 35.1627 77.0131 34.656 76.6398 34.016C76.2664 33.3653 76.0798 32.624 76.0798 31.792C76.0798 30.9493 76.2664 30.208 76.6398 29.568C77.0131 28.928 77.5198 28.4267 78.1598 28.064C78.7998 27.7013 79.5304 27.52 80.3518 27.52C81.1838 27.52 81.9198 27.7013 82.5598 28.064C83.2104 28.4267 83.7171 28.928 84.0798 29.568C84.4531 30.208 84.6398 30.9493 84.6398 31.792C84.6398 32.624 84.4531 33.3653 84.0798 34.016C83.7171 34.656 83.2104 35.1627 82.5598 35.536C81.9091 35.8987 81.1731 36.08 80.3518 36.08ZM80.3518 35.072C80.9598 35.072 81.4984 34.9387 81.9678 34.672C82.4371 34.3947 82.8051 34.0107 83.0718 33.52C83.3491 33.0187 83.4878 32.4427 83.4878 31.792C83.4878 31.1307 83.3491 30.5547 83.0718 30.064C82.8051 29.5733 82.4371 29.1947 81.9678 28.928C81.4984 28.6507 80.9651 28.512 80.3678 28.512C79.7704 28.512 79.2371 28.6507 78.7678 28.928C78.2984 29.1947 77.9251 29.5733 77.6478 30.064C77.3704 30.5547 77.2318 31.1307 77.2318 31.792C77.2318 32.4427 77.3704 33.0187 77.6478 33.52C77.9251 34.0107 78.2984 34.3947 78.7678 34.672C79.2371 34.9387 79.7651 35.072 80.3518 35.072ZM87.151 36V26.544C87.151 25.7973 87.3697 25.1947 87.807 24.736C88.2443 24.2773 88.8737 24.048 89.695 24.048C90.015 24.048 90.3243 24.0907 90.623 24.176C90.9217 24.2613 91.1723 24.3947 91.375 24.576L90.991 25.424C90.831 25.2853 90.6443 25.184 90.431 25.12C90.2177 25.0453 89.9883 25.008 89.743 25.008C89.263 25.008 88.895 25.1413 88.639 25.408C88.383 25.6747 88.255 26.0693 88.255 26.592V27.872L88.287 28.4V36H87.151ZM85.647 28.544V27.6H90.847V28.544H85.647ZM92.383 36V27.6H93.519V36H92.383ZM92.959 25.744C92.7243 25.744 92.527 25.664 92.367 25.504C92.207 25.344 92.127 25.152 92.127 24.928C92.127 24.704 92.207 24.5173 92.367 24.368C92.527 24.208 92.7243 24.128 92.959 24.128C93.1937 24.128 93.391 24.2027 93.551 24.352C93.711 24.5013 93.791 24.688 93.791 24.912C93.791 25.1467 93.711 25.344 93.551 25.504C93.4017 25.664 93.2043 25.744 92.959 25.744ZM96.709 36V24.128H97.845V36H96.709ZM104.574 36.08C103.699 36.08 102.931 35.8987 102.27 35.536C101.609 35.1627 101.091 34.656 100.718 34.016C100.345 33.3653 100.158 32.624 100.158 31.792C100.158 30.96 100.334 30.224 100.686 29.584C101.049 28.944 101.539 28.4427 102.158 28.08C102.787 27.7067 103.491 27.52 104.27 27.52C105.059 27.52 105.758 27.7013 106.366 28.064C106.985 28.416 107.47 28.9173 107.822 29.568C108.174 30.208 108.35 30.9493 108.35 31.792C108.35 31.8453 108.345 31.904 108.334 31.968C108.334 32.0213 108.334 32.08 108.334 32.144H101.022V31.296H107.726L107.278 31.632C107.278 31.024 107.145 30.4853 106.878 30.016C106.622 29.536 106.27 29.1627 105.822 28.896C105.374 28.6293 104.857 28.496 104.27 28.496C103.694 28.496 103.177 28.6293 102.718 28.896C102.259 29.1627 101.902 29.536 101.646 30.016C101.39 30.496 101.262 31.0453 101.262 31.664V31.84C101.262 32.48 101.401 33.0453 101.678 33.536C101.966 34.016 102.361 34.3947 102.862 34.672C103.374 34.9387 103.955 35.072 104.606 35.072C105.118 35.072 105.593 34.9813 106.03 34.8C106.478 34.6187 106.862 34.3413 107.182 33.968L107.822 34.704C107.449 35.152 106.979 35.4933 106.414 35.728C105.859 35.9627 105.246 36.08 104.574 36.08ZM115.09 36V24.8H119.65C120.844 24.8 121.89 25.04 122.786 25.52C123.692 25.9893 124.396 26.6453 124.898 27.488C125.399 28.3307 125.65 29.3013 125.65 30.4C125.65 31.4987 125.399 32.4693 124.898 33.312C124.396 34.1547 123.692 34.816 122.786 35.296C121.89 35.7653 120.844 36 119.65 36H115.09ZM116.274 34.976H119.586C120.578 34.976 121.436 34.784 122.162 34.4C122.898 34.0053 123.468 33.4667 123.874 32.784C124.279 32.0907 124.482 31.296 124.482 30.4C124.482 29.4933 124.279 28.6987 123.874 28.016C123.468 27.3333 122.898 26.8 122.162 26.416C121.436 26.0213 120.578 25.824 119.586 25.824H116.274V34.976ZM131.636 36.08C130.762 36.08 129.994 35.8987 129.332 35.536C128.671 35.1627 128.154 34.656 127.78 34.016C127.407 33.3653 127.22 32.624 127.22 31.792C127.22 30.96 127.396 30.224 127.748 29.584C128.111 28.944 128.602 28.4427 129.22 28.08C129.85 27.7067 130.554 27.52 131.332 27.52C132.122 27.52 132.82 27.7013 133.428 28.064C134.047 28.416 134.532 28.9173 134.884 29.568C135.236 30.208 135.412 30.9493 135.412 31.792C135.412 31.8453 135.407 31.904 135.396 31.968C135.396 32.0213 135.396 32.08 135.396 32.144H128.084V31.296H134.788L134.34 31.632C134.34 31.024 134.207 30.4853 133.94 30.016C133.684 29.536 133.332 29.1627 132.884 28.896C132.436 28.6293 131.919 28.496 131.332 28.496C130.756 28.496 130.239 28.6293 129.78 28.896C129.322 29.1627 128.964 29.536 128.708 30.016C128.452 30.496 128.324 31.0453 128.324 31.664V31.84C128.324 32.48 128.463 33.0453 128.74 33.536C129.028 34.016 129.423 34.3947 129.924 34.672C130.436 34.9387 131.018 35.072 131.668 35.072C132.18 35.072 132.655 34.9813 133.092 34.8C133.54 34.6187 133.924 34.3413 134.244 33.968L134.884 34.704C134.511 35.152 134.042 35.4933 133.476 35.728C132.922 35.9627 132.308 36.08 131.636 36.08ZM140.381 36.08C139.591 36.08 138.983 35.8667 138.557 35.44C138.13 35.0133 137.917 34.4107 137.917 33.632V25.744H139.053V33.568C139.053 34.0587 139.175 34.4373 139.421 34.704C139.677 34.9707 140.039 35.104 140.509 35.104C141.01 35.104 141.426 34.96 141.757 34.672L142.157 35.488C141.933 35.6907 141.661 35.84 141.341 35.936C141.031 36.032 140.711 36.08 140.381 36.08ZM136.413 28.544V27.6H141.613V28.544H136.413ZM149.489 36V34.144L149.441 33.84V30.736C149.441 30.0213 149.238 29.472 148.833 29.088C148.438 28.704 147.846 28.512 147.057 28.512C146.513 28.512 145.995 28.6027 145.505 28.784C145.014 28.9653 144.598 29.2053 144.257 29.504L143.745 28.656C144.171 28.2933 144.683 28.016 145.281 27.824C145.878 27.6213 146.507 27.52 147.169 27.52C148.257 27.52 149.094 27.792 149.681 28.336C150.278 28.8693 150.577 29.6853 150.577 30.784V36H149.489ZM146.593 36.08C145.963 36.08 145.414 35.9787 144.945 35.776C144.486 35.5627 144.134 35.2747 143.889 34.912C143.643 34.5387 143.521 34.112 143.521 33.632C143.521 33.1947 143.622 32.8 143.825 32.448C144.038 32.0853 144.379 31.7973 144.849 31.584C145.329 31.36 145.969 31.248 146.769 31.248H149.665V32.096H146.801C145.99 32.096 145.425 32.24 145.105 32.528C144.795 32.816 144.641 33.1733 144.641 33.6C144.641 34.08 144.827 34.464 145.201 34.752C145.574 35.04 146.097 35.184 146.769 35.184C147.409 35.184 147.958 35.04 148.417 34.752C148.886 34.4533 149.227 34.0267 149.441 33.472L149.697 34.256C149.483 34.8107 149.11 35.2533 148.577 35.584C148.054 35.9147 147.393 36.08 146.593 36.08ZM153.662 36V27.6H154.798V36H153.662ZM154.238 25.744C154.003 25.744 153.806 25.664 153.646 25.504C153.486 25.344 153.406 25.152 153.406 24.928C153.406 24.704 153.486 24.5173 153.646 24.368C153.806 24.208 154.003 24.128 154.238 24.128C154.473 24.128 154.67 24.2027 154.83 24.352C154.99 24.5013 155.07 24.688 155.07 24.912C155.07 25.1467 154.99 25.344 154.83 25.504C154.681 25.664 154.483 25.744 154.238 25.744ZM157.959 36V24.128H159.095V36H157.959ZM164.512 36.08C163.819 36.08 163.163 35.984 162.544 35.792C161.925 35.5893 161.44 35.3387 161.088 35.04L161.6 34.144C161.941 34.4 162.379 34.624 162.912 34.816C163.445 34.9973 164.005 35.088 164.592 35.088C165.392 35.088 165.968 34.9653 166.32 34.72C166.672 34.464 166.848 34.128 166.848 33.712C166.848 33.4027 166.747 33.1627 166.544 32.992C166.352 32.8107 166.096 32.6773 165.776 32.592C165.456 32.496 165.099 32.416 164.704 32.352C164.309 32.288 163.915 32.2133 163.52 32.128C163.136 32.0427 162.784 31.92 162.464 31.76C162.144 31.5893 161.883 31.36 161.68 31.072C161.488 30.784 161.392 30.4 161.392 29.92C161.392 29.4613 161.52 29.0507 161.776 28.688C162.032 28.3253 162.405 28.0427 162.896 27.84C163.397 27.6267 164.005 27.52 164.72 27.52C165.264 27.52 165.808 27.5947 166.352 27.744C166.896 27.8827 167.344 28.0693 167.696 28.304L167.2 29.216C166.827 28.96 166.427 28.7787 166 28.672C165.573 28.5547 165.147 28.496 164.72 28.496C163.963 28.496 163.403 28.6293 163.04 28.896C162.688 29.152 162.512 29.4827 162.512 29.888C162.512 30.208 162.608 30.4587 162.8 30.64C163.003 30.8213 163.264 30.9653 163.584 31.072C163.915 31.168 164.272 31.248 164.656 31.312C165.051 31.376 165.44 31.456 165.824 31.552C166.219 31.6373 166.576 31.76 166.896 31.92C167.227 32.0693 167.488 32.288 167.68 32.576C167.883 32.8533 167.984 33.2213 167.984 33.68C167.984 34.1707 167.845 34.5973 167.568 34.96C167.301 35.312 166.907 35.5893 166.384 35.792C165.872 35.984 165.248 36.08 164.512 36.08Z" fill="#1D1D1D"/>
<path d="M308 38L314 32L308 26" stroke="#D4D3D3" stroke-width="2" stroke-linecap="round" stroke-linejoin="round"/>
<defs>
<filter id="filter0_d_0_1" x="11" y="16" width="36" height="36" filterUnits="userSpaceOnUse" color-interpolation-filters="sRGB">
<feFlood flood-opacity="0" result="BackgroundImageFix"/>
<feColorMatrix in="SourceAlpha" type="matrix" values="0 0 0 0 0 0 0 0 0 0 0 0 0 0 0 0 0 0 127 0" result="hardAlpha"/>
<feOffset dy="4"/>
<feGaussianBlur stdDeviation="4"/>
<feComposite in2="hardAlpha" operator="out"/>
<feColorMatrix type="matrix" values="0 0 0 0 0.12549 0 0 0 0 0.305882 0 0 0 0 0.811765 0 0 0 0.05 0"/>
<feBlend mode="normal" in2="BackgroundImageFix" result="effect1_dropShadow_0_1"/>
<feBlend mode="normal" in="SourceGraphic" in2="effect1_dropShadow_0_1" result="shape"/>
</filter>
<clipPath id="clip0_0_1">
<rect width="30" height="30" fill="white" transform="translate(14 15)"/>
</clipPath>
</defs>
</svg>
