<svg width="335" height="60" viewBox="0 0 335 60" fill="none" xmlns="http://www.w3.org/2000/svg">
<rect width="335" height="60" rx="5" fill="white"/>
<rect x="0.5" y="0.5" width="334" height="59" rx="4.5" stroke="#D4D3D3" stroke-opacity="0.4"/>
<path d="M308 38L314 32L308 26" stroke="#D4D3D3" stroke-width="2" stroke-linecap="round" stroke-linejoin="round"/>
<path d="M61 36V25.824H57.064V24.8H66.12V25.824H62.184V36H61ZM70.4645 36.08C69.5898 36.08 68.8218 35.8987 68.1605 35.536C67.4992 35.1627 66.9818 34.656 66.6085 34.016C66.2352 33.3653 66.0485 32.624 66.0485 31.792C66.0485 30.96 66.2245 30.224 66.5765 29.584C66.9392 28.944 67.4298 28.4427 68.0485 28.08C68.6778 27.7067 69.3818 27.52 70.1605 27.52C70.9498 27.52 71.6485 27.7013 72.2565 28.064C72.8752 28.416 73.3605 28.9173 73.7125 29.568C74.0645 30.208 74.2405 30.9493 74.2405 31.792C74.2405 31.8453 74.2352 31.904 74.2245 31.968C74.2245 32.0213 74.2245 32.08 74.2245 32.144H66.9125V31.296H73.6165L73.1685 31.632C73.1685 31.024 73.0352 30.4853 72.7685 30.016C72.5125 29.536 72.1605 29.1627 71.7125 28.896C71.2645 28.6293 70.7472 28.496 70.1605 28.496C69.5845 28.496 69.0672 28.6293 68.6085 28.896C68.1498 29.1627 67.7925 29.536 67.5365 30.016C67.2805 30.496 67.1525 31.0453 67.1525 31.664V31.84C67.1525 32.48 67.2912 33.0453 67.5685 33.536C67.8565 34.016 68.2512 34.3947 68.7525 34.672C69.2645 34.9387 69.8458 35.072 70.4965 35.072C71.0085 35.072 71.4832 34.9813 71.9205 34.8C72.3685 34.6187 72.7525 34.3413 73.0725 33.968L73.7125 34.704C73.3392 35.152 72.8698 35.4933 72.3045 35.728C71.7498 35.9627 71.1365 36.08 70.4645 36.08ZM76.5528 36V27.6H77.6408V29.888L77.5288 29.488C77.7634 28.848 78.1581 28.3627 78.7128 28.032C79.2674 27.6907 79.9554 27.52 80.7768 27.52V28.624C80.7341 28.624 80.6914 28.624 80.6488 28.624C80.6061 28.6133 80.5634 28.608 80.5208 28.608C79.6354 28.608 78.9421 28.88 78.4408 29.424C77.9394 29.9573 77.6888 30.72 77.6888 31.712V36H76.5528ZM93.3456 27.52C94.0283 27.52 94.6203 27.6533 95.1216 27.92C95.6336 28.176 96.0283 28.5707 96.3056 29.104C96.5936 29.6373 96.7376 30.3093 96.7376 31.12V36H95.6016V31.232C95.6016 30.3467 95.3883 29.68 94.9616 29.232C94.5456 28.7733 93.9536 28.544 93.1856 28.544C92.6096 28.544 92.1083 28.6667 91.6816 28.912C91.2656 29.1467 90.9403 29.4933 90.7056 29.952C90.4816 30.4 90.3696 30.944 90.3696 31.584V36H89.2336V31.232C89.2336 30.3467 89.0203 29.68 88.5936 29.232C88.167 28.7733 87.5696 28.544 86.8016 28.544C86.2363 28.544 85.7403 28.6667 85.3136 28.912C84.887 29.1467 84.5563 29.4933 84.3216 29.952C84.0976 30.4 83.9856 30.944 83.9856 31.584V36H82.8496V27.6H83.9376V29.872L83.7616 29.472C84.0176 28.864 84.4283 28.3893 84.9936 28.048C85.5696 27.696 86.247 27.52 87.0256 27.52C87.847 27.52 88.5456 27.728 89.1216 28.144C89.6976 28.5493 90.071 29.1627 90.2416 29.984L89.7936 29.808C90.039 29.1253 90.471 28.576 91.0896 28.16C91.719 27.7333 92.471 27.52 93.3456 27.52ZM102.074 36.08C101.381 36.08 100.725 35.984 100.106 35.792C99.4877 35.5893 99.0024 35.3387 98.6504 35.04L99.1624 34.144C99.5037 34.4 99.941 34.624 100.474 34.816C101.008 34.9973 101.568 35.088 102.154 35.088C102.954 35.088 103.53 34.9653 103.882 34.72C104.234 34.464 104.41 34.128 104.41 33.712C104.41 33.4027 104.309 33.1627 104.106 32.992C103.914 32.8107 103.658 32.6773 103.338 32.592C103.018 32.496 102.661 32.416 102.266 32.352C101.872 32.288 101.477 32.2133 101.082 32.128C100.698 32.0427 100.346 31.92 100.026 31.76C99.7064 31.5893 99.445 31.36 99.2424 31.072C99.0504 30.784 98.9544 30.4 98.9544 29.92C98.9544 29.4613 99.0824 29.0507 99.3384 28.688C99.5944 28.3253 99.9677 28.0427 100.458 27.84C100.96 27.6267 101.568 27.52 102.282 27.52C102.826 27.52 103.37 27.5947 103.914 27.744C104.458 27.8827 104.906 28.0693 105.258 28.304L104.762 29.216C104.389 28.96 103.989 28.7787 103.562 28.672C103.136 28.5547 102.709 28.496 102.282 28.496C101.525 28.496 100.965 28.6293 100.602 28.896C100.25 29.152 100.074 29.4827 100.074 29.888C100.074 30.208 100.17 30.4587 100.362 30.64C100.565 30.8213 100.826 30.9653 101.146 31.072C101.477 31.168 101.834 31.248 102.218 31.312C102.613 31.376 103.002 31.456 103.386 31.552C103.781 31.6373 104.138 31.76 104.458 31.92C104.789 32.0693 105.05 32.288 105.242 32.576C105.445 32.8533 105.546 33.2213 105.546 33.68C105.546 34.1707 105.408 34.5973 105.13 34.96C104.864 35.312 104.469 35.5893 103.946 35.792C103.434 35.984 102.81 36.08 102.074 36.08ZM117.082 36V34.144L117.034 33.84V30.736C117.034 30.0213 116.832 29.472 116.426 29.088C116.032 28.704 115.44 28.512 114.65 28.512C114.106 28.512 113.589 28.6027 113.098 28.784C112.608 28.9653 112.192 29.2053 111.85 29.504L111.338 28.656C111.765 28.2933 112.277 28.016 112.874 27.824C113.472 27.6213 114.101 27.52 114.762 27.52C115.85 27.52 116.688 27.792 117.274 28.336C117.872 28.8693 118.17 29.6853 118.17 30.784V36H117.082ZM114.186 36.08C113.557 36.08 113.008 35.9787 112.538 35.776C112.08 35.5627 111.728 35.2747 111.482 34.912C111.237 34.5387 111.114 34.112 111.114 33.632C111.114 33.1947 111.216 32.8 111.418 32.448C111.632 32.0853 111.973 31.7973 112.442 31.584C112.922 31.36 113.562 31.248 114.362 31.248H117.258V32.096H114.394C113.584 32.096 113.018 32.24 112.698 32.528C112.389 32.816 112.234 33.1733 112.234 33.6C112.234 34.08 112.421 34.464 112.794 34.752C113.168 35.04 113.69 35.184 114.362 35.184C115.002 35.184 115.552 35.04 116.01 34.752C116.48 34.4533 116.821 34.0267 117.034 33.472L117.29 34.256C117.077 34.8107 116.704 35.2533 116.17 35.584C115.648 35.9147 114.986 36.08 114.186 36.08ZM125.544 27.52C126.227 27.52 126.824 27.6533 127.336 27.92C127.859 28.176 128.264 28.5707 128.552 29.104C128.851 29.6373 129 30.3093 129 31.12V36H127.864V31.232C127.864 30.3467 127.64 29.68 127.192 29.232C126.755 28.7733 126.136 28.544 125.336 28.544C124.739 28.544 124.216 28.6667 123.768 28.912C123.331 29.1467 122.989 29.4933 122.744 29.952C122.509 30.4 122.392 30.944 122.392 31.584V36H121.256V27.6H122.344V29.904L122.168 29.472C122.435 28.864 122.861 28.3893 123.448 28.048C124.035 27.696 124.733 27.52 125.544 27.52ZM135.412 36.08C134.612 36.08 133.892 35.8987 133.252 35.536C132.623 35.1733 132.127 34.672 131.764 34.032C131.402 33.3813 131.22 32.6347 131.22 31.792C131.22 30.9387 131.402 30.192 131.764 29.552C132.127 28.912 132.623 28.416 133.252 28.064C133.892 27.7013 134.612 27.52 135.412 27.52C136.148 27.52 136.804 27.6853 137.38 28.016C137.967 28.3467 138.431 28.832 138.772 29.472C139.124 30.1013 139.3 30.8747 139.3 31.792C139.3 32.6987 139.13 33.472 138.788 34.112C138.447 34.752 137.983 35.2427 137.396 35.584C136.82 35.9147 136.159 36.08 135.412 36.08ZM135.492 35.072C136.09 35.072 136.623 34.9387 137.092 34.672C137.572 34.3947 137.946 34.0107 138.212 33.52C138.49 33.0187 138.628 32.4427 138.628 31.792C138.628 31.1307 138.49 30.5547 138.212 30.064C137.946 29.5733 137.572 29.1947 137.092 28.928C136.623 28.6507 136.09 28.512 135.492 28.512C134.906 28.512 134.378 28.6507 133.908 28.928C133.439 29.1947 133.066 29.5733 132.788 30.064C132.511 30.5547 132.372 31.1307 132.372 31.792C132.372 32.4427 132.511 33.0187 132.788 33.52C133.066 34.0107 133.439 34.3947 133.908 34.672C134.378 34.9387 134.906 35.072 135.492 35.072ZM138.66 36V33.472L138.772 31.776L138.612 30.08V24.128H139.748V36H138.66ZM152.204 36.096C151.361 36.096 150.582 35.9573 149.868 35.68C149.153 35.392 148.534 34.992 148.012 34.48C147.489 33.968 147.078 33.3653 146.78 32.672C146.492 31.9787 146.348 31.2213 146.348 30.4C146.348 29.5787 146.492 28.8213 146.78 28.128C147.078 27.4347 147.489 26.832 148.012 26.32C148.545 25.808 149.169 25.4133 149.884 25.136C150.598 24.848 151.377 24.704 152.22 24.704C153.03 24.704 153.793 24.8427 154.508 25.12C155.222 25.3867 155.825 25.792 156.316 26.336L155.564 27.088C155.105 26.6187 154.598 26.2827 154.044 26.08C153.489 25.8667 152.892 25.76 152.252 25.76C151.58 25.76 150.956 25.8773 150.38 26.112C149.804 26.336 149.302 26.6613 148.876 27.088C148.449 27.504 148.113 27.9947 147.868 28.56C147.633 29.1147 147.516 29.728 147.516 30.4C147.516 31.072 147.633 31.6907 147.868 32.256C148.113 32.8107 148.449 33.3013 148.876 33.728C149.302 34.144 149.804 34.4693 150.38 34.704C150.956 34.928 151.58 35.04 152.252 35.04C152.892 35.04 153.489 34.9333 154.044 34.72C154.598 34.5067 155.105 34.1653 155.564 33.696L156.316 34.448C155.825 34.992 155.222 35.4027 154.508 35.68C153.793 35.9573 153.025 36.096 152.204 36.096ZM161.649 36.08C160.838 36.08 160.107 35.8987 159.457 35.536C158.817 35.1627 158.31 34.656 157.937 34.016C157.563 33.3653 157.377 32.624 157.377 31.792C157.377 30.9493 157.563 30.208 157.937 29.568C158.31 28.928 158.817 28.4267 159.457 28.064C160.097 27.7013 160.827 27.52 161.649 27.52C162.481 27.52 163.217 27.7013 163.857 28.064C164.507 28.4267 165.014 28.928 165.377 29.568C165.75 30.208 165.937 30.9493 165.937 31.792C165.937 32.624 165.75 33.3653 165.377 34.016C165.014 34.656 164.507 35.1627 163.857 35.536C163.206 35.8987 162.47 36.08 161.649 36.08ZM161.649 35.072C162.257 35.072 162.795 34.9387 163.265 34.672C163.734 34.3947 164.102 34.0107 164.369 33.52C164.646 33.0187 164.785 32.4427 164.785 31.792C164.785 31.1307 164.646 30.5547 164.369 30.064C164.102 29.5733 163.734 29.1947 163.265 28.928C162.795 28.6507 162.262 28.512 161.665 28.512C161.067 28.512 160.534 28.6507 160.065 28.928C159.595 29.1947 159.222 29.5733 158.945 30.064C158.667 30.5547 158.529 31.1307 158.529 31.792C158.529 32.4427 158.667 33.0187 158.945 33.52C159.222 34.0107 159.595 34.3947 160.065 34.672C160.534 34.9387 161.062 35.072 161.649 35.072ZM172.544 27.52C173.227 27.52 173.824 27.6533 174.336 27.92C174.859 28.176 175.264 28.5707 175.552 29.104C175.851 29.6373 176 30.3093 176 31.12V36H174.864V31.232C174.864 30.3467 174.64 29.68 174.192 29.232C173.755 28.7733 173.136 28.544 172.336 28.544C171.739 28.544 171.216 28.6667 170.768 28.912C170.331 29.1467 169.989 29.4933 169.744 29.952C169.509 30.4 169.392 30.944 169.392 31.584V36H168.256V27.6H169.344V29.904L169.168 29.472C169.435 28.864 169.861 28.3893 170.448 28.048C171.035 27.696 171.733 27.52 172.544 27.52ZM182.412 36.08C181.612 36.08 180.892 35.8987 180.252 35.536C179.623 35.1733 179.127 34.672 178.764 34.032C178.402 33.3813 178.22 32.6347 178.22 31.792C178.22 30.9387 178.402 30.192 178.764 29.552C179.127 28.912 179.623 28.416 180.252 28.064C180.892 27.7013 181.612 27.52 182.412 27.52C183.148 27.52 183.804 27.6853 184.38 28.016C184.967 28.3467 185.431 28.832 185.772 29.472C186.124 30.1013 186.3 30.8747 186.3 31.792C186.3 32.6987 186.13 33.472 185.788 34.112C185.447 34.752 184.983 35.2427 184.396 35.584C183.82 35.9147 183.159 36.08 182.412 36.08ZM182.492 35.072C183.09 35.072 183.623 34.9387 184.092 34.672C184.572 34.3947 184.946 34.0107 185.212 33.52C185.49 33.0187 185.628 32.4427 185.628 31.792C185.628 31.1307 185.49 30.5547 185.212 30.064C184.946 29.5733 184.572 29.1947 184.092 28.928C183.623 28.6507 183.09 28.512 182.492 28.512C181.906 28.512 181.378 28.6507 180.908 28.928C180.439 29.1947 180.066 29.5733 179.788 30.064C179.511 30.5547 179.372 31.1307 179.372 31.792C179.372 32.4427 179.511 33.0187 179.788 33.52C180.066 34.0107 180.439 34.3947 180.908 34.672C181.378 34.9387 181.906 35.072 182.492 35.072ZM185.66 36V33.472L185.772 31.776L185.612 30.08V24.128H186.748V36H185.66ZM189.912 36V27.6H191.048V36H189.912ZM190.488 25.744C190.253 25.744 190.056 25.664 189.896 25.504C189.736 25.344 189.656 25.152 189.656 24.928C189.656 24.704 189.736 24.5173 189.896 24.368C190.056 24.208 190.253 24.128 190.488 24.128C190.723 24.128 190.92 24.2027 191.08 24.352C191.24 24.5013 191.32 24.688 191.32 24.912C191.32 25.1467 191.24 25.344 191.08 25.504C190.931 25.664 190.733 25.744 190.488 25.744ZM196.865 36.08C196.076 36.08 195.468 35.8667 195.041 35.44C194.614 35.0133 194.401 34.4107 194.401 33.632V25.744H195.537V33.568C195.537 34.0587 195.66 34.4373 195.905 34.704C196.161 34.9707 196.524 35.104 196.993 35.104C197.494 35.104 197.91 34.96 198.241 34.672L198.641 35.488C198.417 35.6907 198.145 35.84 197.825 35.936C197.516 36.032 197.196 36.08 196.865 36.08ZM192.897 28.544V27.6H198.097V28.544H192.897ZM200.709 36V27.6H201.845V36H200.709ZM201.285 25.744C201.05 25.744 200.853 25.664 200.693 25.504C200.533 25.344 200.453 25.152 200.453 24.928C200.453 24.704 200.533 24.5173 200.693 24.368C200.853 24.208 201.05 24.128 201.285 24.128C201.52 24.128 201.717 24.2027 201.877 24.352C202.037 24.5013 202.117 24.688 202.117 24.912C202.117 25.1467 202.037 25.344 201.877 25.504C201.728 25.664 201.53 25.744 201.285 25.744ZM208.43 36.08C207.619 36.08 206.889 35.8987 206.238 35.536C205.598 35.1627 205.091 34.656 204.718 34.016C204.345 33.3653 204.158 32.624 204.158 31.792C204.158 30.9493 204.345 30.208 204.718 29.568C205.091 28.928 205.598 28.4267 206.238 28.064C206.878 27.7013 207.609 27.52 208.43 27.52C209.262 27.52 209.998 27.7013 210.638 28.064C211.289 28.4267 211.795 28.928 212.158 29.568C212.531 30.208 212.718 30.9493 212.718 31.792C212.718 32.624 212.531 33.3653 212.158 34.016C211.795 34.656 211.289 35.1627 210.638 35.536C209.987 35.8987 209.251 36.08 208.43 36.08ZM208.43 35.072C209.038 35.072 209.577 34.9387 210.046 34.672C210.515 34.3947 210.883 34.0107 211.15 33.52C211.427 33.0187 211.566 32.4427 211.566 31.792C211.566 31.1307 211.427 30.5547 211.15 30.064C210.883 29.5733 210.515 29.1947 210.046 28.928C209.577 28.6507 209.043 28.512 208.446 28.512C207.849 28.512 207.315 28.6507 206.846 28.928C206.377 29.1947 206.003 29.5733 205.726 30.064C205.449 30.5547 205.31 31.1307 205.31 31.792C205.31 32.4427 205.449 33.0187 205.726 33.52C206.003 34.0107 206.377 34.3947 206.846 34.672C207.315 34.9387 207.843 35.072 208.43 35.072ZM219.325 27.52C220.008 27.52 220.605 27.6533 221.117 27.92C221.64 28.176 222.045 28.5707 222.333 29.104C222.632 29.6373 222.781 30.3093 222.781 31.12V36H221.645V31.232C221.645 30.3467 221.421 29.68 220.973 29.232C220.536 28.7733 219.917 28.544 219.117 28.544C218.52 28.544 217.997 28.6667 217.549 28.912C217.112 29.1467 216.77 29.4933 216.525 29.952C216.29 30.4 216.173 30.944 216.173 31.584V36H215.037V27.6H216.125V29.904L215.949 29.472C216.216 28.864 216.642 28.3893 217.229 28.048C217.816 27.696 218.514 27.52 219.325 27.52ZM228.106 36.08C227.412 36.08 226.756 35.984 226.138 35.792C225.519 35.5893 225.034 35.3387 224.682 35.04L225.194 34.144C225.535 34.4 225.972 34.624 226.506 34.816C227.039 34.9973 227.599 35.088 228.186 35.088C228.986 35.088 229.562 34.9653 229.914 34.72C230.266 34.464 230.442 34.128 230.442 33.712C230.442 33.4027 230.34 33.1627 230.138 32.992C229.946 32.8107 229.69 32.6773 229.37 32.592C229.05 32.496 228.692 32.416 228.298 32.352C227.903 32.288 227.508 32.2133 227.114 32.128C226.73 32.0427 226.378 31.92 226.058 31.76C225.738 31.5893 225.476 31.36 225.274 31.072C225.082 30.784 224.986 30.4 224.986 29.92C224.986 29.4613 225.114 29.0507 225.37 28.688C225.626 28.3253 225.999 28.0427 226.49 27.84C226.991 27.6267 227.599 27.52 228.314 27.52C228.858 27.52 229.402 27.5947 229.946 27.744C230.49 27.8827 230.938 28.0693 231.29 28.304L230.794 29.216C230.42 28.96 230.02 28.7787 229.594 28.672C229.167 28.5547 228.74 28.496 228.314 28.496C227.556 28.496 226.996 28.6293 226.634 28.896C226.282 29.152 226.106 29.4827 226.106 29.888C226.106 30.208 226.202 30.4587 226.394 30.64C226.596 30.8213 226.858 30.9653 227.178 31.072C227.508 31.168 227.866 31.248 228.25 31.312C228.644 31.376 229.034 31.456 229.418 31.552C229.812 31.6373 230.17 31.76 230.49 31.92C230.82 32.0693 231.082 32.288 231.274 32.576C231.476 32.8533 231.578 33.2213 231.578 33.68C231.578 34.1707 231.439 34.5973 231.162 34.96C230.895 35.312 230.5 35.5893 229.978 35.792C229.466 35.984 228.842 36.08 228.106 36.08Z" fill="#1D1D1D"/>
<g clip-path="url(#clip0_842_4441)">
<g filter="url(#filter0_d_842_4441)">
<path d="M30.5 19.5V24.75C30.5 25.3467 30.7529 25.919 31.2029 26.341C31.653 26.7629 32.2635 27 32.9 27H38.5V38.25C38.5 38.8467 38.2471 39.419 37.7971 39.841C37.347 40.2629 36.7365 40.5 36.1 40.5H24.9C24.2635 40.5 23.653 40.2629 23.2029 39.841C22.7529 39.419 22.5 38.8467 22.5 38.25V21.75C22.5 21.1533 22.7529 20.581 23.2029 20.159C23.653 19.7371 24.2635 19.5 24.9 19.5H30.5ZM32.1 19.875V24.75C32.1 24.9489 32.1843 25.1397 32.3343 25.2803C32.4843 25.421 32.6878 25.5 32.9 25.5H38.1L32.1 19.875Z" fill="#204ECF"/>
</g>
</g>
<defs>
<filter id="filter0_d_842_4441" x="14.5" y="15.5" width="32" height="37" filterUnits="userSpaceOnUse" color-interpolation-filters="sRGB">
<feFlood flood-opacity="0" result="BackgroundImageFix"/>
<feColorMatrix in="SourceAlpha" type="matrix" values="0 0 0 0 0 0 0 0 0 0 0 0 0 0 0 0 0 0 127 0" result="hardAlpha"/>
<feOffset dy="4"/>
<feGaussianBlur stdDeviation="4"/>
<feComposite in2="hardAlpha" operator="out"/>
<feColorMatrix type="matrix" values="0 0 0 0 0.12549 0 0 0 0 0.305882 0 0 0 0 0.811765 0 0 0 0.1 0"/>
<feBlend mode="normal" in2="BackgroundImageFix" result="effect1_dropShadow_842_4441"/>
<feBlend mode="normal" in="SourceGraphic" in2="effect1_dropShadow_842_4441" result="shape"/>
</filter>
<clipPath id="clip0_842_4441">
<rect width="24" height="24" fill="white" transform="translate(18 18)"/>
</clipPath>
</defs>
</svg>
