<svg width="335" height="60" viewBox="0 0 335 60" fill="none" xmlns="http://www.w3.org/2000/svg">
<rect width="335" height="60" rx="5" fill="white"/>
<rect x="0.5" y="0.5" width="334" height="59" rx="4.5" stroke="#D4D3D3" stroke-opacity="0.4"/>
<path d="M56.032 36L61.152 24.8H62.32L67.44 36H66.192L61.488 25.488H61.968L57.264 36H56.032ZM58.048 33.008L58.4 32.048H64.912L65.264 33.008H58.048ZM73.3888 36.08C72.6528 36.08 71.9914 35.9147 71.4048 35.584C70.8181 35.2427 70.3541 34.752 70.0128 34.112C69.6714 33.472 69.5008 32.6987 69.5008 31.792C69.5008 30.8747 69.6714 30.1013 70.0128 29.472C70.3648 28.832 70.8341 28.3467 71.4208 28.016C72.0074 27.6853 72.6634 27.52 73.3888 27.52C74.1888 27.52 74.9034 27.7013 75.5328 28.064C76.1728 28.416 76.6741 28.912 77.0368 29.552C77.3994 30.192 77.5808 30.9387 77.5808 31.792C77.5808 32.6347 77.3994 33.3813 77.0368 34.032C76.6741 34.672 76.1728 35.1733 75.5328 35.536C74.9034 35.8987 74.1888 36.08 73.3888 36.08ZM69.0528 36V24.128H70.1888V30.08L70.0288 31.776L70.1408 33.472V36H69.0528ZM73.3088 35.072C73.9061 35.072 74.4394 34.9387 74.9088 34.672C75.3781 34.3947 75.7514 34.0107 76.0288 33.52C76.3061 33.0187 76.4448 32.4427 76.4448 31.792C76.4448 31.1307 76.3061 30.5547 76.0288 30.064C75.7514 29.5733 75.3781 29.1947 74.9088 28.928C74.4394 28.6507 73.9061 28.512 73.3088 28.512C72.7114 28.512 72.1728 28.6507 71.6927 28.928C71.2234 29.1947 70.8501 29.5733 70.5728 30.064C70.3061 30.5547 70.1728 31.1307 70.1728 31.792C70.1728 32.4427 70.3061 33.0187 70.5728 33.52C70.8501 34.0107 71.2234 34.3947 71.6927 34.672C72.1728 34.9387 72.7114 35.072 73.3088 35.072ZM83.3205 36.08C82.5098 36.08 81.7792 35.8987 81.1285 35.536C80.4885 35.1627 79.9818 34.656 79.6085 34.016C79.2352 33.3653 79.0485 32.624 79.0485 31.792C79.0485 30.9493 79.2352 30.208 79.6085 29.568C79.9818 28.928 80.4885 28.4267 81.1285 28.064C81.7685 27.7013 82.4992 27.52 83.3205 27.52C84.1525 27.52 84.8885 27.7013 85.5285 28.064C86.1792 28.4267 86.6858 28.928 87.0485 29.568C87.4218 30.208 87.6085 30.9493 87.6085 31.792C87.6085 32.624 87.4218 33.3653 87.0485 34.016C86.6858 34.656 86.1792 35.1627 85.5285 35.536C84.8778 35.8987 84.1418 36.08 83.3205 36.08ZM83.3205 35.072C83.9285 35.072 84.4672 34.9387 84.9365 34.672C85.4058 34.3947 85.7738 34.0107 86.0405 33.52C86.3178 33.0187 86.4565 32.4427 86.4565 31.792C86.4565 31.1307 86.3178 30.5547 86.0405 30.064C85.7738 29.5733 85.4058 29.1947 84.9365 28.928C84.4672 28.6507 83.9338 28.512 83.3365 28.512C82.7392 28.512 82.2058 28.6507 81.7365 28.928C81.2672 29.1947 80.8938 29.5733 80.6165 30.064C80.3392 30.5547 80.2005 31.1307 80.2005 31.792C80.2005 32.4427 80.3392 33.0187 80.6165 33.52C80.8938 34.0107 81.2672 34.3947 81.7365 34.672C82.2058 34.9387 82.7338 35.072 83.3205 35.072ZM93.3998 36.08C92.6851 36.08 92.0611 35.9467 91.5278 35.68C90.9944 35.4133 90.5784 35.0133 90.2798 34.48C89.9918 33.9467 89.8478 33.28 89.8478 32.48V27.6H90.9838V32.352C90.9838 33.248 91.2024 33.9253 91.6398 34.384C92.0878 34.832 92.7118 35.056 93.5118 35.056C94.0984 35.056 94.6051 34.9387 95.0318 34.704C95.4691 34.4587 95.7998 34.1067 96.0238 33.648C96.2584 33.1893 96.3758 32.64 96.3758 32V27.6H97.5118V36H96.4237V33.696L96.5998 34.112C96.3331 34.7307 95.9171 35.216 95.3518 35.568C94.7971 35.9093 94.1464 36.08 93.3998 36.08ZM103.334 36.08C102.544 36.08 101.936 35.8667 101.51 35.44C101.083 35.0133 100.87 34.4107 100.87 33.632V25.744H102.006V33.568C102.006 34.0587 102.128 34.4373 102.374 34.704C102.63 34.9707 102.992 35.104 103.462 35.104C103.963 35.104 104.379 34.96 104.71 34.672L105.11 35.488C104.886 35.6907 104.614 35.84 104.294 35.936C103.984 36.032 103.664 36.08 103.334 36.08ZM99.3658 28.544V27.6H104.566V28.544H99.3658ZM116.117 36.096C114.688 36.096 113.563 35.6853 112.741 34.864C111.92 34.0427 111.509 32.8267 111.509 31.216V24.8H112.693V31.168C112.693 32.4907 112.992 33.4667 113.589 34.096C114.187 34.7253 115.029 35.04 116.117 35.04C117.216 35.04 118.064 34.7253 118.661 34.096C119.259 33.4667 119.557 32.4907 119.557 31.168V24.8H120.709V31.216C120.709 32.8267 120.299 34.0427 119.477 34.864C118.667 35.6853 117.547 36.096 116.117 36.096ZM126.293 36.08C125.6 36.08 124.944 35.984 124.325 35.792C123.706 35.5893 123.221 35.3387 122.869 35.04L123.381 34.144C123.722 34.4 124.16 34.624 124.693 34.816C125.226 34.9973 125.786 35.088 126.373 35.088C127.173 35.088 127.749 34.9653 128.101 34.72C128.453 34.464 128.629 34.128 128.629 33.712C128.629 33.4027 128.528 33.1627 128.325 32.992C128.133 32.8107 127.877 32.6773 127.557 32.592C127.237 32.496 126.88 32.416 126.485 32.352C126.09 32.288 125.696 32.2133 125.301 32.128C124.917 32.0427 124.565 31.92 124.245 31.76C123.925 31.5893 123.664 31.36 123.461 31.072C123.269 30.784 123.173 30.4 123.173 29.92C123.173 29.4613 123.301 29.0507 123.557 28.688C123.813 28.3253 124.186 28.0427 124.677 27.84C125.178 27.6267 125.786 27.52 126.501 27.52C127.045 27.52 127.589 27.5947 128.133 27.744C128.677 27.8827 129.125 28.0693 129.477 28.304L128.981 29.216C128.608 28.96 128.208 28.7787 127.781 28.672C127.354 28.5547 126.928 28.496 126.501 28.496C125.744 28.496 125.184 28.6293 124.821 28.896C124.469 29.152 124.293 29.4827 124.293 29.888C124.293 30.208 124.389 30.4587 124.581 30.64C124.784 30.8213 125.045 30.9653 125.365 31.072C125.696 31.168 126.053 31.248 126.437 31.312C126.832 31.376 127.221 31.456 127.605 31.552C128 31.6373 128.357 31.76 128.677 31.92C129.008 32.0693 129.269 32.288 129.461 32.576C129.664 32.8533 129.765 33.2213 129.765 33.68C129.765 34.1707 129.626 34.5973 129.349 34.96C129.082 35.312 128.688 35.5893 128.165 35.792C127.653 35.984 127.029 36.08 126.293 36.08Z" fill="#1D1D1D"/>
<g filter="url(#filter0_d_0_1)">
<path d="M33.1871 39.8421C31.8024 38.0242 30.3529 35.6274 30.3529 33.4737C30.3529 31.3547 31.5953 29.4211 33.4588 28.2632H32.9412V25.9474H35.5294V27.3716C36.1765 27.2095 36.8235 27.1053 37.4706 27.1053C37.6906 27.1053 37.9106 27.1053 38.1176 27.14V19H20V39.8421H27.7647V35.7895H30.3529V39.8421H33.1871ZM32.9412 21.3158H35.5294V23.6316H32.9412V21.3158ZM25.1765 37.5263H22.5882V35.2105H25.1765V37.5263ZM25.1765 32.8947H22.5882V30.5789H25.1765V32.8947ZM25.1765 28.2632H22.5882V25.9474H25.1765V28.2632ZM25.1765 23.6316H22.5882V21.3158H25.1765V23.6316ZM27.7647 21.3158H30.3529V23.6316H27.7647V21.3158ZM27.7647 25.9474H30.3529V28.2632H27.7647V25.9474ZM27.7647 32.8947V30.5789H30.3529V32.8947H27.7647ZM37.4706 29.4211C35.0118 29.4211 32.9412 31.2853 32.9412 33.4737C32.9412 36.4958 37.4706 41 37.4706 41C37.4706 41 42 36.4958 42 33.4737C42 31.2853 39.9294 29.4211 37.4706 29.4211ZM37.4706 34.9905C36.5647 34.9905 35.9176 34.2958 35.9176 33.6011C35.9176 32.7905 36.6941 32.2116 37.4706 32.2116C38.2471 32.2116 39.0235 32.8947 39.0235 33.6011C39.1529 34.2958 38.3765 34.9905 37.4706 34.9905Z" fill="#204ECF"/>
</g>
<defs>
<filter id="filter0_d_0_1" x="10" y="14" width="42" height="42" filterUnits="userSpaceOnUse" color-interpolation-filters="sRGB">
<feFlood flood-opacity="0" result="BackgroundImageFix"/>
<feColorMatrix in="SourceAlpha" type="matrix" values="0 0 0 0 0 0 0 0 0 0 0 0 0 0 0 0 0 0 127 0" result="hardAlpha"/>
<feOffset dy="5"/>
<feGaussianBlur stdDeviation="5"/>
<feComposite in2="hardAlpha" operator="out"/>
<feColorMatrix type="matrix" values="0 0 0 0 0.909804 0 0 0 0 0.301961 0 0 0 0 0.415686 0 0 0 0.1 0"/>
<feBlend mode="normal" in2="BackgroundImageFix" result="effect1_dropShadow_0_1"/>
<feBlend mode="normal" in="SourceGraphic" in2="effect1_dropShadow_0_1" result="shape"/>
</filter>
</defs>
</svg>
