<svg width="335" height="60" viewBox="0 0 335 60" fill="none" xmlns="http://www.w3.org/2000/svg">
<rect width="335" height="60" rx="5" fill="white"/>
<rect x="0.5" y="0.5" width="334" height="59" rx="4.5" stroke="#D4D3D3" stroke-opacity="0.4"/>
<g filter="url(#filter0_d_520_1562)">
<path d="M29 20C30.3261 20 31.5979 20.5268 32.5355 21.4645C33.4732 22.4021 34 23.6739 34 25C34 26.3261 33.4732 27.5979 32.5355 28.5355C31.5979 29.4732 30.3261 30 29 30C27.6739 30 26.4021 29.4732 25.4645 28.5355C24.5268 27.5979 24 26.3261 24 25C24 23.6739 24.5268 22.4021 25.4645 21.4645C26.4021 20.5268 27.6739 20 29 20ZM29 40C29 40 39 40 39 37.5C39 34.5 34.125 31.25 29 31.25C23.875 31.25 19 34.5 19 37.5C19 40 29 40 29 40Z" fill="#20CF91"/>
</g>
<path d="M56.032 36L61.152 24.8H62.32L67.44 36H66.192L61.488 25.488H61.968L57.264 36H56.032ZM58.048 33.008L58.4 32.048H64.912L65.264 33.008H58.048ZM72.4626 36.08C71.6306 36.08 70.884 35.8987 70.2226 35.536C69.572 35.1627 69.06 34.656 68.6866 34.016C68.3133 33.3653 68.1266 32.624 68.1266 31.792C68.1266 30.9493 68.3133 30.208 68.6866 29.568C69.06 28.928 69.572 28.4267 70.2226 28.064C70.884 27.7013 71.6306 27.52 72.4626 27.52C73.1773 27.52 73.8226 27.6587 74.3986 27.936C74.9746 28.2133 75.428 28.6293 75.7586 29.184L74.9106 29.76C74.6226 29.3333 74.2653 29.0187 73.8386 28.816C73.412 28.6133 72.948 28.512 72.4466 28.512C71.8493 28.512 71.3106 28.6507 70.8306 28.928C70.3506 29.1947 69.972 29.5733 69.6946 30.064C69.4173 30.5547 69.2786 31.1307 69.2786 31.792C69.2786 32.4533 69.4173 33.0293 69.6946 33.52C69.972 34.0107 70.3506 34.3947 70.8306 34.672C71.3106 34.9387 71.8493 35.072 72.4466 35.072C72.948 35.072 73.412 34.9707 73.8386 34.768C74.2653 34.5653 74.6226 34.256 74.9106 33.84L75.7586 34.416C75.428 34.96 74.9746 35.376 74.3986 35.664C73.8226 35.9413 73.1773 36.08 72.4626 36.08ZM81.3376 36.08C80.5056 36.08 79.759 35.8987 79.0976 35.536C78.447 35.1627 77.935 34.656 77.5616 34.016C77.1883 33.3653 77.0016 32.624 77.0016 31.792C77.0016 30.9493 77.1883 30.208 77.5616 29.568C77.935 28.928 78.447 28.4267 79.0976 28.064C79.759 27.7013 80.5056 27.52 81.3376 27.52C82.0523 27.52 82.6976 27.6587 83.2736 27.936C83.8496 28.2133 84.303 28.6293 84.6336 29.184L83.7856 29.76C83.4976 29.3333 83.1403 29.0187 82.7136 28.816C82.287 28.6133 81.823 28.512 81.3216 28.512C80.7243 28.512 80.1856 28.6507 79.7056 28.928C79.2256 29.1947 78.847 29.5733 78.5696 30.064C78.2923 30.5547 78.1536 31.1307 78.1536 31.792C78.1536 32.4533 78.2923 33.0293 78.5696 33.52C78.847 34.0107 79.2256 34.3947 79.7056 34.672C80.1856 34.9387 80.7243 35.072 81.3216 35.072C81.823 35.072 82.287 34.9707 82.7136 34.768C83.1403 34.5653 83.4976 34.256 83.7856 33.84L84.6336 34.416C84.303 34.96 83.8496 35.376 83.2736 35.664C82.6976 35.9413 82.0523 36.08 81.3376 36.08ZM90.1486 36.08C89.338 36.08 88.6073 35.8987 87.9566 35.536C87.3166 35.1627 86.81 34.656 86.4366 34.016C86.0633 33.3653 85.8766 32.624 85.8766 31.792C85.8766 30.9493 86.0633 30.208 86.4366 29.568C86.81 28.928 87.3166 28.4267 87.9566 28.064C88.5966 27.7013 89.3273 27.52 90.1486 27.52C90.9806 27.52 91.7166 27.7013 92.3566 28.064C93.0073 28.4267 93.514 28.928 93.8766 29.568C94.25 30.208 94.4366 30.9493 94.4366 31.792C94.4366 32.624 94.25 33.3653 93.8766 34.016C93.514 34.656 93.0073 35.1627 92.3566 35.536C91.706 35.8987 90.97 36.08 90.1486 36.08ZM90.1486 35.072C90.7566 35.072 91.2953 34.9387 91.7646 34.672C92.234 34.3947 92.602 34.0107 92.8686 33.52C93.146 33.0187 93.2846 32.4427 93.2846 31.792C93.2846 31.1307 93.146 30.5547 92.8686 30.064C92.602 29.5733 92.234 29.1947 91.7646 28.928C91.2953 28.6507 90.762 28.512 90.1646 28.512C89.5673 28.512 89.034 28.6507 88.5646 28.928C88.0953 29.1947 87.722 29.5733 87.4446 30.064C87.1673 30.5547 87.0286 31.1307 87.0286 31.792C87.0286 32.4427 87.1673 33.0187 87.4446 33.52C87.722 34.0107 88.0953 34.3947 88.5646 34.672C89.034 34.9387 89.562 35.072 90.1486 35.072ZM100.228 36.08C99.5132 36.08 98.8892 35.9467 98.3559 35.68C97.8225 35.4133 97.4065 35.0133 97.1079 34.48C96.8199 33.9467 96.6759 33.28 96.6759 32.48V27.6H97.8119V32.352C97.8119 33.248 98.0305 33.9253 98.4679 34.384C98.9159 34.832 99.5399 35.056 100.34 35.056C100.927 35.056 101.433 34.9387 101.86 34.704C102.297 34.4587 102.628 34.1067 102.852 33.648C103.087 33.1893 103.204 32.64 103.204 32V27.6H104.34V36H103.252V33.696L103.428 34.112C103.161 34.7307 102.745 35.216 102.18 35.568C101.625 35.9093 100.975 36.08 100.228 36.08ZM111.794 27.52C112.477 27.52 113.074 27.6533 113.586 27.92C114.109 28.176 114.514 28.5707 114.802 29.104C115.101 29.6373 115.25 30.3093 115.25 31.12V36H114.114V31.232C114.114 30.3467 113.89 29.68 113.442 29.232C113.005 28.7733 112.386 28.544 111.586 28.544C110.989 28.544 110.466 28.6667 110.018 28.912C109.581 29.1467 109.239 29.4933 108.994 29.952C108.759 30.4 108.642 30.944 108.642 31.584V36H107.506V27.6H108.594V29.904L108.418 29.472C108.685 28.864 109.111 28.3893 109.698 28.048C110.285 27.696 110.983 27.52 111.794 27.52ZM120.974 36.08C120.185 36.08 119.577 35.8667 119.15 35.44C118.724 35.0133 118.51 34.4107 118.51 33.632V25.744H119.646V33.568C119.646 34.0587 119.769 34.4373 120.014 34.704C120.27 34.9707 120.633 35.104 121.102 35.104C121.604 35.104 122.02 34.96 122.35 34.672L122.75 35.488C122.526 35.6907 122.254 35.84 121.934 35.936C121.625 36.032 121.305 36.08 120.974 36.08ZM117.006 28.544V27.6H122.206V28.544H117.006ZM132.334 36.096C131.502 36.096 130.702 35.9627 129.934 35.696C129.177 35.4187 128.59 35.0667 128.174 34.64L128.638 33.728C129.033 34.112 129.561 34.4373 130.222 34.704C130.894 34.96 131.598 35.088 132.334 35.088C133.038 35.088 133.609 35.0027 134.046 34.832C134.494 34.6507 134.819 34.4107 135.022 34.112C135.235 33.8133 135.342 33.4827 135.342 33.12C135.342 32.6827 135.214 32.3307 134.958 32.064C134.713 31.7973 134.387 31.5893 133.982 31.44C133.577 31.28 133.129 31.1413 132.638 31.024C132.147 30.9067 131.657 30.784 131.166 30.656C130.675 30.5173 130.222 30.336 129.806 30.112C129.401 29.888 129.07 29.5947 128.814 29.232C128.569 28.8587 128.446 28.3733 128.446 27.776C128.446 27.2213 128.59 26.7147 128.878 26.256C129.177 25.7867 129.63 25.4133 130.238 25.136C130.846 24.848 131.625 24.704 132.574 24.704C133.203 24.704 133.827 24.7947 134.446 24.976C135.065 25.1467 135.598 25.3867 136.046 25.696L135.646 26.64C135.166 26.32 134.654 26.0853 134.11 25.936C133.577 25.7867 133.059 25.712 132.558 25.712C131.886 25.712 131.331 25.8027 130.894 25.984C130.457 26.1653 130.131 26.4107 129.918 26.72C129.715 27.0187 129.614 27.36 129.614 27.744C129.614 28.1813 129.737 28.5333 129.982 28.8C130.238 29.0667 130.569 29.2747 130.974 29.424C131.39 29.5733 131.843 29.7067 132.334 29.824C132.825 29.9413 133.31 30.0693 133.79 30.208C134.281 30.3467 134.729 30.528 135.134 30.752C135.55 30.9653 135.881 31.2533 136.126 31.616C136.382 31.9787 136.51 32.4533 136.51 33.04C136.51 33.584 136.361 34.0907 136.062 34.56C135.763 35.0187 135.305 35.392 134.686 35.68C134.078 35.9573 133.294 36.096 132.334 36.096ZM142.418 36.08C141.543 36.08 140.775 35.8987 140.114 35.536C139.452 35.1627 138.935 34.656 138.562 34.016C138.188 33.3653 138.002 32.624 138.002 31.792C138.002 30.96 138.178 30.224 138.53 29.584C138.892 28.944 139.383 28.4427 140.002 28.08C140.631 27.7067 141.335 27.52 142.114 27.52C142.903 27.52 143.602 27.7013 144.21 28.064C144.828 28.416 145.314 28.9173 145.666 29.568C146.018 30.208 146.194 30.9493 146.194 31.792C146.194 31.8453 146.188 31.904 146.178 31.968C146.178 32.0213 146.178 32.08 146.178 32.144H138.866V31.296H145.57L145.122 31.632C145.122 31.024 144.988 30.4853 144.722 30.016C144.466 29.536 144.114 29.1627 143.666 28.896C143.218 28.6293 142.7 28.496 142.114 28.496C141.538 28.496 141.02 28.6293 140.562 28.896C140.103 29.1627 139.746 29.536 139.49 30.016C139.234 30.496 139.106 31.0453 139.106 31.664V31.84C139.106 32.48 139.244 33.0453 139.522 33.536C139.81 34.016 140.204 34.3947 140.706 34.672C141.218 34.9387 141.799 35.072 142.45 35.072C142.962 35.072 143.436 34.9813 143.874 34.8C144.322 34.6187 144.706 34.3413 145.026 33.968L145.666 34.704C145.292 35.152 144.823 35.4933 144.258 35.728C143.703 35.9627 143.09 36.08 142.418 36.08ZM151.162 36.08C150.373 36.08 149.765 35.8667 149.338 35.44C148.911 35.0133 148.698 34.4107 148.698 33.632V25.744H149.834V33.568C149.834 34.0587 149.957 34.4373 150.202 34.704C150.458 34.9707 150.821 35.104 151.29 35.104C151.791 35.104 152.207 34.96 152.538 34.672L152.938 35.488C152.714 35.6907 152.442 35.84 152.122 35.936C151.813 36.032 151.493 36.08 151.162 36.08ZM147.194 28.544V27.6H152.394V28.544H147.194ZM157.443 36.08C156.654 36.08 156.046 35.8667 155.619 35.44C155.192 35.0133 154.979 34.4107 154.979 33.632V25.744H156.115V33.568C156.115 34.0587 156.238 34.4373 156.483 34.704C156.739 34.9707 157.102 35.104 157.571 35.104C158.072 35.104 158.488 34.96 158.819 34.672L159.219 35.488C158.995 35.6907 158.723 35.84 158.403 35.936C158.094 36.032 157.774 36.08 157.443 36.08ZM153.475 28.544V27.6H158.675V28.544H153.475ZM161.287 36V27.6H162.423V36H161.287ZM161.863 25.744C161.628 25.744 161.431 25.664 161.271 25.504C161.111 25.344 161.031 25.152 161.031 24.928C161.031 24.704 161.111 24.5173 161.271 24.368C161.431 24.208 161.628 24.128 161.863 24.128C162.098 24.128 162.295 24.2027 162.455 24.352C162.615 24.5013 162.695 24.688 162.695 24.912C162.695 25.1467 162.615 25.344 162.455 25.504C162.306 25.664 162.108 25.744 161.863 25.744ZM169.872 27.52C170.555 27.52 171.152 27.6533 171.664 27.92C172.187 28.176 172.592 28.5707 172.88 29.104C173.179 29.6373 173.328 30.3093 173.328 31.12V36H172.192V31.232C172.192 30.3467 171.968 29.68 171.52 29.232C171.083 28.7733 170.464 28.544 169.664 28.544C169.067 28.544 168.544 28.6667 168.096 28.912C167.659 29.1467 167.317 29.4933 167.072 29.952C166.837 30.4 166.72 30.944 166.72 31.584V36H165.584V27.6H166.672V29.904L166.496 29.472C166.763 28.864 167.189 28.3893 167.776 28.048C168.363 27.696 169.061 27.52 169.872 27.52ZM179.981 39.184C179.213 39.184 178.477 39.072 177.773 38.848C177.069 38.624 176.498 38.304 176.061 37.888L176.637 37.024C177.031 37.376 177.517 37.6533 178.093 37.856C178.679 38.0693 179.298 38.176 179.949 38.176C181.015 38.176 181.799 37.9253 182.301 37.424C182.802 36.9333 183.053 36.1653 183.053 35.12V33.024L183.213 31.584L183.101 30.144V27.6H184.189V34.976C184.189 36.4267 183.831 37.488 183.117 38.16C182.413 38.8427 181.367 39.184 179.981 39.184ZM179.773 35.68C178.973 35.68 178.253 35.5093 177.613 35.168C176.973 34.816 176.466 34.3307 176.093 33.712C175.73 33.0933 175.549 32.384 175.549 31.584C175.549 30.784 175.73 30.08 176.093 29.472C176.466 28.8533 176.973 28.3733 177.613 28.032C178.253 27.6907 178.973 27.52 179.773 27.52C180.519 27.52 181.191 27.6747 181.789 27.984C182.386 28.2933 182.861 28.752 183.213 29.36C183.565 29.968 183.741 30.7093 183.741 31.584C183.741 32.4587 183.565 33.2 183.213 33.808C182.861 34.416 182.386 34.88 181.789 35.2C181.191 35.52 180.519 35.68 179.773 35.68ZM179.885 34.672C180.503 34.672 181.053 34.544 181.533 34.288C182.013 34.0213 182.391 33.6587 182.669 33.2C182.946 32.7307 183.085 32.192 183.085 31.584C183.085 30.976 182.946 30.4427 182.669 29.984C182.391 29.5253 182.013 29.168 181.533 28.912C181.053 28.6453 180.503 28.512 179.885 28.512C179.277 28.512 178.727 28.6453 178.237 28.912C177.757 29.168 177.378 29.5253 177.101 29.984C176.834 30.4427 176.701 30.976 176.701 31.584C176.701 32.192 176.834 32.7307 177.101 33.2C177.378 33.6587 177.757 34.0213 178.237 34.288C178.727 34.544 179.277 34.672 179.885 34.672ZM189.606 36.08C188.912 36.08 188.256 35.984 187.638 35.792C187.019 35.5893 186.534 35.3387 186.182 35.04L186.694 34.144C187.035 34.4 187.472 34.624 188.006 34.816C188.539 34.9973 189.099 35.088 189.686 35.088C190.486 35.088 191.062 34.9653 191.414 34.72C191.766 34.464 191.942 34.128 191.942 33.712C191.942 33.4027 191.84 33.1627 191.638 32.992C191.446 32.8107 191.19 32.6773 190.87 32.592C190.55 32.496 190.192 32.416 189.798 32.352C189.403 32.288 189.008 32.2133 188.614 32.128C188.23 32.0427 187.878 31.92 187.558 31.76C187.238 31.5893 186.976 31.36 186.774 31.072C186.582 30.784 186.486 30.4 186.486 29.92C186.486 29.4613 186.614 29.0507 186.87 28.688C187.126 28.3253 187.499 28.0427 187.99 27.84C188.491 27.6267 189.099 27.52 189.814 27.52C190.358 27.52 190.902 27.5947 191.446 27.744C191.99 27.8827 192.438 28.0693 192.79 28.304L192.294 29.216C191.92 28.96 191.52 28.7787 191.094 28.672C190.667 28.5547 190.24 28.496 189.814 28.496C189.056 28.496 188.496 28.6293 188.134 28.896C187.782 29.152 187.606 29.4827 187.606 29.888C187.606 30.208 187.702 30.4587 187.894 30.64C188.096 30.8213 188.358 30.9653 188.678 31.072C189.008 31.168 189.366 31.248 189.75 31.312C190.144 31.376 190.534 31.456 190.918 31.552C191.312 31.6373 191.67 31.76 191.99 31.92C192.32 32.0693 192.582 32.288 192.774 32.576C192.976 32.8533 193.078 33.2213 193.078 33.68C193.078 34.1707 192.939 34.5973 192.662 34.96C192.395 35.312 192 35.5893 191.478 35.792C190.966 35.984 190.342 36.08 189.606 36.08Z" fill="#1D1D1D"/>
<path d="M308 38L314 32L308 26" stroke="#D4D3D3" stroke-width="2" stroke-linecap="round" stroke-linejoin="round"/>
<defs>
<filter id="filter0_d_520_1562" x="2" y="9" width="54" height="54" filterUnits="userSpaceOnUse" color-interpolation-filters="sRGB">
<feFlood flood-opacity="0" result="BackgroundImageFix"/>
<feColorMatrix in="SourceAlpha" type="matrix" values="0 0 0 0 0 0 0 0 0 0 0 0 0 0 0 0 0 0 127 0" result="hardAlpha"/>
<feOffset dy="6"/>
<feGaussianBlur stdDeviation="6"/>
<feComposite in2="hardAlpha" operator="out"/>
<feColorMatrix type="matrix" values="0 0 0 0 0.12549 0 0 0 0 0.811765 0 0 0 0 0.568627 0 0 0 0.12 0"/>
<feBlend mode="normal" in2="BackgroundImageFix" result="effect1_dropShadow_520_1562"/>
<feBlend mode="normal" in="SourceGraphic" in2="effect1_dropShadow_520_1562" result="shape"/>
</filter>
</defs>
</svg>
