<svg width="335" height="60" viewBox="0 0 335 60" fill="none" xmlns="http://www.w3.org/2000/svg">
<rect width="335" height="60" rx="5" fill="white"/>
<rect x="0.5" y="0.5" width="334" height="59" rx="4.5" stroke="#D4D3D3" stroke-opacity="0.4"/>
<path d="M56.032 36L61.152 24.8H62.32L67.44 36H66.192L61.488 25.488H61.968L57.264 36H56.032ZM58.048 33.008L58.4 32.048H64.912L65.264 33.008H58.048ZM73.3888 36.08C72.6634 36.08 72.0074 35.9147 71.4208 35.584C70.8341 35.2427 70.3648 34.7573 70.0128 34.128C69.6714 33.488 69.5008 32.7093 69.5008 31.792C69.5008 30.8747 69.6714 30.1013 70.0128 29.472C70.3541 28.832 70.8181 28.3467 71.4048 28.016C71.9914 27.6853 72.6528 27.52 73.3888 27.52C74.1888 27.52 74.9034 27.7013 75.5328 28.064C76.1728 28.416 76.6741 28.9173 77.0368 29.568C77.3994 30.208 77.5808 30.9493 77.5808 31.792C77.5808 32.6453 77.3994 33.392 77.0368 34.032C76.6741 34.672 76.1728 35.1733 75.5328 35.536C74.9034 35.8987 74.1888 36.08 73.3888 36.08ZM69.0528 39.104V27.6H70.1408V30.128L70.0288 31.808L70.1888 33.504V39.104H69.0528ZM73.3088 35.072C73.9061 35.072 74.4394 34.9387 74.9088 34.672C75.3781 34.3947 75.7514 34.0107 76.0288 33.52C76.3061 33.0187 76.4448 32.4427 76.4448 31.792C76.4448 31.1413 76.3061 30.5707 76.0288 30.08C75.7514 29.5893 75.3781 29.2053 74.9088 28.928C74.4394 28.6507 73.9061 28.512 73.3088 28.512C72.7114 28.512 72.1728 28.6507 71.6927 28.928C71.2234 29.2053 70.8501 29.5893 70.5728 30.08C70.3061 30.5707 70.1728 31.1413 70.1728 31.792C70.1728 32.4427 70.3061 33.0187 70.5728 33.52C70.8501 34.0107 71.2234 34.3947 71.6927 34.672C72.1728 34.9387 72.7114 35.072 73.3088 35.072ZM84.2325 36.08C83.5072 36.08 82.8512 35.9147 82.2645 35.584C81.6778 35.2427 81.2085 34.7573 80.8565 34.128C80.5152 33.488 80.3445 32.7093 80.3445 31.792C80.3445 30.8747 80.5152 30.1013 80.8565 29.472C81.1978 28.832 81.6618 28.3467 82.2485 28.016C82.8352 27.6853 83.4965 27.52 84.2325 27.52C85.0325 27.52 85.7472 27.7013 86.3765 28.064C87.0165 28.416 87.5178 28.9173 87.8805 29.568C88.2432 30.208 88.4245 30.9493 88.4245 31.792C88.4245 32.6453 88.2432 33.392 87.8805 34.032C87.5178 34.672 87.0165 35.1733 86.3765 35.536C85.7472 35.8987 85.0325 36.08 84.2325 36.08ZM79.8965 39.104V27.6H80.9845V30.128L80.8725 31.808L81.0325 33.504V39.104H79.8965ZM84.1525 35.072C84.7498 35.072 85.2832 34.9387 85.7525 34.672C86.2218 34.3947 86.5952 34.0107 86.8725 33.52C87.1498 33.0187 87.2885 32.4427 87.2885 31.792C87.2885 31.1413 87.1498 30.5707 86.8725 30.08C86.5952 29.5893 86.2218 29.2053 85.7525 28.928C85.2832 28.6507 84.7498 28.512 84.1525 28.512C83.5552 28.512 83.0165 28.6507 82.5365 28.928C82.0672 29.2053 81.6938 29.5893 81.4165 30.08C81.1498 30.5707 81.0165 31.1413 81.0165 31.792C81.0165 32.4427 81.1498 33.0187 81.4165 33.52C81.6938 34.0107 82.0672 34.3947 82.5365 34.672C83.0165 34.9387 83.5552 35.072 84.1525 35.072ZM90.7403 36V24.128H91.8763V36H90.7403ZM95.0371 36V27.6H96.1731V36H95.0371ZM95.6131 25.744C95.3785 25.744 95.1811 25.664 95.0211 25.504C94.8611 25.344 94.7811 25.152 94.7811 24.928C94.7811 24.704 94.8611 24.5173 95.0211 24.368C95.1811 24.208 95.3785 24.128 95.6131 24.128C95.8478 24.128 96.0451 24.2027 96.2051 24.352C96.3651 24.5013 96.4451 24.688 96.4451 24.912C96.4451 25.1467 96.3651 25.344 96.2051 25.504C96.0558 25.664 95.8585 25.744 95.6131 25.744ZM102.902 36.08C102.027 36.08 101.259 35.8987 100.598 35.536C99.9367 35.1627 99.4193 34.656 99.046 34.016C98.6727 33.3653 98.486 32.624 98.486 31.792C98.486 30.96 98.662 30.224 99.014 29.584C99.3767 28.944 99.8673 28.4427 100.486 28.08C101.115 27.7067 101.819 27.52 102.598 27.52C103.387 27.52 104.086 27.7013 104.694 28.064C105.313 28.416 105.798 28.9173 106.15 29.568C106.502 30.208 106.678 30.9493 106.678 31.792C106.678 31.8453 106.673 31.904 106.662 31.968C106.662 32.0213 106.662 32.08 106.662 32.144H99.35V31.296H106.054L105.606 31.632C105.606 31.024 105.473 30.4853 105.206 30.016C104.95 29.536 104.598 29.1627 104.15 28.896C103.702 28.6293 103.185 28.496 102.598 28.496C102.022 28.496 101.505 28.6293 101.046 28.896C100.587 29.1627 100.23 29.536 99.974 30.016C99.718 30.496 99.59 31.0453 99.59 31.664V31.84C99.59 32.48 99.7287 33.0453 100.006 33.536C100.294 34.016 100.689 34.3947 101.19 34.672C101.702 34.9387 102.283 35.072 102.934 35.072C103.446 35.072 103.921 34.9813 104.358 34.8C104.806 34.6187 105.19 34.3413 105.51 33.968L106.15 34.704C105.777 35.152 105.307 35.4933 104.742 35.728C104.187 35.9627 103.574 36.08 102.902 36.08ZM112.334 36.08C111.534 36.08 110.814 35.8987 110.174 35.536C109.545 35.1733 109.049 34.672 108.686 34.032C108.324 33.3813 108.142 32.6347 108.142 31.792C108.142 30.9387 108.324 30.192 108.686 29.552C109.049 28.912 109.545 28.416 110.174 28.064C110.814 27.7013 111.534 27.52 112.334 27.52C113.07 27.52 113.726 27.6853 114.302 28.016C114.889 28.3467 115.353 28.832 115.694 29.472C116.046 30.1013 116.222 30.8747 116.222 31.792C116.222 32.6987 116.052 33.472 115.71 34.112C115.369 34.752 114.905 35.2427 114.318 35.584C113.742 35.9147 113.081 36.08 112.334 36.08ZM112.414 35.072C113.012 35.072 113.545 34.9387 114.014 34.672C114.494 34.3947 114.868 34.0107 115.134 33.52C115.412 33.0187 115.55 32.4427 115.55 31.792C115.55 31.1307 115.412 30.5547 115.134 30.064C114.868 29.5733 114.494 29.1947 114.014 28.928C113.545 28.6507 113.012 28.512 112.414 28.512C111.828 28.512 111.3 28.6507 110.83 28.928C110.361 29.1947 109.988 29.5733 109.71 30.064C109.433 30.5547 109.294 31.1307 109.294 31.792C109.294 32.4427 109.433 33.0187 109.71 33.52C109.988 34.0107 110.361 34.3947 110.83 34.672C111.3 34.9387 111.828 35.072 112.414 35.072ZM115.582 36V33.472L115.694 31.776L115.534 30.08V24.128H116.67V36H115.582ZM125.462 36.096C124.832 36.096 124.24 35.9573 123.686 35.68C123.142 35.4027 122.704 35.008 122.373 34.496L123.062 33.696C123.371 34.144 123.728 34.4853 124.134 34.72C124.539 34.9547 124.987 35.072 125.478 35.072C126.864 35.072 127.558 34.2507 127.558 32.608V25.824H123.462V24.8H128.726V32.56C128.726 33.744 128.448 34.6293 127.894 35.216C127.35 35.8027 126.539 36.096 125.462 36.096ZM135.461 36.08C134.65 36.08 133.92 35.8987 133.269 35.536C132.629 35.1627 132.122 34.656 131.749 34.016C131.376 33.3653 131.189 32.624 131.189 31.792C131.189 30.9493 131.376 30.208 131.749 29.568C132.122 28.928 132.629 28.4267 133.269 28.064C133.909 27.7013 134.64 27.52 135.461 27.52C136.293 27.52 137.029 27.7013 137.669 28.064C138.32 28.4267 138.826 28.928 139.189 29.568C139.562 30.208 139.749 30.9493 139.749 31.792C139.749 32.624 139.562 33.3653 139.189 34.016C138.826 34.656 138.32 35.1627 137.669 35.536C137.018 35.8987 136.282 36.08 135.461 36.08ZM135.461 35.072C136.069 35.072 136.608 34.9387 137.077 34.672C137.546 34.3947 137.914 34.0107 138.181 33.52C138.458 33.0187 138.597 32.4427 138.597 31.792C138.597 31.1307 138.458 30.5547 138.181 30.064C137.914 29.5733 137.546 29.1947 137.077 28.928C136.608 28.6507 136.074 28.512 135.477 28.512C134.88 28.512 134.346 28.6507 133.877 28.928C133.408 29.1947 133.034 29.5733 132.757 30.064C132.48 30.5547 132.341 31.1307 132.341 31.792C132.341 32.4427 132.48 33.0187 132.757 33.52C133.034 34.0107 133.408 34.3947 133.877 34.672C134.346 34.9387 134.874 35.072 135.461 35.072ZM146.404 36.08C145.668 36.08 145.007 35.9147 144.42 35.584C143.834 35.2427 143.37 34.752 143.028 34.112C142.687 33.472 142.516 32.6987 142.516 31.792C142.516 30.8747 142.687 30.1013 143.028 29.472C143.38 28.832 143.85 28.3467 144.436 28.016C145.023 27.6853 145.679 27.52 146.404 27.52C147.204 27.52 147.919 27.7013 148.548 28.064C149.188 28.416 149.69 28.912 150.052 29.552C150.415 30.192 150.596 30.9387 150.596 31.792C150.596 32.6347 150.415 33.3813 150.052 34.032C149.69 34.672 149.188 35.1733 148.548 35.536C147.919 35.8987 147.204 36.08 146.404 36.08ZM142.068 36V24.128H143.204V30.08L143.044 31.776L143.156 33.472V36H142.068ZM146.324 35.072C146.922 35.072 147.455 34.9387 147.924 34.672C148.394 34.3947 148.767 34.0107 149.044 33.52C149.322 33.0187 149.46 32.4427 149.46 31.792C149.46 31.1307 149.322 30.5547 149.044 30.064C148.767 29.5733 148.394 29.1947 147.924 28.928C147.455 28.6507 146.922 28.512 146.324 28.512C145.727 28.512 145.188 28.6507 144.708 28.928C144.239 29.1947 143.866 29.5733 143.588 30.064C143.322 30.5547 143.188 31.1307 143.188 31.792C143.188 32.4427 143.322 33.0187 143.588 33.52C143.866 34.0107 144.239 34.3947 144.708 34.672C145.188 34.9387 145.727 35.072 146.324 35.072ZM155.168 36.08C154.475 36.08 153.819 35.984 153.2 35.792C152.581 35.5893 152.096 35.3387 151.744 35.04L152.256 34.144C152.597 34.4 153.035 34.624 153.568 34.816C154.101 34.9973 154.661 35.088 155.248 35.088C156.048 35.088 156.624 34.9653 156.976 34.72C157.328 34.464 157.504 34.128 157.504 33.712C157.504 33.4027 157.403 33.1627 157.2 32.992C157.008 32.8107 156.752 32.6773 156.432 32.592C156.112 32.496 155.755 32.416 155.36 32.352C154.965 32.288 154.571 32.2133 154.176 32.128C153.792 32.0427 153.44 31.92 153.12 31.76C152.8 31.5893 152.539 31.36 152.336 31.072C152.144 30.784 152.048 30.4 152.048 29.92C152.048 29.4613 152.176 29.0507 152.432 28.688C152.688 28.3253 153.061 28.0427 153.552 27.84C154.053 27.6267 154.661 27.52 155.376 27.52C155.92 27.52 156.464 27.5947 157.008 27.744C157.552 27.8827 158 28.0693 158.352 28.304L157.856 29.216C157.483 28.96 157.083 28.7787 156.656 28.672C156.229 28.5547 155.803 28.496 155.376 28.496C154.619 28.496 154.059 28.6293 153.696 28.896C153.344 29.152 153.168 29.4827 153.168 29.888C153.168 30.208 153.264 30.4587 153.456 30.64C153.659 30.8213 153.92 30.9653 154.24 31.072C154.571 31.168 154.928 31.248 155.312 31.312C155.707 31.376 156.096 31.456 156.48 31.552C156.875 31.6373 157.232 31.76 157.552 31.92C157.883 32.0693 158.144 32.288 158.336 32.576C158.539 32.8533 158.64 33.2213 158.64 33.68C158.64 34.1707 158.501 34.5973 158.224 34.96C157.957 35.312 157.563 35.5893 157.04 35.792C156.528 35.984 155.904 36.08 155.168 36.08Z" fill="#1D1D1D"/>
<g clip-path="url(#clip0_0_1)">
<g filter="url(#filter0_d_0_1)">
<path d="M40.6666 23.5003H36.3333V21.3337C36.3333 20.1312 35.3691 19.167 34.1666 19.167H29.8333C28.6308 19.167 27.6666 20.1312 27.6666 21.3337V23.5003H23.3333C22.1308 23.5003 21.1775 24.4645 21.1775 25.667L21.1666 37.5837C21.1666 38.7862 22.1308 39.7503 23.3333 39.7503H40.6666C41.8691 39.7503 42.8333 38.7862 42.8333 37.5837V25.667C42.8333 24.4645 41.8691 23.5003 40.6666 23.5003ZM34.1666 23.5003H29.8333V21.3337H34.1666V23.5003Z" fill="#930896"/>
</g>
</g>
<defs>
<filter id="filter0_d_0_1" x="11.1666" y="14.167" width="41.6666" height="40.583" filterUnits="userSpaceOnUse" color-interpolation-filters="sRGB">
<feFlood flood-opacity="0" result="BackgroundImageFix"/>
<feColorMatrix in="SourceAlpha" type="matrix" values="0 0 0 0 0 0 0 0 0 0 0 0 0 0 0 0 0 0 127 0" result="hardAlpha"/>
<feOffset dy="5"/>
<feGaussianBlur stdDeviation="5"/>
<feComposite in2="hardAlpha" operator="out"/>
<feColorMatrix type="matrix" values="0 0 0 0 0.576471 0 0 0 0 0.0313726 0 0 0 0 0.588235 0 0 0 0.05 0"/>
<feBlend mode="normal" in2="BackgroundImageFix" result="effect1_dropShadow_0_1"/>
<feBlend mode="normal" in="SourceGraphic" in2="effect1_dropShadow_0_1" result="shape"/>
</filter>
<clipPath id="clip0_0_1">
<rect width="26" height="26" fill="white" transform="translate(19 17)"/>
</clipPath>
</defs>
</svg>
