<svg width="331" height="115" viewBox="0 0 331 115" fill="none" xmlns="http://www.w3.org/2000/svg">
<path d="M0 0L12.5696 7.66665" stroke="white" stroke-opacity="0.05" stroke-width="3.5"/>
<path d="M25.1393 0L12.5696 7.66665" stroke="white" stroke-opacity="0.05" stroke-width="3.5"/>
<path d="M25.1392 0L37.7088 7.66665" stroke="white" stroke-opacity="0.05" stroke-width="3.5"/>
<path d="M50.2785 0L37.7089 7.66665" stroke="white" stroke-opacity="0.05" stroke-width="3.5"/>
<path d="M50.2785 0L62.8481 7.66665" stroke="white" stroke-opacity="0.05" stroke-width="3.5"/>
<path d="M62.8481 0L75.4177 7.66665" stroke="white" stroke-opacity="0.05" stroke-width="3.5"/>
<path d="M87.9873 0L75.4177 7.66665" stroke="white" stroke-opacity="0.05" stroke-width="3.5"/>
<path d="M100.557 0L87.9874 7.66665" stroke="white" stroke-opacity="0.05" stroke-width="3.5"/>
<path d="M113.127 0L100.557 7.66665" stroke="white" stroke-opacity="0.05" stroke-width="3.5"/>
<path d="M113.127 0L125.696 7.66665" stroke="white" stroke-opacity="0.05" stroke-width="3.5"/>
<path d="M138.266 0L125.696 7.66665" stroke="white" stroke-opacity="0.05" stroke-width="3.5"/>
<path d="M150.835 0L138.266 7.66665" stroke="white" stroke-opacity="0.05" stroke-width="3.5"/>
<path d="M150.835 0L163.405 7.66665" stroke="white" stroke-opacity="0.05" stroke-width="3.5"/>
<path d="M175.975 0L163.405 7.66665" stroke="white" stroke-opacity="0.05" stroke-width="3.5"/>
<path d="M175.975 0L188.544 7.66665" stroke="white" stroke-opacity="0.05" stroke-width="3.5"/>
<path d="M188.544 0L201.114 7.66665" stroke="white" stroke-opacity="0.05" stroke-width="3.5"/>
<path d="M213.684 0L201.114 7.66665" stroke="white" stroke-opacity="0.05" stroke-width="3.5"/>
<path d="M213.684 0L226.253 7.66665" stroke="white" stroke-opacity="0.05" stroke-width="3.5"/>
<path d="M238.823 0L226.253 7.66665" stroke="white" stroke-opacity="0.05" stroke-width="3.5"/>
<path d="M238.823 0L251.392 7.66665" stroke="white" stroke-opacity="0.05" stroke-width="3.5"/>
<path d="M263.962 0L251.392 7.66665" stroke="white" stroke-opacity="0.05" stroke-width="3.5"/>
<path d="M263.962 0L276.532 7.66665" stroke="white" stroke-opacity="0.05" stroke-width="3.5"/>
<path d="M289.101 0L276.532 7.66665" stroke="white" stroke-opacity="0.05" stroke-width="3.5"/>
<path d="M289.101 0L301.671 7.66665" stroke="white" stroke-opacity="0.05" stroke-width="3.5"/>
<path d="M301.671 0L314.241 7.66665" stroke="white" stroke-opacity="0.05" stroke-width="3.5"/>
<path d="M314.24 0L326.81 7.66665" stroke="white" stroke-opacity="0.05" stroke-width="3.5"/>
<path d="M339.38 0L326.81 7.66665" stroke="white" stroke-opacity="0.05" stroke-width="3.5"/>
<path opacity="0.94" d="M0 7.66699L12.5696 15.3336" stroke="white" stroke-opacity="0.05" stroke-width="3.5"/>
<path opacity="0.94" d="M25.1393 7.66699L12.5696 15.3336" stroke="white" stroke-opacity="0.05" stroke-width="3.5"/>
<path opacity="0.94" d="M37.7088 7.66699L25.1392 15.3336" stroke="white" stroke-opacity="0.05" stroke-width="3.5"/>
<path opacity="0.94" d="M50.2785 7.66699L37.7089 15.3336" stroke="white" stroke-opacity="0.05" stroke-width="3.5"/>
<path opacity="0.94" d="M50.2785 7.66699L62.8481 15.3336" stroke="white" stroke-opacity="0.05" stroke-width="3.5"/>
<path opacity="0.94" d="M75.4177 7.66699L62.8481 15.3336" stroke="white" stroke-opacity="0.05" stroke-width="3.5"/>
<path opacity="0.94" d="M75.4177 7.66699L87.9873 15.3336" stroke="white" stroke-opacity="0.05" stroke-width="3.5"/>
<path opacity="0.94" d="M87.9874 7.66699L100.557 15.3336" stroke="white" stroke-opacity="0.05" stroke-width="3.5"/>
<path opacity="0.94" d="M100.557 7.66699L113.127 15.3336" stroke="white" stroke-opacity="0.05" stroke-width="3.5"/>
<path opacity="0.94" d="M125.696 7.66699L113.127 15.3336" stroke="white" stroke-opacity="0.05" stroke-width="3.5"/>
<path opacity="0.94" d="M125.696 7.66699L138.266 15.3336" stroke="white" stroke-opacity="0.05" stroke-width="3.5"/>
<path opacity="0.94" d="M150.835 7.66699L138.266 15.3336" stroke="white" stroke-opacity="0.05" stroke-width="3.5"/>
<path opacity="0.94" d="M150.835 7.66699L163.405 15.3336" stroke="white" stroke-opacity="0.05" stroke-width="3.5"/>
<path opacity="0.94" d="M163.405 7.66699L175.975 15.3336" stroke="white" stroke-opacity="0.05" stroke-width="3.5"/>
<path opacity="0.94" d="M188.544 7.66699L175.975 15.3336" stroke="white" stroke-opacity="0.05" stroke-width="3.5"/>
<path opacity="0.94" d="M201.114 7.66699L188.544 15.3336" stroke="white" stroke-opacity="0.05" stroke-width="3.5"/>
<path opacity="0.94" d="M213.684 7.66699L201.114 15.3336" stroke="white" stroke-opacity="0.05" stroke-width="3.5"/>
<path opacity="0.94" d="M213.684 7.66699L226.253 15.3336" stroke="white" stroke-opacity="0.05" stroke-width="3.5"/>
<path opacity="0.94" d="M226.253 7.66699L238.823 15.3336" stroke="white" stroke-opacity="0.05" stroke-width="3.5"/>
<path opacity="0.94" d="M238.823 7.66699L251.392 15.3336" stroke="white" stroke-opacity="0.05" stroke-width="3.5"/>
<path opacity="0.94" d="M263.962 7.66699L251.392 15.3336" stroke="white" stroke-opacity="0.05" stroke-width="3.5"/>
<path opacity="0.94" d="M263.962 7.66699L276.532 15.3336" stroke="white" stroke-opacity="0.05" stroke-width="3.5"/>
<path opacity="0.94" d="M289.101 7.66699L276.532 15.3336" stroke="white" stroke-opacity="0.05" stroke-width="3.5"/>
<path opacity="0.94" d="M289.101 7.66699L301.671 15.3336" stroke="white" stroke-opacity="0.05" stroke-width="3.5"/>
<path opacity="0.94" d="M314.241 7.66699L301.671 15.3336" stroke="white" stroke-opacity="0.05" stroke-width="3.5"/>
<path opacity="0.94" d="M314.24 7.66699L326.81 15.3336" stroke="white" stroke-opacity="0.05" stroke-width="3.5"/>
<path opacity="0.94" d="M326.81 7.66699L339.38 15.3336" stroke="white" stroke-opacity="0.05" stroke-width="3.5"/>
<path opacity="0.87" d="M12.5696 15.333L0 22.9997" stroke="white" stroke-opacity="0.05" stroke-width="3.5"/>
<path opacity="0.87" d="M25.1393 15.333L12.5696 22.9997" stroke="white" stroke-opacity="0.05" stroke-width="3.5"/>
<path opacity="0.87" d="M37.7088 15.333L25.1392 22.9997" stroke="white" stroke-opacity="0.05" stroke-width="3.5"/>
<path opacity="0.87" d="M50.2785 15.333L37.7089 22.9997" stroke="white" stroke-opacity="0.05" stroke-width="3.5"/>
<path opacity="0.87" d="M62.8481 15.333L50.2785 22.9997" stroke="white" stroke-opacity="0.05" stroke-width="3.5"/>
<path opacity="0.87" d="M62.8481 15.333L75.4177 22.9997" stroke="white" stroke-opacity="0.05" stroke-width="3.5"/>
<path opacity="0.87" d="M87.9873 15.333L75.4177 22.9997" stroke="white" stroke-opacity="0.05" stroke-width="3.5"/>
<path opacity="0.87" d="M100.557 15.333L87.9874 22.9997" stroke="white" stroke-opacity="0.05" stroke-width="3.5"/>
<path opacity="0.87" d="M100.557 15.333L113.127 22.9997" stroke="white" stroke-opacity="0.05" stroke-width="3.5"/>
<path opacity="0.87" d="M125.696 15.333L113.127 22.9997" stroke="white" stroke-opacity="0.05" stroke-width="3.5"/>
<path opacity="0.87" d="M125.696 15.333L138.266 22.9997" stroke="white" stroke-opacity="0.05" stroke-width="3.5"/>
<path opacity="0.87" d="M138.266 15.333L150.835 22.9997" stroke="white" stroke-opacity="0.05" stroke-width="3.5"/>
<path opacity="0.87" d="M150.835 15.333L163.405 22.9997" stroke="white" stroke-opacity="0.05" stroke-width="3.5"/>
<path opacity="0.87" d="M175.975 15.333L163.405 22.9997" stroke="white" stroke-opacity="0.05" stroke-width="3.5"/>
<path opacity="0.87" d="M175.975 15.333L188.544 22.9997" stroke="white" stroke-opacity="0.05" stroke-width="3.5"/>
<path opacity="0.87" d="M201.114 15.333L188.544 22.9997" stroke="white" stroke-opacity="0.05" stroke-width="3.5"/>
<path opacity="0.87" d="M213.684 15.333L201.114 22.9997" stroke="white" stroke-opacity="0.05" stroke-width="3.5"/>
<path opacity="0.87" d="M213.684 15.333L226.253 22.9997" stroke="white" stroke-opacity="0.05" stroke-width="3.5"/>
<path opacity="0.87" d="M238.823 15.333L226.253 22.9997" stroke="white" stroke-opacity="0.05" stroke-width="3.5"/>
<path opacity="0.87" d="M251.392 15.333L238.823 22.9997" stroke="white" stroke-opacity="0.05" stroke-width="3.5"/>
<path opacity="0.87" d="M263.962 15.333L251.392 22.9997" stroke="white" stroke-opacity="0.05" stroke-width="3.5"/>
<path opacity="0.87" d="M276.532 15.333L263.962 22.9997" stroke="white" stroke-opacity="0.05" stroke-width="3.5"/>
<path opacity="0.87" d="M289.101 15.333L276.532 22.9997" stroke="white" stroke-opacity="0.05" stroke-width="3.5"/>
<path opacity="0.87" d="M289.101 15.333L301.671 22.9997" stroke="white" stroke-opacity="0.05" stroke-width="3.5"/>
<path opacity="0.87" d="M314.241 15.333L301.671 22.9997" stroke="white" stroke-opacity="0.05" stroke-width="3.5"/>
<path opacity="0.87" d="M314.24 15.333L326.81 22.9997" stroke="white" stroke-opacity="0.05" stroke-width="3.5"/>
<path opacity="0.87" d="M326.81 15.333L339.38 22.9997" stroke="white" stroke-opacity="0.05" stroke-width="3.5"/>
<path opacity="0.81" d="M0 23L12.5696 30.6667" stroke="white" stroke-opacity="0.05" stroke-width="3.5"/>
<path opacity="0.81" d="M25.1393 23L12.5696 30.6667" stroke="white" stroke-opacity="0.05" stroke-width="3.5"/>
<path opacity="0.81" d="M37.7088 23L25.1392 30.6667" stroke="white" stroke-opacity="0.05" stroke-width="3.5"/>
<path opacity="0.81" d="M37.7089 23L50.2785 30.6667" stroke="white" stroke-opacity="0.05" stroke-width="3.5"/>
<path opacity="0.81" d="M62.8481 23L50.2785 30.6667" stroke="white" stroke-opacity="0.05" stroke-width="3.5"/>
<path opacity="0.81" d="M62.8481 23L75.4177 30.6667" stroke="white" stroke-opacity="0.05" stroke-width="3.5"/>
<path opacity="0.81" d="M87.9873 23L75.4177 30.6667" stroke="white" stroke-opacity="0.05" stroke-width="3.5"/>
<path opacity="0.81" d="M100.557 23L87.9874 30.6667" stroke="white" stroke-opacity="0.05" stroke-width="3.5"/>
<path opacity="0.81" d="M100.557 23L113.127 30.6667" stroke="white" stroke-opacity="0.05" stroke-width="3.5"/>
<path opacity="0.81" d="M113.127 23L125.696 30.6667" stroke="white" stroke-opacity="0.05" stroke-width="3.5"/>
<path opacity="0.81" d="M138.266 23L125.696 30.6667" stroke="white" stroke-opacity="0.05" stroke-width="3.5"/>
<path opacity="0.81" d="M150.835 23L138.266 30.6667" stroke="white" stroke-opacity="0.05" stroke-width="3.5"/>
<path opacity="0.81" d="M163.405 23L150.835 30.6667" stroke="white" stroke-opacity="0.05" stroke-width="3.5"/>
<path opacity="0.81" d="M163.405 23L175.975 30.6667" stroke="white" stroke-opacity="0.05" stroke-width="3.5"/>
<path opacity="0.81" d="M175.975 23L188.544 30.6667" stroke="white" stroke-opacity="0.05" stroke-width="3.5"/>
<path opacity="0.81" d="M188.544 23L201.114 30.6667" stroke="white" stroke-opacity="0.05" stroke-width="3.5"/>
<path opacity="0.81" d="M201.114 23L213.684 30.6667" stroke="white" stroke-opacity="0.05" stroke-width="3.5"/>
<path opacity="0.81" d="M226.253 23L213.684 30.6667" stroke="white" stroke-opacity="0.05" stroke-width="3.5"/>
<path opacity="0.81" d="M226.253 23L238.823 30.6667" stroke="white" stroke-opacity="0.05" stroke-width="3.5"/>
<path opacity="0.81" d="M251.392 23L238.823 30.6667" stroke="white" stroke-opacity="0.05" stroke-width="3.5"/>
<path opacity="0.81" d="M263.962 23L251.392 30.6667" stroke="white" stroke-opacity="0.05" stroke-width="3.5"/>
<path opacity="0.81" d="M276.532 23L263.962 30.6667" stroke="white" stroke-opacity="0.05" stroke-width="3.5"/>
<path opacity="0.81" d="M289.101 23L276.532 30.6667" stroke="white" stroke-opacity="0.05" stroke-width="3.5"/>
<path opacity="0.81" d="M301.671 23L289.101 30.6667" stroke="white" stroke-opacity="0.05" stroke-width="3.5"/>
<path opacity="0.81" d="M301.671 23L314.241 30.6667" stroke="white" stroke-opacity="0.05" stroke-width="3.5"/>
<path opacity="0.81" d="M326.81 23L314.24 30.6667" stroke="white" stroke-opacity="0.05" stroke-width="3.5"/>
<path opacity="0.81" d="M326.81 23L339.38 30.6667" stroke="white" stroke-opacity="0.05" stroke-width="3.5"/>
<path opacity="0.74" d="M12.5696 30.666L0 38.3327" stroke="white" stroke-opacity="0.05" stroke-width="3.5"/>
<path opacity="0.74" d="M25.1393 30.666L12.5696 38.3327" stroke="white" stroke-opacity="0.05" stroke-width="3.5"/>
<path opacity="0.74" d="M25.1392 30.666L37.7088 38.3327" stroke="white" stroke-opacity="0.05" stroke-width="3.5"/>
<path opacity="0.74" d="M37.7089 30.666L50.2785 38.3327" stroke="white" stroke-opacity="0.05" stroke-width="3.5"/>
<path opacity="0.74" d="M50.2785 30.666L62.8481 38.3327" stroke="white" stroke-opacity="0.05" stroke-width="3.5"/>
<path opacity="0.74" d="M75.4177 30.666L62.8481 38.3327" stroke="white" stroke-opacity="0.05" stroke-width="3.5"/>
<path opacity="0.74" d="M75.4177 30.666L87.9873 38.3327" stroke="white" stroke-opacity="0.05" stroke-width="3.5"/>
<path opacity="0.74" d="M87.9874 30.666L100.557 38.3327" stroke="white" stroke-opacity="0.05" stroke-width="3.5"/>
<path opacity="0.74" d="M100.557 30.666L113.127 38.3327" stroke="white" stroke-opacity="0.05" stroke-width="3.5"/>
<path opacity="0.74" d="M125.696 30.666L113.127 38.3327" stroke="white" stroke-opacity="0.05" stroke-width="3.5"/>
<path opacity="0.74" d="M138.266 30.666L125.696 38.3327" stroke="white" stroke-opacity="0.05" stroke-width="3.5"/>
<path opacity="0.74" d="M138.266 30.666L150.835 38.3327" stroke="white" stroke-opacity="0.05" stroke-width="3.5"/>
<path opacity="0.74" d="M163.405 30.666L150.835 38.3327" stroke="white" stroke-opacity="0.05" stroke-width="3.5"/>
<path opacity="0.74" d="M175.975 30.666L163.405 38.3327" stroke="white" stroke-opacity="0.05" stroke-width="3.5"/>
<path opacity="0.74" d="M175.975 30.666L188.544 38.3327" stroke="white" stroke-opacity="0.05" stroke-width="3.5"/>
<path opacity="0.74" d="M188.544 30.666L201.114 38.3327" stroke="white" stroke-opacity="0.05" stroke-width="3.5"/>
<path opacity="0.74" d="M201.114 30.666L213.684 38.3327" stroke="white" stroke-opacity="0.05" stroke-width="3.5"/>
<path opacity="0.74" d="M226.253 30.666L213.684 38.3327" stroke="white" stroke-opacity="0.05" stroke-width="3.5"/>
<path opacity="0.74" d="M238.823 30.666L226.253 38.3327" stroke="white" stroke-opacity="0.05" stroke-width="3.5"/>
<path opacity="0.74" d="M238.823 30.666L251.392 38.3327" stroke="white" stroke-opacity="0.05" stroke-width="3.5"/>
<path opacity="0.74" d="M263.962 30.666L251.392 38.3327" stroke="white" stroke-opacity="0.05" stroke-width="3.5"/>
<path opacity="0.74" d="M276.532 30.666L263.962 38.3327" stroke="white" stroke-opacity="0.05" stroke-width="3.5"/>
<path opacity="0.74" d="M289.101 30.666L276.532 38.3327" stroke="white" stroke-opacity="0.05" stroke-width="3.5"/>
<path opacity="0.74" d="M289.101 30.666L301.671 38.3327" stroke="white" stroke-opacity="0.05" stroke-width="3.5"/>
<path opacity="0.74" d="M314.241 30.666L301.671 38.3327" stroke="white" stroke-opacity="0.05" stroke-width="3.5"/>
<path opacity="0.74" d="M326.81 30.666L314.24 38.3327" stroke="white" stroke-opacity="0.05" stroke-width="3.5"/>
<path opacity="0.74" d="M326.81 30.666L339.38 38.3327" stroke="white" stroke-opacity="0.05" stroke-width="3.5"/>
<path opacity="0.68" d="M0 38.333L12.5696 45.9997" stroke="white" stroke-opacity="0.05" stroke-width="3.5"/>
<path opacity="0.68" d="M12.5696 38.333L25.1393 45.9997" stroke="white" stroke-opacity="0.05" stroke-width="3.5"/>
<path opacity="0.68" d="M37.7088 38.333L25.1392 45.9997" stroke="white" stroke-opacity="0.05" stroke-width="3.5"/>
<path opacity="0.68" d="M50.2785 38.333L37.7089 45.9997" stroke="white" stroke-opacity="0.05" stroke-width="3.5"/>
<path opacity="0.68" d="M62.8481 38.333L50.2785 45.9997" stroke="white" stroke-opacity="0.05" stroke-width="3.5"/>
<path opacity="0.68" d="M62.8481 38.333L75.4177 45.9997" stroke="white" stroke-opacity="0.05" stroke-width="3.5"/>
<path opacity="0.68" d="M75.4177 38.333L87.9873 45.9997" stroke="white" stroke-opacity="0.05" stroke-width="3.5"/>
<path opacity="0.68" d="M100.557 38.333L87.9874 45.9997" stroke="white" stroke-opacity="0.05" stroke-width="3.5"/>
<path opacity="0.68" d="M100.557 38.333L113.127 45.9997" stroke="white" stroke-opacity="0.05" stroke-width="3.5"/>
<path opacity="0.68" d="M113.127 38.333L125.696 45.9997" stroke="white" stroke-opacity="0.05" stroke-width="3.5"/>
<path opacity="0.68" d="M138.266 38.333L125.696 45.9997" stroke="white" stroke-opacity="0.05" stroke-width="3.5"/>
<path opacity="0.68" d="M138.266 38.333L150.835 45.9997" stroke="white" stroke-opacity="0.05" stroke-width="3.5"/>
<path opacity="0.68" d="M163.405 38.333L150.835 45.9997" stroke="white" stroke-opacity="0.05" stroke-width="3.5"/>
<path opacity="0.68" d="M163.405 38.333L175.975 45.9997" stroke="white" stroke-opacity="0.05" stroke-width="3.5"/>
<path opacity="0.68" d="M175.975 38.333L188.544 45.9997" stroke="white" stroke-opacity="0.05" stroke-width="3.5"/>
<path opacity="0.68" d="M188.544 38.333L201.114 45.9997" stroke="white" stroke-opacity="0.05" stroke-width="3.5"/>
<path opacity="0.68" d="M201.114 38.333L213.684 45.9997" stroke="white" stroke-opacity="0.05" stroke-width="3.5"/>
<path opacity="0.68" d="M226.253 38.333L213.684 45.9997" stroke="white" stroke-opacity="0.05" stroke-width="3.5"/>
<path opacity="0.68" d="M226.253 38.333L238.823 45.9997" stroke="white" stroke-opacity="0.05" stroke-width="3.5"/>
<path opacity="0.68" d="M251.392 38.333L238.823 45.9997" stroke="white" stroke-opacity="0.05" stroke-width="3.5"/>
<path opacity="0.68" d="M263.962 38.333L251.392 45.9997" stroke="white" stroke-opacity="0.05" stroke-width="3.5"/>
<path opacity="0.68" d="M276.532 38.333L263.962 45.9997" stroke="white" stroke-opacity="0.05" stroke-width="3.5"/>
<path opacity="0.68" d="M276.532 38.333L289.101 45.9997" stroke="white" stroke-opacity="0.05" stroke-width="3.5"/>
<path opacity="0.68" d="M289.101 38.333L301.671 45.9997" stroke="white" stroke-opacity="0.05" stroke-width="3.5"/>
<path opacity="0.68" d="M301.671 38.333L314.241 45.9997" stroke="white" stroke-opacity="0.05" stroke-width="3.5"/>
<path opacity="0.68" d="M326.81 38.333L314.24 45.9997" stroke="white" stroke-opacity="0.05" stroke-width="3.5"/>
<path opacity="0.68" d="M326.81 38.333L339.38 45.9997" stroke="white" stroke-opacity="0.05" stroke-width="3.5"/>
<path opacity="0.62" d="M12.5696 46L0 53.6667" stroke="white" stroke-opacity="0.05" stroke-width="3.5"/>
<path opacity="0.62" d="M12.5696 46L25.1393 53.6667" stroke="white" stroke-opacity="0.05" stroke-width="3.5"/>
<path opacity="0.62" d="M37.7088 46L25.1392 53.6667" stroke="white" stroke-opacity="0.05" stroke-width="3.5"/>
<path opacity="0.62" d="M50.2785 46L37.7089 53.6667" stroke="white" stroke-opacity="0.05" stroke-width="3.5"/>
<path opacity="0.62" d="M62.8481 46L50.2785 53.6667" stroke="white" stroke-opacity="0.05" stroke-width="3.5"/>
<path opacity="0.62" d="M75.4177 46L62.8481 53.6667" stroke="white" stroke-opacity="0.05" stroke-width="3.5"/>
<path opacity="0.62" d="M75.4177 46L87.9873 53.6667" stroke="white" stroke-opacity="0.05" stroke-width="3.5"/>
<path opacity="0.62" d="M87.9874 46L100.557 53.6667" stroke="white" stroke-opacity="0.05" stroke-width="3.5"/>
<path opacity="0.62" d="M100.557 46L113.127 53.6667" stroke="white" stroke-opacity="0.05" stroke-width="3.5"/>
<path opacity="0.62" d="M113.127 46L125.696 53.6667" stroke="white" stroke-opacity="0.05" stroke-width="3.5"/>
<path opacity="0.62" d="M125.696 46L138.266 53.6667" stroke="white" stroke-opacity="0.05" stroke-width="3.5"/>
<path opacity="0.62" d="M150.835 46L138.266 53.6667" stroke="white" stroke-opacity="0.05" stroke-width="3.5"/>
<path opacity="0.62" d="M163.405 46L150.835 53.6667" stroke="white" stroke-opacity="0.05" stroke-width="3.5"/>
<path opacity="0.62" d="M175.975 46L163.405 53.6667" stroke="white" stroke-opacity="0.05" stroke-width="3.5"/>
<path opacity="0.62" d="M175.975 46L188.544 53.6667" stroke="white" stroke-opacity="0.05" stroke-width="3.5"/>
<path opacity="0.62" d="M201.114 46L188.544 53.6667" stroke="white" stroke-opacity="0.05" stroke-width="3.5"/>
<path opacity="0.62" d="M201.114 46L213.684 53.6667" stroke="white" stroke-opacity="0.05" stroke-width="3.5"/>
<path opacity="0.62" d="M213.684 46L226.253 53.6667" stroke="white" stroke-opacity="0.05" stroke-width="3.5"/>
<path opacity="0.62" d="M226.253 46L238.823 53.6667" stroke="white" stroke-opacity="0.05" stroke-width="3.5"/>
<path opacity="0.62" d="M251.392 46L238.823 53.6667" stroke="white" stroke-opacity="0.05" stroke-width="3.5"/>
<path opacity="0.62" d="M251.392 46L263.962 53.6667" stroke="white" stroke-opacity="0.05" stroke-width="3.5"/>
<path opacity="0.62" d="M263.962 46L276.532 53.6667" stroke="white" stroke-opacity="0.05" stroke-width="3.5"/>
<path opacity="0.62" d="M289.101 46L276.532 53.6667" stroke="white" stroke-opacity="0.05" stroke-width="3.5"/>
<path opacity="0.62" d="M289.101 46L301.671 53.6667" stroke="white" stroke-opacity="0.05" stroke-width="3.5"/>
<path opacity="0.62" d="M314.241 46L301.671 53.6667" stroke="white" stroke-opacity="0.05" stroke-width="3.5"/>
<path opacity="0.62" d="M314.24 46L326.81 53.6667" stroke="white" stroke-opacity="0.05" stroke-width="3.5"/>
<path opacity="0.62" d="M339.38 46L326.81 53.6667" stroke="white" stroke-opacity="0.05" stroke-width="3.5"/>
<path opacity="0.55" d="M0 53.666L12.5696 61.3327" stroke="white" stroke-opacity="0.05" stroke-width="3.5"/>
<path opacity="0.55" d="M12.5696 53.666L25.1393 61.3327" stroke="white" stroke-opacity="0.05" stroke-width="3.5"/>
<path opacity="0.55" d="M37.7088 53.666L25.1392 61.3327" stroke="white" stroke-opacity="0.05" stroke-width="3.5"/>
<path opacity="0.55" d="M50.2785 53.666L37.7089 61.3327" stroke="white" stroke-opacity="0.05" stroke-width="3.5"/>
<path opacity="0.55" d="M50.2785 53.666L62.8481 61.3327" stroke="white" stroke-opacity="0.05" stroke-width="3.5"/>
<path opacity="0.55" d="M62.8481 53.666L75.4177 61.3327" stroke="white" stroke-opacity="0.05" stroke-width="3.5"/>
<path opacity="0.55" d="M75.4177 53.666L87.9873 61.3327" stroke="white" stroke-opacity="0.05" stroke-width="3.5"/>
<path opacity="0.55" d="M87.9874 53.666L100.557 61.3327" stroke="white" stroke-opacity="0.05" stroke-width="3.5"/>
<path opacity="0.55" d="M100.557 53.666L113.127 61.3327" stroke="white" stroke-opacity="0.05" stroke-width="3.5"/>
<path opacity="0.55" d="M125.696 53.666L113.127 61.3327" stroke="white" stroke-opacity="0.05" stroke-width="3.5"/>
<path opacity="0.55" d="M125.696 53.666L138.266 61.3327" stroke="white" stroke-opacity="0.05" stroke-width="3.5"/>
<path opacity="0.55" d="M138.266 53.666L150.835 61.3327" stroke="white" stroke-opacity="0.05" stroke-width="3.5"/>
<path opacity="0.55" d="M150.835 53.666L163.405 61.3327" stroke="white" stroke-opacity="0.05" stroke-width="3.5"/>
<path opacity="0.55" d="M163.405 53.666L175.975 61.3327" stroke="white" stroke-opacity="0.05" stroke-width="3.5"/>
<path opacity="0.55" d="M175.975 53.666L188.544 61.3327" stroke="white" stroke-opacity="0.05" stroke-width="3.5"/>
<path opacity="0.55" d="M188.544 53.666L201.114 61.3327" stroke="white" stroke-opacity="0.05" stroke-width="3.5"/>
<path opacity="0.55" d="M201.114 53.666L213.684 61.3327" stroke="white" stroke-opacity="0.05" stroke-width="3.5"/>
<path opacity="0.55" d="M226.253 53.666L213.684 61.3327" stroke="white" stroke-opacity="0.05" stroke-width="3.5"/>
<path opacity="0.55" d="M238.823 53.666L226.253 61.3327" stroke="white" stroke-opacity="0.05" stroke-width="3.5"/>
<path opacity="0.55" d="M251.392 53.666L238.823 61.3327" stroke="white" stroke-opacity="0.05" stroke-width="3.5"/>
<path opacity="0.55" d="M251.392 53.666L263.962 61.3327" stroke="white" stroke-opacity="0.05" stroke-width="3.5"/>
<path opacity="0.55" d="M263.962 53.666L276.532 61.3327" stroke="white" stroke-opacity="0.05" stroke-width="3.5"/>
<path opacity="0.55" d="M289.101 53.666L276.532 61.3327" stroke="white" stroke-opacity="0.05" stroke-width="3.5"/>
<path opacity="0.55" d="M301.671 53.666L289.101 61.3327" stroke="white" stroke-opacity="0.05" stroke-width="3.5"/>
<path opacity="0.55" d="M301.671 53.666L314.241 61.3327" stroke="white" stroke-opacity="0.05" stroke-width="3.5"/>
<path opacity="0.55" d="M326.81 53.666L314.24 61.3327" stroke="white" stroke-opacity="0.05" stroke-width="3.5"/>
<path opacity="0.55" d="M339.38 53.666L326.81 61.3327" stroke="white" stroke-opacity="0.05" stroke-width="3.5"/>
<path opacity="0.49" d="M12.5696 61.334L0 69.0006" stroke="white" stroke-opacity="0.05" stroke-width="3.5"/>
<path opacity="0.49" d="M25.1393 61.334L12.5696 69.0006" stroke="white" stroke-opacity="0.05" stroke-width="3.5"/>
<path opacity="0.49" d="M37.7088 61.334L25.1392 69.0006" stroke="white" stroke-opacity="0.05" stroke-width="3.5"/>
<path opacity="0.49" d="M37.7089 61.334L50.2785 69.0006" stroke="white" stroke-opacity="0.05" stroke-width="3.5"/>
<path opacity="0.49" d="M62.8481 61.334L50.2785 69.0006" stroke="white" stroke-opacity="0.05" stroke-width="3.5"/>
<path opacity="0.49" d="M62.8481 61.334L75.4177 69.0006" stroke="white" stroke-opacity="0.05" stroke-width="3.5"/>
<path opacity="0.49" d="M87.9873 61.334L75.4177 69.0006" stroke="white" stroke-opacity="0.05" stroke-width="3.5"/>
<path opacity="0.49" d="M100.557 61.334L87.9874 69.0006" stroke="white" stroke-opacity="0.05" stroke-width="3.5"/>
<path opacity="0.49" d="M100.557 61.334L113.127 69.0006" stroke="white" stroke-opacity="0.05" stroke-width="3.5"/>
<path opacity="0.49" d="M113.127 61.334L125.696 69.0006" stroke="white" stroke-opacity="0.05" stroke-width="3.5"/>
<path opacity="0.49" d="M125.696 61.334L138.266 69.0006" stroke="white" stroke-opacity="0.05" stroke-width="3.5"/>
<path opacity="0.49" d="M138.266 61.334L150.835 69.0006" stroke="white" stroke-opacity="0.05" stroke-width="3.5"/>
<path opacity="0.49" d="M163.405 61.334L150.835 69.0006" stroke="white" stroke-opacity="0.05" stroke-width="3.5"/>
<path opacity="0.49" d="M175.975 61.334L163.405 69.0006" stroke="white" stroke-opacity="0.05" stroke-width="3.5"/>
<path opacity="0.49" d="M175.975 61.334L188.544 69.0006" stroke="white" stroke-opacity="0.05" stroke-width="3.5"/>
<path opacity="0.49" d="M201.114 61.334L188.544 69.0006" stroke="white" stroke-opacity="0.05" stroke-width="3.5"/>
<path opacity="0.49" d="M201.114 61.334L213.684 69.0006" stroke="white" stroke-opacity="0.05" stroke-width="3.5"/>
<path opacity="0.49" d="M213.684 61.334L226.253 69.0006" stroke="white" stroke-opacity="0.05" stroke-width="3.5"/>
<path opacity="0.49" d="M238.823 61.334L226.253 69.0006" stroke="white" stroke-opacity="0.05" stroke-width="3.5"/>
<path opacity="0.49" d="M238.823 61.334L251.392 69.0006" stroke="white" stroke-opacity="0.05" stroke-width="3.5"/>
<path opacity="0.49" d="M251.392 61.334L263.962 69.0006" stroke="white" stroke-opacity="0.05" stroke-width="3.5"/>
<path opacity="0.49" d="M276.532 61.334L263.962 69.0006" stroke="white" stroke-opacity="0.05" stroke-width="3.5"/>
<path opacity="0.49" d="M289.101 61.334L276.532 69.0006" stroke="white" stroke-opacity="0.05" stroke-width="3.5"/>
<path opacity="0.49" d="M289.101 61.334L301.671 69.0006" stroke="white" stroke-opacity="0.05" stroke-width="3.5"/>
<path opacity="0.49" d="M301.671 61.334L314.241 69.0006" stroke="white" stroke-opacity="0.05" stroke-width="3.5"/>
<path opacity="0.49" d="M314.24 61.334L326.81 69.0006" stroke="white" stroke-opacity="0.05" stroke-width="3.5"/>
<path opacity="0.49" d="M339.38 61.334L326.81 69.0006" stroke="white" stroke-opacity="0.05" stroke-width="3.5"/>
<path opacity="0.42" d="M0 68.999L12.5696 76.6657" stroke="white" stroke-opacity="0.05" stroke-width="3.5"/>
<path opacity="0.42" d="M12.5696 68.999L25.1393 76.6657" stroke="white" stroke-opacity="0.05" stroke-width="3.5"/>
<path opacity="0.42" d="M25.1392 68.999L37.7088 76.6657" stroke="white" stroke-opacity="0.05" stroke-width="3.5"/>
<path opacity="0.42" d="M50.2785 68.999L37.7089 76.6657" stroke="white" stroke-opacity="0.05" stroke-width="3.5"/>
<path opacity="0.42" d="M50.2785 68.999L62.8481 76.6657" stroke="white" stroke-opacity="0.05" stroke-width="3.5"/>
<path opacity="0.42" d="M75.4177 68.999L62.8481 76.6657" stroke="white" stroke-opacity="0.05" stroke-width="3.5"/>
<path opacity="0.42" d="M75.4177 68.999L87.9873 76.6657" stroke="white" stroke-opacity="0.05" stroke-width="3.5"/>
<path opacity="0.42" d="M100.557 68.999L87.9874 76.6657" stroke="white" stroke-opacity="0.05" stroke-width="3.5"/>
<path opacity="0.42" d="M100.557 68.999L113.127 76.6657" stroke="white" stroke-opacity="0.05" stroke-width="3.5"/>
<path opacity="0.42" d="M125.696 68.999L113.127 76.6657" stroke="white" stroke-opacity="0.05" stroke-width="3.5"/>
<path opacity="0.42" d="M125.696 68.999L138.266 76.6657" stroke="white" stroke-opacity="0.05" stroke-width="3.5"/>
<path opacity="0.42" d="M138.266 68.999L150.835 76.6657" stroke="white" stroke-opacity="0.05" stroke-width="3.5"/>
<path opacity="0.42" d="M163.405 68.999L150.835 76.6657" stroke="white" stroke-opacity="0.05" stroke-width="3.5"/>
<path opacity="0.42" d="M163.405 68.999L175.975 76.6657" stroke="white" stroke-opacity="0.05" stroke-width="3.5"/>
<path opacity="0.42" d="M188.544 68.999L175.975 76.6657" stroke="white" stroke-opacity="0.05" stroke-width="3.5"/>
<path opacity="0.42" d="M201.114 68.999L188.544 76.6657" stroke="white" stroke-opacity="0.05" stroke-width="3.5"/>
<path opacity="0.42" d="M201.114 68.999L213.684 76.6657" stroke="white" stroke-opacity="0.05" stroke-width="3.5"/>
<path opacity="0.42" d="M226.253 68.999L213.684 76.6657" stroke="white" stroke-opacity="0.05" stroke-width="3.5"/>
<path opacity="0.42" d="M226.253 68.999L238.823 76.6657" stroke="white" stroke-opacity="0.05" stroke-width="3.5"/>
<path opacity="0.42" d="M251.392 68.999L238.823 76.6657" stroke="white" stroke-opacity="0.05" stroke-width="3.5"/>
<path opacity="0.42" d="M251.392 68.999L263.962 76.6657" stroke="white" stroke-opacity="0.05" stroke-width="3.5"/>
<path opacity="0.42" d="M263.962 68.999L276.532 76.6657" stroke="white" stroke-opacity="0.05" stroke-width="3.5"/>
<path opacity="0.42" d="M276.532 68.999L289.101 76.6657" stroke="white" stroke-opacity="0.05" stroke-width="3.5"/>
<path opacity="0.42" d="M289.101 68.999L301.671 76.6657" stroke="white" stroke-opacity="0.05" stroke-width="3.5"/>
<path opacity="0.42" d="M301.671 68.999L314.241 76.6657" stroke="white" stroke-opacity="0.05" stroke-width="3.5"/>
<path opacity="0.42" d="M314.24 68.999L326.81 76.6657" stroke="white" stroke-opacity="0.05" stroke-width="3.5"/>
<path opacity="0.42" d="M339.38 68.999L326.81 76.6657" stroke="white" stroke-opacity="0.05" stroke-width="3.5"/>
<path opacity="0.36" d="M12.5696 76.667L0 84.3336" stroke="white" stroke-opacity="0.05" stroke-width="3.5"/>
<path opacity="0.36" d="M25.1393 76.667L12.5696 84.3336" stroke="white" stroke-opacity="0.05" stroke-width="3.5"/>
<path opacity="0.36" d="M25.1392 76.667L37.7088 84.3336" stroke="white" stroke-opacity="0.05" stroke-width="3.5"/>
<path opacity="0.36" d="M37.7089 76.667L50.2785 84.3336" stroke="white" stroke-opacity="0.05" stroke-width="3.5"/>
<path opacity="0.36" d="M62.8481 76.667L50.2785 84.3336" stroke="white" stroke-opacity="0.05" stroke-width="3.5"/>
<path opacity="0.36" d="M75.4177 76.667L62.8481 84.3336" stroke="white" stroke-opacity="0.05" stroke-width="3.5"/>
<path opacity="0.36" d="M75.4177 76.667L87.9873 84.3336" stroke="white" stroke-opacity="0.05" stroke-width="3.5"/>
<path opacity="0.36" d="M100.557 76.667L87.9874 84.3336" stroke="white" stroke-opacity="0.05" stroke-width="3.5"/>
<path opacity="0.36" d="M113.127 76.667L100.557 84.3336" stroke="white" stroke-opacity="0.05" stroke-width="3.5"/>
<path opacity="0.36" d="M125.696 76.667L113.127 84.3336" stroke="white" stroke-opacity="0.05" stroke-width="3.5"/>
<path opacity="0.36" d="M125.696 76.667L138.266 84.3336" stroke="white" stroke-opacity="0.05" stroke-width="3.5"/>
<path opacity="0.36" d="M150.835 76.667L138.266 84.3336" stroke="white" stroke-opacity="0.05" stroke-width="3.5"/>
<path opacity="0.36" d="M163.405 76.667L150.835 84.3336" stroke="white" stroke-opacity="0.05" stroke-width="3.5"/>
<path opacity="0.36" d="M163.405 76.667L175.975 84.3336" stroke="white" stroke-opacity="0.05" stroke-width="3.5"/>
<path opacity="0.36" d="M188.544 76.667L175.975 84.3336" stroke="white" stroke-opacity="0.05" stroke-width="3.5"/>
<path opacity="0.36" d="M188.544 76.667L201.114 84.3336" stroke="white" stroke-opacity="0.05" stroke-width="3.5"/>
<path opacity="0.36" d="M201.114 76.667L213.684 84.3336" stroke="white" stroke-opacity="0.05" stroke-width="3.5"/>
<path opacity="0.36" d="M226.253 76.667L213.684 84.3336" stroke="white" stroke-opacity="0.05" stroke-width="3.5"/>
<path opacity="0.36" d="M238.823 76.667L226.253 84.3336" stroke="white" stroke-opacity="0.05" stroke-width="3.5"/>
<path opacity="0.36" d="M238.823 76.667L251.392 84.3336" stroke="white" stroke-opacity="0.05" stroke-width="3.5"/>
<path opacity="0.36" d="M263.962 76.667L251.392 84.3336" stroke="white" stroke-opacity="0.05" stroke-width="3.5"/>
<path opacity="0.36" d="M276.532 76.667L263.962 84.3336" stroke="white" stroke-opacity="0.05" stroke-width="3.5"/>
<path opacity="0.36" d="M276.532 76.667L289.101 84.3336" stroke="white" stroke-opacity="0.05" stroke-width="3.5"/>
<path opacity="0.36" d="M289.101 76.667L301.671 84.3336" stroke="white" stroke-opacity="0.05" stroke-width="3.5"/>
<path opacity="0.36" d="M301.671 76.667L314.241 84.3336" stroke="white" stroke-opacity="0.05" stroke-width="3.5"/>
<path opacity="0.36" d="M326.81 76.667L314.24 84.3336" stroke="white" stroke-opacity="0.05" stroke-width="3.5"/>
<path opacity="0.36" d="M326.81 76.667L339.38 84.3336" stroke="white" stroke-opacity="0.05" stroke-width="3.5"/>
<path opacity="0.29" d="M12.5696 84.333L0 91.9997" stroke="white" stroke-opacity="0.05" stroke-width="3.5"/>
<path opacity="0.29" d="M25.1393 84.333L12.5696 91.9997" stroke="white" stroke-opacity="0.05" stroke-width="3.5"/>
<path opacity="0.29" d="M37.7088 84.333L25.1392 91.9997" stroke="white" stroke-opacity="0.05" stroke-width="3.5"/>
<path opacity="0.29" d="M50.2785 84.333L37.7089 91.9997" stroke="white" stroke-opacity="0.05" stroke-width="3.5"/>
<path opacity="0.29" d="M50.2785 84.333L62.8481 91.9997" stroke="white" stroke-opacity="0.05" stroke-width="3.5"/>
<path opacity="0.29" d="M75.4177 84.333L62.8481 91.9997" stroke="white" stroke-opacity="0.05" stroke-width="3.5"/>
<path opacity="0.29" d="M87.9873 84.333L75.4177 91.9997" stroke="white" stroke-opacity="0.05" stroke-width="3.5"/>
<path opacity="0.29" d="M87.9874 84.333L100.557 91.9997" stroke="white" stroke-opacity="0.05" stroke-width="3.5"/>
<path opacity="0.29" d="M100.557 84.333L113.127 91.9997" stroke="white" stroke-opacity="0.05" stroke-width="3.5"/>
<path opacity="0.29" d="M125.696 84.333L113.127 91.9997" stroke="white" stroke-opacity="0.05" stroke-width="3.5"/>
<path opacity="0.29" d="M125.696 84.333L138.266 91.9997" stroke="white" stroke-opacity="0.05" stroke-width="3.5"/>
<path opacity="0.29" d="M138.266 84.333L150.835 91.9997" stroke="white" stroke-opacity="0.05" stroke-width="3.5"/>
<path opacity="0.29" d="M163.405 84.333L150.835 91.9997" stroke="white" stroke-opacity="0.05" stroke-width="3.5"/>
<path opacity="0.29" d="M163.405 84.333L175.975 91.9997" stroke="white" stroke-opacity="0.05" stroke-width="3.5"/>
<path opacity="0.29" d="M188.544 84.333L175.975 91.9997" stroke="white" stroke-opacity="0.05" stroke-width="3.5"/>
<path opacity="0.29" d="M188.544 84.333L201.114 91.9997" stroke="white" stroke-opacity="0.05" stroke-width="3.5"/>
<path opacity="0.29" d="M213.684 84.333L201.114 91.9997" stroke="white" stroke-opacity="0.05" stroke-width="3.5"/>
<path opacity="0.29" d="M226.253 84.333L213.684 91.9997" stroke="white" stroke-opacity="0.05" stroke-width="3.5"/>
<path opacity="0.29" d="M238.823 84.333L226.253 91.9997" stroke="white" stroke-opacity="0.05" stroke-width="3.5"/>
<path opacity="0.29" d="M238.823 84.333L251.392 91.9997" stroke="white" stroke-opacity="0.05" stroke-width="3.5"/>
<path opacity="0.29" d="M251.392 84.333L263.962 91.9997" stroke="white" stroke-opacity="0.05" stroke-width="3.5"/>
<path opacity="0.29" d="M276.532 84.333L263.962 91.9997" stroke="white" stroke-opacity="0.05" stroke-width="3.5"/>
<path opacity="0.29" d="M289.101 84.333L276.532 91.9997" stroke="white" stroke-opacity="0.05" stroke-width="3.5"/>
<path opacity="0.29" d="M301.671 84.333L289.101 91.9997" stroke="white" stroke-opacity="0.05" stroke-width="3.5"/>
<path opacity="0.29" d="M301.671 84.333L314.241 91.9997" stroke="white" stroke-opacity="0.05" stroke-width="3.5"/>
<path opacity="0.29" d="M326.81 84.333L314.24 91.9997" stroke="white" stroke-opacity="0.05" stroke-width="3.5"/>
<path opacity="0.29" d="M339.38 84.333L326.81 91.9997" stroke="white" stroke-opacity="0.05" stroke-width="3.5"/>
<path opacity="0.23" d="M12.5696 92L0 99.6667" stroke="white" stroke-opacity="0.05" stroke-width="3.5"/>
<path opacity="0.23" d="M25.1393 92L12.5696 99.6667" stroke="white" stroke-opacity="0.05" stroke-width="3.5"/>
<path opacity="0.23" d="M25.1392 92L37.7088 99.6667" stroke="white" stroke-opacity="0.05" stroke-width="3.5"/>
<path opacity="0.23" d="M37.7089 92L50.2785 99.6667" stroke="white" stroke-opacity="0.05" stroke-width="3.5"/>
<path opacity="0.23" d="M62.8481 92L50.2785 99.6667" stroke="white" stroke-opacity="0.05" stroke-width="3.5"/>
<path opacity="0.23" d="M62.8481 92L75.4177 99.6667" stroke="white" stroke-opacity="0.05" stroke-width="3.5"/>
<path opacity="0.23" d="M75.4177 92L87.9873 99.6667" stroke="white" stroke-opacity="0.05" stroke-width="3.5"/>
<path opacity="0.23" d="M87.9874 92L100.557 99.6667" stroke="white" stroke-opacity="0.05" stroke-width="3.5"/>
<path opacity="0.23" d="M100.557 92L113.127 99.6667" stroke="white" stroke-opacity="0.05" stroke-width="3.5"/>
<path opacity="0.23" d="M113.127 92L125.696 99.6667" stroke="white" stroke-opacity="0.05" stroke-width="3.5"/>
<path opacity="0.23" d="M138.266 92L125.696 99.6667" stroke="white" stroke-opacity="0.05" stroke-width="3.5"/>
<path opacity="0.23" d="M138.266 92L150.835 99.6667" stroke="white" stroke-opacity="0.05" stroke-width="3.5"/>
<path opacity="0.23" d="M163.405 92L150.835 99.6667" stroke="white" stroke-opacity="0.05" stroke-width="3.5"/>
<path opacity="0.23" d="M175.975 92L163.405 99.6667" stroke="white" stroke-opacity="0.05" stroke-width="3.5"/>
<path opacity="0.23" d="M188.544 92L175.975 99.6667" stroke="white" stroke-opacity="0.05" stroke-width="3.5"/>
<path opacity="0.23" d="M201.114 92L188.544 99.6667" stroke="white" stroke-opacity="0.05" stroke-width="3.5"/>
<path opacity="0.23" d="M213.684 92L201.114 99.6667" stroke="white" stroke-opacity="0.05" stroke-width="3.5"/>
<path opacity="0.23" d="M226.253 92L213.684 99.6667" stroke="white" stroke-opacity="0.05" stroke-width="3.5"/>
<path opacity="0.23" d="M226.253 92L238.823 99.6667" stroke="white" stroke-opacity="0.05" stroke-width="3.5"/>
<path opacity="0.23" d="M238.823 92L251.392 99.6667" stroke="white" stroke-opacity="0.05" stroke-width="3.5"/>
<path opacity="0.23" d="M263.962 92L251.392 99.6667" stroke="white" stroke-opacity="0.05" stroke-width="3.5"/>
<path opacity="0.23" d="M276.532 92L263.962 99.6667" stroke="white" stroke-opacity="0.05" stroke-width="3.5"/>
<path opacity="0.23" d="M289.101 92L276.532 99.6667" stroke="white" stroke-opacity="0.05" stroke-width="3.5"/>
<path opacity="0.23" d="M301.671 92L289.101 99.6667" stroke="white" stroke-opacity="0.05" stroke-width="3.5"/>
<path opacity="0.23" d="M314.241 92L301.671 99.6667" stroke="white" stroke-opacity="0.05" stroke-width="3.5"/>
<path opacity="0.23" d="M326.81 92L314.24 99.6667" stroke="white" stroke-opacity="0.05" stroke-width="3.5"/>
<path opacity="0.23" d="M326.81 92L339.38 99.6667" stroke="white" stroke-opacity="0.05" stroke-width="3.5"/>
<path opacity="0.17" d="M12.5696 99.667L0 107.334" stroke="white" stroke-opacity="0.05" stroke-width="3.5"/>
<path opacity="0.17" d="M12.5696 99.667L25.1393 107.334" stroke="white" stroke-opacity="0.05" stroke-width="3.5"/>
<path opacity="0.17" d="M37.7088 99.667L25.1392 107.334" stroke="white" stroke-opacity="0.05" stroke-width="3.5"/>
<path opacity="0.17" d="M37.7089 99.667L50.2785 107.334" stroke="white" stroke-opacity="0.05" stroke-width="3.5"/>
<path opacity="0.17" d="M50.2785 99.667L62.8481 107.334" stroke="white" stroke-opacity="0.05" stroke-width="3.5"/>
<path opacity="0.17" d="M75.4177 99.667L62.8481 107.334" stroke="white" stroke-opacity="0.05" stroke-width="3.5"/>
<path opacity="0.17" d="M87.9873 99.667L75.4177 107.334" stroke="white" stroke-opacity="0.05" stroke-width="3.5"/>
<path opacity="0.17" d="M100.557 99.667L87.9874 107.334" stroke="white" stroke-opacity="0.05" stroke-width="3.5"/>
<path opacity="0.17" d="M100.557 99.667L113.127 107.334" stroke="white" stroke-opacity="0.05" stroke-width="3.5"/>
<path opacity="0.17" d="M113.127 99.667L125.696 107.334" stroke="white" stroke-opacity="0.05" stroke-width="3.5"/>
<path opacity="0.17" d="M125.696 99.667L138.266 107.334" stroke="white" stroke-opacity="0.05" stroke-width="3.5"/>
<path opacity="0.17" d="M150.835 99.667L138.266 107.334" stroke="white" stroke-opacity="0.05" stroke-width="3.5"/>
<path opacity="0.17" d="M163.405 99.667L150.835 107.334" stroke="white" stroke-opacity="0.05" stroke-width="3.5"/>
<path opacity="0.17" d="M175.975 99.667L163.405 107.334" stroke="white" stroke-opacity="0.05" stroke-width="3.5"/>
<path opacity="0.17" d="M188.544 99.667L175.975 107.334" stroke="white" stroke-opacity="0.05" stroke-width="3.5"/>
<path opacity="0.17" d="M201.114 99.667L188.544 107.334" stroke="white" stroke-opacity="0.05" stroke-width="3.5"/>
<path opacity="0.17" d="M213.684 99.667L201.114 107.334" stroke="white" stroke-opacity="0.05" stroke-width="3.5"/>
<path opacity="0.17" d="M226.253 99.667L213.684 107.334" stroke="white" stroke-opacity="0.05" stroke-width="3.5"/>
<path opacity="0.17" d="M226.253 99.667L238.823 107.334" stroke="white" stroke-opacity="0.05" stroke-width="3.5"/>
<path opacity="0.17" d="M238.823 99.667L251.392 107.334" stroke="white" stroke-opacity="0.05" stroke-width="3.5"/>
<path opacity="0.17" d="M251.392 99.667L263.962 107.334" stroke="white" stroke-opacity="0.05" stroke-width="3.5"/>
<path opacity="0.17" d="M263.962 99.667L276.532 107.334" stroke="white" stroke-opacity="0.05" stroke-width="3.5"/>
<path opacity="0.17" d="M276.532 99.667L289.101 107.334" stroke="white" stroke-opacity="0.05" stroke-width="3.5"/>
<path opacity="0.17" d="M301.671 99.667L289.101 107.334" stroke="white" stroke-opacity="0.05" stroke-width="3.5"/>
<path opacity="0.17" d="M314.241 99.667L301.671 107.334" stroke="white" stroke-opacity="0.05" stroke-width="3.5"/>
<path opacity="0.17" d="M326.81 99.667L314.24 107.334" stroke="white" stroke-opacity="0.05" stroke-width="3.5"/>
<path opacity="0.17" d="M326.81 99.667L339.38 107.334" stroke="white" stroke-opacity="0.05" stroke-width="3.5"/>
<path opacity="0.1" d="M12.5696 107.333L0 115" stroke="white" stroke-opacity="0.05" stroke-width="3.5"/>
<path opacity="0.1" d="M12.5696 107.333L25.1393 115" stroke="white" stroke-opacity="0.05" stroke-width="3.5"/>
<path opacity="0.1" d="M25.1392 107.333L37.7088 115" stroke="white" stroke-opacity="0.05" stroke-width="3.5"/>
<path opacity="0.1" d="M37.7089 107.333L50.2785 115" stroke="white" stroke-opacity="0.05" stroke-width="3.5"/>
<path opacity="0.1" d="M62.8481 107.333L50.2785 115" stroke="white" stroke-opacity="0.05" stroke-width="3.5"/>
<path opacity="0.1" d="M75.4177 107.333L62.8481 115" stroke="white" stroke-opacity="0.05" stroke-width="3.5"/>
<path opacity="0.1" d="M75.4177 107.333L87.9873 115" stroke="white" stroke-opacity="0.05" stroke-width="3.5"/>
<path opacity="0.1" d="M87.9874 107.333L100.557 115" stroke="white" stroke-opacity="0.05" stroke-width="3.5"/>
<path opacity="0.1" d="M100.557 107.333L113.127 115" stroke="white" stroke-opacity="0.05" stroke-width="3.5"/>
<path opacity="0.1" d="M113.127 107.333L125.696 115" stroke="white" stroke-opacity="0.05" stroke-width="3.5"/>
<path opacity="0.1" d="M138.266 107.333L125.696 115" stroke="white" stroke-opacity="0.05" stroke-width="3.5"/>
<path opacity="0.1" d="M150.835 107.333L138.266 115" stroke="white" stroke-opacity="0.05" stroke-width="3.5"/>
<path opacity="0.1" d="M150.835 107.333L163.405 115" stroke="white" stroke-opacity="0.05" stroke-width="3.5"/>
<path opacity="0.1" d="M175.975 107.333L163.405 115" stroke="white" stroke-opacity="0.05" stroke-width="3.5"/>
<path opacity="0.1" d="M188.544 107.333L175.975 115" stroke="white" stroke-opacity="0.05" stroke-width="3.5"/>
<path opacity="0.1" d="M188.544 107.333L201.114 115" stroke="white" stroke-opacity="0.05" stroke-width="3.5"/>
<path opacity="0.1" d="M201.114 107.333L213.684 115" stroke="white" stroke-opacity="0.05" stroke-width="3.5"/>
<path opacity="0.1" d="M226.253 107.333L213.684 115" stroke="white" stroke-opacity="0.05" stroke-width="3.5"/>
<path opacity="0.1" d="M226.253 107.333L238.823 115" stroke="white" stroke-opacity="0.05" stroke-width="3.5"/>
<path opacity="0.1" d="M238.823 107.333L251.392 115" stroke="white" stroke-opacity="0.05" stroke-width="3.5"/>
<path opacity="0.1" d="M251.392 107.333L263.962 115" stroke="white" stroke-opacity="0.05" stroke-width="3.5"/>
<path opacity="0.1" d="M263.962 107.333L276.532 115" stroke="white" stroke-opacity="0.05" stroke-width="3.5"/>
<path opacity="0.1" d="M276.532 107.333L289.101 115" stroke="white" stroke-opacity="0.05" stroke-width="3.5"/>
<path opacity="0.1" d="M289.101 107.333L301.671 115" stroke="white" stroke-opacity="0.05" stroke-width="3.5"/>
<path opacity="0.1" d="M301.671 107.333L314.241 115" stroke="white" stroke-opacity="0.05" stroke-width="3.5"/>
<path opacity="0.1" d="M314.24 107.333L326.81 115" stroke="white" stroke-opacity="0.05" stroke-width="3.5"/>
<path opacity="0.1" d="M339.38 107.333L326.81 115" stroke="white" stroke-opacity="0.05" stroke-width="3.5"/>
</svg>
