<svg width="160" height="60" viewBox="0 0 160 60" fill="none" xmlns="http://www.w3.org/2000/svg">
<rect width="160" height="60" rx="5" fill="white"/>
<rect x="0.5" y="0.5" width="159" height="59" rx="4.5" stroke="#D4D3D3" stroke-opacity="0.4"/>
<path d="M59.824 34V22.8H64.016C64.9653 22.8 65.7813 22.9547 66.464 23.264C67.1467 23.5627 67.6693 24 68.032 24.576C68.4053 25.1413 68.592 25.8293 68.592 26.64C68.592 27.4293 68.4053 28.112 68.032 28.688C67.6693 29.2533 67.1467 29.6907 66.464 30C65.7813 30.2987 64.9653 30.448 64.016 30.448H60.48L61.008 29.904V34H59.824ZM67.472 34L64.592 29.936H65.872L68.768 34H67.472ZM61.008 30L60.48 29.44H63.984C65.104 29.44 65.952 29.1947 66.528 28.704C67.1147 28.2133 67.408 27.5253 67.408 26.64C67.408 25.744 67.1147 25.0507 66.528 24.56C65.952 24.0693 65.104 23.824 63.984 23.824H60.48L61.008 23.264V30ZM76.3324 34V32.144L76.2844 31.84V28.736C76.2844 28.0213 76.0817 27.472 75.6764 27.088C75.2817 26.704 74.6897 26.512 73.9004 26.512C73.3564 26.512 72.839 26.6027 72.3484 26.784C71.8577 26.9653 71.4417 27.2053 71.1004 27.504L70.5884 26.656C71.015 26.2933 71.527 26.016 72.1244 25.824C72.7217 25.6213 73.351 25.52 74.0124 25.52C75.1004 25.52 75.9377 25.792 76.5244 26.336C77.1217 26.8693 77.4204 27.6853 77.4204 28.784V34H76.3324ZM73.4364 34.08C72.807 34.08 72.2577 33.9787 71.7884 33.776C71.3297 33.5627 70.9777 33.2747 70.7324 32.912C70.487 32.5387 70.3644 32.112 70.3644 31.632C70.3644 31.1947 70.4657 30.8 70.6684 30.448C70.8817 30.0853 71.223 29.7973 71.6924 29.584C72.1724 29.36 72.8124 29.248 73.6124 29.248H76.5084V30.096H73.6444C72.8337 30.096 72.2684 30.24 71.9484 30.528C71.639 30.816 71.4844 31.1733 71.4844 31.6C71.4844 32.08 71.671 32.464 72.0444 32.752C72.4177 33.04 72.9404 33.184 73.6124 33.184C74.2524 33.184 74.8017 33.04 75.2604 32.752C75.7297 32.4533 76.071 32.0267 76.2844 31.472L76.5404 32.256C76.327 32.8107 75.9537 33.2533 75.4204 33.584C74.8977 33.9147 74.2364 34.08 73.4364 34.08ZM83.1619 34.08C82.3725 34.08 81.7645 33.8667 81.3379 33.44C80.9112 33.0133 80.6979 32.4107 80.6979 31.632V23.744H81.8339V31.568C81.8339 32.0587 81.9565 32.4373 82.2019 32.704C82.4579 32.9707 82.8205 33.104 83.2899 33.104C83.7912 33.104 84.2072 32.96 84.5379 32.672L84.9379 33.488C84.7139 33.6907 84.4419 33.84 84.1219 33.936C83.8125 34.032 83.4925 34.08 83.1619 34.08ZM79.1939 26.544V25.6H84.3939V26.544H79.1939ZM90.277 34.08C89.4023 34.08 88.6343 33.8987 87.973 33.536C87.3117 33.1627 86.7943 32.656 86.421 32.016C86.0477 31.3653 85.861 30.624 85.861 29.792C85.861 28.96 86.037 28.224 86.389 27.584C86.7517 26.944 87.2423 26.4427 87.861 26.08C88.4903 25.7067 89.1943 25.52 89.973 25.52C90.7623 25.52 91.461 25.7013 92.069 26.064C92.6877 26.416 93.173 26.9173 93.525 27.568C93.877 28.208 94.053 28.9493 94.053 29.792C94.053 29.8453 94.0477 29.904 94.037 29.968C94.037 30.0213 94.037 30.08 94.037 30.144H86.725V29.296H93.429L92.981 29.632C92.981 29.024 92.8477 28.4853 92.581 28.016C92.325 27.536 91.973 27.1627 91.525 26.896C91.077 26.6293 90.5597 26.496 89.973 26.496C89.397 26.496 88.8797 26.6293 88.421 26.896C87.9623 27.1627 87.605 27.536 87.349 28.016C87.093 28.496 86.965 29.0453 86.965 29.664V29.84C86.965 30.48 87.1037 31.0453 87.381 31.536C87.669 32.016 88.0637 32.3947 88.565 32.672C89.077 32.9387 89.6583 33.072 90.309 33.072C90.821 33.072 91.2957 32.9813 91.733 32.8C92.181 32.6187 92.565 32.3413 92.885 31.968L93.525 32.704C93.1517 33.152 92.6823 33.4933 92.117 33.728C91.5623 33.9627 90.949 34.08 90.277 34.08ZM99.0008 34L104.121 22.8H105.289L110.409 34H109.161L104.457 23.488H104.937L100.233 34H99.0008ZM101.017 31.008L101.369 30.048H107.881L108.233 31.008H101.017ZM116.358 34.08C115.632 34.08 114.976 33.9147 114.39 33.584C113.803 33.2427 113.334 32.7573 112.982 32.128C112.64 31.488 112.47 30.7093 112.47 29.792C112.47 28.8747 112.64 28.1013 112.982 27.472C113.323 26.832 113.787 26.3467 114.374 26.016C114.96 25.6853 115.622 25.52 116.358 25.52C117.158 25.52 117.872 25.7013 118.502 26.064C119.142 26.416 119.643 26.9173 120.006 27.568C120.368 28.208 120.55 28.9493 120.55 29.792C120.55 30.6453 120.368 31.392 120.006 32.032C119.643 32.672 119.142 33.1733 118.502 33.536C117.872 33.8987 117.158 34.08 116.358 34.08ZM112.022 37.104V25.6H113.11V28.128L112.998 29.808L113.158 31.504V37.104H112.022ZM116.278 33.072C116.875 33.072 117.408 32.9387 117.878 32.672C118.347 32.3947 118.72 32.0107 118.998 31.52C119.275 31.0187 119.414 30.4427 119.414 29.792C119.414 29.1413 119.275 28.5707 118.998 28.08C118.72 27.5893 118.347 27.2053 117.878 26.928C117.408 26.6507 116.875 26.512 116.278 26.512C115.68 26.512 115.142 26.6507 114.661 26.928C114.192 27.2053 113.819 27.5893 113.542 28.08C113.275 28.5707 113.142 29.1413 113.142 29.792C113.142 30.4427 113.275 31.0187 113.542 31.52C113.819 32.0107 114.192 32.3947 114.661 32.672C115.142 32.9387 115.68 33.072 116.278 33.072ZM127.201 34.08C126.476 34.08 125.82 33.9147 125.233 33.584C124.647 33.2427 124.177 32.7573 123.825 32.128C123.484 31.488 123.313 30.7093 123.313 29.792C123.313 28.8747 123.484 28.1013 123.825 27.472C124.167 26.832 124.631 26.3467 125.217 26.016C125.804 25.6853 126.465 25.52 127.201 25.52C128.001 25.52 128.716 25.7013 129.345 26.064C129.985 26.416 130.487 26.9173 130.849 27.568C131.212 28.208 131.393 28.9493 131.393 29.792C131.393 30.6453 131.212 31.392 130.849 32.032C130.487 32.672 129.985 33.1733 129.345 33.536C128.716 33.8987 128.001 34.08 127.201 34.08ZM122.865 37.104V25.6H123.953V28.128L123.841 29.808L124.001 31.504V37.104H122.865ZM127.121 33.072C127.719 33.072 128.252 32.9387 128.721 32.672C129.191 32.3947 129.564 32.0107 129.841 31.52C130.119 31.0187 130.257 30.4427 130.257 29.792C130.257 29.1413 130.119 28.5707 129.841 28.08C129.564 27.5893 129.191 27.2053 128.721 26.928C128.252 26.6507 127.719 26.512 127.121 26.512C126.524 26.512 125.985 26.6507 125.505 26.928C125.036 27.2053 124.663 27.5893 124.385 28.08C124.119 28.5707 123.985 29.1413 123.985 29.792C123.985 30.4427 124.119 31.0187 124.385 31.52C124.663 32.0107 125.036 32.3947 125.505 32.672C125.985 32.9387 126.524 33.072 127.121 33.072Z" fill="#1D1D1D"/>
<g filter="url(#filter0_d_525_1627)">
<path d="M38 20H22C20.9 20 20 20.9 20 22V40L24 36H38C39.1 36 40 35.1 40 34V22C40 20.9 39.1 20 38 20ZM31.57 29.57L30 33L28.43 29.57L25 28L28.43 26.43L30 23L31.57 26.43L35 28L31.57 29.57Z" fill="#204ECF"/>
</g>
<defs>
<filter id="filter0_d_525_1627" x="8" y="13" width="44" height="44" filterUnits="userSpaceOnUse" color-interpolation-filters="sRGB">
<feFlood flood-opacity="0" result="BackgroundImageFix"/>
<feColorMatrix in="SourceAlpha" type="matrix" values="0 0 0 0 0 0 0 0 0 0 0 0 0 0 0 0 0 0 127 0" result="hardAlpha"/>
<feOffset dy="5"/>
<feGaussianBlur stdDeviation="5"/>
<feComposite in2="hardAlpha" operator="out"/>
<feColorMatrix type="matrix" values="0 0 0 0 0.4 0 0 0 0 0.54902 0 0 0 0 0.427451 0 0 0 0.1 0"/>
<feBlend mode="normal" in2="BackgroundImageFix" result="effect1_dropShadow_525_1627"/>
<feBlend mode="normal" in="SourceGraphic" in2="effect1_dropShadow_525_1627" result="shape"/>
</filter>
</defs>
</svg>
