<svg width="76" height="91" viewBox="0 0 76 91" fill="none" xmlns="http://www.w3.org/2000/svg">
<g filter="url(#filter0_d_542_1514)">
<circle cx="38" cy="34" r="30" fill="white"/>
</g>
<path d="M23.354 88.14C26.042 88.14 27.316 86.796 27.316 85.228C27.316 81.63 21.506 82.988 21.506 80.902C21.506 80.16 22.122 79.572 23.634 79.572C24.488 79.572 25.454 79.824 26.336 80.342L26.91 78.928C26.056 78.368 24.824 78.06 23.648 78.06C20.96 78.06 19.7 79.404 19.7 80.986C19.7 84.626 25.524 83.24 25.524 85.354C25.524 86.082 24.88 86.628 23.354 86.628C22.15 86.628 20.904 86.18 20.12 85.55L19.49 86.964C20.302 87.664 21.828 88.14 23.354 88.14ZM35.9807 84.304C35.9807 81.966 34.3847 80.44 32.2007 80.44C29.9747 80.44 28.3367 82.036 28.3367 84.262C28.3367 86.488 29.9607 88.098 32.4667 88.098C33.7547 88.098 34.8047 87.678 35.4767 86.88L34.5387 85.802C34.0067 86.348 33.3487 86.614 32.5087 86.614C31.2067 86.614 30.2967 85.914 30.0867 84.822H35.9527C35.9667 84.654 35.9807 84.444 35.9807 84.304ZM32.2007 81.84C33.3487 81.84 34.1747 82.582 34.3147 83.66H30.0727C30.2407 82.568 31.0667 81.84 32.2007 81.84ZM41.9037 80.44C40.8117 80.44 39.9017 80.804 39.3277 81.49V80.524H37.6617V88H39.4117V84.22C39.4117 82.722 40.2517 81.966 41.4977 81.966C42.6177 81.966 43.2757 82.61 43.2757 83.94V88H45.0257V83.716C45.0257 81.462 43.6957 80.44 41.9037 80.44ZM52.886 77.612V81.448C52.298 80.762 51.444 80.44 50.478 80.44C48.308 80.44 46.698 81.938 46.698 84.262C46.698 86.586 48.308 88.098 50.478 88.098C51.5 88.098 52.368 87.748 52.956 87.034V88H54.636V77.612H52.886ZM50.688 86.6C49.428 86.6 48.462 85.69 48.462 84.262C48.462 82.834 49.428 81.924 50.688 81.924C51.948 81.924 52.914 82.834 52.914 84.262C52.914 85.69 51.948 86.6 50.688 86.6Z" fill="#1D1D1D"/>
<path d="M48.71 22.2903C48.575 22.1559 48.4045 22.0629 48.2185 22.0222C48.0325 21.9814 47.8388 21.9946 47.66 22.0603L25.66 30.0603C25.4703 30.1322 25.3069 30.2602 25.1917 30.4272C25.0764 30.5942 25.0146 30.7923 25.0146 30.9953C25.0146 31.1982 25.0764 31.3963 25.1917 31.5633C25.3069 31.7303 25.4703 31.8583 25.66 31.9303L34.25 35.3603L40.59 29.0003L42 30.4103L35.63 36.7803L39.07 45.3703C39.1441 45.5563 39.2724 45.7159 39.4382 45.8282C39.604 45.9405 39.7997 46.0005 40 46.0003C40.2021 45.9961 40.3982 45.9308 40.5624 45.813C40.7266 45.6952 40.8513 45.5304 40.92 45.3403L48.92 23.3403C48.9881 23.1633 49.0046 22.9707 48.9674 22.7848C48.9302 22.5989 48.8409 22.4274 48.71 22.2903Z" fill="#FD9C1C"/>
<defs>
<filter id="filter0_d_542_1514" x="0" y="0" width="76" height="76" filterUnits="userSpaceOnUse" color-interpolation-filters="sRGB">
<feFlood flood-opacity="0" result="BackgroundImageFix"/>
<feColorMatrix in="SourceAlpha" type="matrix" values="0 0 0 0 0 0 0 0 0 0 0 0 0 0 0 0 0 0 127 0" result="hardAlpha"/>
<feOffset dy="4"/>
<feGaussianBlur stdDeviation="4"/>
<feComposite in2="hardAlpha" operator="out"/>
<feColorMatrix type="matrix" values="0 0 0 0 0 0 0 0 0 0 0 0 0 0 0 0 0 0 0.05 0"/>
<feBlend mode="normal" in2="BackgroundImageFix" result="effect1_dropShadow_542_1514"/>
<feBlend mode="normal" in="SourceGraphic" in2="effect1_dropShadow_542_1514" result="shape"/>
</filter>
</defs>
</svg>
