<svg width="335" height="60" viewBox="0 0 335 60" fill="none" xmlns="http://www.w3.org/2000/svg">
<rect width="335" height="60" rx="5" fill="white"/>
<rect x="0.5" y="0.5" width="334" height="59" rx="4.5" stroke="#D4D3D3" stroke-opacity="0.4"/>
<path d="M62.016 24.8H57.824V36H59.008V32.464H62.016C64.864 32.464 66.592 31.024 66.592 28.64C66.592 26.24 64.864 24.8 62.016 24.8ZM61.984 31.424H59.008V25.824H61.984C64.224 25.824 65.408 26.848 65.408 28.64C65.408 30.4 64.224 31.424 61.984 31.424ZM69.7814 29.232V27.584H68.6934V36H69.8294V31.712C69.8294 29.728 70.9014 28.608 72.6614 28.608C72.7414 28.608 72.8374 28.624 72.9334 28.624V27.52C71.3814 27.52 70.3094 28.112 69.7814 29.232ZM78.3521 36.08C80.8161 36.08 82.6241 34.288 82.6241 31.792C82.6241 29.296 80.8161 27.52 78.3521 27.52C75.8881 27.52 74.0641 29.296 74.0641 31.792C74.0641 34.288 75.8881 36.08 78.3521 36.08ZM78.3521 35.072C76.5601 35.072 75.2161 33.76 75.2161 31.792C75.2161 29.824 76.5601 28.512 78.3521 28.512C80.1441 28.512 81.4721 29.824 81.4721 31.792C81.4721 33.76 80.1441 35.072 78.3521 35.072ZM85.1354 26.544V27.584H83.6314V28.544H85.1354V36H86.2714V28.544H88.8314V27.584H86.2394V26.592C86.2394 25.552 86.7514 25.008 87.7274 25.008C88.2074 25.008 88.6554 25.152 88.9754 25.424L89.3594 24.576C88.9434 24.224 88.3034 24.048 87.6794 24.048C86.0314 24.048 85.1354 25.04 85.1354 26.544ZM92.2234 24.128C91.7594 24.128 91.3914 24.496 91.3914 24.928C91.3914 25.376 91.7594 25.744 92.2234 25.744C92.7034 25.744 93.0554 25.376 93.0554 24.912C93.0554 24.48 92.6874 24.128 92.2234 24.128ZM91.6474 36H92.7834V27.584H91.6474V36ZM95.959 36H97.095V24.128H95.959V36ZM107.6 31.792C107.6 29.264 105.888 27.52 103.52 27.52C101.152 27.52 99.4079 29.296 99.4079 31.792C99.4079 34.288 101.2 36.08 103.824 36.08C105.152 36.08 106.32 35.6 107.072 34.704L106.432 33.968C105.792 34.704 104.88 35.072 103.856 35.072C102.016 35.072 100.672 33.904 100.544 32.144H107.584C107.584 32.016 107.6 31.888 107.6 31.792ZM103.52 28.496C105.168 28.496 106.368 29.648 106.512 31.296H100.544C100.688 29.648 101.888 28.496 103.52 28.496ZM117.428 36.096C120.292 36.096 121.604 34.688 121.604 33.04C121.604 28.96 114.708 30.816 114.708 27.744C114.708 26.624 115.62 25.712 117.668 25.712C118.66 25.712 119.78 26.016 120.74 26.64L121.14 25.696C120.244 25.072 118.932 24.704 117.668 24.704C114.82 24.704 113.54 26.128 113.54 27.776C113.54 31.92 120.436 30.032 120.436 33.104C120.436 34.208 119.524 35.088 117.428 35.088C115.956 35.088 114.532 34.512 113.732 33.728L113.268 34.64C114.1 35.504 115.748 36.096 117.428 36.096ZM130.391 27.584V32C130.391 33.92 129.287 35.056 127.527 35.056C125.927 35.056 124.999 34.144 124.999 32.352V27.584H123.863V32.464C123.863 34.88 125.271 36.08 127.415 36.08C128.759 36.08 129.847 35.488 130.439 34.464V36H131.527V27.584H130.391ZM139.045 27.52C137.701 27.52 136.549 28.096 135.845 29.184V24.128H134.709V36H135.797V34.336C136.485 35.472 137.653 36.08 139.045 36.08C141.445 36.08 143.237 34.336 143.237 31.792C143.237 29.248 141.445 27.52 139.045 27.52ZM138.965 35.072C137.173 35.072 135.829 33.76 135.829 31.792C135.829 29.824 137.173 28.512 138.965 28.512C140.741 28.512 142.101 29.824 142.101 31.792C142.101 33.76 140.741 35.072 138.965 35.072ZM147.809 36.08C150.001 36.08 151.281 35.136 151.281 33.68C151.281 30.448 145.825 32.16 145.825 29.888C145.825 29.088 146.497 28.496 148.017 28.496C148.881 28.496 149.761 28.704 150.497 29.216L150.993 28.304C150.289 27.824 149.105 27.52 148.017 27.52C145.873 27.52 144.689 28.544 144.689 29.92C144.689 33.248 150.145 31.52 150.145 33.712C150.145 34.544 149.489 35.088 147.889 35.088C146.705 35.088 145.569 34.672 144.897 34.144L144.385 35.04C145.073 35.632 146.417 36.08 147.809 36.08ZM156.869 36.08C158.293 36.08 159.493 35.504 160.165 34.416L159.317 33.84C158.741 34.688 157.845 35.072 156.869 35.072C155.029 35.072 153.685 33.776 153.685 31.792C153.685 29.824 155.029 28.512 156.869 28.512C157.845 28.512 158.741 28.912 159.317 29.76L160.165 29.184C159.493 28.08 158.293 27.52 156.869 27.52C154.357 27.52 152.533 29.28 152.533 31.792C152.533 34.304 154.357 36.08 156.869 36.08ZM163.485 29.232V27.584H162.397V36H163.533V31.712C163.533 29.728 164.605 28.608 166.365 28.608C166.445 28.608 166.541 28.624 166.637 28.624V27.52C165.085 27.52 164.013 28.112 163.485 29.232ZM169.269 25.744C169.749 25.744 170.101 25.376 170.101 24.912C170.101 24.48 169.733 24.128 169.269 24.128C168.805 24.128 168.437 24.496 168.437 24.928C168.437 25.376 168.805 25.744 169.269 25.744ZM168.693 36H169.829V27.584H168.693V36ZM177.326 27.52C175.934 27.52 174.766 28.128 174.078 29.248V27.584H172.99V39.104H174.126V34.416C174.83 35.504 175.982 36.08 177.326 36.08C179.726 36.08 181.518 34.352 181.518 31.792C181.518 29.248 179.726 27.52 177.326 27.52ZM177.246 35.072C175.454 35.072 174.11 33.76 174.11 31.792C174.11 29.84 175.454 28.512 177.246 28.512C179.022 28.512 180.382 29.84 180.382 31.792C180.382 33.76 179.022 35.072 177.246 35.072ZM187.866 34.672C187.546 34.96 187.082 35.104 186.618 35.104C185.674 35.104 185.162 34.56 185.162 33.568V28.544H187.722V27.584H185.162V25.744H184.026V27.584H182.522V28.544H184.026V33.632C184.026 35.184 184.906 36.08 186.49 36.08C187.146 36.08 187.818 35.888 188.266 35.488L187.866 34.672ZM190.91 25.744C191.39 25.744 191.742 25.376 191.742 24.912C191.742 24.48 191.374 24.128 190.91 24.128C190.446 24.128 190.078 24.496 190.078 24.928C190.078 25.376 190.446 25.744 190.91 25.744ZM190.334 36H191.47V27.584H190.334V36ZM198.071 36.08C200.535 36.08 202.343 34.288 202.343 31.792C202.343 29.296 200.535 27.52 198.071 27.52C195.607 27.52 193.783 29.296 193.783 31.792C193.783 34.288 195.607 36.08 198.071 36.08ZM198.071 35.072C196.279 35.072 194.935 33.76 194.935 31.792C194.935 29.824 196.279 28.512 198.071 28.512C199.863 28.512 201.191 29.824 201.191 31.792C201.191 33.76 199.863 35.072 198.071 35.072ZM208.95 27.52C207.494 27.52 206.358 28.112 205.75 29.136V27.584H204.662V36H205.798V31.584C205.798 29.664 206.934 28.544 208.742 28.544C210.342 28.544 211.27 29.456 211.27 31.232V36H212.406V31.12C212.406 28.704 210.998 27.52 208.95 27.52Z" fill="#1D1D1D"/>
<g clip-path="url(#clip0_520_1573)">
<g filter="url(#filter0_d_520_1573)">
<path d="M28.7486 23C29.9022 23 30.8886 24.0083 30.8886 25.1875V30.063C31.721 29.2652 33.3186 29.1672 34.3526 30.3706C35.4673 29.6729 36.9414 30.2658 37.3954 31.1738C39.7948 30.7356 40.875 32.2454 40.875 34.7188C40.875 34.8528 40.8651 35.367 40.8655 35.5C40.8737 38.5259 39.3486 39.2546 38.9946 41.5416C38.9064 42.1115 38.414 42.5312 37.8372 42.5312H29.462L29.4619 42.5312C28.5651 42.5306 27.7095 42.0132 27.321 41.1413C26.6866 39.7309 24.9266 36.4825 23.5455 35.8906C22.6571 35.5099 22.1254 34.8465 22.125 33.9375C22.1243 32.2665 23.8388 31.1176 25.392 31.7833C25.8001 31.9582 26.206 32.1891 26.6087 32.4743V25.1875C26.6087 24.0425 27.6118 23 28.7486 23ZM28.7656 43.3125H38.1406C38.7878 43.3125 39.3125 43.8372 39.3125 44.4844V46.8281C39.3125 47.4753 38.7878 48 38.1406 48H28.7656C28.1184 48 27.5938 47.4753 27.5938 46.8281V44.4844C27.5938 43.8372 28.1184 43.3125 28.7656 43.3125ZM36.9688 44.6797C36.4294 44.6797 35.9922 45.1169 35.9922 45.6562C35.9922 46.1956 36.4294 46.6328 36.9688 46.6328C37.5081 46.6328 37.9453 46.1956 37.9453 45.6562C37.9453 45.1169 37.5081 44.6797 36.9688 44.6797Z" fill="#204ECF"/>
</g>
</g>
<rect x="19" y="11" width="24" height="12" rx="2" fill="#204ECF"/>
<path d="M25.488 20.08C25.0507 20.08 24.632 20.0187 24.232 19.896C23.832 19.768 23.5147 19.6053 23.28 19.408L23.64 18.6C23.864 18.776 24.1413 18.9227 24.472 19.04C24.8027 19.1573 25.1413 19.216 25.488 19.216C25.7813 19.216 26.0187 19.184 26.2 19.12C26.3813 19.056 26.5147 18.9707 26.6 18.864C26.6853 18.752 26.728 18.6267 26.728 18.488C26.728 18.3173 26.6667 18.1813 26.544 18.08C26.4213 17.9733 26.2613 17.8907 26.064 17.832C25.872 17.768 25.656 17.7093 25.416 17.656C25.1813 17.6027 24.944 17.5413 24.704 17.472C24.4693 17.3973 24.2533 17.304 24.056 17.192C23.864 17.0747 23.7067 16.92 23.584 16.728C23.4613 16.536 23.4 16.2907 23.4 15.992C23.4 15.688 23.48 15.4107 23.64 15.16C23.8053 14.904 24.0533 14.7013 24.384 14.552C24.72 14.3973 25.144 14.32 25.656 14.32C25.992 14.32 26.3253 14.3627 26.656 14.448C26.9867 14.5333 27.2747 14.656 27.52 14.816L27.192 15.624C26.9413 15.4747 26.6827 15.3653 26.416 15.296C26.1493 15.2213 25.8933 15.184 25.648 15.184C25.36 15.184 25.1253 15.2187 24.944 15.288C24.768 15.3573 24.6373 15.448 24.552 15.56C24.472 15.672 24.432 15.8 24.432 15.944C24.432 16.1147 24.4907 16.2533 24.608 16.36C24.7307 16.4613 24.888 16.5413 25.08 16.6C25.2773 16.6587 25.496 16.7173 25.736 16.776C25.976 16.8293 26.2133 16.8907 26.448 16.96C26.688 17.0293 26.904 17.12 27.096 17.232C27.2933 17.344 27.4507 17.496 27.568 17.688C27.6907 17.88 27.752 18.1227 27.752 18.416C27.752 18.7147 27.6693 18.992 27.504 19.248C27.344 19.4987 27.096 19.7013 26.76 19.856C26.424 20.0053 26 20.08 25.488 20.08ZM30.4953 20.056C30.1326 20.056 29.8126 19.9893 29.5353 19.856C29.2579 19.7173 29.0419 19.5093 28.8873 19.232C28.7326 18.9493 28.6553 18.5947 28.6553 18.168V15.728H29.6553V18.032C29.6553 18.416 29.7406 18.704 29.9113 18.896C30.0873 19.0827 30.3353 19.176 30.6553 19.176C30.8899 19.176 31.0926 19.128 31.2633 19.032C31.4393 18.936 31.5753 18.792 31.6713 18.6C31.7726 18.408 31.8233 18.1707 31.8233 17.888V15.728H32.8233V20H31.8713V18.848L32.0393 19.2C31.8953 19.4773 31.6846 19.6907 31.4073 19.84C31.1299 19.984 30.8259 20.056 30.4953 20.056ZM36.5006 20.056C36.1379 20.056 35.8152 19.976 35.5326 19.816C35.2499 19.656 35.0259 19.416 34.8606 19.096C34.7006 18.7707 34.6206 18.36 34.6206 17.864C34.6206 17.3627 34.7032 16.952 34.8686 16.632C35.0392 16.312 35.2659 16.0747 35.5486 15.92C35.8366 15.76 36.1539 15.68 36.5006 15.68C36.9219 15.68 37.2926 15.7707 37.6126 15.952C37.9379 16.1333 38.1939 16.3867 38.3806 16.712C38.5726 17.0373 38.6686 17.4213 38.6686 17.864C38.6686 18.3067 38.5726 18.6907 38.3806 19.016C38.1939 19.3413 37.9379 19.5973 37.6126 19.784C37.2926 19.9653 36.9219 20.056 36.5006 20.056ZM34.1326 20V14.064H35.1326V16.72L35.0526 17.856L35.0846 18.992V20H34.1326ZM36.3886 19.2C36.6286 19.2 36.8419 19.1467 37.0286 19.04C37.2206 18.9333 37.3726 18.7787 37.4846 18.576C37.5966 18.3733 37.6526 18.136 37.6526 17.864C37.6526 17.5867 37.5966 17.3493 37.4846 17.152C37.3726 16.9493 37.2206 16.7947 37.0286 16.688C36.8419 16.5813 36.6286 16.528 36.3886 16.528C36.1486 16.528 35.9326 16.5813 35.7406 16.688C35.5486 16.7947 35.3966 16.9493 35.2846 17.152C35.1726 17.3493 35.1166 17.5867 35.1166 17.864C35.1166 18.136 35.1726 18.3733 35.2846 18.576C35.3966 18.7787 35.5486 18.9333 35.7406 19.04C35.9326 19.1467 36.1486 19.2 36.3886 19.2Z" fill="white"/>
<defs>
<filter id="filter0_d_520_1573" x="12.125" y="18" width="38.75" height="45" filterUnits="userSpaceOnUse" color-interpolation-filters="sRGB">
<feFlood flood-opacity="0" result="BackgroundImageFix"/>
<feColorMatrix in="SourceAlpha" type="matrix" values="0 0 0 0 0 0 0 0 0 0 0 0 0 0 0 0 0 0 127 0" result="hardAlpha"/>
<feOffset dy="5"/>
<feGaussianBlur stdDeviation="5"/>
<feComposite in2="hardAlpha" operator="out"/>
<feColorMatrix type="matrix" values="0 0 0 0 0.12549 0 0 0 0 0.305882 0 0 0 0 0.811765 0 0 0 0.05 0"/>
<feBlend mode="normal" in2="BackgroundImageFix" result="effect1_dropShadow_520_1573"/>
<feBlend mode="normal" in="SourceGraphic" in2="effect1_dropShadow_520_1573" result="shape"/>
</filter>
<clipPath id="clip0_520_1573">
<rect width="25" height="25" fill="white" transform="translate(19 23)"/>
</clipPath>
</defs>
</svg>
