<svg width="160" height="60" viewBox="0 0 160 60" fill="none" xmlns="http://www.w3.org/2000/svg">
<rect width="160" height="60" rx="5" fill="white"/>
<rect x="0.5" y="0.5" width="159" height="59" rx="4.5" stroke="#D4D3D3" stroke-opacity="0.4"/>
<path d="M60.912 35.096C60.08 35.096 59.28 34.9627 58.512 34.696C57.7547 34.4187 57.168 34.0667 56.752 33.64L57.216 32.728C57.6107 33.112 58.1387 33.4373 58.8 33.704C59.472 33.96 60.176 34.088 60.912 34.088C61.616 34.088 62.1867 34.0027 62.624 33.832C63.072 33.6507 63.3973 33.4107 63.6 33.112C63.8133 32.8133 63.92 32.4827 63.92 32.12C63.92 31.6827 63.792 31.3307 63.536 31.064C63.2907 30.7973 62.9653 30.5893 62.56 30.44C62.1547 30.28 61.7067 30.1413 61.216 30.024C60.7253 29.9067 60.2347 29.784 59.744 29.656C59.2533 29.5173 58.8 29.336 58.384 29.112C57.9787 28.888 57.648 28.5947 57.392 28.232C57.1467 27.8587 57.024 27.3733 57.024 26.776C57.024 26.2213 57.168 25.7147 57.456 25.256C57.7547 24.7867 58.208 24.4133 58.816 24.136C59.424 23.848 60.2027 23.704 61.152 23.704C61.7813 23.704 62.4053 23.7947 63.024 23.976C63.6427 24.1467 64.176 24.3867 64.624 24.696L64.224 25.64C63.744 25.32 63.232 25.0853 62.688 24.936C62.1547 24.7867 61.6373 24.712 61.136 24.712C60.464 24.712 59.9093 24.8027 59.472 24.984C59.0347 25.1653 58.7093 25.4107 58.496 25.72C58.2933 26.0187 58.192 26.36 58.192 26.744C58.192 27.1813 58.3147 27.5333 58.56 27.8C58.816 28.0667 59.1467 28.2747 59.552 28.424C59.968 28.5733 60.4213 28.7067 60.912 28.824C61.4027 28.9413 61.888 29.0693 62.368 29.208C62.8587 29.3467 63.3067 29.528 63.712 29.752C64.128 29.9653 64.4587 30.2533 64.704 30.616C64.96 30.9787 65.088 31.4533 65.088 32.04C65.088 32.584 64.9387 33.0907 64.64 33.56C64.3413 34.0187 63.8827 34.392 63.264 34.68C62.656 34.9573 61.872 35.096 60.912 35.096ZM70.8998 35.08C70.1851 35.08 69.5611 34.9467 69.0278 34.68C68.4944 34.4133 68.0784 34.0133 67.7798 33.48C67.4918 32.9467 67.3478 32.28 67.3478 31.48V26.6H68.4838V31.352C68.4838 32.248 68.7024 32.9253 69.1398 33.384C69.5878 33.832 70.2118 34.056 71.0118 34.056C71.5984 34.056 72.1051 33.9387 72.5318 33.704C72.9691 33.4587 73.2998 33.1067 73.5238 32.648C73.7584 32.1893 73.8758 31.64 73.8758 31V26.6H75.0118V35H73.9237V32.696L74.0998 33.112C73.8331 33.7307 73.4171 34.216 72.8518 34.568C72.2971 34.9093 71.6464 35.08 70.8998 35.08ZM82.5138 35.08C81.7884 35.08 81.1324 34.9147 80.5458 34.584C79.9591 34.2427 79.4898 33.7573 79.1378 33.128C78.7964 32.488 78.6258 31.7093 78.6258 30.792C78.6258 29.8747 78.7964 29.1013 79.1378 28.472C79.4791 27.832 79.9431 27.3467 80.5298 27.016C81.1164 26.6853 81.7778 26.52 82.5138 26.52C83.3138 26.52 84.0284 26.7013 84.6578 27.064C85.2978 27.416 85.7991 27.9173 86.1618 28.568C86.5244 29.208 86.7058 29.9493 86.7058 30.792C86.7058 31.6453 86.5244 32.392 86.1618 33.032C85.7991 33.672 85.2978 34.1733 84.6578 34.536C84.0284 34.8987 83.3138 35.08 82.5138 35.08ZM78.1778 38.104V26.6H79.2658V29.128L79.1538 30.808L79.3138 32.504V38.104H78.1778ZM82.4338 34.072C83.0311 34.072 83.5644 33.9387 84.0338 33.672C84.5031 33.3947 84.8764 33.0107 85.1538 32.52C85.4311 32.0187 85.5698 31.4427 85.5698 30.792C85.5698 30.1413 85.4311 29.5707 85.1538 29.08C84.8764 28.5893 84.5031 28.2053 84.0338 27.928C83.5644 27.6507 83.0311 27.512 82.4338 27.512C81.8364 27.512 81.2978 27.6507 80.8177 27.928C80.3484 28.2053 79.9751 28.5893 79.6978 29.08C79.4311 29.5707 79.2978 30.1413 79.2978 30.792C79.2978 31.4427 79.4311 32.0187 79.6978 32.52C79.9751 33.0107 80.3484 33.3947 80.8177 33.672C81.2978 33.9387 81.8364 34.072 82.4338 34.072ZM93.3575 35.08C92.6322 35.08 91.9762 34.9147 91.3895 34.584C90.8028 34.2427 90.3335 33.7573 89.9815 33.128C89.6402 32.488 89.4695 31.7093 89.4695 30.792C89.4695 29.8747 89.6402 29.1013 89.9815 28.472C90.3228 27.832 90.7868 27.3467 91.3735 27.016C91.9602 26.6853 92.6215 26.52 93.3575 26.52C94.1575 26.52 94.8722 26.7013 95.5015 27.064C96.1415 27.416 96.6428 27.9173 97.0055 28.568C97.3682 29.208 97.5495 29.9493 97.5495 30.792C97.5495 31.6453 97.3682 32.392 97.0055 33.032C96.6428 33.672 96.1415 34.1733 95.5015 34.536C94.8722 34.8987 94.1575 35.08 93.3575 35.08ZM89.0215 38.104V26.6H90.1095V29.128L89.9975 30.808L90.1575 32.504V38.104H89.0215ZM93.2775 34.072C93.8748 34.072 94.4082 33.9387 94.8775 33.672C95.3468 33.3947 95.7202 33.0107 95.9975 32.52C96.2748 32.0187 96.4135 31.4427 96.4135 30.792C96.4135 30.1413 96.2748 29.5707 95.9975 29.08C95.7202 28.5893 95.3468 28.2053 94.8775 27.928C94.4082 27.6507 93.8748 27.512 93.2775 27.512C92.6802 27.512 92.1415 27.6507 91.6615 27.928C91.1922 28.2053 90.8188 28.5893 90.5415 29.08C90.2748 29.5707 90.1415 30.1413 90.1415 30.792C90.1415 31.4427 90.2748 32.0187 90.5415 32.52C90.8188 33.0107 91.1922 33.3947 91.6615 33.672C92.1415 33.9387 92.6802 34.072 93.2775 34.072ZM103.289 35.08C102.479 35.08 101.748 34.8987 101.097 34.536C100.457 34.1627 99.9506 33.656 99.5773 33.016C99.2039 32.3653 99.0173 31.624 99.0173 30.792C99.0173 29.9493 99.2039 29.208 99.5773 28.568C99.9506 27.928 100.457 27.4267 101.097 27.064C101.737 26.7013 102.468 26.52 103.289 26.52C104.121 26.52 104.857 26.7013 105.497 27.064C106.148 27.4267 106.655 27.928 107.017 28.568C107.391 29.208 107.577 29.9493 107.577 30.792C107.577 31.624 107.391 32.3653 107.017 33.016C106.655 33.656 106.148 34.1627 105.497 34.536C104.847 34.8987 104.111 35.08 103.289 35.08ZM103.289 34.072C103.897 34.072 104.436 33.9387 104.905 33.672C105.375 33.3947 105.743 33.0107 106.009 32.52C106.287 32.0187 106.425 31.4427 106.425 30.792C106.425 30.1307 106.287 29.5547 106.009 29.064C105.743 28.5733 105.375 28.1947 104.905 27.928C104.436 27.6507 103.903 27.512 103.305 27.512C102.708 27.512 102.175 27.6507 101.705 27.928C101.236 28.1947 100.863 28.5733 100.585 29.064C100.308 29.5547 100.169 30.1307 100.169 30.792C100.169 31.4427 100.308 32.0187 100.585 32.52C100.863 33.0107 101.236 33.3947 101.705 33.672C102.175 33.9387 102.703 34.072 103.289 34.072ZM109.897 35V26.6H110.985V28.888L110.873 28.488C111.107 27.848 111.502 27.3627 112.057 27.032C112.611 26.6907 113.299 26.52 114.121 26.52V27.624C114.078 27.624 114.035 27.624 113.993 27.624C113.95 27.6133 113.907 27.608 113.865 27.608C112.979 27.608 112.286 27.88 111.785 28.424C111.283 28.9573 111.033 29.72 111.033 30.712V35H109.897ZM119.209 35.08C118.419 35.08 117.811 34.8667 117.385 34.44C116.958 34.0133 116.745 33.4107 116.745 32.632V24.744H117.881V32.568C117.881 33.0587 118.003 33.4373 118.249 33.704C118.505 33.9707 118.867 34.104 119.337 34.104C119.838 34.104 120.254 33.96 120.585 33.672L120.985 34.488C120.761 34.6907 120.489 34.84 120.169 34.936C119.859 35.032 119.539 35.08 119.209 35.08ZM115.241 27.544V26.6H120.441V27.544H115.241Z" fill="#1D1D1D"/>
<g clip-path="url(#clip0_525_1603)">
<g filter="url(#filter0_d_525_1603)">
<path d="M30 19C24.486 19 20 23.486 20 29V33.143C20 34.167 20.897 35 22 35H23C23.2652 35 23.5196 34.8946 23.7071 34.7071C23.8946 34.5196 24 34.2652 24 34V28.857C24 28.5918 23.8946 28.3374 23.7071 28.1499C23.5196 27.9624 23.2652 27.857 23 27.857H22.092C22.648 23.987 25.978 21 30 21C34.022 21 37.352 23.987 37.908 27.857H37C36.7348 27.857 36.4804 27.9624 36.2929 28.1499C36.1054 28.3374 36 28.5918 36 28.857V35C36 36.103 35.103 37 34 37H32V36H28V39H34C36.206 39 38 37.206 38 35C39.103 35 40 34.167 40 33.143V29C40 23.486 35.514 19 30 19Z" fill="#20CF91"/>
</g>
</g>
<defs>
<filter id="filter0_d_525_1603" x="10" y="14" width="40" height="40" filterUnits="userSpaceOnUse" color-interpolation-filters="sRGB">
<feFlood flood-opacity="0" result="BackgroundImageFix"/>
<feColorMatrix in="SourceAlpha" type="matrix" values="0 0 0 0 0 0 0 0 0 0 0 0 0 0 0 0 0 0 127 0" result="hardAlpha"/>
<feOffset dy="5"/>
<feGaussianBlur stdDeviation="5"/>
<feComposite in2="hardAlpha" operator="out"/>
<feColorMatrix type="matrix" values="0 0 0 0 0.12549 0 0 0 0 0.811765 0 0 0 0 0.568627 0 0 0 0.1 0"/>
<feBlend mode="normal" in2="BackgroundImageFix" result="effect1_dropShadow_525_1603"/>
<feBlend mode="normal" in="SourceGraphic" in2="effect1_dropShadow_525_1603" result="shape"/>
</filter>
<clipPath id="clip0_525_1603">
<rect width="24" height="24" fill="white" transform="translate(18 17)"/>
</clipPath>
</defs>
</svg>
