<svg width="76" height="91" viewBox="0 0 76 91" fill="none" xmlns="http://www.w3.org/2000/svg">
<g filter="url(#filter0_d_542_1507)">
<circle cx="38" cy="34" r="30" fill="white"/>
</g>
<g clip-path="url(#clip0_542_1507)">
<g filter="url(#filter1_d_542_1507)">
<path d="M47.5 22.6074C48.389 22.6074 49.1071 23.3271 49.1071 24.2146C49.1071 25.102 48.389 25.8217 47.5 25.8217H29.0179C28.5739 25.8217 28.2143 26.1833 28.2143 26.6253C28.2143 27.0672 28.5739 27.4289 29.0179 27.4289H47.5C49.2729 27.4289 50.7143 28.8703 50.7143 30.6431V41.8931C50.7143 43.666 49.2729 45.1074 47.5 45.1074H28.2143C26.4389 45.1074 25 43.666 25 41.8931V25.8217C25 24.0463 26.4389 22.6074 28.2143 22.6074H47.5ZM45.8929 37.8753C46.7818 37.8753 47.5 37.1571 47.5 36.2681C47.5 35.3792 46.7818 34.661 45.8929 34.661C45.0039 34.661 44.2857 35.3792 44.2857 36.2681C44.2857 37.1571 45.0039 37.8753 45.8929 37.8753Z" fill="#204ECF"/>
</g>
</g>
<path d="M16.304 88H18.124V79.74H21.372V78.2H13.056V79.74H16.304V88ZM25.1643 88.098C27.4883 88.098 29.1543 86.502 29.1543 84.262C29.1543 82.022 27.4883 80.44 25.1643 80.44C22.8683 80.44 21.1883 82.022 21.1883 84.262C21.1883 86.502 22.8683 88.098 25.1643 88.098ZM25.1643 86.6C23.9043 86.6 22.9523 85.69 22.9523 84.262C22.9523 82.834 23.9043 81.924 25.1643 81.924C26.4383 81.924 27.3903 82.834 27.3903 84.262C27.3903 85.69 26.4383 86.6 25.1643 86.6ZM34.9717 80.44C33.9497 80.44 33.0817 80.79 32.4937 81.504V80.524H30.8277V90.716H32.5777V87.09C33.1797 87.776 34.0197 88.098 34.9717 88.098C37.1557 88.098 38.7657 86.586 38.7657 84.262C38.7657 81.952 37.1557 80.44 34.9717 80.44ZM34.7757 86.6C33.5157 86.6 32.5497 85.69 32.5497 84.262C32.5497 82.834 33.5157 81.924 34.7757 81.924C36.0357 81.924 36.9877 82.834 36.9877 84.262C36.9877 85.69 36.0357 86.6 34.7757 86.6ZM45.9133 80.524V84.304C45.9133 85.802 45.0873 86.558 43.8693 86.558C42.7633 86.558 42.1193 85.914 42.1193 84.556V80.524H40.3693V84.794C40.3693 87.048 41.6713 88.098 43.5893 88.098C44.5553 88.098 45.4373 87.734 45.9973 87.048V88H47.6633V80.524H45.9133ZM54.0986 80.44C53.0766 80.44 52.2086 80.79 51.6206 81.504V80.524H49.9546V90.716H51.7046V87.09C52.3066 87.776 53.1466 88.098 54.0986 88.098C56.2826 88.098 57.8926 86.586 57.8926 84.262C57.8926 81.952 56.2826 80.44 54.0986 80.44ZM53.9026 86.6C52.6426 86.6 51.6766 85.69 51.6766 84.262C51.6766 82.834 52.6426 81.924 53.9026 81.924C55.1626 81.924 56.1146 82.834 56.1146 84.262C56.1146 85.69 55.1626 86.6 53.9026 86.6Z" fill="#1D1D1D"/>
<defs>
<filter id="filter0_d_542_1507" x="0" y="0" width="76" height="76" filterUnits="userSpaceOnUse" color-interpolation-filters="sRGB">
<feFlood flood-opacity="0" result="BackgroundImageFix"/>
<feColorMatrix in="SourceAlpha" type="matrix" values="0 0 0 0 0 0 0 0 0 0 0 0 0 0 0 0 0 0 127 0" result="hardAlpha"/>
<feOffset dy="4"/>
<feGaussianBlur stdDeviation="4"/>
<feComposite in2="hardAlpha" operator="out"/>
<feColorMatrix type="matrix" values="0 0 0 0 0 0 0 0 0 0 0 0 0 0 0 0 0 0 0.05 0"/>
<feBlend mode="normal" in2="BackgroundImageFix" result="effect1_dropShadow_542_1507"/>
<feBlend mode="normal" in="SourceGraphic" in2="effect1_dropShadow_542_1507" result="shape"/>
</filter>
<filter id="filter1_d_542_1507" x="17" y="18.6074" width="41.7143" height="38.5" filterUnits="userSpaceOnUse" color-interpolation-filters="sRGB">
<feFlood flood-opacity="0" result="BackgroundImageFix"/>
<feColorMatrix in="SourceAlpha" type="matrix" values="0 0 0 0 0 0 0 0 0 0 0 0 0 0 0 0 0 0 127 0" result="hardAlpha"/>
<feOffset dy="4"/>
<feGaussianBlur stdDeviation="4"/>
<feComposite in2="hardAlpha" operator="out"/>
<feColorMatrix type="matrix" values="0 0 0 0 0.12549 0 0 0 0 0.305882 0 0 0 0 0.811765 0 0 0 0.1 0"/>
<feBlend mode="normal" in2="BackgroundImageFix" result="effect1_dropShadow_542_1507"/>
<feBlend mode="normal" in="SourceGraphic" in2="effect1_dropShadow_542_1507" result="shape"/>
</filter>
<clipPath id="clip0_542_1507">
<rect width="25.7143" height="25.7143" fill="white" transform="translate(25 21)"/>
</clipPath>
</defs>
</svg>
