<svg width="335" height="60" viewBox="0 0 335 60" fill="none" xmlns="http://www.w3.org/2000/svg">
<rect width="335" height="60" rx="5" fill="white"/>
<rect x="0.5" y="0.5" width="334" height="59" rx="4.5" stroke="#D4D3D3" stroke-opacity="0.4"/>
<path d="M60 36V25.824H56.064V24.8H65.12V25.824H61.184V36H60ZM66.5528 36V27.6H67.6408V29.888L67.5288 29.488C67.7634 28.848 68.1581 28.3627 68.7128 28.032C69.2674 27.6907 69.9554 27.52 70.7768 27.52V28.624C70.7341 28.624 70.6914 28.624 70.6488 28.624C70.6061 28.6133 70.5634 28.608 70.5208 28.608C69.6354 28.608 68.9421 28.88 68.4408 29.424C67.9394 29.9573 67.6888 30.72 67.6888 31.712V36H66.5528ZM77.4886 36V34.144L77.4406 33.84V30.736C77.4406 30.0213 77.238 29.472 76.8326 29.088C76.438 28.704 75.846 28.512 75.0566 28.512C74.5126 28.512 73.9953 28.6027 73.5046 28.784C73.014 28.9653 72.598 29.2053 72.2566 29.504L71.7446 28.656C72.1713 28.2933 72.6833 28.016 73.2806 27.824C73.878 27.6213 74.5073 27.52 75.1686 27.52C76.2566 27.52 77.094 27.792 77.6806 28.336C78.278 28.8693 78.5766 29.6853 78.5766 30.784V36H77.4886ZM74.5926 36.08C73.9633 36.08 73.414 35.9787 72.9446 35.776C72.486 35.5627 72.134 35.2747 71.8886 34.912C71.6433 34.5387 71.5206 34.112 71.5206 33.632C71.5206 33.1947 71.622 32.8 71.8246 32.448C72.038 32.0853 72.3793 31.7973 72.8486 31.584C73.3286 31.36 73.9686 31.248 74.7686 31.248H77.6646V32.096H74.8006C73.99 32.096 73.4246 32.24 73.1046 32.528C72.7953 32.816 72.6406 33.1733 72.6406 33.6C72.6406 34.08 72.8273 34.464 73.2006 34.752C73.574 35.04 74.0966 35.184 74.7686 35.184C75.4086 35.184 75.958 35.04 76.4166 34.752C76.886 34.4533 77.2273 34.0267 77.4406 33.472L77.6966 34.256C77.4833 34.8107 77.11 35.2533 76.5766 35.584C76.054 35.9147 75.3926 36.08 74.5926 36.08ZM81.6621 36V27.6H82.7981V36H81.6621ZM82.2381 25.744C82.0035 25.744 81.8061 25.664 81.6461 25.504C81.4861 25.344 81.4061 25.152 81.4061 24.928C81.4061 24.704 81.4861 24.5173 81.6461 24.368C81.8061 24.208 82.0035 24.128 82.2381 24.128C82.4728 24.128 82.6701 24.2027 82.8301 24.352C82.9901 24.5013 83.0701 24.688 83.0701 24.912C83.0701 25.1467 82.9901 25.344 82.8301 25.504C82.6808 25.664 82.4835 25.744 82.2381 25.744ZM90.247 27.52C90.9297 27.52 91.527 27.6533 92.039 27.92C92.5617 28.176 92.967 28.5707 93.255 29.104C93.5537 29.6373 93.703 30.3093 93.703 31.12V36H92.567V31.232C92.567 30.3467 92.343 29.68 91.895 29.232C91.4577 28.7733 90.839 28.544 90.039 28.544C89.4417 28.544 88.919 28.6667 88.471 28.912C88.0337 29.1467 87.6923 29.4933 87.447 29.952C87.2123 30.4 87.095 30.944 87.095 31.584V36H85.959V27.6H87.047V29.904L86.871 29.472C87.1377 28.864 87.5643 28.3893 88.151 28.048C88.7377 27.696 89.4363 27.52 90.247 27.52ZM96.7715 36V27.6H97.9075V36H96.7715ZM97.3475 25.744C97.1128 25.744 96.9155 25.664 96.7555 25.504C96.5955 25.344 96.5155 25.152 96.5155 24.928C96.5155 24.704 96.5955 24.5173 96.7555 24.368C96.9155 24.208 97.1128 24.128 97.3475 24.128C97.5822 24.128 97.7795 24.2027 97.9395 24.352C98.0995 24.5013 98.1795 24.688 98.1795 24.912C98.1795 25.1467 98.0995 25.344 97.9395 25.504C97.7902 25.664 97.5928 25.744 97.3475 25.744ZM105.356 27.52C106.039 27.52 106.636 27.6533 107.148 27.92C107.671 28.176 108.076 28.5707 108.364 29.104C108.663 29.6373 108.812 30.3093 108.812 31.12V36H107.676V31.232C107.676 30.3467 107.452 29.68 107.004 29.232C106.567 28.7733 105.948 28.544 105.148 28.544C104.551 28.544 104.028 28.6667 103.58 28.912C103.143 29.1467 102.802 29.4933 102.556 29.952C102.322 30.4 102.204 30.944 102.204 31.584V36H101.068V27.6H102.156V29.904L101.98 29.472C102.247 28.864 102.674 28.3893 103.26 28.048C103.847 27.696 104.546 27.52 105.356 27.52ZM115.465 39.184C114.697 39.184 113.961 39.072 113.257 38.848C112.553 38.624 111.982 38.304 111.545 37.888L112.121 37.024C112.516 37.376 113.001 37.6533 113.577 37.856C114.164 38.0693 114.782 38.176 115.433 38.176C116.5 38.176 117.284 37.9253 117.785 37.424C118.286 36.9333 118.537 36.1653 118.537 35.12V33.024L118.697 31.584L118.585 30.144V27.6H119.673V34.976C119.673 36.4267 119.316 37.488 118.601 38.16C117.897 38.8427 116.852 39.184 115.465 39.184ZM115.257 35.68C114.457 35.68 113.737 35.5093 113.097 35.168C112.457 34.816 111.95 34.3307 111.577 33.712C111.214 33.0933 111.033 32.384 111.033 31.584C111.033 30.784 111.214 30.08 111.577 29.472C111.95 28.8533 112.457 28.3733 113.097 28.032C113.737 27.6907 114.457 27.52 115.257 27.52C116.004 27.52 116.676 27.6747 117.273 27.984C117.87 28.2933 118.345 28.752 118.697 29.36C119.049 29.968 119.225 30.7093 119.225 31.584C119.225 32.4587 119.049 33.2 118.697 33.808C118.345 34.416 117.87 34.88 117.273 35.2C116.676 35.52 116.004 35.68 115.257 35.68ZM115.369 34.672C115.988 34.672 116.537 34.544 117.017 34.288C117.497 34.0213 117.876 33.6587 118.153 33.2C118.43 32.7307 118.569 32.192 118.569 31.584C118.569 30.976 118.43 30.4427 118.153 29.984C117.876 29.5253 117.497 29.168 117.017 28.912C116.537 28.6453 115.988 28.512 115.369 28.512C114.761 28.512 114.212 28.6453 113.721 28.912C113.241 29.168 112.862 29.5253 112.585 29.984C112.318 30.4427 112.185 30.976 112.185 31.584C112.185 32.192 112.318 32.7307 112.585 33.2C112.862 33.6587 113.241 34.0213 113.721 34.288C114.212 34.544 114.761 34.672 115.369 34.672ZM125.09 36.08C124.397 36.08 123.741 35.984 123.122 35.792C122.503 35.5893 122.018 35.3387 121.666 35.04L122.178 34.144C122.519 34.4 122.957 34.624 123.49 34.816C124.023 34.9973 124.583 35.088 125.17 35.088C125.97 35.088 126.546 34.9653 126.898 34.72C127.25 34.464 127.426 34.128 127.426 33.712C127.426 33.4027 127.325 33.1627 127.122 32.992C126.93 32.8107 126.674 32.6773 126.354 32.592C126.034 32.496 125.677 32.416 125.282 32.352C124.887 32.288 124.493 32.2133 124.098 32.128C123.714 32.0427 123.362 31.92 123.042 31.76C122.722 31.5893 122.461 31.36 122.258 31.072C122.066 30.784 121.97 30.4 121.97 29.92C121.97 29.4613 122.098 29.0507 122.354 28.688C122.61 28.3253 122.983 28.0427 123.474 27.84C123.975 27.6267 124.583 27.52 125.298 27.52C125.842 27.52 126.386 27.5947 126.93 27.744C127.474 27.8827 127.922 28.0693 128.274 28.304L127.778 29.216C127.405 28.96 127.005 28.7787 126.578 28.672C126.151 28.5547 125.725 28.496 125.298 28.496C124.541 28.496 123.981 28.6293 123.618 28.896C123.266 29.152 123.09 29.4827 123.09 29.888C123.09 30.208 123.186 30.4587 123.378 30.64C123.581 30.8213 123.842 30.9653 124.162 31.072C124.493 31.168 124.85 31.248 125.234 31.312C125.629 31.376 126.018 31.456 126.402 31.552C126.797 31.6373 127.154 31.76 127.474 31.92C127.805 32.0693 128.066 32.288 128.258 32.576C128.461 32.8533 128.562 33.2213 128.562 33.68C128.562 34.1707 128.423 34.5973 128.146 34.96C127.879 35.312 127.485 35.5893 126.962 35.792C126.45 35.984 125.826 36.08 125.09 36.08ZM137.794 36.096C137.069 36.096 136.423 35.9787 135.858 35.744C135.293 35.4987 134.845 35.1627 134.514 34.736C134.194 34.3093 134.034 33.8133 134.034 33.248C134.034 32.768 134.141 32.3307 134.354 31.936C134.567 31.5307 134.909 31.136 135.378 30.752C135.858 30.3573 136.493 29.9467 137.282 29.52C137.954 29.1467 138.477 28.8267 138.85 28.56C139.234 28.2827 139.506 28.0213 139.666 27.776C139.826 27.52 139.906 27.248 139.906 26.96C139.906 26.544 139.762 26.208 139.474 25.952C139.197 25.696 138.797 25.568 138.274 25.568C137.709 25.568 137.271 25.712 136.962 26C136.653 26.2773 136.498 26.64 136.498 27.088C136.498 27.312 136.53 27.5253 136.594 27.728C136.669 27.9307 136.802 28.1547 136.994 28.4C137.197 28.6453 137.474 28.9547 137.826 29.328L143.746 35.424L143.09 36.176L136.914 29.824C136.541 29.4293 136.242 29.088 136.018 28.8C135.805 28.5013 135.655 28.2187 135.57 27.952C135.485 27.6853 135.442 27.4027 135.442 27.104C135.442 26.624 135.554 26.208 135.778 25.856C136.013 25.4933 136.343 25.216 136.77 25.024C137.197 24.8213 137.698 24.72 138.274 24.72C138.797 24.72 139.25 24.8107 139.634 24.992C140.029 25.1627 140.333 25.4133 140.546 25.744C140.77 26.0747 140.882 26.4747 140.882 26.944C140.882 27.3493 140.781 27.728 140.578 28.08C140.386 28.432 140.066 28.7787 139.618 29.12C139.17 29.4507 138.562 29.824 137.794 30.24C137.122 30.6133 136.589 30.9547 136.194 31.264C135.81 31.5733 135.538 31.8773 135.378 32.176C135.218 32.464 135.138 32.784 135.138 33.136C135.138 33.5413 135.25 33.8987 135.474 34.208C135.709 34.5067 136.029 34.7413 136.434 34.912C136.85 35.072 137.325 35.152 137.858 35.152C138.605 35.152 139.271 34.9973 139.858 34.688C140.445 34.3787 140.935 33.9093 141.33 33.28C141.735 32.6507 142.029 31.8613 142.21 30.912L143.122 31.2C142.919 32.2667 142.573 33.1627 142.082 33.888C141.591 34.6133 140.983 35.1627 140.258 35.536C139.533 35.9093 138.711 36.096 137.794 36.096ZM154.829 36.096C153.986 36.096 153.207 35.9573 152.493 35.68C151.778 35.392 151.159 34.992 150.637 34.48C150.114 33.968 149.703 33.3653 149.405 32.672C149.117 31.9787 148.973 31.2213 148.973 30.4C148.973 29.5787 149.117 28.8213 149.405 28.128C149.703 27.4347 150.114 26.832 150.637 26.32C151.17 25.808 151.794 25.4133 152.509 25.136C153.223 24.848 154.002 24.704 154.845 24.704C155.655 24.704 156.418 24.8427 157.133 25.12C157.847 25.3867 158.45 25.792 158.941 26.336L158.189 27.088C157.73 26.6187 157.223 26.2827 156.669 26.08C156.114 25.8667 155.517 25.76 154.877 25.76C154.205 25.76 153.581 25.8773 153.005 26.112C152.429 26.336 151.927 26.6613 151.501 27.088C151.074 27.504 150.738 27.9947 150.493 28.56C150.258 29.1147 150.141 29.728 150.141 30.4C150.141 31.072 150.258 31.6907 150.493 32.256C150.738 32.8107 151.074 33.3013 151.501 33.728C151.927 34.144 152.429 34.4693 153.005 34.704C153.581 34.928 154.205 35.04 154.877 35.04C155.517 35.04 156.114 34.9333 156.669 34.72C157.223 34.5067 157.73 34.1653 158.189 33.696L158.941 34.448C158.45 34.992 157.847 35.4027 157.133 35.68C156.418 35.9573 155.65 36.096 154.829 36.096ZM164.418 36.08C163.543 36.08 162.775 35.8987 162.114 35.536C161.452 35.1627 160.935 34.656 160.562 34.016C160.188 33.3653 160.002 32.624 160.002 31.792C160.002 30.96 160.178 30.224 160.53 29.584C160.892 28.944 161.383 28.4427 162.002 28.08C162.631 27.7067 163.335 27.52 164.114 27.52C164.903 27.52 165.602 27.7013 166.21 28.064C166.828 28.416 167.314 28.9173 167.666 29.568C168.018 30.208 168.194 30.9493 168.194 31.792C168.194 31.8453 168.188 31.904 168.178 31.968C168.178 32.0213 168.178 32.08 168.178 32.144H160.866V31.296H167.57L167.122 31.632C167.122 31.024 166.988 30.4853 166.722 30.016C166.466 29.536 166.114 29.1627 165.666 28.896C165.218 28.6293 164.7 28.496 164.114 28.496C163.538 28.496 163.02 28.6293 162.562 28.896C162.103 29.1627 161.746 29.536 161.49 30.016C161.234 30.496 161.106 31.0453 161.106 31.664V31.84C161.106 32.48 161.244 33.0453 161.522 33.536C161.81 34.016 162.204 34.3947 162.706 34.672C163.218 34.9387 163.799 35.072 164.45 35.072C164.962 35.072 165.436 34.9813 165.874 34.8C166.322 34.6187 166.706 34.3413 167.026 33.968L167.666 34.704C167.292 35.152 166.823 35.4933 166.258 35.728C165.703 35.9627 165.09 36.08 164.418 36.08ZM170.506 36V27.6H171.594V29.888L171.482 29.488C171.717 28.848 172.111 28.3627 172.666 28.032C173.221 27.6907 173.909 27.52 174.73 27.52V28.624C174.687 28.624 174.645 28.624 174.602 28.624C174.559 28.6133 174.517 28.608 174.474 28.608C173.589 28.608 172.895 28.88 172.394 29.424C171.893 29.9573 171.642 30.72 171.642 31.712V36H170.506ZM179.818 36.08C179.029 36.08 178.421 35.8667 177.994 35.44C177.567 35.0133 177.354 34.4107 177.354 33.632V25.744H178.49V33.568C178.49 34.0587 178.613 34.4373 178.858 34.704C179.114 34.9707 179.477 35.104 179.946 35.104C180.447 35.104 180.863 34.96 181.194 34.672L181.594 35.488C181.37 35.6907 181.098 35.84 180.778 35.936C180.469 36.032 180.149 36.08 179.818 36.08ZM175.85 28.544V27.6H181.05V28.544H175.85ZM183.662 36V27.6H184.798V36H183.662ZM184.238 25.744C184.003 25.744 183.806 25.664 183.646 25.504C183.486 25.344 183.406 25.152 183.406 24.928C183.406 24.704 183.486 24.5173 183.646 24.368C183.806 24.208 184.003 24.128 184.238 24.128C184.473 24.128 184.67 24.2027 184.83 24.352C184.99 24.5013 185.07 24.688 185.07 24.912C185.07 25.1467 184.99 25.344 184.83 25.504C184.681 25.664 184.483 25.744 184.238 25.744ZM188.151 36V26.544C188.151 25.7973 188.37 25.1947 188.807 24.736C189.244 24.2773 189.874 24.048 190.695 24.048C191.015 24.048 191.324 24.0907 191.623 24.176C191.922 24.2613 192.172 24.3947 192.375 24.576L191.991 25.424C191.831 25.2853 191.644 25.184 191.431 25.12C191.218 25.0453 190.988 25.008 190.743 25.008C190.263 25.008 189.895 25.1413 189.639 25.408C189.383 25.6747 189.255 26.0693 189.255 26.592V27.872L189.287 28.4V36H188.151ZM186.647 28.544V27.6H191.847V28.544H186.647ZM193.383 36V27.6H194.519V36H193.383ZM193.959 25.744C193.724 25.744 193.527 25.664 193.367 25.504C193.207 25.344 193.127 25.152 193.127 24.928C193.127 24.704 193.207 24.5173 193.367 24.368C193.527 24.208 193.724 24.128 193.959 24.128C194.194 24.128 194.391 24.2027 194.551 24.352C194.711 24.5013 194.791 24.688 194.791 24.912C194.791 25.1467 194.711 25.344 194.551 25.504C194.402 25.664 194.204 25.744 193.959 25.744ZM201.197 36.08C200.365 36.08 199.618 35.8987 198.957 35.536C198.306 35.1627 197.794 34.656 197.421 34.016C197.048 33.3653 196.861 32.624 196.861 31.792C196.861 30.9493 197.048 30.208 197.421 29.568C197.794 28.928 198.306 28.4267 198.957 28.064C199.618 27.7013 200.365 27.52 201.197 27.52C201.912 27.52 202.557 27.6587 203.133 27.936C203.709 28.2133 204.162 28.6293 204.493 29.184L203.645 29.76C203.357 29.3333 203 29.0187 202.573 28.816C202.146 28.6133 201.682 28.512 201.181 28.512C200.584 28.512 200.045 28.6507 199.565 28.928C199.085 29.1947 198.706 29.5733 198.429 30.064C198.152 30.5547 198.013 31.1307 198.013 31.792C198.013 32.4533 198.152 33.0293 198.429 33.52C198.706 34.0107 199.085 34.3947 199.565 34.672C200.045 34.9387 200.584 35.072 201.181 35.072C201.682 35.072 202.146 34.9707 202.573 34.768C203 34.5653 203.357 34.256 203.645 33.84L204.493 34.416C204.162 34.96 203.709 35.376 203.133 35.664C202.557 35.9413 201.912 36.08 201.197 36.08ZM211.989 36V34.144L211.941 33.84V30.736C211.941 30.0213 211.738 29.472 211.333 29.088C210.938 28.704 210.346 28.512 209.557 28.512C209.013 28.512 208.495 28.6027 208.005 28.784C207.514 28.9653 207.098 29.2053 206.757 29.504L206.245 28.656C206.671 28.2933 207.183 28.016 207.781 27.824C208.378 27.6213 209.007 27.52 209.669 27.52C210.757 27.52 211.594 27.792 212.181 28.336C212.778 28.8693 213.077 29.6853 213.077 30.784V36H211.989ZM209.093 36.08C208.463 36.08 207.914 35.9787 207.445 35.776C206.986 35.5627 206.634 35.2747 206.389 34.912C206.143 34.5387 206.021 34.112 206.021 33.632C206.021 33.1947 206.122 32.8 206.325 32.448C206.538 32.0853 206.879 31.7973 207.349 31.584C207.829 31.36 208.469 31.248 209.269 31.248H212.165V32.096H209.301C208.49 32.096 207.925 32.24 207.605 32.528C207.295 32.816 207.141 33.1733 207.141 33.6C207.141 34.08 207.327 34.464 207.701 34.752C208.074 35.04 208.597 35.184 209.269 35.184C209.909 35.184 210.458 35.04 210.917 34.752C211.386 34.4533 211.727 34.0267 211.941 33.472L212.197 34.256C211.983 34.8107 211.61 35.2533 211.077 35.584C210.554 35.9147 209.893 36.08 209.093 36.08ZM218.818 36.08C218.029 36.08 217.421 35.8667 216.994 35.44C216.567 35.0133 216.354 34.4107 216.354 33.632V25.744H217.49V33.568C217.49 34.0587 217.613 34.4373 217.858 34.704C218.114 34.9707 218.477 35.104 218.946 35.104C219.447 35.104 219.863 34.96 220.194 34.672L220.594 35.488C220.37 35.6907 220.098 35.84 219.778 35.936C219.469 36.032 219.149 36.08 218.818 36.08ZM214.85 28.544V27.6H220.05V28.544H214.85ZM222.662 36V27.6H223.798V36H222.662ZM223.238 25.744C223.003 25.744 222.806 25.664 222.646 25.504C222.486 25.344 222.406 25.152 222.406 24.928C222.406 24.704 222.486 24.5173 222.646 24.368C222.806 24.208 223.003 24.128 223.238 24.128C223.473 24.128 223.67 24.2027 223.83 24.352C223.99 24.5013 224.07 24.688 224.07 24.912C224.07 25.1467 223.99 25.344 223.83 25.504C223.681 25.664 223.483 25.744 223.238 25.744ZM230.383 36.08C229.572 36.08 228.842 35.8987 228.191 35.536C227.551 35.1627 227.044 34.656 226.671 34.016C226.298 33.3653 226.111 32.624 226.111 31.792C226.111 30.9493 226.298 30.208 226.671 29.568C227.044 28.928 227.551 28.4267 228.191 28.064C228.831 27.7013 229.562 27.52 230.383 27.52C231.215 27.52 231.951 27.7013 232.591 28.064C233.242 28.4267 233.748 28.928 234.111 29.568C234.484 30.208 234.671 30.9493 234.671 31.792C234.671 32.624 234.484 33.3653 234.111 34.016C233.748 34.656 233.242 35.1627 232.591 35.536C231.94 35.8987 231.204 36.08 230.383 36.08ZM230.383 35.072C230.991 35.072 231.53 34.9387 231.999 34.672C232.468 34.3947 232.836 34.0107 233.103 33.52C233.38 33.0187 233.519 32.4427 233.519 31.792C233.519 31.1307 233.38 30.5547 233.103 30.064C232.836 29.5733 232.468 29.1947 231.999 28.928C231.53 28.6507 230.996 28.512 230.399 28.512C229.802 28.512 229.268 28.6507 228.799 28.928C228.33 29.1947 227.956 29.5733 227.679 30.064C227.402 30.5547 227.263 31.1307 227.263 31.792C227.263 32.4427 227.402 33.0187 227.679 33.52C227.956 34.0107 228.33 34.3947 228.799 34.672C229.268 34.9387 229.796 35.072 230.383 35.072ZM241.278 27.52C241.961 27.52 242.558 27.6533 243.07 27.92C243.593 28.176 243.998 28.5707 244.286 29.104C244.585 29.6373 244.734 30.3093 244.734 31.12V36H243.598V31.232C243.598 30.3467 243.374 29.68 242.926 29.232C242.489 28.7733 241.87 28.544 241.07 28.544C240.473 28.544 239.95 28.6667 239.502 28.912C239.065 29.1467 238.724 29.4933 238.478 29.952C238.244 30.4 238.126 30.944 238.126 31.584V36H236.99V27.6H238.078V29.904L237.902 29.472C238.169 28.864 238.596 28.3893 239.182 28.048C239.769 27.696 240.468 27.52 241.278 27.52ZM250.059 36.08C249.365 36.08 248.709 35.984 248.091 35.792C247.472 35.5893 246.987 35.3387 246.635 35.04L247.147 34.144C247.488 34.4 247.925 34.624 248.459 34.816C248.992 34.9973 249.552 35.088 250.139 35.088C250.939 35.088 251.515 34.9653 251.867 34.72C252.219 34.464 252.395 34.128 252.395 33.712C252.395 33.4027 252.293 33.1627 252.091 32.992C251.899 32.8107 251.643 32.6773 251.323 32.592C251.003 32.496 250.645 32.416 250.251 32.352C249.856 32.288 249.461 32.2133 249.067 32.128C248.683 32.0427 248.331 31.92 248.011 31.76C247.691 31.5893 247.429 31.36 247.227 31.072C247.035 30.784 246.939 30.4 246.939 29.92C246.939 29.4613 247.067 29.0507 247.323 28.688C247.579 28.3253 247.952 28.0427 248.443 27.84C248.944 27.6267 249.552 27.52 250.267 27.52C250.811 27.52 251.355 27.5947 251.899 27.744C252.443 27.8827 252.891 28.0693 253.243 28.304L252.747 29.216C252.373 28.96 251.973 28.7787 251.547 28.672C251.12 28.5547 250.693 28.496 250.267 28.496C249.509 28.496 248.949 28.6293 248.587 28.896C248.235 29.152 248.059 29.4827 248.059 29.888C248.059 30.208 248.155 30.4587 248.347 30.64C248.549 30.8213 248.811 30.9653 249.131 31.072C249.461 31.168 249.819 31.248 250.203 31.312C250.597 31.376 250.987 31.456 251.371 31.552C251.765 31.6373 252.123 31.76 252.443 31.92C252.773 32.0693 253.035 32.288 253.227 32.576C253.429 32.8533 253.531 33.2213 253.531 33.68C253.531 34.1707 253.392 34.5973 253.115 34.96C252.848 35.312 252.453 35.5893 251.931 35.792C251.419 35.984 250.795 36.08 250.059 36.08Z" fill="#1D1D1D"/>
<g clip-path="url(#clip0_525_1597)">
<g filter="url(#filter0_d_525_1597)">
<path d="M19.2176 31.8893C19.2541 32.0269 19.3174 32.1559 19.4041 32.2688C19.4908 32.3816 19.599 32.4762 19.7225 32.5469L21.7906 33.7429V36.1252C21.7906 36.4125 21.9047 36.688 22.1079 36.8912C22.311 37.0944 22.5866 37.2085 22.8739 37.2085H25.2561L26.4521 39.2777C26.5962 39.526 26.8328 39.7072 27.1102 39.7815C27.3875 39.8558 27.683 39.8172 27.932 39.6742L30.0001 38.4792L32.0692 39.6752C32.3182 39.8183 32.6137 39.8569 32.891 39.7826C33.1684 39.7083 33.405 39.5271 33.5491 39.2787L34.744 37.2107H37.1262C37.4135 37.2107 37.6891 37.0965 37.8923 36.8934C38.0954 36.6902 38.2096 36.4146 38.2096 36.1273V33.7451L40.2776 32.5491C40.4009 32.478 40.509 32.3834 40.5957 32.2705C40.6824 32.1577 40.746 32.0288 40.7828 31.8914C40.8196 31.7539 40.829 31.6106 40.8103 31.4695C40.7917 31.3284 40.7454 31.1924 40.6741 31.0692L39.4792 29.0001L40.6752 26.932C40.8189 26.6832 40.8578 26.3875 40.7834 26.11C40.7091 25.8324 40.5275 25.5958 40.2787 25.4522L38.2106 24.2562V21.8739C38.2106 21.5866 38.0965 21.311 37.8933 21.1079C37.6902 20.9047 37.4146 20.7906 37.1273 20.7906H34.7451L33.5501 18.7225C33.4062 18.474 33.1698 18.2925 32.8926 18.2177C32.7551 18.1805 32.6117 18.1709 32.4706 18.1895C32.3294 18.2081 32.1934 18.2545 32.0703 18.326L30.0001 19.5209L27.932 18.3249C27.8089 18.2535 27.6729 18.207 27.5319 18.1882C27.3908 18.1694 27.2474 18.1786 27.11 18.2154C26.9725 18.2521 26.8436 18.3156 26.7307 18.4023C26.6178 18.4889 26.5232 18.597 26.4521 18.7203L25.2561 20.7895H22.8739C22.5866 20.7895 22.311 20.9036 22.1079 21.1068C21.9047 21.31 21.7906 21.5855 21.7906 21.8728V24.2551L19.7225 25.4522C19.4741 25.5962 19.2929 25.8329 19.2188 26.1103C19.1447 26.3877 19.1836 26.6832 19.3271 26.932L20.522 29.0001L19.326 31.0682C19.1829 31.3168 19.1439 31.612 19.2176 31.8893Z" fill="#20CF91"/>
</g>
</g>
<defs>
<filter id="filter0_d_525_1597" x="9.18115" y="13.1787" width="41.6392" height="41.6406" filterUnits="userSpaceOnUse" color-interpolation-filters="sRGB">
<feFlood flood-opacity="0" result="BackgroundImageFix"/>
<feColorMatrix in="SourceAlpha" type="matrix" values="0 0 0 0 0 0 0 0 0 0 0 0 0 0 0 0 0 0 127 0" result="hardAlpha"/>
<feOffset dy="5"/>
<feGaussianBlur stdDeviation="5"/>
<feComposite in2="hardAlpha" operator="out"/>
<feColorMatrix type="matrix" values="0 0 0 0 0.992157 0 0 0 0 0.611765 0 0 0 0 0.109804 0 0 0 0.05 0"/>
<feBlend mode="normal" in2="BackgroundImageFix" result="effect1_dropShadow_525_1597"/>
<feBlend mode="normal" in="SourceGraphic" in2="effect1_dropShadow_525_1597" result="shape"/>
</filter>
<clipPath id="clip0_525_1597">
<rect width="26" height="26" fill="white" transform="translate(17 16)"/>
</clipPath>
</defs>
</svg>
